<svg width="38" height="37" viewBox="0 0 38 37" fill="none" xmlns="http://www.w3.org/2000/svg">
<path d="M0 12.0208V24.5208H8.33333L18.75 34.9375V1.60417L8.33333 12.0208H0ZM14.5833 11.6667V24.875L10.0625 20.3542H4.16667V16.1875H10.0625L14.5833 11.6667ZM28.125 18.2708C28.125 14.5833 26 11.4167 22.9167 9.875V26.6458C26 25.125 28.125 21.9583 28.125 18.2708ZM22.9167 0V4.29167C28.9375 6.08333 33.3333 11.6667 33.3333 18.2708C33.3333 24.875 28.9375 30.4583 22.9167 32.25V36.5417C31.2708 34.6458 37.5 27.1875 37.5 18.2708C37.5 9.35417 31.2708 1.89583 22.9167 0Z" fill="#969696"/>
</svg>
