<svg width="32" height="23" viewBox="0 0 32 23" fill="none" xmlns="http://www.w3.org/2000/svg">
<g clip-path="url(#clip0_1021_553)">
<path d="M30.9661 11.0387C30.1103 6.62756 28.7266 4.12029 27.5133 2.711C26.4179 1.42982 25.4635 1.0634 25.2328 0.989092C24.5596 0.661985 23.8186 0.498678 23.0702 0.512493C22.3039 0.52889 21.5415 0.627247 20.7961 0.805883C20.0633 0.967312 19.3612 1.15564 18.7462 1.27992C16.7297 1.68221 15.3242 1.69246 13.2666 1.27992C12.644 1.1518 11.9432 0.967312 11.2091 0.805883C10.4616 0.626628 9.69705 0.528266 8.92856 0.512493C8.18101 0.496994 7.4404 0.658551 6.76721 0.983967C6.53404 1.05828 5.58212 1.42726 4.48415 2.70587C3.27088 4.11517 1.88592 6.62628 1.03138 11.0335C0.661115 12.9643 0.512499 14.5388 0.512499 15.8303C0.499637 16.7832 0.601148 17.7342 0.814857 18.663C1.09031 19.7853 1.51694 20.4989 1.89873 20.9332C2.0997 21.1754 2.34603 21.376 2.62388 21.5238C2.72959 21.5842 2.84121 21.6336 2.95699 21.6712C3.25254 21.7681 3.56202 21.8157 3.87303 21.8121C4.45981 21.8121 5.22724 21.6596 6.14456 21.1792C7.06188 20.6987 8.13551 19.898 9.36416 18.5835L9.37569 18.572L9.38594 18.5579C9.91619 17.9573 10.5186 17.4246 11.1796 16.9718C11.7962 16.5418 12.4636 16.1898 13.1667 15.9238C13.9075 15.6442 14.6891 15.4879 15.4805 15.4613V15.4856L15.993 15.4638L16.5055 15.4856V15.4613C17.31 15.4885 18.1045 15.6491 18.8564 15.9366C19.8591 16.3279 20.789 16.8848 21.6071 17.5842C21.8692 17.8048 22.1198 18.0387 22.3579 18.285C22.4424 18.3734 22.5065 18.4439 22.5488 18.4913L22.5949 18.5438L22.6064 18.5592L22.618 18.572L22.6295 18.5835C23.8569 19.8929 24.9356 20.6987 25.8491 21.1792C26.7626 21.6596 27.5338 21.8134 28.1206 21.8121C28.4312 21.8157 28.7403 21.7681 29.0354 21.6712C29.1508 21.6342 29.262 21.5853 29.3672 21.5251C29.4996 21.4579 29.6238 21.3758 29.7375 21.2804C30.0616 21.0165 30.5062 20.5181 30.8598 19.6533C31.2134 18.7885 31.4811 17.5637 31.4811 15.8303C31.4876 14.5388 31.3389 12.9643 30.9661 11.0387Z" fill="#FDC534"/>
<path d="M30.9661 11.0387L31.4683 10.9413C30.6009 6.46488 29.1852 3.86793 27.9015 2.37152C27.4471 1.82895 26.9173 1.35436 26.3282 0.962221C26.0359 0.765918 25.7194 0.608303 25.3865 0.49331L25.2392 0.984001L25.4698 0.525339C24.7235 0.16465 23.9028 -0.0152969 23.074 5.59679e-05C22.271 0.0166696 21.4721 0.119323 20.691 0.306258C19.9428 0.470249 19.242 0.658582 18.6411 0.777731C17.774 0.964513 16.8902 1.06366 16.0032 1.07368C15.1158 1.06335 14.2316 0.964207 13.364 0.777731C12.7669 0.658582 12.0648 0.470249 11.3141 0.306258C10.5321 0.119151 9.73236 0.0164965 8.92852 5.59679e-05C8.10017 -0.0153358 7.27984 0.164618 6.53399 0.525339L6.76461 0.984001L6.61215 0.494591C6.27922 0.60933 5.96267 0.766961 5.67048 0.963502C5.08175 1.35516 4.55271 1.82983 4.09975 2.3728C2.81858 3.86793 1.39775 6.46488 0.53039 10.9413C0.198904 12.5505 0.0213006 14.1875 -1.76105e-05 15.8303C-0.0135448 16.8247 0.0931392 17.8171 0.317715 18.786C0.609823 19.9775 1.07361 20.7705 1.51434 21.2715C1.76068 21.5647 2.06182 21.8071 2.40091 21.9851L2.62512 21.5239L2.36888 21.9659C2.50504 22.044 2.64886 22.108 2.79808 22.1568C3.14616 22.2709 3.51052 22.3276 3.87683 22.3246V21.8365L3.86274 22.3246H3.87811V21.8365L3.86402 22.3246H3.88323C4.55842 22.3246 5.40912 22.1465 6.38794 21.6328C7.3706 21.1203 8.48651 20.276 9.74463 18.9346L9.75616 18.9218L9.76769 18.909L9.78947 18.8833L9.55117 18.6912L9.78691 18.8859L9.54861 18.6937L9.78434 18.8885L9.81893 18.85C10.3148 18.3024 10.8739 17.8156 11.4845 17.3997C12.0631 16.9905 12.69 16.6544 13.3511 16.3991C14.0401 16.1405 14.7668 15.9968 15.5022 15.9738L15.4869 15.4613H14.9744V16.0148L15.9993 15.9712L17.0243 16.0148V15.4562H16.5118L16.4964 15.9687C17.2445 15.9935 17.9832 16.1429 18.6821 16.4107C19.63 16.7821 20.5091 17.3095 21.2829 17.9711C21.5316 18.18 21.7693 18.4015 21.9953 18.6348C22.0747 18.7181 22.1336 18.7834 22.1708 18.8257L22.2105 18.8705L22.2207 18.8821L22.2284 18.8923L22.24 18.9051L22.263 18.9307C23.5211 20.2721 24.637 21.1152 25.6184 21.6289C26.5998 22.1427 27.4492 22.3207 28.1244 22.3207V21.9505V22.3207V21.9505V22.3207H28.1334V21.9069V22.3207V21.9069V22.3207C28.4997 22.3237 28.864 22.2671 29.2121 22.1529C29.3604 22.1043 29.5033 22.0408 29.6388 21.9633L29.3825 21.5213L29.6067 21.9825C29.7747 21.8977 29.9324 21.7942 30.0769 21.6738C30.4677 21.3547 30.9648 20.7769 31.3491 19.843V19.834V19.843C31.7335 18.9038 32.0089 17.6111 32.0089 15.8252C31.9878 14.1823 31.8097 12.5452 31.4773 10.9362L30.975 11.0336L30.4715 11.1309C30.8392 13.0296 30.984 14.5735 30.984 15.8252C30.984 17.5074 30.7278 18.6643 30.3998 19.4548C30.0769 20.2427 29.6862 20.668 29.4299 20.8781C29.3467 20.9478 29.2561 21.0079 29.1596 21.0575L29.143 21.0665L29.125 21.0767C29.0495 21.1184 28.9701 21.1528 28.888 21.1792C28.6458 21.2585 28.3921 21.297 28.1372 21.2932V21.7071V21.2932V21.7071V21.8057V21.2932H28.1283C27.6324 21.2932 26.9509 21.1651 26.0976 20.718C25.2443 20.2709 24.213 19.5047 23.0138 18.2274L23.0023 18.2146L22.6243 18.5771L23.0202 18.2517L23.01 18.2389L22.9959 18.2223L22.9433 18.162C22.8972 18.1095 22.828 18.0339 22.7371 17.9404C21.6975 16.8631 20.44 16.0201 19.0485 15.4677C18.2435 15.1589 17.3928 14.9857 16.531 14.9553L16.0032 14.9399V15.4921H16.5157L16.5374 14.9796L16.0032 14.9565L15.4689 14.9796L15.4907 15.4921H16.0032V14.9399L15.4753 14.9553C14.6279 14.9835 13.7909 15.1506 12.9975 15.4498C12.2522 15.728 11.5442 16.0976 10.89 16.5503C10.4034 16.889 9.94536 17.2669 9.52042 17.6803C9.35771 17.8366 9.23087 17.9699 9.13607 18.0647L9.03101 18.1813L9.00026 18.2171L8.99001 18.2287L8.98104 18.2402C7.78314 19.5214 6.75308 20.2901 5.89853 20.7308C5.04655 21.1767 4.36111 21.3061 3.86914 21.3061V21.8185L3.8858 21.3061H3.86786C3.61345 21.3097 3.3602 21.2711 3.11837 21.192C3.03603 21.1656 2.95661 21.1308 2.88135 21.0883L2.86342 21.078L2.84548 21.069C2.62939 20.9517 2.43833 20.7933 2.28304 20.6027C1.96019 20.2337 1.57071 19.5995 1.31191 18.5528C1.10684 17.6602 1.01048 16.746 1.02493 15.8303C1.04619 14.2528 1.21779 12.681 1.5374 11.1361C2.38041 6.7903 3.73334 4.37016 4.87487 3.03901C5.26452 2.57076 5.71977 2.16125 6.22651 1.82317C6.44149 1.67762 6.67393 1.55968 6.91835 1.47213L6.95806 1.45932L6.99394 1.44138C7.59618 1.15241 8.25815 1.00974 8.92595 1.025C9.65567 1.04153 10.3815 1.13602 11.0911 1.30686C11.8099 1.46444 12.5107 1.65406 13.1577 1.78346C14.0915 1.98351 15.0431 2.0891 15.9981 2.09863C16.9526 2.08884 17.9037 1.98325 18.8372 1.78346C19.4777 1.65534 20.185 1.46444 20.9037 1.30686C21.6142 1.136 22.3409 1.04151 23.0714 1.025C23.738 1.01015 24.3986 1.15282 24.9996 1.44138L25.0368 1.45932L25.0752 1.47213C25.3208 1.55884 25.5542 1.67683 25.7696 1.82317C26.2758 2.16192 26.731 2.57135 27.1213 3.03901C28.2641 4.37016 29.617 6.78902 30.46 11.1361L30.9661 11.0387Z" fill="#434343"/>
<path d="M13.0437 7.86264C12.8843 7.70298 12.695 7.57632 12.4866 7.48992C12.2782 7.40352 12.0547 7.35908 11.8291 7.35914H11.0527V6.59043C11.0534 6.36455 11.0095 6.14076 10.9235 5.93188C10.8376 5.723 10.7112 5.53313 10.5517 5.37317C10.3922 5.21321 10.2028 5.0863 9.99413 4.9997C9.78551 4.9131 9.56184 4.86853 9.33596 4.86853H9.2514C8.79629 4.86887 8.35988 5.04963 8.03783 5.37121C7.71578 5.69278 7.53436 6.12892 7.53334 6.58403V7.35274H6.76464C6.53799 7.35206 6.31344 7.3962 6.10391 7.48262C5.89438 7.56905 5.70401 7.69605 5.54374 7.85631C5.38348 8.01658 5.25648 8.20695 5.17006 8.41648C5.08363 8.62601 5.03949 8.85055 5.04017 9.0772V9.16176C5.04017 9.38732 5.08462 9.61067 5.17097 9.81904C5.25733 10.0274 5.3839 10.2167 5.54345 10.3762C5.70301 10.5356 5.89242 10.662 6.10085 10.7482C6.30929 10.8344 6.53267 10.8787 6.75823 10.8785H7.52694V11.6588C7.52728 12.1143 7.70839 12.5511 8.03052 12.8733C8.35264 13.1954 8.78944 13.3765 9.245 13.3768H9.32956C9.55565 13.3777 9.77969 13.3339 9.9888 13.2479C10.1979 13.1619 10.388 13.0355 10.5481 12.8758C10.7082 12.7162 10.8352 12.5265 10.9218 12.3176C11.0084 12.1088 11.0529 11.8849 11.0527 11.6588V10.8785H11.8291C12.0547 10.8787 12.2781 10.8344 12.4865 10.7482C12.6949 10.662 12.8844 10.5356 13.0439 10.3762C13.2035 10.2167 13.33 10.0274 13.4164 9.81904C13.5027 9.61067 13.5472 9.38732 13.5472 9.16176V9.0772C13.5473 8.85159 13.5028 8.62818 13.4164 8.41977C13.33 8.21136 13.2034 8.02204 13.0437 7.86264Z" fill="white"/>
<path d="M13.0437 7.86255L13.4063 7.49997C13.1995 7.29277 12.9539 7.1284 12.6835 7.01628C12.413 6.90415 12.1232 6.84648 11.8304 6.84657H11.8112L11.8292 7.35904V6.84657H11.5652V6.58009H11.1476H11.5652H11.1476H11.5652C11.5655 6.28714 11.5079 5.99702 11.3958 5.72638C11.2836 5.45573 11.1192 5.20989 10.9118 5.00296C10.4931 4.58761 9.92701 4.35499 9.33726 4.35596H9.31804L9.33598 4.86843V4.35596H9.25142V4.86843V4.35596C8.95868 4.35587 8.66881 4.41354 8.3984 4.52567C8.12799 4.63779 7.88235 4.80216 7.67557 5.00936C7.25725 5.42763 7.02222 5.99494 7.02217 6.58649V6.60443L7.53464 6.58905H7.02217V6.84529H6.76593V7.35776V6.84529C6.17438 6.84534 5.60707 7.08037 5.1888 7.49869C4.9816 7.70548 4.81723 7.95111 4.7051 8.22152C4.59298 8.49193 4.53531 8.78181 4.5354 9.07454V9.09632L5.04787 9.07967H4.5354V9.16422H5.04787L4.5354 9.15782V9.1655C4.53579 9.75662 4.7708 10.3234 5.1888 10.7414C5.39574 10.9487 5.64158 11.1132 5.91222 11.2253C6.18286 11.3374 6.47298 11.395 6.76593 11.3948V10.9118L6.75568 11.3909H6.76721V10.9118L6.75696 11.3909H7.02089V11.6587H7.53336H7.02089C7.0208 11.9514 7.07847 12.2413 7.19059 12.5117C7.30271 12.7821 7.46708 13.0277 7.67429 13.2345C7.88084 13.4421 8.1264 13.6069 8.39685 13.7192C8.66729 13.8316 8.95728 13.8893 9.25014 13.8892V13.4075L9.23989 13.8892H9.25142V13.4075L9.24117 13.8892H9.33982C9.93093 13.8888 10.4977 13.6538 10.9157 13.2358C11.1226 13.0287 11.2865 12.7828 11.3979 12.5121C11.5094 12.2414 11.5663 11.9514 11.5652 11.6587H11.0835L11.5652 11.6689V11.6587H11.0835L11.5652 11.6689V11.3909H11.833V10.9732V11.3909V10.9732V11.3909C12.1258 11.3913 12.4157 11.3337 12.6862 11.2216C12.9566 11.1095 13.2022 10.9449 13.4088 10.7375C13.8273 10.3198 14.0628 9.75296 14.0635 9.16166H13.5805L14.0622 9.17319V9.16038H13.5805L14.0622 9.17191V9.07198H13.6446H14.0622H13.6446H14.0622C14.0621 8.77916 14.0042 8.48926 13.8919 8.21885C13.7795 7.94844 13.6149 7.70285 13.4076 7.49613L13.045 7.8587L12.6837 8.22512C12.9086 8.45122 13.0352 8.75692 13.036 9.07582H13.4511H13.036H13.4511H13.036V9.16038H13.5485L13.036 9.14885V9.16294C13.0352 9.48184 12.9086 9.78755 12.6837 10.0136C12.5721 10.1255 12.4395 10.2142 12.2935 10.2747C12.1475 10.3352 11.991 10.3662 11.833 10.366V10.7849V10.366V10.7849V10.366H10.5403V11.6587H11.0528L10.5403 11.6471V11.6587C10.5405 11.8167 10.5095 11.9732 10.449 12.1192C10.3886 12.2652 10.2998 12.3978 10.188 12.5094C10.0765 12.6211 9.94413 12.7097 9.79836 12.7702C9.6526 12.8307 9.49634 12.8618 9.33854 12.8617V13.2858V12.8617V13.2858V12.8617H9.25398V13.3742L9.26551 12.8617H9.25142C9.09343 12.8617 8.93699 12.8306 8.79103 12.7702C8.64506 12.7097 8.51243 12.6211 8.40072 12.5094C8.17441 12.284 8.04677 11.9781 8.04583 11.6587H7.62817H8.04583H7.62817H8.04583V10.366H6.76465V10.8784L6.7749 10.366H6.76209C6.60404 10.3664 6.44747 10.3355 6.30145 10.275C6.15543 10.2145 6.02285 10.1257 5.91139 10.0136C5.68602 9.78786 5.55932 9.48196 5.55906 9.16294H5.13371H5.55266H5.13371H5.55266V9.0566L5.05812 9.07198H5.55266V9.05789L5.05812 9.07326H5.55266C5.55292 8.75425 5.67961 8.44834 5.90498 8.22256C6.01661 8.11073 6.14923 8.02205 6.29521 7.96159C6.44119 7.90113 6.59767 7.87008 6.75568 7.87023V7.45513V7.87151V7.45513V7.87151H8.04583V6.56727L7.55129 6.58265H8.04583V6.56856L7.55129 6.58393H8.04583C8.04582 6.42594 8.07693 6.2695 8.13738 6.12354C8.19783 5.97757 8.28644 5.84495 8.39815 5.73323C8.51002 5.62137 8.64286 5.53267 8.78906 5.47221C8.93525 5.41175 9.09193 5.38073 9.25014 5.3809V4.96196V5.37834V4.96196V5.37834H9.35263L9.33598 4.88252V5.3809H9.35263L9.33598 4.88509V5.3809C9.49378 5.38085 9.65004 5.41195 9.7958 5.47241C9.94156 5.53287 10.074 5.6215 10.1854 5.73323C10.2973 5.84478 10.3861 5.97737 10.4466 6.12337C10.507 6.26938 10.538 6.4259 10.5377 6.58393V7.86511H11.8445L11.8266 7.36929V7.86511H11.842L11.824 7.36929V7.86511C11.9839 7.8649 12.1423 7.8965 12.2899 7.95809C12.4375 8.01968 12.5714 8.11001 12.6837 8.22384L13.0437 7.86255Z" fill="#434343"/>
<path d="M23.9786 7.51229C24.515 6.97594 24.515 6.10634 23.9786 5.56998C23.4422 5.03362 22.5726 5.03363 22.0363 5.56998C21.4999 6.10634 21.4999 6.97594 22.0363 7.51229C22.5726 8.04865 23.4422 8.04865 23.9786 7.51229Z" fill="#434343"/>
<path d="M24.3428 12.0119C24.5171 11.2737 24.0599 10.534 23.3216 10.3597C22.5834 10.1855 21.8437 10.6427 21.6694 11.381C21.4952 12.1192 21.9524 12.8589 22.6906 13.0331C23.4289 13.2074 24.1686 12.7502 24.3428 12.0119Z" fill="#434343"/>
<path d="M26.9221 9.43381C27.0964 8.69557 26.6391 7.95586 25.9009 7.78162C25.1627 7.60738 24.423 8.06459 24.2487 8.80283C24.0745 9.54107 24.5317 10.2808 25.2699 10.455C26.0082 10.6293 26.7479 10.172 26.9221 9.43381Z" fill="#434343"/>
<path d="M21.7659 9.4343C21.9401 8.69606 21.4829 7.95635 20.7447 7.78211C20.0064 7.60787 19.2667 8.06508 19.0925 8.80332C18.9182 9.54155 19.3754 10.2813 20.1137 10.4555C20.8519 10.6297 21.5916 10.1725 21.7659 9.4343Z" fill="#434343"/>
</g>
<defs>
<clipPath id="clip0_1021_553">
<rect width="32" height="22.3245" fill="white"/>
</clipPath>
</defs>
</svg>
