<svg width="22" height="38" viewBox="0 0 22 38" fill="none" xmlns="http://www.w3.org/2000/svg">
<path d="M18.5298 31.8257H3.47021C1.81999 31.8257 0.481873 30.4876 0.481873 28.8373V9.74042C0.481873 8.09019 1.81999 6.75208 3.47021 6.75208H18.5298C20.18 6.75208 21.5181 8.09019 21.5181 9.74042V28.8373C21.5181 30.4876 20.1808 31.8257 18.5298 31.8257Z" fill="white"/>
<path d="M22 9.73826C22 8.78193 21.6108 7.91234 20.9836 7.28591C20.3572 6.65873 19.4876 6.26953 18.5313 6.26953H18.5305H3.47021H3.46947C2.51314 6.26953 1.64281 6.65873 1.01638 7.28591C0.389203 7.91234 0 8.78267 0 9.739V9.73974V28.8367V28.8381C0 29.7945 0.389203 30.6648 1.01638 31.2912C1.64207 31.9177 2.51018 32.3061 3.46502 32.3076H3.46725H18.4186H18.5298H18.641V32.3046C19.5536 32.2757 20.3817 31.8939 20.9836 31.2912C21.6093 30.6663 21.9985 29.7982 22 28.8441V28.8418V9.73974V9.73826ZM0.963742 28.8374V9.74048C0.963742 9.04659 1.24323 8.42312 1.69767 7.96794C2.15285 7.5135 2.77632 7.23401 3.47021 7.23401H18.5298C19.2237 7.23401 19.8471 7.5135 20.3023 7.96794C20.7568 8.42312 21.0363 9.04659 21.0363 9.74048V28.8374C21.0363 29.5313 20.7568 30.1548 20.3023 30.6099C19.8471 31.0644 19.2237 31.3439 18.5298 31.3439H3.47021C2.77632 31.3439 2.15285 31.0644 1.69767 30.6099C1.24323 30.154 0.963742 29.5313 0.963742 28.8374Z" fill="#434343"/>
<path d="M4.47174 12.0297V26.5474C4.47174 26.752 4.6378 26.9181 4.84241 26.9181C5.04702 26.9181 5.21308 26.752 5.21308 26.5474V12.0297C5.21308 11.8251 5.04702 11.6591 4.84241 11.6591C4.6378 11.6591 4.47174 11.8251 4.47174 12.0297Z" fill="#434343"/>
<path d="M4.32349 12.0297V26.5473C4.32349 26.8342 4.55553 27.0663 4.84242 27.0663C5.12932 27.0663 5.36136 26.8342 5.36136 26.5473V12.0297C5.36136 11.7428 5.12932 11.5107 4.84242 11.5107C4.55553 11.5107 4.32349 11.7428 4.32349 12.0297H4.62002C4.62002 11.9674 4.64449 11.9133 4.68526 11.8725C4.72603 11.8317 4.78089 11.8073 4.84242 11.8073C4.9047 11.8073 4.95881 11.8317 4.99959 11.8725C5.04036 11.9133 5.06483 11.9681 5.06483 12.0297V26.5473C5.06483 26.6096 5.04036 26.6637 4.99959 26.7045C4.95881 26.7453 4.90396 26.7697 4.84242 26.7697C4.78015 26.7697 4.72603 26.7453 4.68526 26.7045C4.64449 26.6637 4.62002 26.6089 4.62002 26.5473V12.0297H4.32349Z" fill="#434343"/>
<path d="M10.6293 12.0297V26.5474C10.6293 26.752 10.7954 26.9181 11 26.9181C11.2046 26.9181 11.3707 26.752 11.3707 26.5474V12.0297C11.3707 11.8251 11.2046 11.6591 11 11.6591C10.7954 11.6591 10.6293 11.8251 10.6293 12.0297Z" fill="#434343"/>
<path d="M10.4811 12.0297V26.5473C10.4811 26.8342 10.7131 27.0663 11 27.0663C11.2869 27.0663 11.519 26.8342 11.519 26.5473V12.0297C11.519 11.7428 11.2869 11.5107 11 11.5107C10.7139 11.5107 10.4811 11.7428 10.4811 12.0297H10.7776C10.7776 11.9674 10.8021 11.9133 10.8429 11.8725C10.8836 11.8317 10.9385 11.8073 11 11.8073C11.0623 11.8073 11.1164 11.8317 11.1572 11.8725C11.198 11.9133 11.2224 11.9681 11.2224 12.0297V26.5473C11.2224 26.6096 11.198 26.6637 11.1572 26.7045C11.1164 26.7453 11.0615 26.7697 11 26.7697C10.9377 26.7697 10.8836 26.7453 10.8429 26.7045C10.8021 26.6637 10.7776 26.6089 10.7776 26.5473V12.0297H10.4811Z" fill="#434343"/>
<path d="M16.7869 12.0297V26.5474C16.7869 26.752 16.953 26.9181 17.1576 26.9181C17.3622 26.9181 17.5283 26.752 17.5283 26.5474V12.0297C17.5283 11.8251 17.3622 11.6591 17.1576 11.6591C16.953 11.6591 16.7869 11.8251 16.7869 12.0297Z" fill="#434343"/>
<path d="M16.6386 12.0297V26.5473C16.6386 26.8342 16.8707 27.0663 17.1575 27.0663C17.4444 27.0663 17.6765 26.8342 17.6765 26.5473V12.0297C17.6765 11.7428 17.4444 11.5107 17.1575 11.5107C16.8714 11.5107 16.6394 11.7428 16.6386 12.0297H16.9351C16.9351 11.9674 16.9596 11.9133 17.0004 11.8725C17.0412 11.8317 17.096 11.8073 17.1575 11.8073C17.2198 11.8073 17.2739 11.8317 17.3147 11.8725C17.3555 11.9133 17.38 11.9681 17.38 12.0297V26.5473C17.38 26.6096 17.3555 26.6637 17.3147 26.7045C17.2739 26.7453 17.2191 26.7697 17.1575 26.7697C17.0953 26.7697 17.0412 26.7453 17.0004 26.7045C16.9596 26.6637 16.9351 26.6089 16.9351 26.5473V12.0297H16.6386Z" fill="#434343"/>
<path d="M4.82387 36.6874C5.9539 36.6874 6.86997 35.7713 6.86997 34.6413C6.86997 33.5113 5.9539 32.5952 4.82387 32.5952C3.69384 32.5952 2.77777 33.5113 2.77777 34.6413C2.77777 35.7713 3.69384 36.6874 4.82387 36.6874Z" fill="#FDC535"/>
<path d="M4.82393 35.1654C5.15516 35.1654 5.42367 34.8969 5.42367 34.5657C5.42367 34.2345 5.15516 33.9659 4.82393 33.9659C4.4927 33.9659 4.22418 34.2345 4.22418 34.5657C4.22418 34.8969 4.4927 35.1654 4.82393 35.1654Z" fill="white"/>
<path d="M17.9234 3.01719H3.84312C3.39016 3.01719 3.02319 2.65023 3.02319 2.19727V1.30173C3.02319 0.848775 3.39016 0.481812 3.84312 0.481812H17.9241C18.3771 0.481812 18.744 0.848775 18.744 1.30173V2.19727C18.7433 2.65023 18.3763 3.01719 17.9234 3.01719Z" fill="#FDC535"/>
<path d="M19.2252 1.30031C19.2252 0.942984 19.0784 0.615312 18.8441 0.381049C18.6099 0.146785 18.2822 0 17.9249 0H17.9241H3.84311H3.84237C3.48431 0 3.15663 0.146785 2.92237 0.381049C2.68736 0.615312 2.54132 0.942984 2.54132 1.30031V1.30105V2.19659V2.19733C2.54132 2.5554 2.68736 2.88307 2.92237 3.11733C3.15589 3.35086 3.48134 3.4969 3.83718 3.49838H3.84015H17.8122H17.9234H18.0346V3.49245C18.3489 3.46576 18.6336 3.32713 18.8441 3.11659C19.0776 2.88381 19.2237 2.55836 19.2252 2.20252V2.19956V1.30179V1.30031ZM3.50506 2.19733V1.30179C3.5058 1.20616 3.54139 1.1261 3.6044 1.06234C3.66816 1.00007 3.74822 0.963742 3.84385 0.963H17.9241C18.0198 0.963742 18.0991 0.999326 18.1628 1.06234C18.2251 1.1261 18.2614 1.20616 18.2622 1.30179V2.19659C18.2614 2.29222 18.2258 2.37229 18.1628 2.43604C18.0991 2.49832 18.019 2.53464 17.9234 2.53538H3.84311C3.74748 2.53464 3.66816 2.49906 3.6044 2.43604C3.54139 2.37229 3.5058 2.29222 3.50506 2.19733Z" fill="#434343"/>
<path d="M4.36053 2.5636V6.72103H4.47174H4.58294H5.10187H5.21308H5.32428V2.5636H4.36053Z" fill="#434343"/>
<path d="M16.6757 2.5636V6.72103H16.7869H16.8981H17.417H17.5282H17.6394V2.5636H16.6757Z" fill="#434343"/>
<path d="M17.1575 36.6874C18.2876 36.6874 19.2036 35.7713 19.2036 34.6413C19.2036 33.5113 18.2876 32.5952 17.1575 32.5952C16.0275 32.5952 15.1115 33.5113 15.1115 34.6413C15.1115 35.7713 16.0275 36.6874 17.1575 36.6874Z" fill="#FDC535"/>
<path d="M17.1575 35.1654C17.4888 35.1654 17.7573 34.8969 17.7573 34.5657C17.7573 34.2345 17.4888 33.9659 17.1575 33.9659C16.8263 33.9659 16.5578 34.2345 16.5578 34.5657C16.5578 34.8969 16.8263 35.1654 17.1575 35.1654Z" fill="white"/>
<path d="M4.82387 32.0273C4.12405 32.0273 3.48723 32.312 3.02909 32.7709C2.5702 33.2291 2.28552 33.8659 2.28552 34.5657C2.28552 35.2655 2.5702 35.9023 3.02909 36.3605C3.48723 36.8194 4.12405 37.104 4.82387 37.104C5.52369 37.104 6.16051 36.8194 6.61865 36.3605C7.07754 35.9023 7.36222 35.2655 7.36222 34.5657C7.36222 33.8659 7.07754 33.2291 6.61865 32.7709C6.16051 32.312 5.52369 32.0273 4.82387 32.0273ZM6.09453 35.8363C5.76834 36.1618 5.32131 36.3627 4.82387 36.3627C4.32643 36.3627 3.8794 36.1618 3.55321 35.8363C3.22777 35.5102 3.02686 35.0631 3.02686 34.5657C3.02686 34.0683 3.22777 33.6212 3.55321 33.295C3.8794 32.9696 4.32643 32.7687 4.82387 32.7687C5.32131 32.7687 5.76834 32.9696 6.09453 33.295C6.41997 33.6212 6.62088 34.0683 6.62088 34.5657C6.62088 35.0631 6.42072 35.5102 6.09453 35.8363Z" fill="#434343"/>
<path d="M18.9523 32.7709C18.4942 32.312 17.8574 32.0273 17.1575 32.0273C16.4577 32.0273 15.8209 32.312 15.3628 32.7709C14.9039 33.2291 14.6192 33.8659 14.6192 34.5657C14.6192 35.2655 14.9039 35.9023 15.3628 36.3605C15.8209 36.8194 16.4577 37.104 17.1575 37.104C17.8574 37.104 18.4942 36.8194 18.9523 36.3605C19.4112 35.9023 19.6959 35.2655 19.6959 34.5657C19.6966 33.8659 19.4112 33.2291 18.9523 32.7709ZM18.4282 35.8363C18.102 36.1618 17.655 36.3627 17.1575 36.3627C16.6601 36.3627 16.2131 36.1618 15.8869 35.8363C15.5614 35.5102 15.3605 35.0631 15.3605 34.5657C15.3605 34.0683 15.5614 33.6212 15.8869 33.295C16.2131 32.9696 16.6601 32.7687 17.1575 32.7687C17.655 32.7687 18.102 32.9696 18.4282 33.295C18.7537 33.6212 18.9546 34.0683 18.9546 34.5657C18.9546 35.0631 18.7544 35.5094 18.4282 35.8363Z" fill="#434343"/>
<path d="M4.82387 33.4685C4.52215 33.4685 4.24563 33.5923 4.04769 33.7903C3.84975 33.9874 3.72595 34.264 3.72669 34.5664C3.72669 34.8682 3.84975 35.1447 4.04769 35.3426C4.24488 35.5406 4.52215 35.6644 4.82387 35.6644C5.1256 35.6644 5.40212 35.5406 5.60005 35.3426C5.79799 35.1454 5.92179 34.8682 5.92179 34.5664C5.92179 34.2647 5.79799 33.9882 5.60005 33.7903C5.40286 33.5916 5.12634 33.4678 4.82387 33.4685ZM5.07593 34.817C5.01069 34.8822 4.92395 34.9208 4.82387 34.9215C4.72453 34.9215 4.63779 34.8822 4.57182 34.817C4.50658 34.751 4.46803 34.665 4.46729 34.565C4.46729 34.4656 4.50658 34.3789 4.57182 34.3129C4.63705 34.2477 4.72379 34.2091 4.82387 34.2084C4.92321 34.2084 5.00995 34.2477 5.07593 34.3129C5.14116 34.3781 5.17971 34.4649 5.18045 34.565C5.17971 34.665 5.14116 34.7518 5.07593 34.817Z" fill="#434343"/>
<path d="M17.9337 33.7895C17.7365 33.5916 17.46 33.4678 17.1576 33.4685C16.8558 33.4685 16.5793 33.5923 16.3814 33.7903C16.1834 33.9874 16.0596 34.264 16.0604 34.5664C16.0604 34.8682 16.1834 35.1447 16.3814 35.3426C16.5786 35.5406 16.8558 35.6644 17.1576 35.6644C17.4593 35.6644 17.7358 35.5406 17.9337 35.3426C18.1317 35.1454 18.2555 34.8682 18.2555 34.5664C18.2555 34.264 18.1317 33.9867 17.9337 33.7895ZM17.4096 34.817C17.3444 34.8822 17.2576 34.9208 17.1576 34.9215C17.0582 34.9215 16.9715 34.8822 16.9055 34.817C16.8403 34.751 16.8017 34.665 16.801 34.565C16.801 34.4656 16.8403 34.3789 16.9055 34.3129C16.9707 34.2477 17.0575 34.2091 17.1576 34.2084C17.2569 34.2084 17.3436 34.2477 17.4096 34.3129C17.4748 34.3781 17.5134 34.4649 17.5141 34.565C17.5134 34.665 17.4748 34.7518 17.4096 34.817Z" fill="#434343"/>
</svg>
