<svg width="21" height="20" viewBox="0 0 21 20" fill="none" xmlns="http://www.w3.org/2000/svg">
<path d="M10.7044 0C5.18436 0 0.714355 4.48 0.714355 10C0.714355 15.52 5.18436 20 10.7044 20C16.2344 20 20.7144 15.52 20.7144 10C20.7144 4.48 16.2344 0 10.7044 0ZM10.7144 18C6.29436 18 2.71436 14.42 2.71436 10C2.71436 5.58 6.29436 2 10.7144 2C15.1344 2 18.7144 5.58 18.7144 10C18.7144 14.42 15.1344 18 10.7144 18ZM14.2144 9C15.0444 9 15.7144 8.33 15.7144 7.5C15.7144 6.67 15.0444 6 14.2144 6C13.3844 6 12.7144 6.67 12.7144 7.5C12.7144 8.33 13.3844 9 14.2144 9ZM7.21436 9C8.04436 9 8.71436 8.33 8.71436 7.5C8.71436 6.67 8.04436 6 7.21436 6C6.38436 6 5.71436 6.67 5.71436 7.5C5.71436 8.33 6.38436 9 7.21436 9ZM10.7144 15.5C13.0444 15.5 15.0244 14.04 15.8244 12H5.60436C6.40436 14.04 8.38436 15.5 10.7144 15.5Z" fill="#969696"/>
</svg>
