<svg width="169" height="176" viewBox="0 0 169 176" fill="none" xmlns="http://www.w3.org/2000/svg">
<g filter="url(#filter0_d_1387_3014)">
<rect x="4" y="4" width="161" height="168" rx="10" fill="white"/>
<path d="M82.5 48C59.0259 48 40 67.0259 40 90.5C40 90.5284 40 90.5527 40 90.5811C40 90.5892 40 90.5933 40 90.6014V130.202C40 131.747 41.253 133 42.7979 133H82.3986C82.4067 133 82.4108 133 82.4189 133C82.4473 133 82.4716 133 82.5 133C105.97 133 125 113.974 125 90.5C125 67.0259 105.97 48 82.5 48Z" fill="#FFC632"/>
<path d="M93.3267 91.1488C92.4428 90.058 91.3763 89.1375 90.1639 88.4157C90.0219 88.3306 89.8679 88.2576 89.7219 88.1765C90.3666 87.5642 90.9465 86.8951 91.4412 86.1612C92.6698 84.3608 93.3024 82.2481 93.2943 80.026C93.2984 77.4146 92.6374 74.9654 91.3114 72.8406C90.0017 70.7239 88.1445 69.0492 85.8737 67.8936C83.5827 66.7257 80.9834 66.1621 78.1693 66.1621H64.4554C63.8229 66.1621 63.1862 66.2675 62.5902 66.5027C61.9941 66.7339 61.4467 67.0947 60.9925 67.5327L60.9803 67.5448L60.9925 67.5327C60.5221 67.9868 60.141 68.5464 59.8977 69.1587C59.6503 69.771 59.5449 70.4239 59.5449 71.0727V109.923C59.5449 110.564 59.6584 111.209 59.9017 111.809C60.145 112.409 60.5181 112.956 60.9722 113.41C61.4264 113.865 61.9698 114.238 62.5739 114.481C63.1741 114.724 63.8229 114.838 64.4595 114.838H79.3817C82.4716 114.842 85.3304 114.205 87.8647 112.904C90.395 111.614 92.4347 109.733 93.8579 107.36C95.2893 104.988 96.003 102.271 95.999 99.3641C95.999 97.7786 95.7881 96.2864 95.3461 94.9036C94.9041 93.5209 94.2269 92.2558 93.3267 91.1488Z" fill="white"/>
<path fill-rule="evenodd" clip-rule="evenodd" d="M84.0612 89.2307L78.2991 87.2884L80.0387 78.992C80.3185 77.6538 78.6073 76.8023 77.6381 77.7917L66.1545 89.5592C65.9923 89.7254 65.8788 89.9241 65.8179 90.1431C65.7571 90.3621 65.7571 90.5891 65.8098 90.8122C65.8666 91.0311 65.9761 91.2339 66.1342 91.4001C66.2924 91.5664 66.4911 91.6961 66.71 91.7691L72.4721 93.7115L70.7325 102.008C70.4487 103.346 72.1599 104.198 73.129 103.208L84.6126 91.4366C85.3182 90.723 85.0222 89.5511 84.0612 89.2307Z" fill="#FFC632"/>
<path d="M104.474 84.8999C107.385 84.8999 109.745 82.5398 109.745 79.6285C109.745 76.7172 107.385 74.3571 104.474 74.3571C101.562 74.3571 99.2024 76.7172 99.2024 79.6285C99.2024 82.5398 101.562 84.8999 104.474 84.8999Z" fill="white"/>
<path d="M104.474 105.175C107.385 105.175 109.745 102.815 109.745 99.9033C109.745 96.9919 107.385 94.6318 104.474 94.6318C101.562 94.6318 99.2024 96.9919 99.2024 99.9033C99.2024 102.815 101.562 105.175 104.474 105.175Z" fill="white"/>
</g>
<defs>
<filter id="filter0_d_1387_3014" x="0" y="0" width="169" height="176" filterUnits="userSpaceOnUse" color-interpolation-filters="sRGB">
<feFlood flood-opacity="0" result="BackgroundImageFix"/>
<feColorMatrix in="SourceAlpha" type="matrix" values="0 0 0 0 0 0 0 0 0 0 0 0 0 0 0 0 0 0 127 0" result="hardAlpha"/>
<feOffset/>
<feGaussianBlur stdDeviation="2"/>
<feComposite in2="hardAlpha" operator="out"/>
<feColorMatrix type="matrix" values="0 0 0 0 0 0 0 0 0 0 0 0 0 0 0 0 0 0 0.25 0"/>
<feBlend mode="normal" in2="BackgroundImageFix" result="effect1_dropShadow_1387_3014"/>
<feBlend mode="normal" in="SourceGraphic" in2="effect1_dropShadow_1387_3014" result="shape"/>
</filter>
</defs>
</svg>
