<svg width="40" height="41" viewBox="0 0 40 41" fill="none" xmlns="http://www.w3.org/2000/svg">
<path fill-rule="evenodd" clip-rule="evenodd" d="M38.5836 29.8793L31.3487 24.1393C30.9992 23.8629 30.5635 23.7265 30.1231 23.7557C29.6826 23.7849 29.2676 23.9776 28.9558 24.2977L25.1156 28.2355C24.8295 28.5317 24.4544 28.7202 24.0508 28.7706C23.6472 28.821 23.2389 28.7303 22.8918 28.5132C21.6554 27.7361 19.5862 26.2303 16.9969 23.5746C14.4077 20.9227 12.9385 18.8 12.1803 17.5346C11.9682 17.1792 11.8797 16.7607 11.9293 16.3472C11.9788 15.9337 12.1634 15.5495 12.453 15.2573L16.2933 11.3194C16.6061 11 16.7942 10.5744 16.8223 10.1228C16.8505 9.67111 16.7166 9.22448 16.446 8.86688L10.8475 1.44964C9.57469 -0.23321 7.17455 -0.499709 5.61083 0.907329C3.55071 2.75977 1.07602 5.53471 0.355979 8.64883C-0.947732 14.2583 1.11239 21.2973 10.1675 30.5781C19.2225 39.8571 26.0902 41.9705 31.5614 40.6361C34.5998 39.8944 37.309 37.3561 39.1164 35.2465C40.4874 33.6438 40.2274 31.1838 38.5836 29.8793Z" fill="#969696"/>
</svg>
