<svg width="29" height="34" viewBox="0 0 29 34" fill="none" xmlns="http://www.w3.org/2000/svg">
<path d="M2.98135 2.27667H14.5822C15.2095 2.27667 15.7187 2.78522 15.7187 3.41318V7.71892C15.7187 8.34613 15.2102 8.85542 14.5822 8.85542H6.80729L4.77603 10.0148C4.67358 10.073 4.55123 9.98308 4.57555 9.8681L4.79298 8.85395H4.26674H2.98135C2.35414 8.85395 1.84485 8.3454 1.84485 7.71744V3.41318C1.84559 2.78522 2.35414 2.27667 2.98135 2.27667Z" fill="white"/>
<path d="M2.98128 2.27672V2.64524H14.5822C14.7952 2.64524 14.9846 2.73073 15.1246 2.87003C15.2639 3.01007 15.3494 3.19948 15.3494 3.41249V7.71823C15.3494 7.93123 15.2639 8.12065 15.1246 8.26068C14.9846 8.39998 14.7952 8.48548 14.5822 8.48548H6.70919L4.59317 9.69421L4.70814 9.89616V9.66399C4.66834 9.66399 4.6256 9.67505 4.59317 9.69421L4.70814 9.89616V9.66399V9.89542L4.86955 9.72885C4.82902 9.68979 4.77374 9.66473 4.70814 9.66399V9.89542L4.86955 9.72885L4.70814 9.89616L4.92041 9.80255C4.90788 9.77381 4.89019 9.74875 4.86955 9.72885L4.70814 9.89616L4.92041 9.80255L4.70446 9.89763H4.94105C4.94105 9.86446 4.93367 9.8313 4.92114 9.80255L4.70519 9.89763H4.94178H4.71404L4.93662 9.94554C4.93957 9.9308 4.94178 9.91458 4.94178 9.89763H4.71404L4.93662 9.94554L4.93736 9.94185L5.24912 8.48548H4.26666H2.98128C2.76827 8.48548 2.57886 8.39998 2.43882 8.26068C2.29952 8.12065 2.21403 7.93123 2.21403 7.71823V3.41322C2.21403 3.20022 2.29952 3.0108 2.43882 2.87077C2.57886 2.73147 2.76827 2.64597 2.98128 2.64597V2.27672V1.9082C2.56706 1.9082 2.18823 2.07698 1.917 2.34895C1.64504 2.62018 1.47626 2.99827 1.47626 3.41322V7.71896C1.47626 8.13318 1.64504 8.51201 1.917 8.78324C2.18823 9.0552 2.56633 9.22398 2.98128 9.22398H4.26666H4.33668L4.21507 9.79223C4.2077 9.82761 4.20328 9.86373 4.20401 9.8991C4.20401 9.96986 4.21949 10.0399 4.24676 10.1011C4.2873 10.1932 4.35289 10.2676 4.43176 10.3192C4.51062 10.3715 4.60643 10.4025 4.70888 10.4025C4.79364 10.4025 4.88208 10.3796 4.95873 10.3354L6.9045 9.22325H14.5822C14.9964 9.22325 15.3752 9.05447 15.6464 8.7825C15.9184 8.51127 16.0872 8.13318 16.0872 7.71823V3.41322C16.0872 2.99901 15.9184 2.62018 15.6464 2.34895C15.3752 2.07698 14.9971 1.9082 14.5822 1.9082H2.98128V2.27672Z" fill="#434343"/>
<path d="M25.9427 0.36853H13.5805C12.912 0.36853 12.3696 0.910249 12.3696 1.57947V6.1675C12.3696 6.83599 12.9113 7.37844 13.5805 7.37844H21.8662L24.0478 8.62476C24.1496 8.68299 24.2726 8.59307 24.2483 8.47809L24.0125 7.37844H24.5733H25.9427C26.6112 7.37844 27.1537 6.83672 27.1537 6.1675V1.57947C27.153 0.910249 26.6112 0.36853 25.9427 0.36853Z" fill="white"/>
<path d="M25.9428 0.368516V0H13.5806C13.1457 0 12.7484 0.177625 12.464 0.462856C12.1787 0.747351 12.0011 1.14461 12.0011 1.57946V6.16748C12.0011 6.60233 12.1787 6.99959 12.464 7.28409C12.7484 7.56932 13.1457 7.74694 13.5806 7.74694H21.7682L23.8644 8.94462C23.941 8.98884 24.0302 9.01169 24.115 9.01169C24.2528 9.01095 24.3751 8.95641 24.4665 8.86871C24.5122 8.82448 24.5505 8.77068 24.5771 8.70951C24.6043 8.64833 24.6198 8.57905 24.6198 8.50756C24.6198 8.47218 24.6161 8.43607 24.6088 8.40069L24.4687 7.74621H24.5734H25.9428C26.3776 7.74621 26.7749 7.56858 27.0594 7.28335C27.3446 6.99886 27.5223 6.6016 27.5223 6.16675V1.57946C27.5223 1.14461 27.3446 0.747351 27.0594 0.462856C26.7749 0.177625 26.3776 0 25.9428 0V0.368516V0.737032C26.1764 0.737032 26.385 0.830635 26.5383 0.983938C26.6916 1.13724 26.7845 1.34582 26.7852 1.57946V6.16748C26.7852 6.40112 26.6916 6.6097 26.5383 6.76301C26.385 6.91631 26.1764 7.00917 25.9428 7.00991H24.5727H23.5563L23.8872 8.55547L24.1091 8.50756H23.8821C23.8821 8.52378 23.8835 8.53999 23.8872 8.55473L24.1091 8.50756H23.8821H24.1179L23.902 8.41248C23.8894 8.44123 23.8821 8.47513 23.8821 8.50756H24.1179L23.902 8.41248L24.1135 8.50535L23.986 8.31225C23.9506 8.33583 23.9211 8.369 23.902 8.41248L24.1135 8.50535L23.986 8.31225L24.1142 8.50682V8.27466C24.0656 8.27466 24.0214 8.2894 23.986 8.31298L24.1142 8.50756V8.2754V8.50756L24.2299 8.30561C24.1975 8.28645 24.1548 8.27466 24.1142 8.2754V8.50756L24.2299 8.30561L24.2218 8.30119L21.9643 7.00917H13.5806C13.3469 7.00917 13.1383 6.91557 12.985 6.76227C12.8317 6.60897 12.7389 6.40039 12.7381 6.16675V1.57946C12.7381 1.34582 12.8317 1.13724 12.985 0.983938C13.1383 0.830635 13.3469 0.737769 13.5806 0.737032H25.9428V0.368516Z" fill="#434343"/>
<path d="M8.87462 22.5107C4.42442 22.5107 0.773904 26.9256 0.407599 32.5462C0.375169 33.0459 0.677352 33.477 1.06577 33.477H16.6835C17.0719 33.477 17.3748 33.0466 17.3416 32.5462C16.9761 26.9248 13.3248 22.5107 8.87462 22.5107Z" fill="#FFDC82"/>
<path d="M8.8746 22.5107V22.1054C7.69461 22.1054 6.56622 22.3987 5.54027 22.9279C3.99987 23.7217 2.68722 25.0402 1.72392 26.6971C0.760617 28.3539 0.144458 30.352 0.00294813 32.5196C0.000737032 32.5528 0 32.5867 0 32.6199C0.000737032 32.9382 0.0965512 33.2345 0.274913 33.4696C0.364831 33.5868 0.47686 33.6893 0.611 33.763C0.744402 33.8374 0.902127 33.8816 1.06649 33.8816H16.6842C16.8478 33.8816 17.0055 33.8374 17.1397 33.763C17.3416 33.651 17.492 33.4792 17.5937 33.2817C17.6954 33.0842 17.7499 32.8579 17.7507 32.6191C17.7507 32.5859 17.7499 32.5528 17.7477 32.5189C17.559 29.6282 16.5279 27.0398 14.9514 25.1596C14.1628 24.2199 13.2371 23.4563 12.2104 22.9271C11.1837 22.398 10.0561 22.1046 8.87608 22.1046V22.5107V22.9161C9.92119 22.9161 10.9184 23.174 11.8389 23.6487C13.2201 24.3599 14.4289 25.562 15.3258 27.1046C16.2228 28.6465 16.8051 30.5252 16.9385 32.5727C16.9392 32.5889 16.9399 32.6044 16.9399 32.6199C16.9407 32.7695 16.8906 32.9014 16.8316 32.9773C16.8021 33.0156 16.7719 33.04 16.7476 33.0532C16.7225 33.0665 16.7056 33.0702 16.6842 33.0709H1.06649C1.04585 33.0709 1.02816 33.0665 1.0031 33.0532C0.966986 33.0341 0.916868 32.9869 0.877068 32.9102C0.837268 32.8343 0.810735 32.7319 0.810735 32.6191C0.810735 32.6036 0.811472 32.5874 0.812209 32.5719C0.989097 29.842 1.96714 27.4127 3.42057 25.6807C4.14728 24.8147 4.99118 24.1226 5.91173 23.648C6.83302 23.174 7.82949 22.9153 8.8746 22.9153V22.5107Z" fill="#434343"/>
<path d="M8.8746 22.5077C11.5444 22.5077 13.7088 20.3434 13.7088 17.6735C13.7088 15.0037 11.5444 12.8394 8.8746 12.8394C6.20475 12.8394 4.04041 15.0037 4.04041 17.6735C4.04041 20.3434 6.20475 22.5077 8.8746 22.5077Z" fill="white"/>
<path d="M13.7088 17.6735H13.3403C13.3403 18.9081 12.8413 20.0217 12.032 20.831C11.2228 21.6395 10.1084 22.1385 8.87459 22.1392C7.64006 22.1392 6.5264 21.6402 5.71714 20.831C4.90862 20.0217 4.40965 18.9073 4.40891 17.6735C4.40891 16.439 4.90788 15.3254 5.71714 14.5161C6.5264 13.7076 7.6408 13.2086 8.87459 13.2079C10.1091 13.2079 11.2228 13.7068 12.032 14.5161C12.8406 15.3254 13.3395 16.4397 13.3403 17.6735H13.7088H14.0773C14.0773 16.2378 13.4943 14.9347 12.5531 13.9943C11.6127 13.0531 10.3096 12.4701 8.87385 12.4701C7.43811 12.4701 6.13504 13.0531 5.19532 13.9943C4.25413 14.9347 3.67114 16.2378 3.67114 17.6735C3.67114 19.1093 4.25413 20.4124 5.19532 21.3528C6.13578 22.294 7.43885 22.877 8.87385 22.877C10.3096 22.877 11.6127 22.294 12.5531 21.3528C13.4943 20.4124 14.0773 19.1093 14.0773 17.6735H13.7088Z" fill="#434343"/>
<path d="M20.1239 22.5107C15.6737 22.5107 12.0232 26.9256 11.6569 32.5462C11.6244 33.0459 11.9266 33.477 12.315 33.477H27.9327C28.3219 33.477 28.6241 33.0466 28.5909 32.5462C28.2246 26.9248 24.5734 22.5107 20.1239 22.5107Z" fill="#FDC535"/>
<path d="M20.1239 22.5107V22.1054C18.9439 22.1054 17.8155 22.3987 16.7896 22.9279C15.2492 23.7217 13.9365 25.0402 12.9732 26.6971C12.0099 28.3539 11.3938 30.352 11.2523 32.5196C11.2501 32.5528 11.2493 32.5867 11.2493 32.6199C11.2501 32.9375 11.3459 33.2345 11.5242 33.4697C11.6142 33.5868 11.7262 33.6893 11.8603 33.763C11.9937 33.8374 12.1515 33.8817 12.3158 33.8817H27.9335C28.0971 33.8817 28.2549 33.8374 28.389 33.763C28.591 33.651 28.7413 33.4792 28.843 33.2817C28.9447 33.0842 28.9993 32.8579 29 32.6191C29 32.586 28.9993 32.5528 28.9971 32.5189C28.8084 29.6282 27.7773 27.0398 26.2008 25.1589C25.4121 24.2192 24.4864 23.4556 23.4597 22.9264C22.4331 22.3972 21.3054 22.1039 20.1254 22.1039V22.5107V22.9161C21.1705 22.9161 22.1677 23.1741 23.0883 23.6487C24.4695 24.3599 25.6782 25.562 26.5752 27.1046C27.4721 28.6465 28.0544 30.5252 28.1878 32.5727C28.1885 32.5889 28.1893 32.6044 28.1893 32.6199C28.19 32.7695 28.1399 32.9014 28.0809 32.9773C28.0514 33.0156 28.0212 33.04 27.9969 33.0532C27.9718 33.0665 27.9549 33.0702 27.9335 33.0709H12.3158C12.2952 33.0709 12.2775 33.0665 12.2524 33.0532C12.2163 33.0341 12.1662 32.9869 12.1264 32.9102C12.0866 32.8343 12.0601 32.7319 12.0601 32.6199C12.0601 32.6044 12.0608 32.5882 12.0615 32.5727C12.2384 29.8427 13.2165 27.4135 14.6699 25.6814C15.3966 24.8154 16.2405 24.1233 17.1611 23.6487C18.0824 23.1748 19.0788 22.9161 20.1239 22.9161V22.5107Z" fill="#434343"/>
<path d="M20.1239 22.5344C22.7937 22.5344 24.9581 20.37 24.9581 17.7002C24.9581 15.0303 22.7937 12.866 20.1239 12.866C17.454 12.866 15.2897 15.0303 15.2897 17.7002C15.2897 20.37 17.454 22.5344 20.1239 22.5344Z" fill="white"/>
<path d="M24.9581 17.7002H24.5896C24.5896 18.9347 24.0906 20.0483 23.2814 20.8576C22.4721 21.6661 21.3577 22.1651 20.1239 22.1658C18.8894 22.1658 17.7757 21.6669 16.9665 20.8576C16.1579 20.0483 15.659 18.9339 15.6582 17.7002C15.6582 16.4656 16.1572 15.352 16.9665 14.5427C17.7757 13.7342 18.8901 13.2352 20.1239 13.2345C21.3584 13.2345 22.4721 13.7334 23.2814 14.5427C24.0899 15.352 24.5889 16.4664 24.5896 17.7002H24.9581H25.3266C25.3266 16.2644 24.7436 14.9613 23.8024 14.0209C22.862 13.0797 21.5589 12.4967 20.1232 12.4967C18.6874 12.4967 17.3844 13.0797 16.4447 14.0209C15.5035 14.9613 14.9205 16.2644 14.9205 17.7002C14.9205 19.1359 15.5035 20.439 16.4447 21.3794C17.3851 22.3206 18.6882 22.9036 20.1232 22.9036C21.5589 22.9036 22.862 22.3206 23.8024 21.3794C24.7436 20.439 25.3266 19.1359 25.3266 17.7002H24.9581Z" fill="#434343"/>
</svg>
