<svg width="24" height="24" viewBox="0 0 24 24" fill="none" xmlns="http://www.w3.org/2000/svg">
<path fill-rule="evenodd" clip-rule="evenodd" d="M18.161 21.662H5.83801C3.90901 21.662 2.33801 20.092 2.33801 18.162V5.83899C2.33801 3.90899 3.90901 2.33899 5.83801 2.33899H8.87801C9.16975 2.33899 9.44954 2.45488 9.65583 2.66117C9.86212 2.86746 9.97801 3.14725 9.97801 3.43899C9.97801 3.73073 9.86212 4.01052 9.65583 4.21681C9.44954 4.4231 9.16975 4.53899 8.87801 4.53899H5.83801C5.12101 4.53899 4.53801 5.12199 4.53801 5.83899V18.162C4.53801 18.878 5.12101 19.462 5.83801 19.462H18.161C18.878 19.462 19.461 18.878 19.461 18.162V15.119C19.461 14.8273 19.5769 14.5475 19.7832 14.3412C19.9895 14.1349 20.2693 14.019 20.561 14.019C20.8528 14.019 21.1325 14.1349 21.3388 14.3412C21.5451 14.5475 21.661 14.8273 21.661 15.119V18.162C21.661 20.092 20.091 21.662 18.161 21.662Z" fill="white"/>
<path fill-rule="evenodd" clip-rule="evenodd" d="M12.1909 12.909C11.9733 12.909 11.7606 12.8446 11.5796 12.7237C11.3987 12.6028 11.2576 12.431 11.1743 12.23C11.091 12.0289 11.0693 11.8077 11.1117 11.5943C11.1542 11.3808 11.259 11.1848 11.4129 11.031L19.7829 2.66097C19.8846 2.55665 20.006 2.47357 20.14 2.41654C20.2741 2.35951 20.4181 2.32967 20.5638 2.32876C20.7095 2.32784 20.8539 2.35588 20.9886 2.41122C21.1234 2.46657 21.2458 2.54813 21.3488 2.65117C21.4517 2.75421 21.5332 2.87667 21.5885 3.01146C21.6437 3.14624 21.6717 3.29066 21.6707 3.43633C21.6697 3.582 21.6397 3.72602 21.5826 3.86003C21.5255 3.99404 21.4423 4.11537 21.3379 4.21697L12.9689 12.587C12.867 12.6892 12.7459 12.7703 12.6126 12.8256C12.4792 12.8808 12.3363 12.9092 12.1919 12.909" fill="white"/>
<path fill-rule="evenodd" clip-rule="evenodd" d="M20.561 11.939C20.2693 11.939 19.9895 11.8231 19.7832 11.6168C19.5769 11.4105 19.461 11.1307 19.461 10.839V4.53899H13.161C12.8693 4.53899 12.5895 4.4231 12.3832 4.21681C12.1769 4.01052 12.061 3.73073 12.061 3.43899C12.061 3.14725 12.1769 2.86746 12.3832 2.66117C12.5895 2.45488 12.8693 2.33899 13.161 2.33899H20.561C20.8528 2.33899 21.1326 2.45488 21.3389 2.66117C21.5451 2.86746 21.661 3.14725 21.661 3.43899V10.839C21.661 11.1307 21.5451 11.4105 21.3389 11.6168C21.1326 11.8231 20.8528 11.939 20.561 11.939Z" fill="white"/>
</svg>
