<svg width="40" height="40" viewBox="0 0 40 40" fill="none" xmlns="http://www.w3.org/2000/svg">
<rect width="40" height="40" rx="20" fill="#FFC634"/>
<path fill-rule="evenodd" clip-rule="evenodd" d="M20.4649 11.3559L11.4029 20.4179L10.1669 25.0279L9.35389 28.0649C9.33131 28.1497 9.33142 28.239 9.35422 28.3238C9.37701 28.4086 9.42169 28.4859 9.48378 28.548C9.54586 28.6101 9.62317 28.6548 9.70796 28.6775C9.79275 28.7003 9.88204 28.7005 9.96689 28.6779L13.0019 27.8639L17.6129 26.6279H17.6139L26.6759 17.5659L20.4659 11.3559H20.4649ZM30.4229 12.4059L25.6269 7.60888C25.5341 7.51593 25.4239 7.44219 25.3026 7.39188C25.1813 7.34157 25.0512 7.31567 24.9199 7.31567C24.7886 7.31567 24.6585 7.34157 24.5372 7.39188C24.4159 7.44219 24.3057 7.51593 24.2129 7.60888L21.7379 10.0829L27.9489 16.2939L30.4229 13.8189C30.5158 13.7261 30.5896 13.6159 30.6399 13.4946C30.6902 13.3733 30.7161 13.2432 30.7161 13.1119C30.7161 12.9805 30.6902 12.8505 30.6399 12.7292C30.5896 12.6079 30.5158 12.4977 30.4229 12.4049" fill="white"/>
<path d="M10 30H30" stroke="white" stroke-width="1.2" stroke-linecap="round"/>
</svg>
