<svg width="24" height="26" viewBox="0 0 24 26" fill="none" xmlns="http://www.w3.org/2000/svg">
<path d="M11.2149 3.06644C11.2149 2.76915 11.2149 2.47185 11.2149 2.17456C11.2149 2.47142 11.2149 2.76871 11.2149 3.06644C11.2149 3.65406 11.2149 4.23842 11.2149 4.82473C11.2136 4.23842 11.2149 3.65275 11.2149 3.06644Z" fill="#434343"/>
<path d="M21.9794 24.4513C21.9467 24.0054 21.9761 23.5555 21.9702 23.1076C21.965 22.6073 21.7906 22.1234 21.4754 21.7348C21.1601 21.3462 20.7227 21.0757 20.2342 20.9674C20.0383 20.9236 19.8359 20.9112 19.6132 20.8812V20.5874C19.6132 18.9016 19.6289 17.2157 19.6047 15.5299C19.5963 14.9482 19.5577 14.3495 19.4089 13.7906C18.6613 10.9321 16.8318 9.1464 13.9518 8.45105C13.1096 8.24734 12.2543 8.31263 11.3983 8.30872C10.3191 8.29445 9.2539 8.55318 8.30153 9.06087C5.75518 10.4268 4.44413 12.5729 4.38733 15.4594C4.35338 17.1687 4.3808 18.8794 4.3808 20.59V20.8903C4.28678 20.9008 4.21626 20.9125 4.1451 20.9164C3.11154 20.9739 2.24447 21.681 2.08059 22.7009C1.98853 23.2735 2.05708 23.8702 2.0153 24.4533C1.98069 24.9345 2.13021 25.289 2.56178 25.5142H21.4309C21.8658 25.287 22.0153 24.9319 21.9794 24.4513ZM5.97913 15.2714C5.9968 14.0741 6.40723 12.9157 7.14732 11.9744C7.88741 11.0331 8.91619 10.3609 10.0755 10.0611C11.0503 9.80323 12.0466 9.81172 13.0345 9.91488C15.1427 10.1336 16.6392 11.2481 17.5494 13.1488C17.8598 13.7966 18.0202 14.506 18.0188 15.2244C18.0223 17.0564 18.0238 18.8887 18.0234 20.7212C18.0234 20.7689 18.0162 20.8172 18.0103 20.8936H5.99153C5.98174 20.8357 5.9752 20.7773 5.97194 20.7186C5.97194 18.9029 5.95366 17.0871 5.97913 15.2714ZM20.4085 23.9309H3.59012C3.59012 23.6489 3.57576 23.3799 3.59339 23.1135C3.61689 22.7472 3.90221 22.4926 4.27307 22.4802C4.32987 22.4802 4.38733 22.4802 4.44413 22.4802H19.546C20.1656 22.4802 20.4059 22.7178 20.4065 23.329L20.4085 23.9309Z" fill="#434343"/>
<path d="M3.33814 4.52648C3.18887 4.38094 2.9879 4.30065 2.77944 4.30329C2.57098 4.30592 2.3721 4.39125 2.22656 4.54052C2.08101 4.68979 2.00073 4.89076 2.00336 5.09922C2.00599 5.30768 2.09133 5.50656 2.24059 5.6521C3.07763 6.49697 3.91531 7.34119 4.76736 8.16908C4.90774 8.30619 5.12255 8.36495 5.30275 8.46158C5.66642 8.39629 5.90865 8.24547 6.04315 7.93925C6.18679 7.6128 6.12346 7.31181 5.87797 7.0637C5.03658 6.21361 4.18997 5.36787 3.33814 4.52648Z" fill="#434343"/>
<path d="M20.6234 4.55588C20.3492 4.82292 20.0808 5.09649 19.8105 5.3668C19.2516 5.92569 18.6914 6.48197 18.1352 7.04348C17.874 7.30856 17.8087 7.62457 17.9478 7.93666C18.0869 8.24875 18.3226 8.3937 18.7855 8.41329C18.8814 8.35909 19.106 8.2827 19.2582 8.13906C20.0933 7.32749 20.9127 6.50025 21.7334 5.67367C22.0775 5.32697 22.0827 4.83337 21.7601 4.51867C21.4376 4.20396 20.9662 4.22224 20.6234 4.55588Z" fill="#434343"/>
<path d="M11.9893 0.485596C11.546 0.485596 11.2182 0.823151 11.2156 1.28345C11.2156 1.58031 11.2156 1.87739 11.2156 2.17468C11.2156 2.47197 11.2156 2.76926 11.2156 3.06656C11.2156 3.65418 11.2156 4.23853 11.2156 4.82485C11.2156 5.2956 11.5518 5.65209 11.9925 5.65535C12.4333 5.65862 12.776 5.30082 12.776 4.83464C12.776 3.65418 12.776 2.47349 12.776 1.29259C12.7773 0.819234 12.4431 0.485596 11.9893 0.485596Z" fill="#434343"/>
</svg>
