<svg width="32" height="28" viewBox="0 0 32 28" fill="none" xmlns="http://www.w3.org/2000/svg">
<g clip-path="url(#clip0_1021_466)">
<path d="M26.0876 0.480957H5.91235V14.2159H26.0876V0.480957Z" fill="white"/>
<path d="M26.0876 14.2158V13.7349H6.39325V0.961827H25.6067V14.2158H26.0876V13.7349V14.2158H26.5685V0H5.43143V14.6967H26.5685V14.2158H26.0876Z" fill="#434343"/>
<path d="M6.1278 9.91743L12.272 6.84535C12.4133 6.77514 12.5653 6.74051 12.7173 6.74051C12.9135 6.74051 13.1078 6.79822 13.2751 6.91172L17.9333 10.0607L20.9236 8.21115C21.0842 8.11208 21.265 8.06206 21.4478 8.06206C21.6132 8.06206 21.7777 8.10246 21.9277 8.18518L25.8558 10.3426L26.3185 9.49903L22.3904 7.34166C22.097 7.18007 21.7719 7.10024 21.4478 7.10024C21.09 7.10024 20.7322 7.19834 20.4177 7.39263L17.9573 8.91521L13.8147 6.11436C13.4848 5.89122 13.102 5.77869 12.7182 5.77869C12.4191 5.77869 12.119 5.84698 11.843 5.98548L5.6969 9.05756L6.1278 9.91743Z" fill="#434343"/>
<path d="M20.8996 4.68885C20.8996 5.56411 20.1897 6.27394 19.3145 6.27394C18.4392 6.27394 17.7294 5.56411 17.7294 4.68885C17.7294 3.81359 18.4392 3.10376 19.3145 3.10376C20.1897 3.10376 20.8996 3.81359 20.8996 4.68885Z" fill="#FDC534"/>
<path d="M20.8996 4.68893H20.4187C20.4187 4.99575 20.2955 5.26795 20.0955 5.46993C19.8945 5.67096 19.6213 5.79311 19.3145 5.79311C19.0077 5.79311 18.7345 5.66999 18.5335 5.46993C18.3325 5.26891 18.2103 4.99575 18.2103 4.68893C18.2103 4.38211 18.3334 4.10991 18.5335 3.90793C18.7345 3.7069 19.0077 3.58475 19.3145 3.58475C19.6213 3.58475 19.8935 3.70787 20.0955 3.90793C20.2965 4.10895 20.4187 4.38211 20.4187 4.68893H20.8996H21.3805C21.3805 4.11953 21.1487 3.60014 20.7755 3.22791C20.4033 2.85473 19.8839 2.62292 19.3145 2.62292C18.7451 2.62292 18.2257 2.85473 17.8535 3.22791C17.4803 3.60014 17.2485 4.11953 17.2485 4.68893C17.2485 5.25833 17.4803 5.77772 17.8535 6.14995C18.2257 6.52313 18.7451 6.75494 19.3145 6.75494C19.8839 6.75494 20.4033 6.52313 20.7755 6.14995C21.1487 5.77772 21.3805 5.25833 21.3805 4.68893H20.8996Z" fill="#434343"/>
<path d="M3.29427 27.1139H0.480927V15.622C0.480927 14.8449 1.11092 14.2158 1.88712 14.2158C2.66427 14.2158 3.29331 14.8458 3.29331 15.622V27.1139H3.29427Z" fill="#FDC535"/>
<path d="M3.29426 27.1139V26.633H0.961827V15.622C0.961827 15.3651 1.06474 15.1362 1.23306 14.9679C1.40234 14.7996 1.6303 14.6967 1.88711 14.6967C2.14391 14.6967 2.37283 14.7996 2.54115 14.9679C2.70947 15.1372 2.81238 15.3651 2.81238 15.622V27.1139H3.29426V26.633V27.1139H3.77517V15.622C3.77517 15.1026 3.56357 14.6274 3.22212 14.2869C2.88163 13.9465 2.40745 13.7339 1.88807 13.7339C1.36868 13.7339 0.893538 13.9455 0.553051 14.2869C0.211602 14.6274 0 15.1026 0 15.622V27.5948H3.77517V27.1139H3.29426Z" fill="#434343"/>
<path d="M31.5191 27.1139H28.7057V15.622C28.7057 14.8449 29.3357 14.2158 30.1119 14.2158C30.8891 14.2158 31.5181 14.8458 31.5181 15.622V27.1139H31.5191Z" fill="#FDC535"/>
<path d="M31.5191 27.1139V26.633H29.1867V15.622C29.1867 15.3651 29.2896 15.1362 29.4579 14.9679C29.6272 14.7996 29.8552 14.6967 30.112 14.6967C30.3688 14.6967 30.5977 14.7996 30.766 14.9679C30.9343 15.1372 31.0372 15.3651 31.0372 15.622V27.1139H31.5191V26.633V27.1139H32V15.622C32 15.1026 31.7884 14.6274 31.447 14.2869C31.1065 13.9465 30.6323 13.7339 30.112 13.7339C29.5926 13.7339 29.1174 13.9455 28.7779 14.2869C28.4374 14.6274 28.2249 15.1016 28.2249 15.622V27.5948H32V27.1139H31.5191Z" fill="#434343"/>
<path d="M3.05573 17.4707C3.07497 17.4813 4.5783 18.3344 7.03481 19.1875C9.49132 20.0397 12.902 20.8938 16.7387 20.8948C18.6566 20.8948 20.6812 20.6803 22.7424 20.1436C24.8036 19.6069 26.9014 18.747 28.9606 17.4601C29.1857 17.3197 29.254 17.0225 29.1136 16.7974C28.9731 16.5723 28.6759 16.504 28.4509 16.6445C26.4762 17.8785 24.4727 18.6989 22.5 19.2125C20.5273 19.7262 18.5854 19.932 16.7387 19.932C13.0453 19.932 9.7337 19.1058 7.35029 18.2777C6.15859 17.8641 5.19868 17.4505 4.53983 17.1408C4.20992 16.9859 3.956 16.858 3.7848 16.7685C3.69919 16.7243 3.63475 16.6897 3.59243 16.6666C3.57127 16.655 3.55492 16.6464 3.5453 16.6406L3.53472 16.6349L3.5328 16.6339C3.30196 16.5031 3.0086 16.5839 2.87683 16.8147C2.7441 17.0456 2.82489 17.3389 3.05573 17.4707Z" fill="#434343"/>
</g>
<defs>
<clipPath id="clip0_1021_466">
<rect width="32" height="27.5948" fill="white"/>
</clipPath>
</defs>
</svg>
