<svg width="7" height="13" viewBox="0 0 7 13" fill="none" xmlns="http://www.w3.org/2000/svg">
<path fill-rule="evenodd" clip-rule="evenodd" d="M1.10936 12.2375C0.864981 12.2375 0.620606 12.1419 0.429356 11.9612C0.25093 11.782 0.150757 11.5394 0.150757 11.2865C0.150757 11.0337 0.25093 10.7911 0.429356 10.6119L4.54123 6.49998L0.429356 2.39873C0.25093 2.21952 0.150757 1.97693 0.150757 1.72404C0.150757 1.47115 0.25093 1.22856 0.429356 1.04935C0.608566 0.870925 0.851156 0.770752 1.10404 0.770752C1.35693 0.770752 1.59952 0.870925 1.77873 1.04935L6.55998 5.8306C6.73841 6.00981 6.83858 6.2524 6.83858 6.50529C6.83858 6.75818 6.73841 7.00077 6.55998 7.17998L1.77873 11.9612C1.59811 12.1419 1.35373 12.2375 1.10936 12.2375Z" fill="#434343"/>
</svg>
