<svg width="37" height="22" viewBox="0 0 37 22" fill="none" xmlns="http://www.w3.org/2000/svg">
<g clip-path="url(#clip0_1021_441)">
<path d="M35.8959 13.0405H1.10415C0.74301 13.0405 0.450317 12.7489 0.450317 12.3892V9.61078C0.450317 9.25104 0.74301 8.95947 1.10415 8.95947H35.8968C36.2579 8.95947 36.5506 9.25104 36.5506 9.61078V12.3892C36.5497 12.7489 36.257 13.0405 35.8959 13.0405Z" fill="white"/>
<path d="M35.8959 13.0405V12.592H1.10413C1.04649 12.592 0.998759 12.5704 0.960033 12.5328C0.922208 12.4951 0.900594 12.4466 0.900594 12.3892V9.61085C0.900594 9.55344 0.922208 9.50589 0.960033 9.46731C0.997858 9.42963 1.04649 9.4081 1.10413 9.4081H35.8968C35.9544 9.4081 36.0021 9.42963 36.0409 9.46731C36.0787 9.50499 36.1003 9.55344 36.1003 9.61085V12.3892C36.1003 12.4466 36.0787 12.4942 36.0409 12.5328C36.003 12.5704 35.9544 12.592 35.8968 12.592V13.0405V13.4891C36.2003 13.4891 36.4786 13.3653 36.6776 13.167C36.8766 12.9697 37.0009 12.6916 37.0009 12.3892V9.61085C37.0009 9.30852 36.8766 9.03131 36.6776 8.83305C36.4795 8.63479 36.2003 8.51099 35.8968 8.51099H1.10413C0.800628 8.51099 0.522344 8.63479 0.323313 8.83305C0.124282 9.03042 0 9.30852 0 9.61085V12.3892C0 12.6916 0.124282 12.9688 0.323313 13.167C0.521444 13.3653 0.800628 13.4891 1.10413 13.4891H35.8968V13.0405H35.8959Z" fill="#434343"/>
<path d="M27.2465 21.5514H24.9581C24.1395 21.5514 23.4749 20.8903 23.4749 20.0739V1.9261C23.4749 1.11062 24.1386 0.448547 24.9581 0.448547H27.2465C28.0652 0.448547 28.7298 1.10972 28.7298 1.9261V20.0748C28.7298 20.8903 28.0661 21.5514 27.2465 21.5514Z" fill="#FDC536"/>
<path d="M27.2466 21.5514V21.1029H24.9582C24.6718 21.1029 24.416 20.9881 24.2278 20.8015C24.0405 20.614 23.9252 20.3592 23.9252 20.0739V1.92611C23.9252 1.64083 24.0405 1.38605 24.2278 1.19855C24.416 1.01195 24.6718 0.897117 24.9582 0.897117H27.2466C27.533 0.897117 27.7887 1.01195 27.977 1.19855C28.1643 1.38605 28.2796 1.64083 28.2796 1.92611V20.0748C28.2796 20.3601 28.1643 20.6149 27.977 20.8024C27.7887 20.989 27.533 21.1038 27.2466 21.1038V21.5514V22C27.7788 22 28.2652 21.7838 28.6137 21.4357C28.9631 21.0885 29.1802 20.6041 29.1802 20.0739V1.92611C29.1802 1.39591 28.9631 0.911471 28.6137 0.564287C28.2652 0.216205 27.7797 0 27.2466 0H24.9582C24.4259 0 23.9396 0.216205 23.5911 0.564287C23.2416 0.911471 23.0246 1.39591 23.0246 1.92611V20.0748C23.0246 20.605 23.2416 21.0894 23.5911 21.4366C23.9396 21.7847 24.4259 22.0009 24.9582 22.0009H27.2466V21.5514Z" fill="#434343"/>
<path d="M32.5006 18.0814H30.2122C29.3936 18.0814 28.7289 17.4202 28.7289 16.6038V5.39613C28.7289 4.58065 29.3927 3.91858 30.2122 3.91858H32.5006C33.3193 3.91858 33.9839 4.57975 33.9839 5.39613V16.6038C33.9839 17.4202 33.3202 18.0814 32.5006 18.0814Z" fill="#FDC536"/>
<path d="M32.5006 18.0814V17.6328H30.2122C29.9258 17.6328 29.67 17.518 29.4818 17.3314C29.2945 17.1439 29.1792 16.8891 29.1792 16.6038V5.39614C29.1792 5.11086 29.2945 4.85608 29.4818 4.66858C29.67 4.48198 29.9258 4.36715 30.2122 4.36715H32.5006C32.787 4.36715 33.0428 4.48198 33.231 4.66858C33.4183 4.85608 33.5336 5.11086 33.5336 5.39614V16.6038C33.5336 16.8891 33.4183 17.1439 33.231 17.3314C33.0428 17.518 32.787 17.6328 32.5006 17.6328V18.0814V18.5299C33.0329 18.5299 33.5192 18.3137 33.8677 17.9656C34.2171 17.6185 34.4342 17.134 34.4342 16.6038V5.39614C34.4342 4.86595 34.2171 4.3815 33.8677 4.03432C33.5192 3.68624 33.0329 3.47003 32.5006 3.47003H30.2122C29.6799 3.47003 29.1936 3.68624 28.8451 4.03432C28.4957 4.3815 28.2786 4.86595 28.2786 5.39614V16.6038C28.2786 17.134 28.4957 17.6185 28.8451 17.9656C29.1936 18.3137 29.6799 18.5299 30.2122 18.5299H32.5006V18.0814Z" fill="#434343"/>
<path d="M9.81378 21.5514H12.1022C12.9208 21.5514 13.5855 20.8903 13.5855 20.0739V1.9261C13.5855 1.11062 12.9217 0.448547 12.1022 0.448547H9.81378C8.99424 0.448547 8.33051 1.10972 8.33051 1.9261V20.0748C8.33051 20.8903 8.99424 21.5514 9.81378 21.5514Z" fill="#FDC536"/>
<path d="M9.81375 21.5514V22H12.1022C12.6344 22 13.1207 21.7838 13.4693 21.4357C13.8187 21.0885 14.0357 20.6041 14.0357 20.0739V1.92611C14.0357 1.39591 13.8187 0.911471 13.4693 0.564287C13.1198 0.216205 12.6335 0 12.1013 0H9.81285C9.2806 0 8.79428 0.216205 8.44575 0.564287C8.09632 0.911471 7.87927 1.39591 7.87927 1.92611V20.0748C7.87927 20.605 8.09632 21.0894 8.44575 21.4366C8.79428 21.7847 9.2806 22.0009 9.81285 22.0009V21.5514V21.1029C9.52646 21.1029 9.27069 20.9881 9.08247 20.8015C8.89514 20.614 8.77987 20.3592 8.77987 20.0739V1.92611C8.77987 1.64083 8.89514 1.38605 9.08247 1.19855C9.27069 1.01195 9.52646 0.897117 9.81285 0.897117H12.1013C12.3876 0.897117 12.6434 1.01195 12.8316 1.19855C13.019 1.38605 13.1342 1.64083 13.1342 1.92611V20.0748C13.1342 20.3601 13.019 20.6149 12.8316 20.8024C12.6434 20.989 12.3876 21.1038 12.1013 21.1038H9.81285V21.5514H9.81375Z" fill="#434343"/>
<path d="M4.55969 18.0814H6.8481C7.66674 18.0814 8.33138 17.4202 8.33138 16.6038V5.39613C8.33138 4.58065 7.66764 3.91858 6.8481 3.91858H4.55969C3.74105 3.91858 3.07642 4.57975 3.07642 5.39613V16.6038C3.07642 17.4202 3.74015 18.0814 4.55969 18.0814Z" fill="#FDC536"/>
<path d="M4.55973 18.0814V18.5299H6.84814C7.38039 18.5299 7.86672 18.3137 8.21525 17.9656C8.56468 17.6185 8.78172 17.134 8.78172 16.6038V5.39614C8.78172 4.86595 8.56468 4.3815 8.21525 4.03432C7.86672 3.68624 7.38039 3.47003 6.84814 3.47003H4.55973C4.02748 3.47003 3.54116 3.68624 3.19263 4.03432C2.8432 4.3815 2.62616 4.86595 2.62616 5.39614V16.6038C2.62616 17.134 2.8432 17.6185 3.19263 17.9656C3.54116 18.3137 4.02748 18.5299 4.55973 18.5299V18.0814V17.6328C4.27335 17.6328 4.01758 17.518 3.82935 17.3314C3.64203 17.1439 3.52675 16.8891 3.52675 16.6038V5.39614C3.52675 5.11086 3.64203 4.85608 3.82935 4.66858C4.01758 4.48198 4.27335 4.36715 4.55973 4.36715H6.84814C7.13453 4.36715 7.3903 4.48198 7.57853 4.66858C7.76585 4.85608 7.88113 5.11086 7.88113 5.39614V16.6038C7.88113 16.8891 7.76585 17.1439 7.57853 17.3314C7.3903 17.518 7.13453 17.6328 6.84814 17.6328H4.55973V18.0814Z" fill="#434343"/>
</g>
<defs>
<clipPath id="clip0_1021_441">
<rect width="37" height="22" fill="white"/>
</clipPath>
</defs>
</svg>
