<svg width="38" height="38" viewBox="0 0 38 38" fill="none" xmlns="http://www.w3.org/2000/svg">
<path d="M2.9375 0L0 2.9375L9.08333 12.0208L8.47917 12.6458H0.145833V25.1458H8.47917L18.8958 35.5625V21.8333L27.6042 30.5417C26.25 31.5625 24.7292 32.375 23.0625 32.8542V37.1458C25.8542 36.5208 28.4167 35.2292 30.5833 33.5L34.8542 37.7708L37.7917 34.8333L2.9375 0ZM14.7292 25.5L10.2083 20.9792H4.3125V16.8125H10.2083L12.0417 14.9792L14.7292 17.6667V25.5ZM33.4792 18.8958C33.4792 20.6042 33.1667 22.25 32.625 23.7708L35.8125 26.9583C36.9792 24.5208 37.6458 21.7917 37.6458 18.8958C37.6458 9.97917 31.4167 2.52083 23.0625 0.625V4.91667C29.0833 6.70833 33.4792 12.2917 33.4792 18.8958ZM18.8958 2.22917L14.9792 6.14583L18.8958 10.0625V2.22917ZM28.2708 18.8958C28.2708 15.2083 26.1458 12.0417 23.0625 10.5V14.2292L28.2292 19.3958C28.25 19.2292 28.2708 19.0625 28.2708 18.8958Z" fill="#969696"/>
</svg>
