<svg width="120" height="120" viewBox="0 0 120 120" fill="none" xmlns="http://www.w3.org/2000/svg">
<path d="M106.667 0H13.3333C6 0 0 6 0 13.3333V106.667C0 114 6 120 13.3333 120H106.667C114 120 120 114 120 106.667V13.3333C120 6 114 0 106.667 0ZM106.667 106.667H13.3333V76.1333L19.9333 82.7333L46.6 56.0667L73.2667 82.7333L99.9333 56.1333L106.667 62.8667V106.667ZM106.667 43.9333L99.9333 37.2L73.2667 63.9333L46.6 37.2667L19.9333 63.9333L13.3333 57.2667V13.3333H106.667V43.9333Z" fill="#D9D9D9"/>
</svg>
