<svg width="40" height="40" viewBox="0 0 40 40" fill="none" xmlns="http://www.w3.org/2000/svg">
<rect width="40" height="40" rx="20" fill="#FFC634"/>
<path fill-rule="evenodd" clip-rule="evenodd" d="M27.031 17.9338L22.358 16.3018L23.77 9.32983C23.997 8.20583 22.61 7.48883 21.825 8.32283L12.515 18.2108C12.3849 18.349 12.2913 18.5175 12.2429 18.7011C12.1945 18.8846 12.1927 19.0774 12.2377 19.2618C12.2827 19.4462 12.3731 19.6165 12.5006 19.7571C12.6282 19.8977 12.7889 20.0041 12.968 20.0668L17.64 21.6988L16.23 28.6708C16.001 29.7938 17.388 30.5108 18.174 29.6778L27.485 19.7878C28.05 19.1878 27.809 18.2048 27.031 17.9338Z" fill="white"/>
</svg>
