<svg width="20" height="17" viewBox="0 0 20 17" fill="none" xmlns="http://www.w3.org/2000/svg">
<path fill-rule="evenodd" clip-rule="evenodd" d="M5.55407 14.2375C5.33191 14.2375 5.10975 14.1419 4.93589 13.9613C4.77368 13.782 4.68262 13.5395 4.68262 13.2866C4.68262 13.0337 4.77368 12.7911 4.93589 12.6119L8.67396 8.50001L4.93589 4.39876C4.77368 4.21955 4.68262 3.97696 4.68262 3.72407C4.68262 3.47118 4.77368 3.22859 4.93589 3.04938C5.09881 2.87096 5.31934 2.77078 5.54924 2.77078C5.77914 2.77078 5.99968 2.87096 6.16259 3.04938L10.5092 7.83063C10.6714 8.00984 10.7625 8.25243 10.7625 8.50532C10.7625 8.75821 10.6714 9.0008 10.5092 9.18001L6.16259 13.9613C5.99839 14.1419 5.77623 14.2375 5.55407 14.2375" fill="#9B9B9B"/>
<path fill-rule="evenodd" clip-rule="evenodd" d="M14.4459 14.2375C14.6681 14.2375 14.8902 14.1419 15.0641 13.9613C15.2263 13.782 15.3174 13.5395 15.3174 13.2866C15.3174 13.0337 15.2263 12.7911 15.0641 12.6119L11.326 8.50001L15.0641 4.39876C15.2263 4.21955 15.3174 3.97696 15.3174 3.72407C15.3174 3.47118 15.2263 3.22859 15.0641 3.04938C14.9012 2.87096 14.6807 2.77078 14.4508 2.77078C14.2209 2.77078 14.0003 2.87096 13.8374 3.04938L9.49082 7.83063C9.32861 8.00984 9.23754 8.25243 9.23754 8.50532C9.23754 8.75821 9.32861 9.0008 9.49082 9.18001L13.8374 13.9613C14.0016 14.1419 14.2238 14.2375 14.4459 14.2375" fill="#9B9B9B"/>
</svg>
