<svg width="32" height="30" viewBox="0 0 32 30" fill="none" xmlns="http://www.w3.org/2000/svg">
<g clip-path="url(#clip0_1021_503)">
<path d="M30.9551 15.6855C30.9118 15.1086 30.6674 14.9215 30.1173 14.926C27.9178 14.9424 25.7176 14.9327 23.5182 14.9327C23.2804 14.9327 23.0426 14.9327 22.7773 14.9327C22.7445 14.5772 22.7072 14.2925 22.6931 14.0055C22.5954 12.0975 22.4866 10.1902 22.4188 8.28139C22.3979 7.68737 22.1818 7.4429 21.5788 7.4578C20.4526 7.48538 19.3249 7.466 18.1346 7.466C18.1346 6.54105 18.1384 5.68019 18.1339 4.81934C18.1167 1.69119 15.3158 -0.538842 12.2547 0.115557C11.926 0.185618 11.5571 0.187854 11.2292 0.117793C8.13752 -0.547041 5.34477 1.69491 5.33359 4.87002C5.33061 5.71 5.33285 6.54925 5.33285 7.466C4.14554 7.466 3.05735 7.49209 1.97141 7.45631C1.32148 7.4347 1.06434 7.65979 1.04347 8.33208C0.980864 10.3079 0.861611 12.2816 0.760246 14.256C0.509815 19.1133 0.254912 23.9713 0.0104441 28.8294C-0.0380023 29.7894 0.0514373 29.8676 0.998752 29.8676C10.9981 29.8684 20.9974 29.8684 30.9961 29.8676C31.9382 29.8676 32.0537 29.7514 31.9821 28.8346C31.6385 24.4521 31.2838 20.0695 30.9551 15.6855ZM21.3515 8.56685C21.4022 9.6282 21.4506 10.6836 21.5028 11.7382C21.5542 12.7757 21.6109 13.8132 21.6668 14.8925C21.3239 14.8925 21.0273 14.8925 20.6822 14.8925C20.557 12.7862 20.4332 10.6948 20.3073 8.56685C20.6613 8.56685 20.9624 8.56685 21.3515 8.56685ZM19.2221 8.58474C19.3488 10.665 19.4755 12.7541 19.6067 14.9141C19.2064 14.9141 18.9008 14.9141 18.4887 14.9141C18.3821 12.816 18.2755 10.7268 18.1667 8.58474C18.4998 8.58474 18.8188 8.58474 19.2221 8.58474ZM14.4952 1.26411C15.9158 1.71131 16.966 3.02756 17.0472 4.51748C17.0994 5.46628 17.0569 6.4203 17.0569 7.43992C16.3257 7.43992 15.6683 7.43992 14.9416 7.43992C14.8813 5.21883 15.3426 2.86508 13.3429 1.05393C13.7282 1.12101 14.1255 1.14784 14.4952 1.26411ZM11.7181 1.55479C12.6468 1.53988 13.246 2.5267 13.5755 3.42333C13.761 3.92941 13.8222 4.49661 13.8542 5.0407C13.8997 5.81137 13.8654 6.58726 13.8654 7.43619C12.4262 7.43619 11.0607 7.43619 9.61253 7.43619C9.67141 6.09907 9.36955 4.75076 9.86743 3.44867C10.2118 2.54981 10.8021 1.5697 11.7181 1.55479ZM6.55817 3.87128C6.86152 2.20025 8.5005 1.02411 10.2692 1.11654C8.16137 2.82334 8.54224 5.14877 8.53777 7.43843C7.7984 7.43843 7.14102 7.43843 6.345 7.43843C6.40761 6.23248 6.34799 5.02803 6.55817 3.87128ZM6.88313 13.9295C7.024 14.9268 6.93158 15.9575 6.93158 17.0398C6.18998 17.0398 5.53334 17.0398 4.80143 17.0398C4.80143 15.9575 4.71646 14.8902 4.85062 13.8505C4.89385 13.5151 5.53558 13.0008 5.8665 13.0277C6.24289 13.0582 6.83171 13.5665 6.88313 13.9295ZM12.9151 27.9082C12.8935 28.1914 12.845 28.4731 12.8063 28.7757C8.90447 28.7757 5.04366 28.7757 1.09937 28.7757C1.43552 22.0432 1.77091 15.3337 2.1078 8.57952C3.17735 8.57952 4.20963 8.57952 5.32837 8.57952C5.32837 9.6528 5.3634 10.735 5.29856 11.8105C5.28589 12.0252 4.92142 12.2846 4.66429 12.406C3.89361 12.7705 3.65809 13.3355 3.71473 14.1695C3.78703 15.2316 3.7438 16.3019 3.72741 17.3685C3.71921 17.8984 3.92641 18.1481 4.47274 18.1384C5.40589 18.122 6.33979 18.125 7.27294 18.1376C7.77455 18.1443 8.00635 17.9297 8.00262 17.4214C7.99293 16.1327 7.97653 14.8425 8.01082 13.5546C8.02498 13.0187 7.70225 12.778 7.32362 12.6028C6.55742 12.2473 6.2891 11.7032 6.38227 10.8625C6.46426 10.1201 6.39941 9.36212 6.39941 8.57282C8.88733 8.57282 11.3231 8.57282 13.8661 8.57282C13.8661 9.03269 13.8706 9.5097 13.8646 9.98671C13.8602 10.3743 14.0159 10.7067 14.4177 10.6299C14.6219 10.5904 14.8679 10.2416 14.9103 10.0009C14.9893 9.55218 14.9327 9.0789 14.9327 8.5758C15.6549 8.5758 16.3309 8.5758 17.0874 8.5758C17.1918 10.6806 17.2954 12.775 17.402 14.9342C16.4524 14.9342 15.5677 14.9521 14.6845 14.9275C14.1344 14.9126 13.8885 15.1079 13.846 15.6862C13.5509 19.7602 13.2311 23.8342 12.9151 27.9082ZM13.919 28.7802C14.2448 24.5206 14.569 20.2879 14.8947 16.0298C18.4946 16.0298 22.0402 16.0298 25.6386 16.0298C25.9643 20.276 26.2878 24.4968 26.6165 28.7802C22.351 28.7802 18.1823 28.7802 13.919 28.7802ZM27.6018 27.5169C27.3089 23.703 27.016 19.8884 26.7201 16.0351C27.0808 16.0351 27.3834 16.0351 27.771 16.0351C27.888 17.1195 28.0132 18.2107 28.1213 19.3041C28.3181 21.2904 28.4783 23.2812 28.7116 25.263C28.7735 25.7922 28.7042 26.2073 28.3785 26.6135C28.1444 26.9057 27.9536 27.2314 27.7434 27.543C27.6957 27.5348 27.6488 27.5258 27.6018 27.5169ZM28.2555 28.7437C28.5976 28.2205 28.927 27.7174 29.3295 27.1017C29.7223 27.689 30.051 28.1802 30.4274 28.7437C29.6932 28.7437 29.0261 28.7437 28.2555 28.7437ZM30.5421 27.1479C30.2947 26.5606 29.8959 25.9904 29.8244 25.3822C29.4763 22.436 29.2155 19.4785 28.9263 16.5255C28.9114 16.3764 28.924 16.2251 28.924 16.038C29.246 16.038 29.5456 16.038 29.9041 16.038C30.1874 19.7177 30.4691 23.381 30.7516 27.0436C30.6823 27.0779 30.6122 27.1129 30.5421 27.1479Z" fill="#434343"/>
<path d="M14.6845 14.9267C15.5677 14.9506 16.4524 14.9334 17.402 14.9334C17.2954 12.7734 17.1918 10.6798 17.0874 8.575C16.3309 8.575 15.6557 8.575 14.9327 8.575C14.9327 9.07885 14.9886 9.55138 14.9103 10.0001C14.8678 10.2416 14.6219 10.5904 14.4177 10.6291C14.0167 10.7066 13.8602 10.3742 13.8646 9.98591C13.8706 9.5089 13.8661 9.03114 13.8661 8.57202C11.3223 8.57202 8.88657 8.57202 6.39941 8.57202C6.39941 9.36133 6.46425 10.1193 6.38226 10.8617C6.2891 11.7024 6.55742 12.2472 7.32362 12.602C7.7015 12.7772 8.02497 13.0179 8.01081 13.5538C7.97653 14.8417 7.99292 16.1312 8.00261 17.4206C8.00634 17.9289 7.77454 18.1435 7.27293 18.1368C6.33978 18.1249 5.40588 18.1219 4.47273 18.1376C3.9264 18.1473 3.7192 17.8976 3.7274 17.3677C3.7438 16.3011 3.78703 15.2308 3.71473 14.1687C3.65808 13.3347 3.89361 12.769 4.66428 12.4053C4.92142 12.2838 5.28588 12.0244 5.29855 11.8097C5.3634 10.7335 5.32837 9.652 5.32837 8.57873C4.21037 8.57873 3.17735 8.57873 2.1078 8.57873C1.77016 15.3329 1.43551 22.0424 1.09937 28.7749C5.04365 28.7749 8.90521 28.7749 12.8063 28.7749C12.845 28.4731 12.8935 28.1913 12.9151 27.9074C13.2304 23.8334 13.5508 19.7602 13.846 15.6847C13.8885 15.1071 14.1344 14.9111 14.6845 14.9267Z" fill="white"/>
<path d="M14.8947 16.0298C14.569 20.2879 14.2448 24.5198 13.9191 28.7801C18.1824 28.7801 22.351 28.7801 26.6165 28.7801C26.2878 24.4967 25.9643 20.2759 25.6386 16.0298C22.0402 16.0298 18.4946 16.0298 14.8947 16.0298ZM23.4645 22.9733C23.4325 24.4408 22.2973 25.5782 20.8246 25.5939C20.229 25.6006 19.6141 25.6162 19.0417 25.4821C17.8402 25.1988 17.0822 24.1859 17.0696 22.9569C17.0554 21.6019 17.0703 20.2469 17.0636 18.8919C17.0614 18.4946 17.1426 18.1413 17.6114 18.151C18.0802 18.1607 18.1391 18.5266 18.1369 18.9164C18.1294 20.1828 18.1294 21.4491 18.1354 22.7147C18.1414 23.893 18.7704 24.5213 19.9421 24.5333C20.1642 24.5355 20.3863 24.5362 20.6084 24.5333C21.7465 24.5191 22.3897 23.8908 22.3979 22.7638C22.4069 21.4975 22.4047 20.2312 22.3979 18.9656C22.3957 18.5617 22.4203 18.148 22.9383 18.1525C23.4563 18.157 23.4749 18.5743 23.4697 18.9753C23.4615 19.6417 23.4675 20.308 23.4675 20.9743C23.4667 21.6406 23.4794 22.3077 23.4645 22.9733Z" fill="#FFC632"/>
<path d="M28.7109 25.263C28.4776 23.2811 28.3173 21.2904 28.1206 19.3041C28.0125 18.2107 27.8865 17.1187 27.7703 16.035C27.3827 16.035 27.0801 16.035 26.7194 16.035C27.0153 19.8884 27.3082 23.703 27.6011 27.5168C27.648 27.5258 27.695 27.534 27.742 27.5429C27.9521 27.2321 28.1437 26.9057 28.377 26.6135C28.7034 26.2073 28.7735 25.7922 28.7109 25.263Z" fill="white"/>
<path d="M28.9248 16.0372C28.9248 16.2243 28.9121 16.3756 28.927 16.5247C29.2162 19.4784 29.4771 22.4352 29.8251 25.3814C29.8967 25.9896 30.2954 26.5598 30.5429 27.1471C30.6129 27.1121 30.683 27.0771 30.7531 27.042C30.4713 23.3787 30.1888 19.7162 29.9056 16.0365C29.5471 16.0372 29.2475 16.0372 28.9248 16.0372Z" fill="white"/>
<path d="M4.85063 13.8505C4.71647 14.8903 4.80144 15.9576 4.80144 17.0398C5.53335 17.0398 6.18999 17.0398 6.93159 17.0398C6.93159 15.9576 7.02401 14.9268 6.88314 13.9295C6.83172 13.5666 6.2429 13.0582 5.86651 13.0277C5.53559 13.0016 4.89386 13.5159 4.85063 13.8505Z" fill="#FFC632"/>
<path d="M19.6067 14.9133C19.4755 12.7541 19.3488 10.6642 19.2221 8.58398C18.8188 8.58398 18.5006 8.58398 18.1667 8.58398C18.2755 10.7261 18.3821 12.8152 18.4887 14.9133C18.9008 14.9133 19.2064 14.9133 19.6067 14.9133Z" fill="white"/>
<path d="M21.6675 14.8925C21.6109 13.8133 21.555 12.7758 21.5036 11.7383C21.4506 10.6829 21.4029 9.6275 21.3523 8.56689C20.9632 8.56689 20.6621 8.56689 20.308 8.56689C20.434 10.6948 20.5585 12.7862 20.6829 14.8925C21.028 14.8925 21.3247 14.8925 21.6675 14.8925Z" fill="white"/>
<path d="M28.2555 28.7436C29.0262 28.7436 29.6932 28.7436 30.4281 28.7436C30.0517 28.1802 29.723 27.6897 29.3303 27.1017C28.927 27.7173 28.5983 28.2204 28.2555 28.7436Z" fill="white"/>
<path d="M23.4675 20.9744C23.4675 20.3081 23.4622 19.6417 23.4697 18.9754C23.4742 18.5744 23.4555 18.1563 22.9383 18.1526C22.4203 18.1481 22.3957 18.5618 22.3979 18.9657C22.4046 20.232 22.4068 21.4984 22.3979 22.7639C22.3897 23.8909 21.7465 24.5192 20.6084 24.5333C20.3863 24.5363 20.1641 24.5356 19.942 24.5333C18.7704 24.5207 18.1406 23.8924 18.1354 22.7147C18.1294 21.4484 18.1294 20.1821 18.1369 18.9165C18.1391 18.5267 18.081 18.1608 17.6114 18.1511C17.1426 18.1414 17.0613 18.4947 17.0636 18.8919C17.071 20.2469 17.0554 21.602 17.0695 22.957C17.083 24.1868 17.8402 25.1997 19.0417 25.4821C19.6134 25.617 20.229 25.6006 20.8245 25.5939C22.2973 25.5783 23.4324 24.4409 23.4645 22.9734C23.4794 22.3078 23.4667 21.6407 23.4675 20.9744Z" fill="#434343"/>
</g>
<defs>
<clipPath id="clip0_1021_503">
<rect width="32" height="29.8684" fill="white"/>
</clipPath>
</defs>
</svg>
