<svg width="115" height="115" viewBox="0 0 115 115" fill="none" xmlns="http://www.w3.org/2000/svg">
<rect width="115" height="115" rx="57.5" fill="#D9D9D9"/>
<circle cx="100" cy="94" r="15" fill="#B5B5B5"/>
<path fill-rule="evenodd" clip-rule="evenodd" d="M100.462 98.5368C99.4864 98.5357 98.5507 98.1475 97.8605 97.4574C97.1704 96.7672 96.7822 95.8315 96.7811 94.8554C96.782 93.8793 97.1701 92.9434 97.8603 92.2531C98.5505 91.5628 99.4863 91.1744 100.462 91.1733C101.439 91.1744 102.374 91.5628 103.065 92.2531C103.755 92.9434 104.143 93.8793 104.144 94.8554C104.143 95.8315 103.755 96.7672 103.064 97.4574C102.374 98.1475 101.438 98.5357 100.462 98.5368ZM106.156 89.3221H104.083L103.302 87.8C103.178 87.559 102.99 87.3569 102.759 87.2158C102.527 87.0746 102.262 87 101.991 87H98.894C98.6178 87 98.3471 87.0776 98.1128 87.224C97.8785 87.3704 97.6901 87.5797 97.5691 87.8281L96.8421 89.3221H94.7691C94.5368 89.322 94.3068 89.3677 94.0922 89.4565C93.8775 89.5453 93.6825 89.6756 93.5182 89.8398C93.3539 90.004 93.2236 90.199 93.1347 90.4136C93.0458 90.6282 93 90.8582 93 91.0905V99.2316C93 99.4639 93.0458 99.6939 93.1347 99.9085C93.2236 100.123 93.3539 100.318 93.5182 100.482C93.6825 100.647 93.8775 100.777 94.0922 100.866C94.3068 100.954 94.5368 101 94.7691 101H106.156C106.388 101 106.618 100.954 106.833 100.866C107.047 100.777 107.242 100.647 107.407 100.482C107.571 100.318 107.701 100.123 107.79 99.9085C107.879 99.6939 107.925 99.4639 107.925 99.2316V91.0905C107.925 90.8582 107.879 90.6282 107.79 90.4136C107.701 90.199 107.571 90.004 107.407 89.8398C107.242 89.6756 107.047 89.5453 106.833 89.4565C106.618 89.3677 106.388 89.322 106.156 89.3221Z" fill="white"/>
<path fill-rule="evenodd" clip-rule="evenodd" d="M100.463 92.4995C99.8382 92.5003 99.2397 92.7486 98.7983 93.1902C98.3569 93.6317 98.1087 94.2303 98.1082 94.8546C98.1085 95.479 98.3567 96.0777 98.7981 96.5192C99.2395 96.9608 99.8382 97.2091 100.463 97.2097C101.087 97.2091 101.686 96.9608 102.127 96.5192C102.568 96.0777 102.817 95.479 102.817 94.8546C102.816 94.2303 102.568 93.6317 102.127 93.1902C101.685 92.7486 101.087 92.5003 100.463 92.4995Z" fill="white"/>
</svg>
