<svg width="79" height="23" viewBox="0 0 79 23" fill="none" xmlns="http://www.w3.org/2000/svg">
<path d="M14.9809 5.32231L14.9886 5.31464L14.9809 5.32231Z" fill="#FDC536"/>
<path d="M78.7579 5.58233L78.7744 5.5741L78.7579 5.58233Z" fill="#FDC536"/>
<path d="M25.9727 5.30228C25.8081 5.13761 25.6063 5.00999 25.3923 4.92765C25.1741 4.84531 24.9477 4.80826 24.7171 4.81238C24.4907 4.81238 24.2643 4.84944 24.0543 4.93177C23.8403 5.01411 23.6468 5.14172 23.4821 5.29816C23.3133 5.45871 23.1774 5.66043 23.0951 5.87862C23.0087 6.09681 22.9716 6.32735 22.9716 6.55789V12.379C22.9675 12.7495 22.881 13.0459 22.6876 13.3341C22.4899 13.6264 22.2224 13.861 21.8436 14.0463C21.469 14.2316 21.0573 14.3262 20.5715 14.3262C20.1434 14.3262 19.777 14.2645 19.4682 14.1533C19.1554 14.0422 18.896 13.8816 18.6655 13.6634C18.4473 13.4576 18.2867 13.2024 18.1673 12.873C18.0479 12.5437 17.9821 12.132 17.9821 11.638V6.55789C17.9821 6.33147 17.945 6.10094 17.8586 5.88686C17.7721 5.67279 17.6404 5.47518 17.4798 5.31463C17.3193 5.15407 17.1217 5.02234 16.9076 4.93589C16.6935 4.84944 16.463 4.81238 16.2366 4.81238C16.0101 4.81238 15.7796 4.84944 15.5655 4.93589C15.3515 5.02234 15.1539 5.15407 14.9933 5.31463C14.8328 5.47518 14.701 5.67279 14.6146 5.88686C14.5281 6.10094 14.4911 6.33147 14.4911 6.55789V11.638C14.4911 12.8401 14.7216 13.9146 15.2156 14.8244C15.6973 15.7218 16.3971 16.4382 17.2699 16.9116C18.1344 17.385 19.1142 17.6155 20.164 17.6155C20.9338 17.6155 21.6707 17.4797 22.3623 17.2039C22.6834 17.0762 22.984 16.9239 23.268 16.7428C23.3298 16.8375 23.4039 16.928 23.4862 17.0063C23.6468 17.1668 23.8444 17.2986 24.0584 17.385C24.2725 17.4715 24.503 17.5085 24.7295 17.5085C24.96 17.5085 25.1905 17.4715 25.4087 17.385C25.6269 17.2986 25.8286 17.1668 25.9892 16.998C26.1456 16.8375 26.2733 16.6399 26.3556 16.4258C26.4379 16.2117 26.475 15.9853 26.475 15.763V6.55789C26.475 6.33147 26.4379 6.10093 26.3597 5.88274C26.265 5.66456 26.1374 5.46695 25.9727 5.30228Z" fill="#FDC536"/>
<path d="M40.048 7.51724C39.5663 6.61979 38.8665 5.90758 37.9937 5.43004C37.1292 4.95661 36.1494 4.72607 35.1037 4.72607C34.3339 4.72607 33.597 4.86193 32.9054 5.13775C32.5884 5.26125 32.292 5.41358 32.012 5.5906C31.9503 5.4918 31.8762 5.40533 31.7939 5.323C31.6292 5.15833 31.4316 5.03072 31.2134 4.94838C30.9952 4.86605 30.7688 4.83311 30.5382 4.83311C30.3118 4.83311 30.0854 4.87016 29.8754 4.95249C29.6614 5.03483 29.4679 5.16245 29.3032 5.31889C29.1344 5.47944 28.9986 5.68117 28.9162 5.89936C28.8298 6.11755 28.7927 6.3522 28.7927 6.58274V15.7878C28.7927 16.0143 28.8298 16.2448 28.9162 16.4589C29.0027 16.6729 29.1344 16.8705 29.295 17.0311C29.4555 17.1917 29.6531 17.3234 29.8672 17.4098C30.0813 17.4963 30.3118 17.5333 30.5382 17.5333C30.7688 17.5333 30.9993 17.4963 31.2175 17.4098C31.4357 17.3234 31.6374 17.1917 31.798 17.0229C31.9544 16.8623 32.082 16.6647 32.1644 16.4506C32.2467 16.2366 32.2838 16.0101 32.2838 15.7878V9.96673C32.2879 9.59622 32.3743 9.29981 32.5678 9.01163C32.7654 8.71934 33.033 8.4888 33.4117 8.29531C33.7864 8.11005 34.198 8.01537 34.6838 8.01537C35.112 8.01537 35.4784 8.07713 35.7871 8.18828C36.1 8.29943 36.3594 8.45999 36.5899 8.67818C36.8081 8.88402 36.9686 9.13925 37.088 9.46859C37.2074 9.79793 37.2733 10.2096 37.2733 10.7036V15.7837C37.2733 16.0101 37.3103 16.2407 37.3968 16.4548C37.4832 16.6688 37.615 16.8664 37.7755 17.027C37.9361 17.1875 38.1337 17.3193 38.3478 17.4057C38.5618 17.4922 38.7924 17.5292 39.0188 17.5292C39.2452 17.5292 39.4757 17.4922 39.6898 17.4057C39.9039 17.3193 40.1015 17.1875 40.2621 17.027C40.4226 16.8664 40.5543 16.6688 40.6408 16.4548C40.7272 16.2407 40.7643 16.0101 40.7643 15.7837V10.7036C40.7725 9.50564 40.5379 8.43117 40.048 7.51724Z" fill="#FDC536"/>
<path d="M54.2343 7.86704C53.6909 6.89548 52.9128 6.11741 51.9495 5.56988C50.9779 5.01823 49.8747 4.74652 48.6849 4.74652C47.4828 4.74652 46.3672 5.01823 45.3915 5.56988C44.4199 6.11741 43.6419 6.89547 43.1026 7.87115C42.5592 8.85094 42.2916 9.96659 42.2916 11.181C42.2916 12.3749 42.5345 13.4782 43.0408 14.4498C43.5389 15.4213 44.2635 16.2076 45.1774 16.7593C46.0955 17.315 47.1452 17.595 48.2732 17.5909C49.2654 17.5909 50.1958 17.3438 51.0068 16.8498C51.1961 16.7346 51.3814 16.6069 51.5543 16.467C51.4843 16.821 51.3773 17.1339 51.2291 17.4097C50.9491 17.9408 50.6033 18.3031 50.1711 18.5583C49.7265 18.8177 49.2489 18.9453 48.6849 18.9494C48.0509 18.9494 47.5157 18.8382 47.0506 18.6283C46.5854 18.4183 46.2149 18.126 45.9102 17.7308L45.9143 17.7349C45.7538 17.5209 45.5438 17.3356 45.3009 17.2121C45.058 17.0886 44.7822 17.0269 44.5146 17.0269C44.1688 17.0269 43.8395 17.1421 43.5595 17.3233L43.5472 17.3315L43.5348 17.3397C43.329 17.4879 43.1437 17.6691 43.012 17.8955C42.8803 18.1219 42.8062 18.3895 42.8103 18.6489C42.8103 18.8341 42.8473 19.0235 42.9132 19.1923C42.9791 19.3611 43.0738 19.5175 43.1849 19.6575V19.6616C43.8271 20.4726 44.6381 21.1107 45.585 21.543C46.5318 21.9793 47.5569 22.1934 48.6396 22.1934C49.85 22.1934 50.9697 21.9052 51.9536 21.3248C52.9334 20.7484 53.7074 19.9415 54.2467 18.9412C54.786 17.9449 55.0536 16.8293 55.0536 15.6395V11.181C55.0577 9.96659 54.786 8.84683 54.2343 7.86704ZM50.2205 13.9475C49.7717 14.211 49.2777 14.3427 48.6849 14.3468C48.0921 14.3468 47.5981 14.211 47.1494 13.9475C46.6965 13.6799 46.3589 13.3259 46.0955 12.8401C45.8402 12.3625 45.7044 11.8232 45.7044 11.1769C45.7044 10.5306 45.8402 9.98718 46.0955 9.5014C46.3589 9.0115 46.7006 8.65746 47.1494 8.38987C47.5981 8.12639 48.0921 7.99466 48.6849 7.99054C49.2777 7.99054 49.7717 8.12639 50.2205 8.38987C50.6692 8.65746 51.0027 9.0115 51.262 9.49728C51.5173 9.98306 51.6449 10.5306 51.649 11.1769C51.649 11.8232 51.5172 12.3667 51.2661 12.8442C51.0068 13.33 50.6692 13.6799 50.2205 13.9475Z" fill="#FDC536"/>
<path d="M62.4877 14.5734C62.3395 14.4087 62.1542 14.2687 61.9484 14.1823C61.7425 14.0917 61.5161 14.0547 61.2979 14.0547H60.7833C60.7586 14.0505 60.771 14.0547 60.7545 14.0464C60.7421 14.0382 60.6969 14.0011 60.6392 13.9023C60.524 13.7088 60.4457 13.4166 60.4457 12.9925V1.72081C60.4457 1.49439 60.4087 1.26796 60.3264 1.058C60.244 0.843929 60.1164 0.650451 59.9558 0.489897C59.7953 0.329343 59.6018 0.201713 59.3877 0.119377C59.1737 0.0370419 58.9472 0 58.7249 0C58.4985 0 58.2721 0.0370419 58.0621 0.119377C57.8481 0.201713 57.6546 0.329334 57.494 0.494005C57.3335 0.654559 57.2017 0.852166 57.1194 1.06212C57.0371 1.27619 57 1.50262 57 1.72493V12.9966C57 13.8076 57.1482 14.5692 57.4528 15.2526C57.7575 15.936 58.2103 16.5083 58.799 16.9035C59.3836 17.3028 60.0711 17.5127 60.7874 17.5086H60.8286C61.088 17.5086 61.3391 17.4798 61.582 17.4098C61.8207 17.3398 62.0513 17.2328 62.253 17.0846C62.4547 16.9364 62.6276 16.747 62.747 16.5206C62.8664 16.2942 62.9282 16.0348 62.924 15.7837C62.924 15.5655 62.8911 15.3514 62.8211 15.1415C62.747 14.9274 62.6318 14.7339 62.4877 14.5734Z" fill="#FDC536"/>
<path d="M75.5004 10.9959C75.5004 9.8226 75.2739 8.74812 74.8088 7.80126C74.3436 6.8544 73.6519 6.08869 72.7709 5.55351C71.8776 5.01009 70.8237 4.75073 69.6669 4.75073C68.4895 4.75073 67.3986 5.02244 66.4393 5.57821C65.4843 6.12574 64.7268 6.91204 64.1957 7.89183C63.6605 8.87574 63.3971 9.98727 63.4012 11.1852C63.4012 12.3915 63.6811 13.5071 64.2492 14.4869C64.8132 15.4626 65.6119 16.2365 66.6123 16.7799C67.6168 17.3275 68.753 17.5992 69.9798 17.5992C70.7002 17.5992 71.4371 17.4674 72.1946 17.2122C72.9439 16.9611 73.5943 16.6276 74.1336 16.1995C74.1377 16.1995 74.1377 16.1954 74.1418 16.1912C74.146 16.1912 74.1459 16.1871 74.1501 16.1871C74.3189 16.0554 74.4712 15.8907 74.5782 15.6931C74.6894 15.4873 74.7429 15.2526 74.7429 15.0262C74.7429 14.7874 74.6811 14.5404 74.57 14.3305C74.4629 14.1287 74.3147 13.9558 74.1418 13.8118C74.1377 13.8076 74.1377 13.8076 74.1336 13.8035C74.1295 13.7994 74.1254 13.7953 74.1212 13.7912C73.9772 13.6635 73.8043 13.5689 73.6272 13.5112C73.442 13.4495 73.2485 13.4248 73.055 13.4248C72.8574 13.4248 72.6598 13.4536 72.4704 13.5153C72.2852 13.5771 72.1081 13.6718 71.9558 13.7912C71.7459 13.9517 71.4453 14.1082 71.0501 14.244C70.6632 14.3757 70.3091 14.4334 69.9839 14.4334C69.5269 14.4334 69.1194 14.3675 68.7571 14.2481C68.3948 14.1246 68.0696 13.9476 67.7732 13.7047C67.4727 13.4577 67.2462 13.186 67.0692 12.8731C67.0198 12.7867 66.9787 12.6961 66.9375 12.6014H73.8701C74.0801 12.6014 74.29 12.5685 74.4918 12.4903C74.6935 12.4162 74.8787 12.2968 75.031 12.1486C75.1834 12.0004 75.311 11.8233 75.3933 11.6216C75.4633 11.4199 75.5004 11.2058 75.5004 10.9959ZM67.6785 8.56287C67.9214 8.34879 68.1972 8.19235 68.5224 8.0812C68.8477 7.97005 69.2264 7.91241 69.6669 7.91241C70.0498 7.91241 70.3791 7.97005 70.659 8.07297C70.939 8.18001 71.1778 8.32821 71.3918 8.53817C71.6141 8.75636 71.7912 9.00335 71.927 9.29976C71.9641 9.3821 72.0011 9.46856 72.0299 9.55501H66.9539C66.9869 9.47679 67.0239 9.40269 67.061 9.3327C67.2257 9.04041 67.4274 8.78517 67.6785 8.56287Z" fill="#FDC536"/>
<path d="M78.9509 16.7797L78.9432 16.7758L78.9509 16.7797Z" fill="#FDC536"/>
<path d="M12.1486 8.98692C11.8316 8.59583 11.4487 8.26236 11.0124 8.00301C10.963 7.97419 10.9053 7.94537 10.8518 7.91656C11.0823 7.69837 11.2923 7.45547 11.4693 7.192C11.9098 6.54567 12.1404 5.78407 12.1362 4.98542C12.1362 4.04679 11.9016 3.1658 11.424 2.40008C10.9547 1.63848 10.2837 1.03743 9.46857 0.621637C8.64521 0.201726 7.71071 0 6.69799 0H1.76609C1.53967 0 1.30913 0.0370585 1.09506 0.123511C0.880991 0.205846 0.683386 0.33758 0.522832 0.494018L0.518711 0.498138L0.522832 0.494018C0.354044 0.658688 0.218188 0.856286 0.127619 1.07859C0.0411667 1.3009 0 1.53556 0 1.7661V15.7425C0 15.9731 0.0411667 16.2036 0.127619 16.4218C0.214071 16.64 0.349928 16.8335 0.510482 16.9982C0.675153 17.1628 0.868639 17.2946 1.08683 17.381C1.30502 17.4675 1.53555 17.5086 1.76609 17.5086H7.13437C8.24589 17.5086 9.27509 17.2822 10.1849 16.8129C11.0947 16.3477 11.8275 15.6725 12.3421 14.8204C12.8567 13.9682 13.1119 12.9884 13.1119 11.9428C13.1119 11.3746 13.0378 10.8353 12.8773 10.3372C12.7167 9.84321 12.4738 9.38625 12.1486 8.98692Z" fill="#FDC536"/>
<path fill-rule="evenodd" clip-rule="evenodd" d="M8.81815 8.29926L6.74329 7.59942L7.36905 4.61476C7.46785 4.1331 6.85445 3.82845 6.50453 4.18249L2.3754 8.41453C2.31777 8.47217 2.2766 8.54627 2.25601 8.62449C2.23543 8.70271 2.23543 8.78504 2.2519 8.86326C2.27248 8.94148 2.31365 9.01558 2.36717 9.07322C2.42069 9.13085 2.49479 9.18026 2.57301 9.20496L4.64374 9.9048L4.01799 12.8895C3.91507 13.3711 4.53259 13.6758 4.8784 13.3217L9.00752 9.08557C9.26687 8.83444 9.15984 8.41453 8.81815 8.29926Z" fill="white"/>
</svg>
