<svg width="32" height="32" viewBox="0 0 32 32" fill="none" xmlns="http://www.w3.org/2000/svg">
<path d="M15.9994 31.3958C24.5026 31.3958 31.3958 24.5026 31.3958 15.9994C31.3958 7.49622 24.5026 0.603027 15.9994 0.603027C7.49622 0.603027 0.603027 7.49622 0.603027 15.9994C0.603027 24.5026 7.49622 31.3958 15.9994 31.3958Z" fill="#FDC534"/>
<path d="M16.1188 26.9732C22.1795 26.9732 27.0926 22.06 27.0926 15.9994C27.0926 9.93872 22.1795 5.02557 16.1188 5.02557C10.0581 5.02557 5.14499 9.93872 5.14499 15.9994C5.14499 22.06 10.0581 26.9732 16.1188 26.9732Z" fill="white"/>
<path d="M19.1194 8.43988C19.2666 8.43988 19.4221 8.45676 19.5596 8.48812C19.6971 8.51948 19.8225 8.56772 19.9287 8.62561C20.0806 8.71003 20.2169 8.82581 20.3387 8.95727C20.4835 9.11526 20.5884 9.30341 20.6692 9.49517C20.7512 9.68814 20.8091 9.88231 20.8634 10.068C20.984 10.4817 21.0804 10.9099 21.154 11.3247C21.2167 11.6733 21.2601 12.0387 21.2601 12.409C21.2601 13.2496 20.9828 13.8695 20.3098 14.376C20.0999 14.534 19.8322 14.6414 19.8442 14.9525C19.866 15.5471 19.8865 15.9644 19.9082 16.5578C19.9504 17.7349 19.9926 18.9132 20.0348 20.0903C20.065 20.943 20.0939 21.7968 20.1265 22.6519V22.6555C20.1265 22.6712 20.1277 22.6857 20.1277 22.7002C20.1277 22.8835 20.0855 23.0584 20.0071 23.2103C19.9287 23.3635 19.8153 23.4937 19.6646 23.5926C19.4993 23.7024 19.3088 23.7579 19.117 23.7579C18.9264 23.7579 18.7359 23.7024 18.5695 23.5926C18.4187 23.4925 18.3053 23.3623 18.2269 23.2103C18.1486 23.0584 18.1063 22.8835 18.1063 22.7002C18.1063 22.6857 18.1063 22.6712 18.1075 22.6555V22.6519C18.1401 21.798 18.1691 20.9442 18.1992 20.0903C18.2414 18.9132 18.2836 17.7349 18.3258 16.5578C18.3475 15.9632 18.3681 15.5471 18.3898 14.9525C18.4006 14.6414 18.1341 14.534 17.923 14.376C17.2513 13.8695 16.9727 13.2496 16.9727 12.409C16.9727 12.0387 17.0161 11.6733 17.0788 11.3247C17.1536 10.9111 17.2488 10.4817 17.3694 10.068C17.4237 9.88231 17.4828 9.68814 17.5636 9.49517C17.6444 9.30341 17.7506 9.11526 17.8941 8.95727C18.0147 8.82461 18.1522 8.71003 18.3041 8.62561C18.4091 8.56651 18.5357 8.51948 18.6732 8.48812C18.8167 8.45556 18.9723 8.43988 19.1194 8.43988Z" fill="#FDC534"/>
<path d="M14.9899 8.64014V12.7805V12.7817V12.7829V12.7841C14.9911 12.842 14.967 12.9059 14.9405 12.9373L13.5837 14.6957L13.5885 14.8163V14.8187L13.5897 14.8778H13.5909V14.8838C13.6199 15.6738 13.6476 16.465 13.6766 17.2549C13.72 18.4682 13.7634 19.6815 13.808 20.8948C13.8249 21.3543 13.8406 21.8126 13.8575 22.2721C13.8611 22.3625 13.8635 22.4506 13.8635 22.535C13.8635 22.6616 13.8587 22.7798 13.8442 22.8896C13.8237 23.0536 13.7839 23.1923 13.7188 23.3117C13.6512 23.4323 13.5632 23.5348 13.4112 23.6373H13.41C13.246 23.7471 13.0579 23.8013 12.8673 23.8013C12.6767 23.8013 12.4862 23.7459 12.3198 23.6361C12.169 23.536 12.0556 23.4057 11.9772 23.2538C11.8988 23.1018 11.8566 22.9269 11.8566 22.7436C11.8566 22.7292 11.8566 22.7147 11.8578 22.7002V22.699V22.6954C11.8904 21.8415 11.9193 20.9876 11.9495 20.1337C11.9917 18.9566 12.0339 17.7783 12.0761 16.6012C12.0978 16.0067 12.1183 15.4121 12.1401 14.8175L12.1425 14.7608L12.1437 14.7391L12.1449 14.7174L12.1461 14.6957L10.7893 12.9373C10.764 12.9059 10.7398 12.842 10.7398 12.7841V8.64134" fill="#FDC534"/>
<path d="M27.3133 4.68669C24.42 1.79218 20.4159 0 15.9994 0C11.5841 0 7.57999 1.79218 4.68669 4.68669C1.79218 7.58 0 11.5841 0 15.9994C0 20.4159 1.79218 24.42 4.68669 27.3133C7.57999 30.2078 11.5841 32 16.0006 32C20.4171 32 24.4212 30.2078 27.3145 27.3133C30.209 24.42 32.0012 20.4159 32.0012 15.9994C32 11.5841 30.2078 7.58 27.3133 4.68669ZM26.4606 26.4606C23.782 29.1393 20.0867 30.7928 15.9994 30.794C11.9121 30.794 8.21799 29.1393 5.53816 26.4606C2.86074 23.782 1.20605 20.0867 1.20605 15.9994C1.20605 11.9121 2.86074 8.21799 5.53937 5.53816C8.21799 2.86074 11.9133 1.20605 15.9994 1.20605C20.0867 1.20605 23.7808 2.86074 26.4606 5.53937C29.1393 8.21799 30.7927 11.9133 30.794 16.0006C30.794 20.0867 29.1393 23.782 26.4606 26.4606Z" fill="#434343"/>
<path d="M11.4092 6.55729C12.8408 5.83366 14.4581 5.42481 16.1743 5.42481C17.5009 5.42481 18.7685 5.66964 19.9371 6.11467C20.2483 6.23286 20.5969 6.07728 20.715 5.76612C20.8332 5.45496 20.6777 5.10641 20.3665 4.98822C19.064 4.49254 17.6505 4.21997 16.1743 4.21997C14.2663 4.21997 12.4609 4.67465 10.8653 5.48149C10.5686 5.63225 10.4492 5.99406 10.5987 6.29196C10.7483 6.58864 11.1113 6.70684 11.4092 6.55729Z" fill="#434343"/>
<path d="M24.0305 7.22299C23.782 7.00108 23.4009 7.02158 23.179 7.27002C22.9571 7.51847 22.9776 7.89958 23.226 8.12149C25.3885 10.0596 26.7477 12.8685 26.7489 16.0006C26.7489 18.7383 25.7105 21.2288 24.0039 23.1078C23.7796 23.3538 23.7989 23.7362 24.0449 23.9593C24.291 24.1836 24.6733 24.1643 24.8964 23.9183C26.7959 21.8282 27.9537 19.0471 27.9537 16.0006C27.9549 12.5139 26.4377 9.37819 24.0305 7.22299Z" fill="#434343"/>
<path d="M5.59847 15.9994C5.59847 13.2617 6.63688 10.7712 8.34222 8.89217C8.56655 8.64613 8.54725 8.26382 8.30122 8.0407C8.05519 7.81638 7.67287 7.83567 7.44975 8.08171C5.55023 10.1718 4.39243 12.9529 4.39243 15.9994C4.39243 19.4849 5.90963 22.6218 8.31569 24.777C8.56414 24.9989 8.94525 24.9784 9.16716 24.73C9.38907 24.4815 9.36857 24.1004 9.12012 23.8785C6.95768 21.9404 5.59847 19.1315 5.59847 15.9994Z" fill="#434343"/>
<path d="M20.9381 25.4427C19.5066 26.1663 17.8893 26.5752 16.1731 26.5752C14.8464 26.5752 13.5789 26.3304 12.4102 25.8853C12.099 25.7671 11.7505 25.9227 11.6323 26.2339C11.5141 26.545 11.6697 26.8936 11.9808 27.0118C13.2834 27.5075 14.6969 27.78 16.1731 27.78C18.081 27.78 19.8865 27.3254 21.4821 26.5185C21.7788 26.3678 21.8982 26.0059 21.7486 25.708C21.5978 25.4114 21.2348 25.292 20.9381 25.4427Z" fill="#434343"/>
<path d="M20.6945 8.63164C20.5462 8.47003 20.3713 8.31927 20.1639 8.20349C20.0119 8.11907 19.8467 8.05877 19.6694 8.01776C19.4897 7.97676 19.304 7.95746 19.1206 7.95746C18.9373 7.95746 18.7516 7.97676 18.5719 8.01776C18.3958 8.05877 18.2294 8.12027 18.0774 8.20349C17.87 8.31927 17.6951 8.46882 17.5468 8.63164C17.3526 8.84511 17.2235 9.0827 17.1271 9.30702C17.033 9.53135 16.9691 9.74482 16.9136 9.93175C16.7869 10.3659 16.6868 10.8098 16.6109 11.2379C16.5457 11.6033 16.4987 11.9929 16.4975 12.3981V12.4078C16.4975 12.8805 16.5771 13.3232 16.7664 13.7236C16.9558 14.124 17.2537 14.4701 17.6384 14.7596C17.7084 14.8114 17.7687 14.8512 17.8169 14.8838C17.8652 14.9151 17.8953 14.9405 17.9122 14.9549C17.8917 15.5338 17.87 15.9487 17.8483 16.5397C17.8061 17.7168 17.7638 18.8951 17.7216 20.0722C17.6915 20.9261 17.6625 21.7799 17.63 22.6326V22.6423V22.6543C17.63 22.6688 17.6288 22.6845 17.6288 22.7002C17.6288 22.957 17.6879 23.2067 17.8024 23.431C17.9158 23.6529 18.0883 23.8507 18.3066 23.9955C18.5526 24.1583 18.836 24.2403 19.1194 24.2403C19.4029 24.2403 19.6863 24.1583 19.9323 23.9955C20.1518 23.8507 20.3243 23.6529 20.4364 23.431C20.551 23.2079 20.6101 22.957 20.6101 22.7002C20.6101 22.6833 20.6101 22.6688 20.6089 22.6543V22.6519V22.6423V22.6326C20.5763 21.7799 20.5474 20.9261 20.5172 20.0722C20.475 18.8951 20.4328 17.7168 20.3906 16.5397C20.3689 15.9487 20.3484 15.5338 20.3279 14.9549C20.34 14.9441 20.3593 14.9284 20.387 14.9079C20.4376 14.8717 20.5124 14.8247 20.6005 14.7583C20.9864 14.4689 21.2843 14.1228 21.4736 13.7211C21.6642 13.3207 21.7438 12.8781 21.7426 12.4054C21.7426 11.9965 21.6943 11.6033 21.6292 11.2355C21.552 10.8073 21.4531 10.3635 21.3265 9.92934V9.92814C21.271 9.7412 21.2083 9.52773 21.113 9.3034C21.0178 9.0827 20.8887 8.84511 20.6945 8.63164ZM20.6029 13.3123C20.4859 13.5583 20.3074 13.7754 20.0216 13.9925C19.9878 14.0178 19.9396 14.0504 19.8805 14.0902C19.7924 14.1517 19.6766 14.2289 19.5633 14.3676C19.5078 14.4363 19.4547 14.522 19.4185 14.6209C19.3824 14.7185 19.3631 14.8283 19.3631 14.9368C19.3631 14.9489 19.3631 14.961 19.3643 14.9742V14.973C19.386 15.5712 19.4077 15.9885 19.4282 16.5783C19.4704 17.7554 19.5126 18.9337 19.5548 20.1108C19.585 20.9598 19.6139 21.8113 19.6465 22.664V22.6688V22.6772C19.6465 22.6893 19.6477 22.6977 19.6477 22.7038C19.6477 22.8135 19.6224 22.9124 19.5814 22.9932C19.5367 23.0776 19.4825 23.1392 19.4017 23.1946C19.3172 23.2513 19.2195 23.2791 19.1206 23.2791C19.0218 23.2791 18.9253 23.2513 18.8396 23.1946C18.7576 23.1392 18.7034 23.0776 18.6599 22.9932C18.6177 22.9124 18.5936 22.8135 18.5936 22.7038C18.5936 22.6977 18.5936 22.6893 18.5948 22.6772V22.6688V22.664C18.6274 21.8113 18.6563 20.9598 18.6865 20.1108C18.7287 18.9337 18.7709 17.7554 18.8131 16.5783C18.8348 15.9885 18.8553 15.5712 18.877 14.973C18.877 14.961 18.8782 14.9489 18.8782 14.9368C18.8794 14.7921 18.8433 14.6462 18.7817 14.5268C18.7359 14.4375 18.6792 14.3628 18.6226 14.3037C18.5369 14.2144 18.4537 14.1553 18.385 14.1059C18.315 14.0576 18.2583 14.0215 18.2209 13.9925C17.9351 13.7754 17.7566 13.5583 17.6396 13.3123C17.5226 13.0663 17.4635 12.7792 17.4635 12.4114V12.4102C17.4635 12.0773 17.5033 11.7396 17.5624 11.4104C17.6348 11.01 17.7265 10.5975 17.8422 10.2043C17.8953 10.021 17.9496 9.84492 18.0183 9.68331C18.0847 9.52532 18.1667 9.38542 18.2607 9.2829C18.3536 9.18039 18.4525 9.10079 18.549 9.04652C18.6081 9.01395 18.6949 8.97898 18.7926 8.95727H18.7938C18.8879 8.93556 19.0121 8.92109 19.1243 8.92109C19.2364 8.92109 19.3606 8.93435 19.4547 8.95727H19.4559C19.5536 8.98018 19.6405 9.01395 19.6983 9.04652C19.7948 9.09958 19.8937 9.18039 19.9866 9.2829C20.0807 9.38542 20.1627 9.52411 20.229 9.68331C20.2977 9.84492 20.3508 10.0198 20.4051 10.2043C20.5197 10.5975 20.6125 11.01 20.6849 11.4104C20.744 11.7396 20.7838 12.0773 20.7838 12.4102C20.779 12.778 20.7187 13.0651 20.6029 13.3123Z" fill="#434343"/>
<path d="M12.052 24.0389C12.298 24.2017 12.5827 24.2837 12.8661 24.2837C13.1483 24.2837 13.4317 24.2017 13.6766 24.0389L13.6886 24.0305H13.6898C13.7875 23.9641 13.8743 23.8918 13.9491 23.8098C14.0275 23.7253 14.0902 23.6349 14.1385 23.5469L14.1409 23.5432C14.2422 23.3563 14.2953 23.1549 14.3206 22.9511C14.3375 22.8136 14.3435 22.6749 14.3435 22.5362C14.3435 22.4421 14.3411 22.3493 14.3375 22.2564C14.3206 21.7969 14.3049 21.3386 14.288 20.8791C14.2446 19.6658 14.2012 18.4525 14.1566 17.2392C14.1276 16.4493 14.0999 15.6581 14.0709 14.8682V14.8657V14.8597C14.0709 14.8585 14.0697 14.8561 14.0697 14.8549L15.3204 13.234C15.3493 13.1966 15.3698 13.164 15.3855 13.1327C15.4121 13.0808 15.4314 13.0301 15.4458 12.9747C15.4603 12.9192 15.4699 12.8601 15.4699 12.7877V12.7805V12.7853V12.7841V12.7829V12.7817V8.64013C15.4699 8.3736 15.2541 8.15771 14.9875 8.15771C14.721 8.15771 14.5051 8.3736 14.5051 8.64013V12.7093L13.199 14.4014C13.129 14.4919 13.094 14.6004 13.0989 14.7138L13.1037 14.8296V14.832L13.1049 14.8911C13.1049 14.8935 13.1061 14.8959 13.1061 14.8983V14.9031C13.135 15.6931 13.1628 16.483 13.1917 17.273C13.2351 18.4863 13.2786 19.6996 13.3232 20.9129C13.3401 21.3711 13.3557 21.8307 13.3726 22.2889C13.3763 22.377 13.3775 22.459 13.3775 22.535C13.3775 22.6484 13.3726 22.7485 13.3618 22.8281C13.3461 22.9499 13.3208 23.027 13.2918 23.0789C13.2737 23.1103 13.2593 23.1308 13.2388 23.1537C13.2171 23.1766 13.1881 23.2019 13.1387 23.2357C13.0554 23.2912 12.9626 23.3177 12.8637 23.3189C12.7648 23.3189 12.6683 23.2912 12.5839 23.2345C12.5019 23.179 12.4476 23.1175 12.4042 23.0331C12.362 22.9523 12.3378 22.8534 12.3378 22.7436C12.3378 22.7376 12.3378 22.7279 12.3378 22.7147V22.7135C12.3704 21.8572 12.3994 21.0033 12.4295 20.1506C12.4717 18.9735 12.5139 17.7952 12.5561 16.6181C12.5778 16.0235 12.5984 15.429 12.6201 14.8344L12.6225 14.7777V14.7789L12.6237 14.7572L12.6249 14.7355L12.6261 14.7138C12.6309 14.6004 12.5947 14.4907 12.526 14.4014L11.2198 12.7093V8.64134C11.2198 8.3748 11.004 8.15892 10.7374 8.15892C10.4709 8.15892 10.255 8.3748 10.255 8.64134V12.7841V12.7865C10.2562 12.8818 10.2719 12.9566 10.296 13.0265C10.3081 13.0615 10.3225 13.0953 10.3406 13.1302C10.3575 13.1616 10.378 13.1954 10.4058 13.2315L11.6564 14.8525C11.6359 15.429 11.6154 16.0067 11.5937 16.5831C11.5515 17.7602 11.5093 18.9386 11.4671 20.1157C11.4369 20.9695 11.408 21.8222 11.3754 22.6761V22.6833V22.6845C11.3754 22.7014 11.3742 22.7207 11.3742 22.7436C11.3742 23.0005 11.4333 23.2502 11.5479 23.4745C11.66 23.6964 11.8325 23.8942 12.052 24.0389ZM11.1607 12.6309L11.1583 12.6285L11.1607 12.6309Z" fill="#434343"/>
<path d="M11.6528 8.64129V12.8564C11.6528 13.123 11.8687 13.3388 12.1352 13.3388C12.4018 13.3388 12.6176 13.123 12.6176 12.8564V8.64129C12.6176 8.37476 12.4018 8.15887 12.1352 8.15887C11.8687 8.15887 11.6528 8.37476 11.6528 8.64129Z" fill="#434343"/>
<path d="M13.1097 8.64129V12.8564C13.1097 13.123 13.3256 13.3388 13.5922 13.3388C13.8587 13.3388 14.0746 13.123 14.0746 12.8564V8.64129C14.0746 8.37476 13.8587 8.15887 13.5922 8.15887C13.3256 8.15887 13.1097 8.37476 13.1097 8.64129Z" fill="#434343"/>
</svg>
