<svg width="24" height="24" viewBox="0 0 24 24" fill="none" xmlns="http://www.w3.org/2000/svg">
<circle cx="12" cy="16.2956" r="5.52273" fill="#A0D7FF"/>
<rect x="8.93182" y="10.7728" width="6.13636" height="2.45455" fill="#A0D7FF"/>
<mask id="path-3-inside-1_824_2217" fill="white">
<path fill-rule="evenodd" clip-rule="evenodd" d="M12 0.95459C9.62769 0.95459 7.70455 2.87773 7.70455 5.25004V11.0884C6.20543 12.3264 5.25 14.1994 5.25 16.2955C5.25 20.0234 8.27208 23.0455 12 23.0455C15.7279 23.0455 18.75 20.0234 18.75 16.2955C18.75 14.1994 17.7946 12.3264 16.2955 11.0884V5.25004C16.2955 2.87773 14.3723 0.95459 12 0.95459Z"/>
</mask>
<path d="M7.70455 11.0884L8.9781 12.6305L9.70455 12.0305V11.0884H7.70455ZM16.2955 11.0884H14.2955V12.0305L15.0219 12.6305L16.2955 11.0884ZM9.70455 5.25004C9.70455 3.9823 10.7323 2.95459 12 2.95459V-1.04541C8.52312 -1.04541 5.70455 1.77316 5.70455 5.25004H9.70455ZM9.70455 11.0884V5.25004H5.70455V11.0884H9.70455ZM7.25 16.2955C7.25 14.8212 7.91931 13.5049 8.9781 12.6305L6.43099 9.54629C4.49155 11.148 3.25 13.5776 3.25 16.2955H7.25ZM12 21.0455C9.37665 21.0455 7.25 18.9188 7.25 16.2955H3.25C3.25 21.128 7.16751 25.0455 12 25.0455V21.0455ZM16.75 16.2955C16.75 18.9188 14.6234 21.0455 12 21.0455V25.0455C16.8325 25.0455 20.75 21.128 20.75 16.2955H16.75ZM15.0219 12.6305C16.0807 13.5049 16.75 14.8212 16.75 16.2955H20.75C20.75 13.5776 19.5085 11.148 17.569 9.54628L15.0219 12.6305ZM14.2955 5.25004V11.0884H18.2955V5.25004H14.2955ZM12 2.95459C13.2677 2.95459 14.2955 3.9823 14.2955 5.25004H18.2955C18.2955 1.77316 15.4769 -1.04541 12 -1.04541V2.95459Z" fill="#434343" mask="url(#path-3-inside-1_824_2217)"/>
</svg>
