<svg width="34" height="27" viewBox="0 0 34 27" fill="none" xmlns="http://www.w3.org/2000/svg">
<path d="M28.0427 8.3434C27.7266 8.02617 27.2832 7.82819 26.7981 7.82819H3.79866C3.3147 7.82819 2.87127 8.02617 2.55403 8.3434C2.2368 8.65948 2.03882 9.10291 2.03882 9.58802V12.6874C2.03882 15.8621 3.32744 18.7415 5.40798 20.8209C7.48737 22.9014 10.3668 24.19 13.5414 24.19H17.0542C20.2288 24.19 23.1082 22.9014 25.1876 20.8209C27.2682 18.7415 28.5568 15.8621 28.5568 12.6874V9.58802C28.5591 9.10407 28.3611 8.66064 28.0427 8.3434ZM27.4002 12.6874C27.4002 15.546 26.2435 18.129 24.3702 20.0023C22.4958 21.8756 19.9139 23.0323 17.0553 23.0323H13.5426C10.684 23.0323 8.10099 21.8756 6.22769 20.0023C4.35439 18.1279 3.19776 15.546 3.19776 12.6874V9.58802C3.19776 9.42014 3.26376 9.27311 3.37375 9.16312C3.48489 9.05313 3.63078 8.98713 3.79981 8.98713H26.7993C26.9671 8.98713 27.1142 9.05313 27.2242 9.16312C27.3342 9.27426 27.4002 9.42014 27.4002 9.58802V12.6874Z" fill="#434343"/>
<path d="M28.5348 12.2579C28.617 12.0576 28.7317 11.8898 28.8741 11.7439C29.0871 11.5262 29.3673 11.3595 29.6799 11.2483C29.9913 11.1372 30.3306 11.0839 30.6374 11.0839C30.6733 11.0839 30.708 11.0851 30.7416 11.0863C30.9199 11.0932 31.0692 11.1337 31.207 11.202C31.4131 11.3039 31.596 11.473 31.7512 11.7149C31.9052 11.9557 32.0244 12.2649 32.0892 12.6145C32.1367 12.8704 32.1599 13.1297 32.1599 13.3914C32.161 14.2169 31.9272 15.0551 31.5381 15.7695C31.3355 16.1435 31.0901 16.485 30.8134 16.7814C30.539 17.0755 30.2032 17.351 29.857 17.5432C29.6845 17.6393 29.5097 17.7157 29.3395 17.7667C29.1705 17.8176 29.0061 17.8431 28.8521 17.8431C28.6066 17.8419 28.3855 17.7841 28.1551 17.6347C27.9698 17.5143 27.8089 17.3117 27.7082 17.0454C27.5947 16.7467 27.2601 16.5962 26.9614 16.7096C26.6627 16.8231 26.5122 17.1577 26.6256 17.4564C26.8016 17.9195 27.1027 18.3282 27.5206 18.6026C27.9386 18.8782 28.4052 19.002 28.8521 19.0009C29.1346 19.0009 29.4101 18.9546 29.6718 18.8758C30.0654 18.7577 30.4313 18.5679 30.7636 18.3421C31.097 18.1152 31.3969 17.8512 31.6585 17.5722C32.0059 17.2005 32.3069 16.7791 32.5547 16.3229C33.0294 15.4476 33.3153 14.4334 33.3165 13.3914C33.3165 13.0626 33.2876 12.7315 33.2262 12.4027C33.1069 11.7705 32.8569 11.1847 32.4493 10.7262C32.2455 10.4981 32.0013 10.3036 31.7188 10.1647C31.4374 10.0257 31.1202 9.94236 30.7856 9.92962C30.7358 9.92731 30.686 9.92615 30.6351 9.92615C30.0539 9.92731 29.424 10.0523 28.8474 10.3487C28.5592 10.4969 28.2848 10.6903 28.0451 10.9346C27.8054 11.1789 27.6028 11.4753 27.4616 11.8191C27.34 12.1144 27.4813 12.4536 27.7776 12.574C28.0752 12.6944 28.4144 12.5532 28.5348 12.2579Z" fill="#434343"/>
<path d="M15.299 22.3735H1.21452C0.599737 22.3735 0.342708 23.1678 0.846346 23.5197C3.24875 25.1962 10.4236 26.42 15.299 26.42C20.1744 26.42 27.3504 25.1962 29.7517 23.5197C30.2553 23.1678 29.9983 22.3735 29.3835 22.3735H15.299Z" fill="#FDC535"/>
<path d="M30.2738 22.1813C30.1685 22.0666 30.0365 21.9682 29.8836 21.8999C29.732 21.8316 29.5595 21.7946 29.3835 21.7946H15.299H1.21452C1.03854 21.7946 0.866025 21.8316 0.714355 21.8999C0.485113 22.003 0.304498 22.172 0.185246 22.3665C0.0648361 22.561 0.00115779 22.7845 0 23.016C0 23.1943 0.0393648 23.3784 0.126199 23.5509C0.211875 23.7223 0.346178 23.8786 0.514058 23.9955C0.855605 24.234 1.26083 24.4505 1.72047 24.6554C2.52513 25.0132 3.49768 25.3328 4.58021 25.6176C7.82433 26.4685 12.0375 26.9977 15.299 27C17.7836 27 20.8216 26.6908 23.561 26.1687C24.9306 25.907 26.2262 25.5933 27.3435 25.2332C27.9027 25.0526 28.4167 24.8615 28.8764 24.6566C29.336 24.4517 29.7412 24.2352 30.0828 23.9967C30.2507 23.8797 30.385 23.7246 30.4706 23.5521C30.5575 23.3807 30.5968 23.1955 30.5968 23.0172C30.5968 22.7069 30.4845 22.4128 30.2738 22.1813ZM29.4379 23.0276C29.4367 23.0288 29.4367 23.0322 29.4205 23.0438C29.1623 23.2244 28.8173 23.4131 28.4052 23.5961C27.685 23.9168 26.7611 24.2236 25.7226 24.4957C22.6035 25.3165 18.4354 25.841 15.299 25.8399C12.9082 25.8399 9.91992 25.5377 7.25354 25.0283C5.91977 24.7747 4.66588 24.4679 3.60998 24.1275C3.08203 23.9573 2.60386 23.7778 2.19285 23.5949C1.78183 23.412 1.43681 23.2233 1.17863 23.0427C1.16242 23.0299 1.16242 23.0276 1.16126 23.0264L1.15779 23.0149C1.15663 22.9998 1.16705 22.9732 1.17747 22.9639L1.18789 22.9558C1.19136 22.9547 1.19599 22.9523 1.21452 22.9512H15.299H29.3835C29.402 22.9512 29.4066 22.9535 29.4101 22.9558C29.4147 22.9581 29.4205 22.9616 29.4286 22.9732C29.4367 22.9848 29.4414 23.0033 29.4402 23.0137L29.4379 23.0276Z" fill="#434343"/>
<path d="M12.4647 3.79101L12.4659 3.78821L12.467 3.78542C12.6951 3.11208 12.7611 2.4583 12.7611 1.91908C12.76 1.10045 12.6118 0.533288 12.6002 0.487188C12.5029 0.119786 12.1776 -0.0841702 11.8731 0.0331747C11.5698 0.15052 11.4007 0.540272 11.4968 0.907674C11.5014 0.924437 11.6045 1.34911 11.6033 1.91768C11.6033 2.32 11.5535 2.79218 11.3961 3.25457C11.3625 3.35096 11.2653 3.67087 11.2653 4.17377C11.2653 4.56911 11.3278 5.07202 11.5211 5.64198C11.6427 5.99821 11.9808 6.16864 12.276 6.02335C12.5712 5.87807 12.7125 5.46876 12.5921 5.11253C12.4555 4.71021 12.423 4.39868 12.423 4.17517C12.423 4.0243 12.4381 3.91534 12.4508 3.85108C12.4566 3.82034 12.4624 3.79939 12.4647 3.79101Z" fill="#434343"/>
<path d="M15.7505 3.79101L15.7517 3.78821L15.7528 3.78542C15.9809 3.11208 16.0469 2.4583 16.0469 1.91908C16.0457 1.10045 15.8975 0.533288 15.886 0.487188C15.7887 0.119786 15.4634 -0.0841702 15.1589 0.0331747C14.8555 0.15052 14.6865 0.540272 14.7826 0.907674C14.7872 0.924437 14.8903 1.34911 14.8891 1.91768C14.8891 2.32 14.8393 2.79218 14.6819 3.25457C14.6483 3.35096 14.551 3.67087 14.551 4.17377C14.551 4.56912 14.6135 5.07202 14.8069 5.64059C14.9285 5.99681 15.2665 6.16864 15.5618 6.02196C15.857 5.87528 15.9994 5.46736 15.8778 5.11114C15.7412 4.70881 15.7088 4.39729 15.7088 4.17377C15.7088 4.0229 15.725 3.91394 15.7366 3.84968C15.7435 3.82034 15.7482 3.79939 15.7505 3.79101Z" fill="#434343"/>
<path d="M18.9946 4.17657C18.9946 4.0257 19.0109 3.91674 19.0224 3.85248C19.0282 3.82035 19.034 3.80079 19.0363 3.79241L19.0375 3.78962L19.0386 3.78682C19.2667 3.11349 19.3327 2.45971 19.3327 1.92048C19.3316 1.10186 19.1834 0.534691 19.1718 0.488592C19.0745 0.12119 18.7492 -0.0827664 18.4447 0.0345785C18.1414 0.151923 17.9723 0.541676 18.0684 0.909078C18.073 0.925841 18.1761 1.35052 18.1749 1.91908C18.1749 2.32141 18.1251 2.79358 17.9677 3.25598C17.9341 3.35237 17.8369 3.67227 17.8369 4.17518C17.8369 4.57052 17.8994 5.07343 18.0927 5.64339C18.2143 5.99961 18.5524 6.17004 18.8476 6.02476C19.1428 5.87947 19.2841 5.47016 19.1637 5.11394C19.0282 4.71161 18.9958 4.39869 18.9946 4.17657Z" fill="#434343"/>
</svg>
