<svg width="92" height="92" viewBox="0 0 92 92" fill="none" xmlns="http://www.w3.org/2000/svg">
<rect width="92" height="92" rx="10" fill="#D9D9D9"/>
<path fill-rule="evenodd" clip-rule="evenodd" d="M54.318 44.8H47.318V37.8C47.318 37.4817 47.1916 37.1765 46.9665 36.9514C46.7415 36.7264 46.4363 36.6 46.118 36.6C45.7998 36.6 45.4945 36.7264 45.2695 36.9514C45.0444 37.1765 44.918 37.4817 44.918 37.8V44.8H37.918C37.5998 44.8 37.2945 44.9264 37.0695 45.1514C36.8444 45.3765 36.718 45.6817 36.718 46C36.718 46.3182 36.8444 46.6235 37.0695 46.8485C37.2945 47.0735 37.5998 47.2 37.918 47.2H44.918V54.2C44.918 54.5182 45.0444 54.8235 45.2695 55.0485C45.4945 55.2735 45.7998 55.4 46.118 55.4C46.4363 55.4 46.7415 55.2735 46.9665 55.0485C47.1916 54.8235 47.318 54.5182 47.318 54.2V47.2H54.318C54.6363 47.2 54.9415 47.0735 55.1665 46.8485C55.3916 46.6235 55.518 46.3182 55.518 46C55.518 45.6817 55.3916 45.3765 55.1665 45.1514C54.9415 44.9264 54.6363 44.8 54.318 44.8Z" fill="#9E9E9E"/>
</svg>
