<svg width="32" height="37" viewBox="0 0 32 37" fill="none" xmlns="http://www.w3.org/2000/svg">
<g clip-path="url(#clip0_1021_516)">
<path d="M13.805 36.1095L0.98231 35.3728C0.873974 35.3665 0.77213 35.3191 0.697587 35.2402C0.623043 35.1613 0.581426 35.057 0.581239 34.9485V14.8949C0.581128 14.8371 0.592869 14.7799 0.615737 14.7268C0.638605 14.6737 0.672114 14.6258 0.714194 14.5862C0.756274 14.5466 0.806033 14.516 0.860396 14.4964C0.914759 14.4767 0.972572 14.4684 1.03026 14.472L15.9309 15.3279V34.0969C15.931 34.3709 15.8751 34.642 15.7668 34.8937C15.6585 35.1454 15.5 35.3723 15.3011 35.5607C15.1021 35.7491 14.8668 35.8949 14.6096 35.9893C14.3523 36.0836 14.0786 36.1245 13.805 36.1095Z" fill="#FDC534"/>
<path d="M13.805 36.1095L13.8384 35.5282L1.01721 34.7915L1.00849 34.9484L1.12329 34.8409C1.09512 34.8121 1.0574 34.7945 1.01721 34.7915L1.00849 34.9484L1.12329 34.8409L1.00849 34.9484H1.16253C1.1621 34.9086 1.14711 34.8704 1.12039 34.8409L1.00559 34.9484H1.16253V14.8948H1.00559L1.11603 15.0067C1.14561 14.977 1.16231 14.9368 1.16253 14.8948H1.00559L1.11603 15.0067L1.00559 14.8948V15.0518C1.04677 15.0513 1.08624 15.0352 1.11603 15.0067L1.00559 14.8948L0.995413 15.0561H1.00559V14.8948L0.995413 15.0561L15.3483 15.8815V34.0969C15.3483 34.4768 15.1975 34.8411 14.9292 35.11C14.6608 35.3789 14.2968 35.5304 13.9169 35.5311C13.8893 35.5311 13.8602 35.5311 13.8312 35.5311L13.7977 36.1124L13.7643 36.6937C13.8152 36.6937 13.8646 36.6937 13.9096 36.6937C14.2505 36.6935 14.5879 36.6262 14.9027 36.4956C15.2175 36.365 15.5035 36.1736 15.7444 35.9325C15.9853 35.6914 16.1763 35.4051 16.3065 35.0902C16.4368 34.7752 16.5037 34.4377 16.5035 34.0969V14.7699L1.06371 13.8864H1.00559C0.739257 13.8867 0.483925 13.9926 0.295466 14.1808C0.107007 14.369 0.00076835 14.6242 0 14.8905L0 34.9441C0.000313013 35.2009 0.0987266 35.4479 0.275113 35.6345C0.4515 35.8212 0.692532 35.9334 0.948912 35.9482L13.7672 36.685L13.805 36.1095Z" fill="#434343"/>
<path d="M30.8811 35.3727L18.0628 36.1095C17.7887 36.1251 17.5144 36.0847 17.2566 35.9906C16.9988 35.8965 16.7629 35.7508 16.5633 35.5624C16.3637 35.374 16.2047 35.1468 16.096 34.8948C15.9873 34.6429 15.9311 34.3713 15.931 34.0969V15.3235L30.8331 14.4676C30.8908 14.464 30.9486 14.4723 31.003 14.492C31.0573 14.5116 31.1071 14.5422 31.1492 14.5818C31.1913 14.6215 31.2248 14.6693 31.2476 14.7224C31.2705 14.7755 31.2822 14.8327 31.2821 14.8905V34.9441C31.2831 35.0533 31.2419 35.1588 31.1673 35.2386C31.0926 35.3184 30.9902 35.3664 30.8811 35.3727Z" fill="#FDC534"/>
<path d="M30.8811 35.3727L30.8491 34.7915L17.9814 35.5311H18.0294C18.0013 35.5326 17.9731 35.5326 17.9451 35.5311C17.565 35.5303 17.2008 35.3789 16.9323 35.1101C16.6637 34.8412 16.5126 34.4769 16.5123 34.0968V15.8728L30.8666 15.0474L30.8578 14.9021V15.0474H30.8666L30.8578 14.9021L30.7474 15.014C30.7772 15.0424 30.8166 15.0585 30.8578 15.059V14.9021L30.7474 15.014L30.8578 14.9021H30.7009C30.7011 14.944 30.7178 14.9842 30.7474 15.014L30.8578 14.9021H30.7009V34.9557H30.8578L30.743 34.8481C30.7163 34.8776 30.7013 34.9159 30.7009 34.9557H30.8578L30.743 34.8481L30.8578 34.9557L30.8491 34.7987C30.8089 34.8017 30.7712 34.8193 30.743 34.8481L30.8578 34.9557L30.8491 34.7987L30.8811 35.38L30.9145 35.9613C31.1709 35.9464 31.4119 35.8342 31.5883 35.6476C31.7647 35.4609 31.8631 35.2139 31.8634 34.9571V14.9035C31.863 14.637 31.757 14.3814 31.5685 14.1929C31.38 14.0044 31.1244 13.8983 30.8578 13.8979H30.807L15.357 14.7858V34.1128C15.357 34.8013 15.6304 35.4616 16.1171 35.9485C16.6037 36.4355 17.2639 36.7092 17.9523 36.7096C18.0032 36.7096 18.0526 36.7096 18.0977 36.7096L30.916 35.9729L30.8811 35.3727Z" fill="#434343"/>
<path d="M15.976 32.7033L4.28683 32.0857C4.19318 32.0857 4.10336 32.0485 4.03714 31.9823C3.97092 31.9161 3.93372 31.8263 3.93372 31.7326V12.5887C3.93372 12.4951 3.97092 12.4052 4.03714 12.339C4.10336 12.2728 4.19318 12.2356 4.28683 12.2356L14.1102 12.7544C14.6139 12.7812 15.0882 13.0001 15.4354 13.3662C15.7825 13.7322 15.976 14.2175 15.976 14.7219V32.7033Z" fill="white"/>
<path d="M15.976 32.7033L16.0065 32.122L4.30133 31.5044H4.2868V31.7326L4.4481 31.5713C4.42707 31.5499 4.40195 31.533 4.37424 31.5215C4.34653 31.51 4.31679 31.5042 4.2868 31.5044V31.7326L4.4481 31.5713L4.2868 31.7326H4.51494C4.51477 31.6721 4.49075 31.6142 4.4481 31.5713L4.2868 31.7326H4.51494V12.5887H4.2868L4.4481 12.75C4.49075 12.7071 4.51477 12.6492 4.51494 12.5887H4.2868L4.4481 12.75L4.2868 12.5887V12.8168C4.34727 12.8167 4.40523 12.7926 4.4481 12.75L4.2868 12.5887V12.2356L4.25628 12.8168L14.0796 13.3371C14.4335 13.3571 14.7663 13.512 15.0096 13.7698C15.2528 14.0277 15.388 14.3689 15.3875 14.7234V32.7033H15.9687L15.9993 32.122L15.9687 32.7033H16.55V14.7219C16.5499 14.0699 16.3002 13.4426 15.8521 12.9689C15.4041 12.4952 14.7917 12.2109 14.1407 12.1745L4.30133 11.6543H4.2868C4.16404 11.6541 4.04245 11.6781 3.929 11.725C3.81555 11.7719 3.71247 11.8407 3.62567 11.9275C3.53886 12.0143 3.47004 12.1174 3.42315 12.2309C3.37626 12.3443 3.35223 12.4659 3.35242 12.5887V31.7326C3.3528 31.9803 3.45137 32.2177 3.62652 32.3929C3.80166 32.568 4.0391 32.6666 4.2868 32.667V32.0857L4.25628 32.667L16.5573 33.3165V32.7048L15.976 32.7033Z" fill="#434343"/>
<path d="M27.6652 32.0857L15.976 32.7033V14.7219C15.976 14.2175 16.1696 13.7322 16.5167 13.3662C16.8638 13.0001 17.3381 12.7812 17.8419 12.7544L27.6652 12.2356C27.7589 12.2356 27.8487 12.2728 27.9149 12.339C27.9811 12.4052 28.0183 12.4951 28.0183 12.5887V31.7326C28.0183 31.8263 27.9811 31.9161 27.9149 31.9823C27.8487 32.0485 27.7589 32.0857 27.6652 32.0857Z" fill="white"/>
<path d="M27.6652 32.0857L27.6347 31.5044L16.5573 32.0857V14.7219C16.5567 14.3674 16.692 14.0262 16.9352 13.7684C17.1785 13.5105 17.5112 13.3557 17.8651 13.3356L27.6885 12.8154L27.658 12.2341V12.5872L27.4967 12.7485C27.5395 12.7912 27.5975 12.8152 27.658 12.8154V12.5887L27.4967 12.75L27.658 12.5887H27.4298C27.43 12.6491 27.454 12.7071 27.4967 12.75L27.658 12.5887H27.4298V31.7326H27.658L27.4967 31.5713C27.454 31.6141 27.43 31.6721 27.4298 31.7326H27.658L27.4967 31.5713L27.658 31.7326V31.5044C27.628 31.5042 27.5983 31.51 27.5705 31.5215C27.5428 31.533 27.5177 31.5499 27.4967 31.5713L27.658 31.7326V31.5044H27.6275L27.658 32.0857V32.667C27.9056 32.6662 28.1428 32.5675 28.3178 32.3924C28.4929 32.2174 28.5916 31.9802 28.5924 31.7326V12.5887C28.592 12.341 28.4934 12.1035 28.3183 11.9284C28.1431 11.7532 27.9057 11.6547 27.658 11.6543H27.642L17.8041 12.1745C17.1518 12.2091 16.5376 12.4926 16.088 12.9665C15.6384 13.4404 15.3877 14.0687 15.3875 14.7219V33.3223L27.6885 32.6728L27.658 32.0915L27.6652 32.0857Z" fill="#434343"/>
<path d="M19.4723 17.1705L24.5816 16.8799C24.7358 16.8712 24.8802 16.8016 24.9831 16.6865C25.086 16.5714 25.1389 16.4201 25.1302 16.2659C25.1215 16.1118 25.052 15.9674 24.9368 15.8645C24.8217 15.7616 24.6704 15.7087 24.5162 15.7174L19.4055 16.008C19.2513 16.0168 19.107 16.0866 19.0043 16.2019C18.9015 16.3171 18.8488 16.4685 18.8577 16.6227C18.8665 16.7768 18.9363 16.9212 19.0515 17.0239C19.1668 17.1266 19.3182 17.1794 19.4723 17.1705Z" fill="#434343"/>
<path d="M19.4723 20.0346L24.5816 19.744C24.658 19.7397 24.7327 19.7204 24.8016 19.6873C24.8705 19.6541 24.9321 19.6077 24.9831 19.5506C25.034 19.4936 25.0732 19.4271 25.0985 19.355C25.1237 19.2828 25.1345 19.2064 25.1302 19.1301C25.1259 19.0537 25.1066 18.979 25.0735 18.9101C25.0403 18.8412 24.9939 18.7796 24.9368 18.7286C24.8798 18.6777 24.8133 18.6385 24.7412 18.6132C24.669 18.588 24.5926 18.5772 24.5162 18.5815L19.4055 18.8721C19.2513 18.881 19.107 18.9507 19.0043 19.066C18.9015 19.1813 18.8488 19.3326 18.8577 19.4868C18.8665 19.641 18.9363 19.7853 19.0515 19.888C19.1668 19.9908 19.3182 20.0435 19.4723 20.0346Z" fill="#434343"/>
<path d="M19.4723 22.8989L24.5816 22.6083C24.658 22.604 24.7327 22.5847 24.8016 22.5515C24.8705 22.5183 24.9321 22.4719 24.9831 22.4149C25.034 22.3579 25.0732 22.2914 25.0985 22.2192C25.1237 22.1471 25.1345 22.0706 25.1302 21.9943C25.1259 21.918 25.1066 21.8432 25.0735 21.7744C25.0403 21.7055 24.9939 21.6438 24.9368 21.5929C24.8798 21.5419 24.8133 21.5027 24.7412 21.4775C24.669 21.4522 24.5926 21.4414 24.5162 21.4457L19.4055 21.7364C19.2513 21.7452 19.107 21.815 19.0043 21.9303C18.9015 22.0455 18.8488 22.1969 18.8577 22.3511C18.8665 22.5052 18.9363 22.6495 19.0515 22.7523C19.1668 22.855 19.3182 22.9078 19.4723 22.8989Z" fill="#434343"/>
<path d="M19.4723 25.7645L24.5816 25.4739C24.7358 25.4652 24.8802 25.3956 24.9831 25.2805C25.086 25.1654 25.1389 25.0141 25.1302 24.8599C25.1215 24.7058 25.052 24.5613 24.9368 24.4585C24.8217 24.3556 24.6704 24.3027 24.5162 24.3113L19.4055 24.602C19.2513 24.6108 19.107 24.6806 19.0043 24.7959C18.9015 24.9111 18.8488 25.0625 18.8577 25.2167C18.8665 25.3708 18.9363 25.5151 19.0515 25.6179C19.1668 25.7206 19.3182 25.7734 19.4723 25.7645Z" fill="#434343"/>
<path d="M19.4723 28.6272L24.5816 28.3365C24.7358 28.3279 24.8802 28.2583 24.9831 28.1432C25.086 28.028 25.1389 27.8767 25.1302 27.7226C25.1215 27.5684 25.052 27.424 24.9368 27.3211C24.8217 27.2183 24.6704 27.1653 24.5162 27.174L19.4055 27.4646C19.2513 27.4735 19.107 27.5433 19.0043 27.6585C18.9015 27.7738 18.8488 27.9252 18.8577 28.0793C18.8665 28.2335 18.9363 28.3778 19.0515 28.4806C19.1668 28.5833 19.3182 28.636 19.4723 28.6272Z" fill="#434343"/>
<path d="M12.5422 16.0094L7.43293 15.7188C7.3566 15.7145 7.28017 15.7253 7.208 15.7505C7.13584 15.7758 7.06935 15.815 7.01234 15.8659C6.95533 15.9169 6.90891 15.9786 6.87573 16.0474C6.84255 16.1163 6.82327 16.191 6.81897 16.2674C6.81468 16.3437 6.82546 16.4201 6.85071 16.4923C6.87595 16.5645 6.91516 16.631 6.9661 16.688C7.01704 16.745 7.07871 16.7914 7.14759 16.8246C7.21647 16.8578 7.29121 16.877 7.36754 16.8813L12.4768 17.172C12.631 17.1806 12.7823 17.1277 12.8974 17.0248C13.0126 16.922 13.0821 16.7776 13.0908 16.6234C13.0995 16.4692 13.0466 16.318 12.9437 16.2028C12.8408 16.0877 12.6964 16.0181 12.5422 16.0094Z" fill="#434343"/>
<path d="M12.5422 18.8736L7.43293 18.583C7.3566 18.5787 7.28017 18.5894 7.208 18.6147C7.13584 18.6399 7.06935 18.6791 7.01234 18.7301C6.95533 18.781 6.90891 18.8427 6.87573 18.9116C6.84255 18.9804 6.82327 19.0552 6.81897 19.1315C6.81468 19.2079 6.82546 19.2843 6.85071 19.3564C6.87595 19.4286 6.91516 19.4951 6.9661 19.5521C7.01704 19.6091 7.07871 19.6555 7.14759 19.6887C7.21647 19.7219 7.29121 19.7412 7.36754 19.7455L12.4768 20.0361C12.631 20.0448 12.7823 19.9919 12.8974 19.889C13.0126 19.7861 13.0821 19.6417 13.0908 19.4875C13.0995 19.3334 13.0466 19.1821 12.9437 19.067C12.8408 18.9518 12.6964 18.8823 12.5422 18.8736Z" fill="#434343"/>
<path d="M12.5422 21.7393L7.43293 21.4487C7.3566 21.4444 7.28017 21.4552 7.208 21.4804C7.13584 21.5056 7.06935 21.5449 7.01234 21.5958C6.95533 21.6467 6.90891 21.7084 6.87573 21.7773C6.84255 21.8462 6.82327 21.9209 6.81897 21.9972C6.81468 22.0736 6.82546 22.15 6.85071 22.2222C6.87595 22.2943 6.91516 22.3608 6.9661 22.4178C7.01704 22.4748 7.07871 22.5213 7.14759 22.5544C7.21647 22.5876 7.29121 22.6069 7.36754 22.6112L12.4768 22.9018C12.631 22.9105 12.7823 22.8576 12.8974 22.7547C13.0126 22.6518 13.0821 22.5074 13.0908 22.3533C13.0995 22.1991 13.0466 22.0478 12.9437 21.9327C12.8408 21.8175 12.6964 21.748 12.5422 21.7393Z" fill="#434343"/>
<path d="M12.5422 24.6034L7.43293 24.3128C7.3566 24.3085 7.28017 24.3193 7.208 24.3445C7.13584 24.3698 7.06935 24.409 7.01234 24.4599C6.95533 24.5109 6.90891 24.5725 6.87573 24.6414C6.84255 24.7103 6.82327 24.785 6.81897 24.8614C6.81468 24.9377 6.82546 25.0141 6.85071 25.0863C6.87595 25.1585 6.91516 25.225 6.9661 25.282C7.01704 25.339 7.07871 25.3854 7.14759 25.4186C7.21647 25.4518 7.29121 25.471 7.36754 25.4753L12.4768 25.766C12.631 25.7746 12.7823 25.7217 12.8974 25.6188C13.0126 25.516 13.0821 25.3716 13.0908 25.2174C13.0995 25.0632 13.0466 24.9119 12.9437 24.7968C12.8408 24.6817 12.6964 24.6121 12.5422 24.6034Z" fill="#434343"/>
<path d="M12.5422 27.4646L7.43293 27.174C7.3566 27.1697 7.28017 27.1805 7.208 27.2057C7.13584 27.231 7.06935 27.2702 7.01234 27.3211C6.95533 27.3721 6.90891 27.4338 6.87573 27.5026C6.84255 27.5715 6.82327 27.6462 6.81897 27.7226C6.81468 27.7989 6.82546 27.8753 6.85071 27.9475C6.87595 28.0197 6.91516 28.0862 6.9661 28.1432C7.01704 28.2002 7.07871 28.2466 7.14759 28.2798C7.21647 28.313 7.29121 28.3322 7.36754 28.3365L12.4768 28.6272C12.631 28.6358 12.7823 28.5829 12.8974 28.48C13.0126 28.3772 13.0821 28.2328 13.0908 28.0786C13.0995 27.9244 13.0466 27.7732 12.9437 27.658C12.8408 27.5429 12.6964 27.4733 12.5422 27.4646Z" fill="#434343"/>
<path d="M26.0134 4.09618L19.08 18.8706L23.1107 20.7622L30.0441 5.98773L26.0134 4.09618Z" fill="#FDC535"/>
<path d="M23.1052 20.7627L23.3523 20.2366L19.8472 18.5917L26.2862 4.86948L29.2652 6.26596L22.5806 20.5156L23.1067 20.7627L23.3537 20.2366L23.1067 20.7627L23.6327 21.0097L30.5701 6.23399C30.6356 6.09448 30.643 5.93466 30.5907 5.78968C30.5383 5.64471 30.4306 5.52645 30.2911 5.46091L26.26 3.57181C26.1205 3.50632 25.9607 3.49892 25.8157 3.55124C25.6707 3.60356 25.5525 3.71132 25.4869 3.85081L18.5539 18.6236C18.4884 18.7631 18.481 18.923 18.5334 19.0679C18.5857 19.2129 18.6934 19.3312 18.8329 19.3967L22.864 21.2858C22.9331 21.3182 23.008 21.3367 23.0843 21.3402C23.1606 21.3437 23.2368 21.3321 23.3087 21.3062C23.4535 21.2538 23.5716 21.1461 23.6371 21.0068L23.1052 20.7627Z" fill="#434343"/>
<path d="M30.0441 5.98703L28.0285 5.04103L26.0115 4.09648L27.238 1.48079C27.3251 1.29445 27.4481 1.12711 27.5999 0.988333C27.7518 0.849558 27.9294 0.742075 28.1228 0.672029C28.3162 0.601984 28.5216 0.57075 28.727 0.580114C28.9325 0.589478 29.1341 0.639256 29.3204 0.726602L30.5163 1.29188C30.8918 1.46834 31.1818 1.78664 31.3227 2.17684C31.4636 2.56704 31.4438 2.9972 31.2676 3.3728L30.0441 5.98703Z" fill="white"/>
<path d="M30.0441 5.98707L30.2911 5.46103L28.2756 4.51502L26.7861 3.81605L27.7655 1.72786C27.8764 1.49191 28.0765 1.30963 28.3217 1.22108C28.5669 1.13252 28.8373 1.14494 29.0734 1.25559L30.2722 1.81796C30.5082 1.92888 30.6904 2.12892 30.779 2.37415C30.8676 2.61937 30.8551 2.88972 30.7445 3.1258L29.518 5.74149L30.0441 5.98852L30.2911 5.46248L30.0441 5.98852L30.5701 6.23556L31.7966 3.61988C31.9164 3.36476 31.9847 3.08853 31.9977 2.80699C32.0107 2.52544 31.968 2.2441 31.8722 1.97905C31.7764 1.71399 31.6293 1.47042 31.4393 1.26226C31.2492 1.05409 31.0201 0.885416 30.7648 0.765873L29.5674 0.2035C29.3123 0.0837084 29.0361 0.0153716 28.7545 0.0023963C28.473 -0.0105789 28.1917 0.0320619 27.9266 0.127881C27.6615 0.2237 27.418 0.370819 27.2098 0.560828C27.0017 0.750836 26.833 0.980008 26.7134 1.23524L25.2399 4.37552L27.7815 5.56856L30.3231 6.76015L30.5701 6.23411L30.0441 5.98707Z" fill="#434343"/>
<path d="M19.08 18.8707L19.1831 23.8899L23.111 20.7627L19.08 18.8707Z" fill="white"/>
<path d="M19.08 18.8707L18.4987 18.8837L18.6033 23.9015C18.6055 24.0099 18.6379 24.1155 18.6969 24.2064C18.7559 24.2973 18.8392 24.3699 18.9373 24.416C19.0354 24.4621 19.1444 24.4798 19.252 24.4672C19.3597 24.4546 19.4616 24.4122 19.5464 24.3447L23.47 21.2175C23.5473 21.156 23.6077 21.0757 23.6454 20.9843C23.6831 20.8929 23.6968 20.7934 23.6853 20.6952C23.6738 20.597 23.6375 20.5033 23.5797 20.4231C23.5219 20.3429 23.4447 20.2787 23.3552 20.2366L19.3241 18.3475C19.2345 18.3054 19.1357 18.2869 19.0369 18.2937C18.9382 18.3005 18.8428 18.3325 18.7598 18.3865C18.6769 18.4405 18.6091 18.5147 18.5629 18.6023C18.5167 18.6898 18.4936 18.7877 18.4958 18.8867L19.0771 18.8736L18.83 19.3996L22.0139 20.8935L19.7383 22.7056L19.6583 18.862L19.0771 18.8736L18.83 19.3996L19.08 18.8707Z" fill="#434343"/>
<path d="M21.5518 19.8705L28.4223 5.227L27.6332 4.85645L20.7627 19.4999" fill="#434343"/>
</g>
<defs>
<clipPath id="clip0_1021_516">
<rect width="32" height="36.6937" fill="white"/>
</clipPath>
</defs>
</svg>
