<svg width="96" height="133" viewBox="0 0 96 133" fill="none" xmlns="http://www.w3.org/2000/svg">
<g clip-path="url(#clip0_712_2251)">
<path d="M47.6307 0C21.3227 0 0 21.3227 0 47.6307C0 47.6625 0 47.6898 0 47.7216C0 47.7307 0 47.7352 0 47.7443V92.1257C0 93.8572 1.40424 95.2614 3.13569 95.2614H47.5171C47.5262 95.2614 47.5307 95.2614 47.5398 95.2614C47.5716 95.2614 47.5989 95.2614 47.6307 95.2614C73.9342 95.2614 95.2614 73.9387 95.2614 47.6307C95.2614 21.3227 73.9342 0 47.6307 0Z" fill="#FFC632"/>
<path d="M59.7644 48.3578C58.7737 47.1354 57.5785 46.1038 56.2197 45.2948C56.0606 45.1994 55.8879 45.1176 55.7243 45.0267C56.4469 44.3405 57.0968 43.5907 57.6512 42.7681C59.0282 40.7504 59.7371 38.3827 59.728 35.8923C59.7326 32.9657 58.9918 30.2208 57.5058 27.8395C56.0379 25.4673 53.9565 23.5904 51.4116 22.2952C48.844 20.9864 45.931 20.3547 42.7771 20.3547H27.4077C26.6987 20.3547 25.9852 20.4729 25.3172 20.7365C24.6492 20.9955 24.0357 21.4 23.5267 21.8908L23.513 21.9044L23.5267 21.8908C22.9995 22.3998 22.5723 23.0269 22.2997 23.7131C22.0225 24.3993 21.9043 25.131 21.9043 25.8581V69.3988C21.9043 70.1168 22.0315 70.8394 22.3042 71.512C22.5769 72.1845 22.995 72.798 23.504 73.307C24.0129 73.816 24.6219 74.2341 25.299 74.5068C25.9716 74.7794 26.6987 74.9067 27.4122 74.9067H44.1359C47.5988 74.9112 50.8027 74.1978 53.643 72.739C56.4787 71.2938 58.7646 69.1852 60.3597 66.5267C61.9639 63.8681 62.7637 60.8233 62.7592 57.5649C62.7592 55.7881 62.5229 54.1157 62.0275 52.566C61.5322 51.0163 60.7732 49.5985 59.7644 48.3578Z" fill="white"/>
<path fill-rule="evenodd" clip-rule="evenodd" d="M49.3803 46.2083L42.9226 44.0315L44.8721 34.7335C45.1857 33.2338 43.2679 32.2794 42.1818 33.3883L29.3118 46.5764C29.1301 46.7627 29.0028 46.9854 28.9346 47.2308C28.8665 47.4762 28.8665 47.7307 28.9256 47.9806C28.9892 48.226 29.1119 48.4532 29.2891 48.6396C29.4663 48.8259 29.689 48.9713 29.9344 49.0531L36.3921 51.2299L34.4426 60.5279C34.1244 62.0276 36.0422 62.9819 37.1283 61.8731L49.9983 48.6805C50.7891 47.8806 50.4573 46.5673 49.3803 46.2083Z" fill="#FFC632"/>
<path d="M72.2572 41.3547C75.52 41.3547 78.165 38.7097 78.165 35.4469C78.165 32.1841 75.52 29.5391 72.2572 29.5391C68.9944 29.5391 66.3494 32.1841 66.3494 35.4469C66.3494 38.7097 68.9944 41.3547 72.2572 41.3547Z" fill="white"/>
<path d="M72.2572 64.0771C75.52 64.0771 78.165 61.4321 78.165 58.1693C78.165 54.9065 75.52 52.2615 72.2572 52.2615C68.9944 52.2615 66.3494 54.9065 66.3494 58.1693C66.3494 61.4321 68.9944 64.0771 72.2572 64.0771Z" fill="white"/>
</g>
<path d="M18.157 112.667L18.1674 112.656L18.157 112.667Z" fill="#FDC536"/>
<path d="M94.8975 112.979L94.918 112.969L94.8975 112.979Z" fill="#FDC536"/>
<path d="M31.3827 112.642C31.1845 112.443 30.9418 112.29 30.6842 112.191C30.4217 112.092 30.1492 112.047 29.8718 112.052C29.5994 112.052 29.3269 112.097 29.0743 112.196C28.8167 112.295 28.5839 112.448 28.3858 112.637C28.1827 112.83 28.0192 113.073 27.9201 113.335C27.8161 113.598 27.7715 113.875 27.7715 114.152V121.157C27.7666 121.603 27.6625 121.959 27.4297 122.306C27.1919 122.658 26.87 122.94 26.4142 123.163C25.9635 123.386 25.4681 123.5 24.8836 123.5C24.3684 123.5 23.9275 123.426 23.556 123.292C23.1795 123.158 22.8675 122.965 22.5901 122.702C22.3275 122.455 22.1343 122.148 21.9907 121.751C21.847 121.355 21.7678 120.86 21.7678 120.265V114.152C21.7678 113.88 21.7232 113.603 21.6192 113.345C21.5151 113.087 21.3566 112.85 21.1634 112.656C20.9703 112.463 20.7325 112.305 20.4749 112.201C20.2173 112.097 19.9399 112.052 19.6675 112.052C19.395 112.052 19.1176 112.097 18.86 112.201C18.6024 112.305 18.3647 112.463 18.1715 112.656C17.9783 112.85 17.8198 113.087 17.7157 113.345C17.6117 113.603 17.5671 113.88 17.5671 114.152V120.265C17.5671 121.712 17.8445 123.004 18.439 124.099C19.0185 125.179 19.8606 126.041 20.9108 126.611C21.9511 127.18 23.13 127.458 24.3932 127.458C25.3195 127.458 26.2062 127.294 27.0384 126.962C27.4248 126.809 27.7864 126.626 28.1282 126.408C28.2025 126.522 28.2916 126.631 28.3907 126.725C28.5839 126.918 28.8217 127.076 29.0793 127.18C29.3368 127.284 29.6142 127.329 29.8867 127.329C30.1641 127.329 30.4415 127.284 30.704 127.18C30.9666 127.076 31.2093 126.918 31.4025 126.715C31.5907 126.522 31.7443 126.284 31.8434 126.026C31.9424 125.769 31.987 125.496 31.987 125.229V114.152C31.987 113.88 31.9424 113.603 31.8483 113.34C31.7344 113.078 31.5808 112.84 31.3827 112.642Z" fill="#FFC632"/>
<path d="M48.319 115.307C47.7394 114.227 46.8973 113.37 45.8471 112.795C44.8069 112.226 43.6279 111.948 42.3697 111.948C41.4434 111.948 40.5567 112.112 39.7245 112.443C39.3431 112.592 38.9864 112.775 38.6496 112.988C38.5753 112.869 38.4861 112.765 38.387 112.666C38.1889 112.468 37.9511 112.315 37.6886 112.216C37.426 112.117 37.1536 112.077 36.8762 112.077C36.6038 112.077 36.3313 112.121 36.0787 112.221C35.8211 112.32 35.5883 112.473 35.3901 112.661C35.187 112.855 35.0236 113.097 34.9245 113.36C34.8205 113.622 34.7759 113.905 34.7759 114.182V125.258C34.7759 125.531 34.8205 125.808 34.9245 126.066C35.0285 126.323 35.187 126.561 35.3802 126.754C35.5734 126.948 35.8112 127.106 36.0688 127.21C36.3264 127.314 36.6038 127.359 36.8762 127.359C37.1536 127.359 37.431 127.314 37.6935 127.21C37.9561 127.106 38.1988 126.948 38.392 126.744C38.5802 126.551 38.7338 126.314 38.8329 126.056C38.9319 125.798 38.9765 125.526 38.9765 125.258V118.254C38.9815 117.808 39.0855 117.452 39.3183 117.105C39.5561 116.753 39.8781 116.476 40.3338 116.243C40.7846 116.02 41.2799 115.906 41.8644 115.906C42.3796 115.906 42.8205 115.98 43.192 116.114C43.5685 116.248 43.8806 116.441 44.158 116.704C44.4205 116.951 44.6137 117.258 44.7574 117.655C44.901 118.051 44.9803 118.546 44.9803 119.141V125.253C44.9803 125.526 45.0248 125.803 45.1289 126.061C45.2329 126.318 45.3914 126.556 45.5846 126.749C45.7778 126.943 46.0156 127.101 46.2731 127.205C46.5307 127.309 46.8081 127.354 47.0806 127.354C47.353 127.354 47.6304 127.309 47.888 127.205C48.1456 127.101 48.3834 126.943 48.5766 126.749C48.7697 126.556 48.9283 126.318 49.0323 126.061C49.1363 125.803 49.1809 125.526 49.1809 125.253V119.141C49.1908 117.699 48.9084 116.406 48.319 115.307Z" fill="#FFC632"/>
<path d="M65.3891 115.728C64.7353 114.559 63.799 113.622 62.6399 112.964C61.4708 112.3 60.1433 111.973 58.7117 111.973C57.2653 111.973 55.9228 112.3 54.7488 112.964C53.5798 113.622 52.6436 114.559 51.9947 115.733C51.3408 116.912 51.0188 118.254 51.0188 119.715C51.0188 121.152 51.3111 122.479 51.9204 123.648C52.5197 124.818 53.3916 125.764 54.4913 126.427C55.5959 127.096 56.8591 127.433 58.2163 127.428C59.4102 127.428 60.5297 127.131 61.5055 126.536C61.7334 126.398 61.9563 126.244 62.1644 126.076C62.0801 126.502 61.9513 126.878 61.773 127.21C61.4362 127.849 61.0201 128.285 60.5 128.592C59.965 128.904 59.3903 129.058 58.7117 129.063C57.9489 129.063 57.3049 128.929 56.7451 128.676C56.1854 128.424 55.7396 128.072 55.373 127.596L55.3779 127.601C55.1848 127.344 54.9321 127.121 54.6399 126.972C54.3476 126.824 54.0157 126.749 53.6937 126.749C53.2776 126.749 52.8814 126.888 52.5445 127.106L52.5296 127.116L52.5148 127.126C52.2671 127.304 52.0442 127.522 51.8857 127.795C51.7272 128.067 51.638 128.389 51.643 128.701C51.643 128.924 51.6875 129.152 51.7668 129.355C51.8461 129.558 51.96 129.746 52.0937 129.915V129.92C52.8665 130.896 53.8423 131.663 54.9817 132.184C56.121 132.709 57.3544 132.966 58.6572 132.966C60.1136 132.966 61.4609 132.619 62.6448 131.921C63.8238 131.227 64.7551 130.257 65.404 129.053C66.0529 127.854 66.3749 126.512 66.3749 125.08V119.715C66.3798 118.254 66.0529 116.907 65.3891 115.728ZM60.5594 123.044C60.0195 123.361 59.425 123.52 58.7117 123.525C57.9984 123.525 57.404 123.361 56.864 123.044C56.3191 122.722 55.9129 122.296 55.5959 121.712C55.2888 121.137 55.1253 120.488 55.1253 119.71C55.1253 118.933 55.2888 118.279 55.5959 117.694C55.9129 117.105 56.3241 116.679 56.864 116.357C57.404 116.04 57.9984 115.881 58.7117 115.876C59.425 115.876 60.0195 116.04 60.5594 116.357C61.0993 116.679 61.5006 117.105 61.8127 117.689C62.1198 118.274 62.2733 118.933 62.2783 119.71C62.2783 120.488 62.1198 121.142 61.8176 121.717C61.5055 122.301 61.0993 122.722 60.5594 123.044Z" fill="#FFC632"/>
<path d="M75.3202 123.797C75.1418 123.599 74.9189 123.431 74.6713 123.327C74.4236 123.218 74.1511 123.173 73.8886 123.173H73.2694C73.2397 123.168 73.2545 123.173 73.2347 123.163C73.2198 123.153 73.1654 123.109 73.096 122.99C72.9573 122.757 72.8632 122.405 72.8632 121.895V108.332C72.8632 108.06 72.8186 107.787 72.7195 107.535C72.6205 107.277 72.4669 107.044 72.2737 106.851C72.0805 106.658 71.8477 106.504 71.5901 106.405C71.3325 106.306 71.0601 106.261 70.7926 106.261C70.5201 106.261 70.2477 106.306 69.9951 106.405C69.7375 106.504 69.5047 106.658 69.3115 106.856C69.1183 107.049 68.9598 107.287 68.8607 107.539C68.7616 107.797 68.717 108.07 68.717 108.337V121.9C68.717 122.876 68.8954 123.792 69.2619 124.614C69.6285 125.437 70.1734 126.125 70.8818 126.601C71.5852 127.081 72.4124 127.334 73.2743 127.329H73.3239C73.636 127.329 73.9381 127.294 74.2304 127.21C74.5177 127.126 74.7951 126.997 75.0378 126.819C75.2805 126.64 75.4886 126.413 75.6322 126.14C75.7759 125.868 75.8502 125.556 75.8452 125.253C75.8452 124.991 75.8056 124.733 75.7214 124.481C75.6322 124.223 75.4935 123.99 75.3202 123.797Z" fill="#FFC632"/>
<path d="M90.9781 119.493C90.9781 118.081 90.7056 116.788 90.1459 115.649C89.5861 114.51 88.7539 113.588 87.6938 112.944C86.6189 112.29 85.3508 111.978 83.9588 111.978C82.5421 111.978 81.2294 112.305 80.0752 112.974C78.926 113.633 78.0146 114.579 77.3755 115.758C76.7316 116.942 76.4145 118.279 76.4195 119.721C76.4195 121.172 76.7563 122.515 77.4399 123.693C78.1186 124.867 79.0796 125.799 80.2833 126.453C81.492 127.111 82.8591 127.438 84.3353 127.438C85.2022 127.438 86.0889 127.28 87.0003 126.973C87.9019 126.671 88.6846 126.269 89.3335 125.754C89.3384 125.754 89.3384 125.749 89.3434 125.744C89.3483 125.744 89.3483 125.739 89.3533 125.739C89.5564 125.581 89.7397 125.383 89.8685 125.145C90.0022 124.897 90.0666 124.615 90.0666 124.342C90.0666 124.055 89.9923 123.758 89.8586 123.505C89.7298 123.263 89.5514 123.054 89.3434 122.881C89.3384 122.876 89.3384 122.876 89.3335 122.871C89.3285 122.866 89.3236 122.861 89.3186 122.856C89.1452 122.703 88.9372 122.589 88.7242 122.519C88.5013 122.445 88.2685 122.415 88.0356 122.415C87.7979 122.415 87.5601 122.45 87.3322 122.524C87.1093 122.599 86.8963 122.713 86.713 122.856C86.4604 123.05 86.0988 123.238 85.6232 123.401C85.1576 123.56 84.7316 123.629 84.3403 123.629C83.7904 123.629 83.3 123.55 82.8641 123.406C82.4282 123.258 82.0369 123.045 81.6802 122.752C81.3186 122.455 81.0461 122.128 80.8331 121.752C80.7737 121.648 80.7242 121.539 80.6746 121.425H89.0165C89.2691 121.425 89.5217 121.385 89.7644 121.291C90.0072 121.202 90.2301 121.058 90.4134 120.88C90.5966 120.702 90.7502 120.489 90.8493 120.246C90.9335 120.003 90.9781 119.745 90.9781 119.493ZM81.5663 116.565C81.8585 116.308 82.1904 116.119 82.5817 115.986C82.9731 115.852 83.4288 115.783 83.9588 115.783C84.4195 115.783 84.8158 115.852 85.1527 115.976C85.4895 116.105 85.7768 116.283 86.0344 116.536C86.3019 116.798 86.5149 117.095 86.6784 117.452C86.7229 117.551 86.7675 117.655 86.8022 117.759H80.6944C80.7341 117.665 80.7786 117.576 80.8232 117.492C81.0214 117.14 81.2641 116.833 81.5663 116.565Z" fill="#FFC632"/>
<path d="M95.131 126.453L95.1206 126.448L95.131 126.453Z" fill="#FDC536"/>
<path d="M14.7486 117.075C14.3672 116.605 13.9065 116.203 13.3814 115.891C13.322 115.857 13.2526 115.822 13.1883 115.787C13.4657 115.525 13.7183 115.232 13.9313 114.915C14.4613 114.138 14.7387 113.221 14.7338 112.26C14.7338 111.131 14.4514 110.071 13.8768 109.149C13.3121 108.233 12.5046 107.51 11.5238 107.009C10.5331 106.504 9.40867 106.261 8.19009 106.261H2.2557C1.98325 106.261 1.70586 106.306 1.44827 106.41C1.19068 106.509 0.952912 106.668 0.759722 106.856L0.754764 106.861L0.759722 106.856C0.556625 107.054 0.393154 107.292 0.284175 107.559C0.18015 107.827 0.130615 108.109 0.130615 108.387V125.204C0.130615 125.481 0.18015 125.759 0.284175 126.021C0.3882 126.284 0.551672 126.517 0.744862 126.715C0.943005 126.913 1.17582 127.071 1.43836 127.175C1.7009 127.28 1.9783 127.329 2.2557 127.329H8.71517C10.0526 127.329 11.291 127.057 12.3858 126.492C13.4805 125.932 14.3622 125.12 14.9814 124.094C15.6006 123.069 15.9078 121.89 15.9078 120.632C15.9078 119.948 15.8186 119.299 15.6254 118.7C15.4322 118.105 15.14 117.556 14.7486 117.075Z" fill="#FFC632"/>
<path fill-rule="evenodd" clip-rule="evenodd" d="M10.7414 116.248L8.24482 115.406L8.99777 111.814C9.11666 111.235 8.37857 110.868 7.95751 111.294L2.98908 116.386C2.91973 116.456 2.87019 116.545 2.84542 116.639C2.82065 116.733 2.82065 116.832 2.84047 116.926C2.86523 117.02 2.91477 117.11 2.97917 117.179C3.04356 117.248 3.13273 117.308 3.22684 117.337L5.71849 118.18L4.96555 121.771C4.84171 122.35 5.58474 122.717 6.00084 122.291L10.9693 117.194C11.2814 116.892 11.1526 116.386 10.7414 116.248Z" fill="white"/>
<defs>
<clipPath id="clip0_712_2251">
<rect width="95.2614" height="95.2614" fill="white"/>
</clipPath>
</defs>
</svg>
