<svg width="34" height="39" viewBox="0 0 34 39" fill="none" xmlns="http://www.w3.org/2000/svg">
<path d="M11.4908 10.7783L10.6328 11.3679L7.8331 13.2918C6.99279 13.8692 6.768 14.9639 7.34494 15.6702L19.8706 31.0197C20.3905 31.6561 21.3788 31.7466 22.1354 31.2267L23.5917 30.226L24.4489 29.6369L25.9052 28.6362C26.6625 28.1157 26.9329 27.1614 26.5239 26.4478L16.685 9.25186C16.232 8.45929 15.13 8.27748 14.2897 8.85492L11.4908 10.7783Z" fill="#FDC535"/>
<path d="M16.4015 8.3258C16.0474 8.12001 15.6381 8.02954 15.2263 8.05222C14.8136 8.07543 14.3969 8.21284 14.026 8.46778L11.2255 10.3922L10.3675 10.9818L7.56777 12.9057C7.07312 13.2456 6.74435 13.7364 6.61635 14.2643C6.55262 14.5287 6.53954 14.8026 6.58308 15.0716C6.62663 15.3407 6.72887 15.6047 6.89072 15.8402C6.9199 15.8827 6.95116 15.9249 6.98471 15.9655L19.5104 31.315C19.6832 31.5271 19.896 31.6935 20.1289 31.812C20.4788 31.9888 20.8738 32.0584 21.2656 32.0245C21.6586 31.9909 22.051 31.8543 22.4012 31.6136L23.8575 30.6129L23.8583 30.6123L23.9038 30.6572L23.9067 30.6598L23.9091 30.6616C23.9114 30.6633 23.9293 30.6795 23.958 30.7064C24.0438 30.7884 24.2258 30.976 24.4051 31.237L24.4078 31.2408L24.4089 31.2424C24.5813 31.4934 24.7499 31.8095 24.8457 32.1644L24.8801 32.2919L24.8855 32.2882C24.9316 32.4145 25.0182 32.6096 25.1774 32.8413L25.179 32.8436C25.3589 33.1054 25.629 33.4064 26.0161 33.6883C26.2235 33.8403 26.4826 33.8521 26.67 33.7233C26.7299 33.6821 26.7816 33.6273 26.8209 33.5594C26.881 33.4544 26.9023 33.334 26.8929 33.2166C26.8821 33.0989 26.8403 32.9821 26.7708 32.8809C26.7262 32.8161 26.6698 32.7571 26.6035 32.7083C26.3446 32.519 26.1935 32.342 26.0999 32.2074C26.0373 32.1163 26.0027 32.0445 25.9847 32.0035C25.9763 31.9831 25.9719 31.9702 25.9711 31.9673L25.9706 31.9666C25.8222 31.4182 25.5715 30.9596 25.3303 30.6069C25.1467 30.3397 24.9659 30.1309 24.8272 29.9851C24.8193 29.9769 24.8114 29.9687 24.8041 29.9613L26.1728 29.0207C26.6398 28.6998 26.9611 28.2425 27.1036 27.7422C27.1748 27.4921 27.1997 27.2305 27.1734 26.97C27.1471 26.7096 27.0672 26.4518 26.9312 26.2145L17.0924 9.01857C17.0665 8.97269 17.0383 8.92839 17.0091 8.88592C16.8463 8.65222 16.637 8.46291 16.4015 8.3258ZM16.2821 9.48332L26.1209 26.6792C26.1892 26.7983 26.2294 26.9275 26.2435 27.0633C26.2648 27.267 26.2244 27.488 26.123 27.6975C26.021 27.9063 25.8598 28.1012 25.6417 28.2511L24.1854 29.2518L23.3274 29.8414L21.8711 30.8422C21.5808 31.0417 21.2506 31.1208 20.9547 31.0933C20.8074 31.0797 20.6688 31.0409 20.5471 30.979C20.4254 30.9171 20.3196 30.834 20.2324 30.7268L7.70493 15.3762C7.68853 15.3556 7.67291 15.3345 7.65805 15.3129C7.57686 15.1948 7.52656 15.0656 7.50432 14.9263C7.46981 14.7181 7.50145 14.486 7.60086 14.2654C7.70027 14.0447 7.86645 13.8373 8.09842 13.6779L10.8989 11.7535L11.7561 11.1644L14.5566 9.23999C14.8654 9.0278 15.214 8.95422 15.5197 8.99427C15.6725 9.01429 15.8137 9.06169 15.935 9.13293C16.0563 9.20417 16.1601 9.29766 16.2408 9.41504C16.2549 9.43719 16.269 9.45934 16.2821 9.48332Z" fill="#434343"/>
<path d="M15.3157 17.2642C18.7166 14.9272 19.5689 10.2609 17.2194 6.84185C14.8698 3.42277 10.2082 2.54558 6.80733 4.8826C3.40644 7.21961 2.55413 11.8858 4.90365 15.3049C7.25316 18.724 11.9148 19.6012 15.3157 17.2642Z" fill="white"/>
<path d="M12.9283 3.60719L3.53908 10.0593C3.32708 10.2049 3.27389 10.4962 3.42035 10.7093C3.56681 10.9224 3.85773 10.9772 4.06972 10.8315L13.4582 4.37993C13.6702 4.23425 13.7234 3.94304 13.5769 3.72991C13.4312 3.51625 13.1403 3.46151 12.9283 3.60719Z" fill="#434343"/>
<path d="M15.9036 5.32221L3.98274 13.514C3.77075 13.6597 3.71756 13.9509 3.86402 14.164C4.01047 14.3771 4.30139 14.4319 4.51339 14.2862L16.4343 6.09441C16.6463 5.94874 16.6995 5.65753 16.553 5.4444C16.4066 5.23127 16.1156 5.17653 15.9036 5.32221Z" fill="#434343"/>
<path d="M12.4921 3.24409C10.4915 2.86696 8.3477 3.25559 6.5419 4.49649C4.73687 5.73687 3.60475 7.5994 3.2396 9.60222C2.87339 11.6035 3.27248 13.7541 4.5195 15.5688C5.76651 17.3835 7.63114 18.5271 9.63197 18.9029C11.6326 19.2801 13.7764 18.8914 15.5822 17.6505C17.3872 16.4102 18.5193 14.5476 18.8845 12.5448C19.2509 10.5422 18.8524 8.39235 17.6048 6.57689C16.3571 4.76273 14.4924 3.61915 12.4921 3.24409ZM16.836 7.10523C17.0482 7.41412 17.2322 7.73449 17.3888 8.06114L15.8933 9.0888L12.5396 4.20845C14.2248 4.58068 15.7789 5.567 16.836 7.10523ZM18.0758 11.3498L17.6487 11.6433L16.4245 9.86179L17.7449 8.95446C17.9953 9.73848 18.1039 10.5483 18.0758 11.3498ZM8.80556 17.7201C8.04721 17.459 7.32967 17.0665 6.68884 16.5519L8.03455 15.6272L9.25874 17.4087L8.80556 17.7201ZM10.5575 17.653L12.3303 16.4348L13.2456 17.7669C12.4683 18.018 11.6638 18.1275 10.8647 18.1001L10.5575 17.653ZM10.0268 16.8808L8.80265 15.0994L10.5754 13.8811L11.7996 15.6626L10.0268 16.8808ZM4.4312 8.7379C4.69191 7.98349 5.08278 7.27039 5.59585 6.63474L10.0442 13.1082L8.27147 14.3264L4.4312 8.7379ZM11.3435 13.3533L13.1155 12.1356L14.3397 13.9171L12.5677 15.1348L11.3435 13.3533ZM13.8836 11.6078L15.6564 10.3896L16.8806 12.1711L15.1078 13.3893L13.8836 11.6078ZM15.1258 9.6174L13.353 10.8356L8.90936 4.36914C9.68959 4.12061 10.4973 4.01576 11.2977 4.04669L15.1258 9.6174ZM17.4112 12.9433L17.7057 13.3719C17.449 14.1304 17.0602 14.8466 16.5485 15.4858L15.6385 14.1615L17.4112 12.9433ZM8.02028 4.7209L12.5849 11.3634L10.8129 12.5811L6.24562 5.93472C6.50087 5.69565 6.77606 5.47244 7.07331 5.26817C7.37902 5.0581 7.69632 4.87644 8.02028 4.7209ZM4.13113 9.94681L7.5039 14.855L5.9823 15.9006C5.73297 15.6365 5.50038 15.3507 5.28759 15.041C4.221 13.4889 3.86126 11.667 4.13113 9.94681ZM14.1326 17.412L13.0984 15.907L14.8704 14.6893L15.9014 16.1897C15.6406 16.4372 15.3567 16.6675 15.0502 16.8781C14.7543 17.0826 14.447 17.2608 14.1326 17.412Z" fill="#434343"/>
</svg>
