<svg width="375" height="210" viewBox="0 0 375 210" fill="none" xmlns="http://www.w3.org/2000/svg">
<rect width="375" height="210" fill="#D9D9D9"/>
<path d="M126.026 85.4052L126.037 85.3948L126.026 85.4052Z" fill="#FDC536"/>
<path d="M202.767 85.7178L202.787 85.7076L202.767 85.7178Z" fill="#FDC536"/>
<path d="M203 99.1912L202.99 99.186L203 99.1912Z" fill="#FDC536"/>
<path d="M163.003 90.2291C162.655 89.8803 162.228 89.6101 161.774 89.4357C161.312 89.2613 160.833 89.1829 160.344 89.1916C159.865 89.1916 159.385 89.2701 158.941 89.4444C158.487 89.6188 158.078 89.8891 157.729 90.2203C157.371 90.5604 157.084 90.9876 156.909 91.4496C156.726 91.9117 156.648 92.3999 156.648 92.8881V105.216C156.639 106 156.456 106.628 156.046 107.238C155.628 107.857 155.061 108.354 154.259 108.747C153.466 109.139 152.594 109.339 151.565 109.339C150.658 109.339 149.882 109.209 149.229 108.973C148.566 108.738 148.017 108.398 147.529 107.936C147.066 107.5 146.726 106.959 146.474 106.262C146.221 105.564 146.081 104.693 146.081 103.646V92.8881C146.081 92.4086 146.003 91.9204 145.82 91.4671C145.637 91.0137 145.358 90.5952 145.018 90.2552C144.678 89.9152 144.259 89.6362 143.806 89.4532C143.352 89.2701 142.864 89.1916 142.385 89.1916C141.905 89.1916 141.417 89.2701 140.964 89.4532C140.51 89.6362 140.092 89.9152 139.752 90.2552C139.412 90.5952 139.133 91.0137 138.95 91.4671C138.767 91.9204 138.688 92.4086 138.688 92.8881V103.646C138.688 106.192 139.176 108.468 140.223 110.394C141.243 112.295 142.725 113.812 144.573 114.815C146.404 115.817 148.479 116.305 150.702 116.305C152.332 116.305 153.893 116.018 155.358 115.434C156.038 115.163 156.674 114.841 157.276 114.457C157.406 114.658 157.563 114.849 157.738 115.015C158.078 115.355 158.496 115.634 158.949 115.817C159.403 116 159.891 116.079 160.371 116.079C160.859 116.079 161.347 116 161.809 115.817C162.271 115.634 162.698 115.355 163.038 114.998C163.37 114.658 163.64 114.239 163.814 113.786C163.989 113.332 164.067 112.853 164.067 112.382V92.8881C164.067 92.4086 163.989 91.9204 163.823 91.4584C163.622 90.9963 163.352 90.5778 163.003 90.2291Z" fill="white"/>
<path d="M192.811 94.9195C191.791 93.0189 190.309 91.5107 188.461 90.4994C186.63 89.4968 184.555 89.0085 182.34 89.0085C180.71 89.0085 179.15 89.2962 177.685 89.8804C177.014 90.1419 176.386 90.4645 175.793 90.8394C175.662 90.6301 175.505 90.447 175.331 90.2727C174.982 89.9239 174.564 89.6537 174.102 89.4793C173.64 89.305 173.16 89.2352 172.672 89.2352C172.192 89.2352 171.713 89.3137 171.268 89.488C170.815 89.6624 170.405 89.9327 170.056 90.264C169.699 90.604 169.411 91.0312 169.237 91.4933C169.054 91.9553 168.975 92.4523 168.975 92.9405V112.434C168.975 112.914 169.054 113.402 169.237 113.856C169.42 114.309 169.699 114.727 170.039 115.067C170.379 115.407 170.797 115.686 171.251 115.869C171.704 116.053 172.192 116.131 172.672 116.131C173.16 116.131 173.648 116.053 174.11 115.869C174.572 115.686 175 115.407 175.34 115.05C175.671 114.71 175.941 114.291 176.116 113.838C176.29 113.385 176.368 112.905 176.368 112.434V100.107C176.377 99.3222 176.56 98.6945 176.97 98.0842C177.388 97.4653 177.955 96.977 178.757 96.5673C179.551 96.1749 180.422 95.9744 181.451 95.9744C182.358 95.9744 183.134 96.1052 183.788 96.3406C184.45 96.576 184.999 96.916 185.488 97.3781C185.95 97.814 186.29 98.3545 186.543 99.052C186.795 99.7494 186.935 100.621 186.935 101.667V112.426C186.935 112.905 187.013 113.393 187.197 113.847C187.38 114.3 187.659 114.719 187.999 115.059C188.339 115.399 188.757 115.678 189.21 115.861C189.664 116.044 190.152 116.122 190.631 116.122C191.111 116.122 191.599 116.044 192.053 115.861C192.506 115.678 192.924 115.399 193.264 115.059C193.604 114.719 193.883 114.3 194.066 113.847C194.25 113.393 194.328 112.905 194.328 112.426V101.667C194.345 99.1304 193.849 96.855 192.811 94.9195Z" fill="white"/>
<path d="M222.854 95.6605C221.704 93.603 220.056 91.9552 218.016 90.7957C215.958 89.6275 213.622 89.0521 211.102 89.0521C208.556 89.0521 206.194 89.6275 204.128 90.7957C202.07 91.9552 200.422 93.603 199.28 95.6692C198.129 97.7442 197.563 100.107 197.563 102.679C197.563 105.207 198.077 107.543 199.149 109.601C200.204 111.658 201.739 113.324 203.674 114.492C205.618 115.669 207.842 116.262 210.23 116.253C212.331 116.253 214.302 115.73 216.019 114.684C216.42 114.44 216.813 114.169 217.179 113.873C217.031 114.623 216.804 115.285 216.49 115.869C215.897 116.994 215.165 117.761 214.249 118.302C213.308 118.851 212.297 119.121 211.102 119.13C209.76 119.13 208.626 118.895 207.641 118.45C206.656 118.005 205.871 117.386 205.226 116.549L205.235 116.558C204.895 116.105 204.45 115.712 203.936 115.451C203.421 115.189 202.837 115.059 202.271 115.059C201.538 115.059 200.841 115.303 200.248 115.686L200.222 115.704L200.196 115.721C199.76 116.035 199.367 116.419 199.088 116.898C198.809 117.378 198.653 117.944 198.661 118.494C198.661 118.886 198.74 119.287 198.879 119.644C199.019 120.002 199.219 120.333 199.455 120.63V120.638C200.815 122.356 202.532 123.707 204.537 124.623C206.543 125.547 208.713 126 211.006 126C213.569 126 215.941 125.39 218.024 124.16C220.099 122.94 221.738 121.231 222.881 119.113C224.023 117.003 224.589 114.64 224.589 112.121V102.679C224.598 100.107 224.023 97.7355 222.854 95.6605ZM214.354 108.537C213.404 109.095 212.358 109.374 211.102 109.383C209.847 109.383 208.801 109.095 207.85 108.537C206.891 107.971 206.176 107.221 205.618 106.192C205.078 105.181 204.79 104.039 204.79 102.67C204.79 101.301 205.078 100.15 205.618 99.1217C206.176 98.0842 206.9 97.3344 207.85 96.7677C208.801 96.2098 209.847 95.9308 211.102 95.922C212.358 95.922 213.404 96.2098 214.354 96.7677C215.304 97.3344 216.011 98.0842 216.56 99.1129C217.1 100.142 217.371 101.301 217.379 102.67C217.379 104.039 217.1 105.19 216.569 106.201C216.019 107.23 215.304 107.971 214.354 108.537Z" fill="white"/>
<path d="M240.333 109.863C240.019 109.514 239.627 109.217 239.191 109.034C238.755 108.843 238.275 108.764 237.813 108.764H236.724C236.671 108.755 236.697 108.764 236.662 108.747C236.636 108.729 236.54 108.651 236.418 108.442C236.174 108.032 236.009 107.413 236.009 106.515V82.6442C236.009 82.1647 235.93 81.6852 235.756 81.2406C235.581 80.7872 235.311 80.3775 234.971 80.0375C234.631 79.6975 234.221 79.4272 233.768 79.2528C233.315 79.0784 232.835 79 232.364 79C231.885 79 231.405 79.0784 230.961 79.2528C230.507 79.4272 230.098 79.6974 229.758 80.0462C229.418 80.3862 229.139 80.8047 228.964 81.2493C228.79 81.7026 228.711 82.1822 228.711 82.6529V106.523C228.711 108.241 229.025 109.854 229.67 111.301C230.316 112.748 231.275 113.96 232.521 114.797C233.759 115.643 235.215 116.087 236.732 116.079H236.819C237.369 116.079 237.9 116.018 238.415 115.869C238.921 115.721 239.409 115.495 239.836 115.181C240.263 114.867 240.629 114.466 240.882 113.986C241.135 113.507 241.266 112.958 241.257 112.426C241.257 111.964 241.187 111.51 241.039 111.066C240.882 110.612 240.638 110.203 240.333 109.863Z" fill="white"/>
<path d="M267.89 102.287C267.89 99.8024 267.411 97.5269 266.425 95.5217C265.44 93.5165 263.976 91.8949 262.11 90.7616C260.218 89.6108 257.986 89.0615 255.536 89.0615C253.043 89.0615 250.733 89.6369 248.701 90.8139C246.679 91.9734 245.074 93.6386 243.95 95.7135C242.816 97.7972 242.258 100.151 242.267 102.688C242.267 105.243 242.86 107.605 244.063 109.68C245.258 111.746 246.949 113.385 249.067 114.536C251.195 115.696 253.601 116.271 256.199 116.271C257.725 116.271 259.285 115.992 260.889 115.452C262.476 114.92 263.854 114.214 264.996 113.307C265.004 113.307 265.004 113.298 265.013 113.29C265.022 113.29 265.022 113.281 265.031 113.281C265.388 113.002 265.711 112.653 265.937 112.235C266.173 111.799 266.286 111.302 266.286 110.822C266.286 110.317 266.155 109.793 265.92 109.349C265.693 108.922 265.379 108.556 265.013 108.25C265.004 108.242 265.004 108.242 264.996 108.233C264.987 108.224 264.978 108.215 264.97 108.207C264.664 107.937 264.298 107.736 263.923 107.614C263.531 107.483 263.121 107.431 262.711 107.431C262.293 107.431 261.875 107.492 261.473 107.623C261.081 107.753 260.706 107.954 260.384 108.207C259.939 108.547 259.303 108.878 258.466 109.166C257.646 109.445 256.896 109.567 256.208 109.567C255.24 109.567 254.377 109.427 253.61 109.175C252.842 108.913 252.154 108.538 251.526 108.024C250.89 107.501 250.41 106.925 250.035 106.263C249.931 106.08 249.843 105.888 249.756 105.687H264.438C264.882 105.687 265.327 105.617 265.754 105.452C266.181 105.295 266.574 105.042 266.896 104.728C267.219 104.414 267.489 104.039 267.663 103.612C267.812 103.185 267.89 102.732 267.89 102.287ZM251.325 97.1346C251.84 96.6813 252.424 96.3499 253.113 96.1146C253.801 95.8792 254.604 95.7571 255.536 95.7571C256.347 95.7571 257.045 95.8792 257.637 96.0971C258.23 96.3238 258.736 96.6377 259.189 97.0823C259.66 97.5444 260.035 98.0674 260.323 98.6952C260.401 98.8695 260.48 99.0526 260.541 99.2357H249.791C249.861 99.0701 249.939 98.9131 250.018 98.7649C250.366 98.1459 250.794 97.6054 251.325 97.1346Z" fill="white"/>
<path d="M133.728 98.032C133.056 97.2037 132.245 96.4975 131.321 95.9483C131.217 95.8873 131.095 95.8262 130.981 95.7652C131.47 95.3031 131.914 94.7888 132.289 94.2308C133.222 92.862 133.71 91.2492 133.701 89.5578C133.701 87.5701 133.204 85.7043 132.193 84.0828C131.199 82.4699 129.778 81.197 128.052 80.3165C126.308 79.4272 124.329 79 122.185 79H111.74C111.261 79 110.772 79.0785 110.319 79.2616C109.866 79.4359 109.447 79.7149 109.107 80.0462L109.098 80.0549L109.107 80.0462C108.75 80.3949 108.462 80.8134 108.27 81.2842C108.087 81.755 108 82.2519 108 82.7401V112.339C108 112.827 108.087 113.315 108.27 113.777C108.453 114.239 108.741 114.649 109.081 114.998C109.43 115.346 109.84 115.625 110.302 115.808C110.764 115.992 111.252 116.079 111.74 116.079H123.109C125.463 116.079 127.642 115.599 129.569 114.605C131.496 113.62 133.048 112.19 134.137 110.386C135.227 108.581 135.768 106.506 135.768 104.292C135.768 103.089 135.611 101.946 135.271 100.892C134.931 99.8454 134.416 98.8776 133.728 98.032Z" fill="white"/>
<path fill-rule="evenodd" clip-rule="evenodd" d="M126.675 96.5756L122.281 95.0935L123.606 88.7728C123.815 87.7527 122.516 87.1076 121.775 87.8573L113.031 96.8197C112.909 96.9417 112.822 97.0987 112.778 97.2643C112.734 97.43 112.734 97.6043 112.769 97.77C112.813 97.9356 112.9 98.0926 113.013 98.2146C113.127 98.3367 113.284 98.4413 113.449 98.4936L117.835 99.9757L116.509 106.296C116.291 107.316 117.599 107.962 118.332 107.212L127.076 98.2408C127.625 97.709 127.399 96.8197 126.675 96.5756Z" fill="#D9D9D9"/>
</svg>
