<svg width="85" height="85" viewBox="0 0 85 85" fill="none" xmlns="http://www.w3.org/2000/svg">
<path d="M42.5 0C19.0259 0 0 19.0259 0 42.5C0 42.5284 0 42.5527 0 42.5811C0 42.5892 0 42.5933 0 42.6014V82.2021C0 83.747 1.25298 85 2.79792 85H42.3986C42.4067 85 42.4108 85 42.4189 85C42.4473 85 42.4716 85 42.5 85C65.9701 85 85 65.9741 85 42.5C85 19.0259 65.9701 0 42.5 0Z" fill="#FFC632"/>
<path d="M53.3267 43.1488C52.4428 42.058 51.3763 41.1375 50.1639 40.4157C50.0219 40.3306 49.8679 40.2576 49.7219 40.1765C50.3666 39.5642 50.9465 38.8951 51.4412 38.1612C52.6698 36.3608 53.3024 34.2481 53.2943 32.026C53.2984 29.4146 52.6374 26.9654 51.3114 24.8406C50.0017 22.7239 48.1445 21.0492 45.8737 19.8936C43.5827 18.7257 40.9834 18.1621 38.1693 18.1621H24.4554C23.8229 18.1621 23.1862 18.2675 22.5902 18.5027C21.9941 18.7339 21.4467 19.0947 20.9925 19.5327L20.9803 19.5448L20.9925 19.5327C20.5221 19.9868 20.141 20.5464 19.8977 21.1587C19.6503 21.771 19.5449 22.4239 19.5449 23.0727V61.9232C19.5449 62.5639 19.6584 63.2086 19.9017 63.8088C20.145 64.4089 20.5181 64.9563 20.9722 65.4105C21.4264 65.8646 21.9698 66.2377 22.5739 66.481C23.1741 66.7243 23.8229 66.8378 24.4595 66.8378H39.3817C42.4716 66.8419 45.3304 66.2052 47.8647 64.9036C50.395 63.6141 52.4347 61.7326 53.8579 59.3605C55.2893 56.9883 56.003 54.2715 55.999 51.3641C55.999 49.7786 55.7881 48.2864 55.3461 46.9036C54.9041 45.5209 54.2269 44.2558 53.3267 43.1488Z" fill="white"/>
<path fill-rule="evenodd" clip-rule="evenodd" d="M44.0612 41.2307L38.2991 39.2884L40.0387 30.992C40.3185 29.6538 38.6073 28.8023 37.6381 29.7917L26.1545 41.5592C25.9923 41.7254 25.8788 41.9241 25.8179 42.1431C25.7571 42.3621 25.7571 42.5891 25.8098 42.8122C25.8666 43.0311 25.9761 43.2339 26.1342 43.4001C26.2924 43.5664 26.4911 43.6961 26.71 43.7691L32.4721 45.7115L30.7325 54.0079C30.4487 55.346 32.1599 56.1976 33.129 55.2082L44.6126 43.4366C45.3182 42.723 45.0222 41.5511 44.0612 41.2307Z" fill="#FFC632"/>
<path d="M64.4738 36.8999C67.3852 36.8999 69.7453 34.5398 69.7453 31.6285C69.7453 28.7172 67.3852 26.3571 64.4738 26.3571C61.5625 26.3571 59.2024 28.7172 59.2024 31.6285C59.2024 34.5398 61.5625 36.8999 64.4738 36.8999Z" fill="white"/>
<path d="M64.4738 57.1747C67.3852 57.1747 69.7453 54.8146 69.7453 51.9033C69.7453 48.9919 67.3852 46.6318 64.4738 46.6318C61.5625 46.6318 59.2024 48.9919 59.2024 51.9033C59.2024 54.8146 61.5625 57.1747 64.4738 57.1747Z" fill="white"/>
</svg>
