<svg width="13" height="13" viewBox="0 0 13 13" fill="none" xmlns="http://www.w3.org/2000/svg">
<path d="M6.5 4.13636C5.19409 4.13636 4.13636 5.19409 4.13636 6.5C4.13636 7.80591 5.19409 8.86364 6.5 8.86364C7.80591 8.86364 8.86364 7.80591 8.86364 6.5C8.86364 5.19409 7.80591 4.13636 6.5 4.13636ZM11.7827 5.90909C11.5109 3.445 9.555 1.48909 7.09091 1.21727V0H5.90909V1.21727C3.445 1.48909 1.48909 3.445 1.21727 5.90909H0V7.09091H1.21727C1.48909 9.555 3.445 11.5109 5.90909 11.7827V13H7.09091V11.7827C9.555 11.5109 11.5109 9.555 11.7827 7.09091H13V5.90909H11.7827ZM6.5 10.6364C4.21318 10.6364 2.36364 8.78682 2.36364 6.5C2.36364 4.21318 4.21318 2.36364 6.5 2.36364C8.78682 2.36364 10.6364 4.21318 10.6364 6.5C10.6364 8.78682 8.78682 10.6364 6.5 10.6364Z" fill="#9A9A9A"/>
</svg>
