<svg width="20" height="18" viewBox="0 0 20 18" fill="none" xmlns="http://www.w3.org/2000/svg">
<path fill-rule="evenodd" clip-rule="evenodd" d="M2.11797 3.20005H18.118C18.4362 3.20005 18.7415 3.07362 18.9665 2.84858C19.1915 2.62353 19.318 2.31831 19.318 2.00005C19.318 1.68179 19.1915 1.37656 18.9665 1.15152C18.7415 0.926477 18.4362 0.800049 18.118 0.800049H2.11797C1.79971 0.800049 1.49448 0.926477 1.26944 1.15152C1.0444 1.37656 0.917969 1.68179 0.917969 2.00005C0.917969 2.31831 1.0444 2.62353 1.26944 2.84858C1.49448 3.07362 1.79971 3.20005 2.11797 3.20005ZM18.118 7.80005H2.11797C1.79971 7.80005 1.49448 7.92648 1.26944 8.15152C1.0444 8.37656 0.917969 8.68179 0.917969 9.00005C0.917969 9.31831 1.0444 9.62353 1.26944 9.84858C1.49448 10.0736 1.79971 10.2 2.11797 10.2H18.118C18.4362 10.2 18.7415 10.0736 18.9665 9.84858C19.1915 9.62353 19.318 9.31831 19.318 9.00005C19.318 8.68179 19.1915 8.37656 18.9665 8.15152C18.7415 7.92648 18.4362 7.80005 18.118 7.80005ZM18.118 14.8H2.11797C1.96038 14.8 1.80434 14.8311 1.65875 14.8914C1.51316 14.9517 1.38087 15.0401 1.26944 15.1515C1.15801 15.263 1.06962 15.3952 1.00931 15.5408C0.949008 15.6864 0.917969 15.8425 0.917969 16C0.917969 16.1576 0.949008 16.3137 1.00931 16.4593C1.06962 16.6049 1.15801 16.7371 1.26944 16.8486C1.38087 16.96 1.51316 17.0484 1.65875 17.1087C1.80434 17.169 1.96038 17.2001 2.11797 17.2001H18.118C18.2756 17.2001 18.4316 17.169 18.5772 17.1087C18.7228 17.0484 18.8551 16.96 18.9665 16.8486C19.0779 16.7371 19.1663 16.6049 19.2266 16.4593C19.2869 16.3137 19.318 16.1576 19.318 16C19.318 15.8425 19.2869 15.6864 19.2266 15.5408C19.1663 15.3952 19.0779 15.263 18.9665 15.1515C18.8551 15.0401 18.7228 14.9517 18.5772 14.8914C18.4316 14.8311 18.2756 14.8 18.118 14.8Z" fill="#333A44"/>
</svg>
