<svg width="63" height="48" viewBox="0 0 63 48" fill="none" xmlns="http://www.w3.org/2000/svg">
<g filter="url(#filter0_d_1323_2937)">
<path fill-rule="evenodd" clip-rule="evenodd" d="M9.90265 4.23725C7.14126 4.2509 4.91378 6.50051 4.92743 9.2619L5.03227 30.4715C5.04592 33.2329 7.29554 35.4604 10.0569 35.4467L26.499 35.3655L32.0976 43.628L36.4354 35.3163L53.0564 35.2342C55.8178 35.2205 58.0453 32.9709 58.0316 30.2095L57.9268 8.99991C57.9131 6.23852 55.6635 4.01103 52.9021 4.02468L9.90265 4.23725Z" fill="white"/>
</g>
<path d="M21.8028 14.7706L21.8068 15.5746L28.7907 15.54L28.7867 14.7361L21.8028 14.7706ZM28.1387 14.7393L28.1429 15.5792C28.1473 16.4672 28.1522 17.4632 27.8351 18.8688L28.8197 18.9719C29.1246 17.5424 29.1193 16.4744 29.1149 15.5744L29.1107 14.7345L28.1387 14.7393ZM28.4238 16.5739L21.537 16.8239L21.6729 17.6153L28.4273 17.2819L28.4238 16.5739ZM20.5743 18.7127L20.5782 19.5047L30.3701 19.4563L30.3662 18.6643L20.5743 18.7127ZM21.7233 20.531L21.7271 21.299L28.243 21.2668L28.248 22.2868L21.7561 22.3189L21.767 24.5269L22.751 24.522L22.7438 23.058L29.2357 23.0259L29.2232 20.494L21.7233 20.531ZM21.7654 24.1909L21.7692 24.9709L29.6171 24.9321L29.6133 24.1521L21.7654 24.1909ZM39.4752 14.1792L39.508 20.8151L40.516 20.8101L40.4831 14.1742L39.4752 14.1792ZM33.2709 21.434L33.275 22.25L39.5149 22.2191L39.5288 25.0271L40.5368 25.0221L40.5189 21.3981L33.2709 21.434ZM32.169 19.4234L32.173 20.2394L33.049 20.2351C35.065 20.2251 36.5287 20.1698 38.3152 19.861L38.2033 19.0576C36.4646 19.3422 35.013 19.4093 33.045 19.4191L32.169 19.4234ZM32.1224 14.8516L32.1264 15.6676L36.0744 15.648L36.0814 17.076L32.1575 17.0954L32.171 19.8194L33.1429 19.8146L33.1333 17.8586L37.0572 17.8392L37.0423 14.8272L32.1224 14.8516Z" fill="#FFC632"/>
<defs>
<filter id="filter0_d_1323_2937" x="0.927368" y="0.0246582" width="61.1044" height="47.6033" filterUnits="userSpaceOnUse" color-interpolation-filters="sRGB">
<feFlood flood-opacity="0" result="BackgroundImageFix"/>
<feColorMatrix in="SourceAlpha" type="matrix" values="0 0 0 0 0 0 0 0 0 0 0 0 0 0 0 0 0 0 127 0" result="hardAlpha"/>
<feOffset/>
<feGaussianBlur stdDeviation="2"/>
<feComposite in2="hardAlpha" operator="out"/>
<feColorMatrix type="matrix" values="0 0 0 0 0 0 0 0 0 0 0 0 0 0 0 0 0 0 0.25 0"/>
<feBlend mode="normal" in2="BackgroundImageFix" result="effect1_dropShadow_1323_2937"/>
<feBlend mode="normal" in="SourceGraphic" in2="effect1_dropShadow_1323_2937" result="shape"/>
</filter>
</defs>
</svg>
