<svg width="24" height="30" viewBox="0 0 24 30" fill="none" xmlns="http://www.w3.org/2000/svg">
<g filter="url(#filter0_d_1102_766)">
<path fill-rule="evenodd" clip-rule="evenodd" d="M18.8258 13.9737L14.1528 12.3417L15.5648 5.36974C15.7918 4.24574 14.4048 3.52874 13.6198 4.36274L4.30984 14.2507C4.17969 14.3889 4.08614 14.5575 4.0377 14.741C3.98927 14.9246 3.98747 15.1173 4.03248 15.3017C4.07749 15.4861 4.16788 15.6564 4.29544 15.797C4.42299 15.9376 4.58366 16.0441 4.76284 16.1067L9.43484 17.7387L8.02484 24.7107C7.79584 25.8337 9.18284 26.5507 9.96884 25.7177L19.2798 15.8277C19.8448 15.2277 19.6038 14.2447 18.8258 13.9737Z" fill="#FFC632"/>
<path d="M16.3 5.51821L16.2999 5.51861L15.0178 11.8494L19.0725 13.2655L19.0731 13.2657L18.8258 13.9737C19.6038 14.2447 19.8448 15.2277 19.2798 15.8277L16.3 5.51821ZM16.3 5.51821C16.6762 3.65551 14.3766 2.46452 13.0737 3.8487L3.76386 13.7365C3.76384 13.7366 3.76381 13.7366 3.76379 13.7366C3.54798 13.9658 3.39286 14.2453 3.31253 14.5496C3.2322 14.854 3.22922 15.1737 3.30387 15.4796C3.37852 15.7854 3.52843 16.0678 3.73997 16.3009C3.95152 16.5341 4.21798 16.7107 4.51515 16.8147L4.51551 16.8148L8.57008 18.2311L7.28996 24.5609C7.28993 24.5611 7.28989 24.5613 7.28985 24.5615C6.90975 26.4279 9.21335 27.6112 10.5143 26.2325L10.5149 26.2318L19.8259 16.3419M16.3 5.51821L19.8259 16.3419M19.8259 16.3419C19.8259 16.3419 19.8259 16.3419 19.8259 16.3418L19.8259 16.3419Z" stroke="white" stroke-width="1.5"/>
</g>
<defs>
<filter id="filter0_d_1102_766" x="0.5" y="0.493652" width="22.5903" height="29.0913" filterUnits="userSpaceOnUse" color-interpolation-filters="sRGB">
<feFlood flood-opacity="0" result="BackgroundImageFix"/>
<feColorMatrix in="SourceAlpha" type="matrix" values="0 0 0 0 0 0 0 0 0 0 0 0 0 0 0 0 0 0 127 0" result="hardAlpha"/>
<feOffset/>
<feGaussianBlur stdDeviation="1"/>
<feComposite in2="hardAlpha" operator="out"/>
<feColorMatrix type="matrix" values="0 0 0 0 0 0 0 0 0 0 0 0 0 0 0 0 0 0 0.25 0"/>
<feBlend mode="normal" in2="BackgroundImageFix" result="effect1_dropShadow_1102_766"/>
<feBlend mode="normal" in="SourceGraphic" in2="effect1_dropShadow_1102_766" result="shape"/>
</filter>
</defs>
</svg>
