<svg width="22" height="21" viewBox="0 0 22 21" fill="none" xmlns="http://www.w3.org/2000/svg">
<path fill-rule="evenodd" clip-rule="evenodd" d="M11 17.267C9.60919 17.2654 8.27577 16.7122 7.2923 15.7287C6.30883 14.7453 5.75562 13.4118 5.75403 12.021C5.75535 10.63 6.30845 9.29631 7.29195 8.31262C8.27545 7.32893 9.60902 6.77558 11 6.774C12.391 6.77558 13.7246 7.32893 14.7081 8.31262C15.6916 9.29631 16.2447 10.63 16.246 12.021C16.2444 13.4118 15.6912 14.7453 14.7078 15.7287C13.7243 16.7122 12.3909 17.2654 11 17.267ZM19.113 4.136H16.159L15.046 1.967C14.8695 1.62363 14.6018 1.33556 14.2723 1.13444C13.9427 0.933324 13.5641 0.826945 13.178 0.826996H8.76503C8.37136 0.826949 7.98561 0.937557 7.65178 1.1462C7.31795 1.35484 7.04949 1.65312 6.87703 2.007L5.84103 4.136H2.88703C2.55601 4.13586 2.22821 4.20095 1.92236 4.32753C1.6165 4.45412 1.33858 4.63972 1.10447 4.87373C0.870363 5.10775 0.684651 5.3856 0.557947 5.6914C0.431243 5.99721 0.366028 6.32498 0.366028 6.656V18.257C0.366028 18.588 0.431243 18.9158 0.557947 19.2216C0.684651 19.5274 0.870363 19.8052 1.10447 20.0393C1.33858 20.2733 1.6165 20.4589 1.92236 20.5855C2.22821 20.712 2.55601 20.7771 2.88703 20.777H19.113C19.444 20.7771 19.7718 20.712 20.0777 20.5855C20.3836 20.4589 20.6615 20.2733 20.8956 20.0393C21.1297 19.8052 21.3154 19.5274 21.4421 19.2216C21.5688 18.9158 21.634 18.588 21.634 18.257V6.656C21.634 6.32498 21.5688 5.99721 21.4421 5.6914C21.3154 5.3856 21.1297 5.10775 20.8956 4.87373C20.6615 4.63972 20.3836 4.45412 20.0777 4.32753C19.7718 4.20095 19.444 4.13586 19.113 4.136Z" fill="#D9D9D9"/>
</svg>
