<svg width="21" height="21" viewBox="0 0 21 21" fill="none" xmlns="http://www.w3.org/2000/svg">
<g clip-path="url(#clip0_143_1356)">
<path fill-rule="evenodd" clip-rule="evenodd" d="M7.41569 9.8185C7.21937 9.55406 7.0342 9.28151 6.86067 9.00158C6.75961 8.83601 6.71746 8.64116 6.74108 8.44863C6.76469 8.2561 6.85268 8.0772 6.99075 7.94097L8.82232 6.1094C8.97157 5.96061 9.06134 5.76243 9.07476 5.55211C9.08817 5.34179 9.02431 5.13382 8.89517 4.96727L6.22413 1.51834C5.61708 0.733503 4.47148 0.610358 3.72654 1.26424C2.74485 2.12626 1.56456 3.41842 1.21941 4.86754C0.696472 7.06854 1.32174 9.74479 4.11592 13.1183L7.41656 9.81937L7.41569 9.8185ZM19.4527 14.746L16.0029 12.075C15.8362 11.9464 15.6284 11.8829 15.4184 11.8965C15.2083 11.9101 15.0104 11.9997 14.8616 12.1487L13.0301 13.9812C12.8937 14.119 12.7147 14.2067 12.5222 14.2301C12.3297 14.2536 12.135 14.2114 11.9695 14.1104C11.5064 13.8259 10.7952 13.3281 9.91329 12.5303L18.1597 4.28303C18.3522 4.08734 18.4596 3.82348 18.4585 3.54895C18.4574 3.27442 18.3478 3.01145 18.1537 2.81733C17.9596 2.62321 17.6966 2.51365 17.4221 2.51254C17.1476 2.51142 16.8837 2.61883 16.688 2.81136L1.07805 18.4213C0.882778 18.6165 0.773031 18.8812 0.772949 19.1573C0.772868 19.4334 0.88246 19.6982 1.07762 19.8934C1.27277 20.0887 1.53751 20.1984 1.81358 20.1985C2.08965 20.1986 2.35445 20.089 2.54972 19.8939L6.6482 15.7945C10.6001 19.4975 13.6467 20.3361 16.1044 19.7516C17.5526 19.4065 18.8448 18.2253 19.7077 17.2436C20.3616 16.4978 20.2367 15.3531 19.4536 14.746" fill="#969696"/>
</g>
<defs>
<clipPath id="clip0_143_1356">
<rect width="20.8133" height="20.8133" fill="white" transform="translate(0.0791016 0.0788574)"/>
</clipPath>
</defs>
</svg>
