<svg width="92" height="92" viewBox="0 0 92 92" fill="none" xmlns="http://www.w3.org/2000/svg">
<rect width="92" height="92" rx="10" fill="#D9D9D9"/>
<circle cx="45.1644" cy="39.5" r="19" stroke="#A4A4A4" stroke-width="3"/>
<mask id="path-3-inside-1_679_3126" fill="white">
<path fill-rule="evenodd" clip-rule="evenodd" d="M12.4066 92H9.66448C9.44443 92 9.22604 91.9929 9.00952 91.9789C10.8477 85.2557 14.5148 79.1164 19.6708 74.2813C26.7099 67.6802 35.9967 64.0045 45.6467 64C55.2967 63.9955 64.587 67.6625 71.6322 74.257C76.8015 79.0955 80.4781 85.244 82.3194 91.9789C82.1029 91.9929 81.8845 92 81.6645 92H78.9223C77.1706 86.1747 73.9048 80.8649 69.3967 76.6453C62.958 70.6186 54.4675 67.2672 45.6482 67.2714C36.829 67.2755 28.3417 70.6348 21.9086 76.6675C17.4124 80.8838 14.1551 86.1853 12.4066 92Z"/>
</mask>
<path d="M12.4066 92V95H14.6372L15.2795 92.8639L12.4066 92ZM9.00952 91.9789L6.11573 91.1877L5.14578 94.7354L8.81597 94.9726L9.00952 91.9789ZM19.6708 74.2813L21.7229 76.4696H21.7229L19.6708 74.2813ZM45.6467 64L45.6481 67L45.6467 64ZM71.6322 74.257L73.6823 72.0667V72.0667L71.6322 74.257ZM82.3194 91.9789L82.513 94.9726L86.1832 94.7354L85.2132 91.1877L82.3194 91.9789ZM78.9223 92L76.0494 92.8639L76.6917 95H78.9223V92ZM69.3967 76.6453L71.4468 74.4551L71.4468 74.4551L69.3967 76.6453ZM45.6482 67.2714L45.6496 70.2714L45.6482 67.2714ZM21.9086 76.6675L19.8564 74.4792H19.8564L21.9086 76.6675ZM12.4066 89H9.66448V95H12.4066V89ZM9.66448 89C9.50904 89 9.3552 88.995 9.20307 88.9851L8.81597 94.9726C9.09687 94.9908 9.37982 95 9.66448 95V89ZM17.6187 72.0929C12.0555 77.3098 8.09898 83.9339 6.11573 91.1877L11.9033 92.7701C13.5964 86.5775 16.9741 80.9229 21.7229 76.4696L17.6187 72.0929ZM45.6453 61C35.2335 61.0049 25.2135 64.9708 17.6187 72.0929L21.7229 76.4696C28.2063 70.3897 36.76 67.0042 45.6481 67L45.6453 61ZM73.6823 72.0667C66.0808 64.9517 56.0571 60.9951 45.6453 61L45.6481 67C54.5363 66.9958 63.0931 70.3734 69.5821 76.4472L73.6823 72.0667ZM85.2132 91.1877C83.2265 83.9213 79.2598 77.2873 73.6823 72.0667L69.5821 76.4472C74.3432 80.9036 77.7296 86.5667 79.4256 92.7701L85.2132 91.1877ZM82.1259 88.9851C81.9738 88.995 81.8199 89 81.6645 89V95C81.9491 95 82.2321 94.9908 82.513 94.9726L82.1259 88.9851ZM81.6645 89H78.9223V95H81.6645V89ZM67.3466 78.8355C71.4652 82.6906 74.449 87.5416 76.0494 92.8639L81.7953 91.1361C79.8923 84.8078 76.3444 79.0392 71.4468 74.4551L67.3466 78.8355ZM45.6496 70.2714C53.707 70.2676 61.4641 73.3294 67.3466 78.8355L71.4468 74.4551C64.4518 67.9077 55.2279 64.2669 45.6468 64.2714L45.6496 70.2714ZM23.9607 78.8558C29.8381 73.3442 37.5922 70.2751 45.6496 70.2714L45.6468 64.2714C36.0658 64.2758 26.8452 67.9253 19.8564 74.4792L23.9607 78.8558ZM15.2795 92.8639C16.8771 87.5513 19.853 82.7078 23.9607 78.8558L19.8564 74.4792C14.9718 79.0598 11.4332 84.8192 9.5337 91.1361L15.2795 92.8639Z" fill="#A4A4A4" mask="url(#path-3-inside-1_679_3126)"/>
</svg>
