<svg width="115" height="115" viewBox="0 0 115 115" fill="none" xmlns="http://www.w3.org/2000/svg">
<rect width="115" height="115" rx="57.5" fill="#D9D9D9"/>
<path fill-rule="evenodd" clip-rule="evenodd" d="M58 65.5518C56.4305 65.55 54.9258 64.9257 53.816 63.8159C52.7062 62.7061 52.0819 61.2014 52.0801 59.6319C52.0816 58.0622 52.7058 56.5572 53.8156 55.4472C54.9254 54.3372 56.4303 53.7127 58 53.7109C59.5697 53.7127 61.0746 54.3372 62.1844 55.4472C63.2942 56.5572 63.9184 58.0622 63.9199 59.6319C63.9181 61.2014 63.2938 62.7061 62.184 63.8159C61.0742 64.9257 59.5695 65.55 58 65.5518ZM67.1552 50.7341H63.8217L62.5657 48.2864C62.3666 47.899 62.0644 47.5739 61.6926 47.3469C61.3207 47.12 60.8934 46.9999 60.4578 47H55.4779C55.0337 46.9999 54.5984 47.1248 54.2216 47.3602C53.8449 47.5957 53.542 47.9322 53.3474 48.3316L52.1783 50.7341H48.8448C48.4713 50.7339 48.1014 50.8074 47.7563 50.9502C47.4111 51.093 47.0975 51.3025 46.8333 51.5666C46.5691 51.8306 46.3596 52.1442 46.2166 52.4893C46.0736 52.8344 46 53.2042 46 53.5778V66.669C46 67.0425 46.0736 67.4124 46.2166 67.7575C46.3596 68.1026 46.5691 68.4161 46.8333 68.6802C47.0975 68.9443 47.4111 69.1537 47.7563 69.2966C48.1014 69.4394 48.4713 69.5128 48.8448 69.5127H67.1552C67.5287 69.5128 67.8986 69.4394 68.2437 69.2966C68.5889 69.1537 68.9025 68.9443 69.1667 68.6802C69.4309 68.4161 69.6404 68.1026 69.7834 67.7575C69.9264 67.4124 70 67.0425 70 66.669V53.5778C70 53.2042 69.9264 52.8344 69.7834 52.4893C69.6404 52.1442 69.4309 51.8306 69.1667 51.5666C68.9025 51.3025 68.5889 51.093 68.2437 50.9502C67.8986 50.8074 67.5287 50.7339 67.1552 50.7341Z" fill="white"/>
<path fill-rule="evenodd" clip-rule="evenodd" d="M58.0001 55.8433C56.9961 55.8445 56.0337 56.2439 55.3239 56.9539C54.6141 57.6639 54.215 58.6264 54.2141 59.6304C54.2147 60.6344 54.6137 61.5971 55.3236 62.3072C56.0334 63.0172 56.9961 63.4166 58.0001 63.4175C59.0041 63.4166 59.9667 63.0172 60.6766 62.3072C61.3864 61.5971 61.7855 60.6344 61.786 59.6304C61.7852 58.6264 61.386 57.6639 60.6762 56.9539C59.9665 56.2439 59.004 55.8445 58.0001 55.8433Z" fill="white"/>
</svg>
