<svg width="24" height="24" viewBox="0 0 24 24" fill="none" xmlns="http://www.w3.org/2000/svg">
<circle cx="12" cy="16.2954" r="5.52273" fill="#D9D9D9"/>
<rect x="8.93182" y="10.7727" width="6.13636" height="2.45455" fill="#D9D9D9"/>
<mask id="path-3-inside-1_130_898" fill="white">
<path fill-rule="evenodd" clip-rule="evenodd" d="M12 0.954544C9.62769 0.954544 7.70455 2.87768 7.70455 5.25V11.0883C6.20543 12.3264 5.25 14.1993 5.25 16.2955C5.25 20.0234 8.27208 23.0455 12 23.0455C15.7279 23.0455 18.75 20.0234 18.75 16.2955C18.75 14.1993 17.7946 12.3264 16.2955 11.0883V5.25C16.2955 2.87768 14.3723 0.954544 12 0.954544Z"/>
</mask>
<path d="M7.70455 11.0883L8.9781 12.6304L9.70455 12.0305V11.0883H7.70455ZM16.2955 11.0883H14.2955V12.0305L15.0219 12.6304L16.2955 11.0883ZM9.70455 5.25C9.70455 3.98225 10.7323 2.95454 12 2.95454V-1.04546C8.52312 -1.04546 5.70455 1.77311 5.70455 5.25H9.70455ZM9.70455 11.0883V5.25H5.70455V11.0883H9.70455ZM7.25 16.2955C7.25 14.8211 7.91931 13.5048 8.9781 12.6304L6.43099 9.54624C4.49155 11.1479 3.25 13.5776 3.25 16.2955H7.25ZM12 21.0455C9.37665 21.0455 7.25 18.9188 7.25 16.2955H3.25C3.25 21.1279 7.16751 25.0455 12 25.0455V21.0455ZM16.75 16.2955C16.75 18.9188 14.6234 21.0455 12 21.0455V25.0455C16.8325 25.0455 20.75 21.1279 20.75 16.2955H16.75ZM15.0219 12.6304C16.0807 13.5048 16.75 14.8211 16.75 16.2955H20.75C20.75 13.5776 19.5085 11.1479 17.569 9.54624L15.0219 12.6304ZM14.2955 5.25V11.0883H18.2955V5.25H14.2955ZM12 2.95454C13.2677 2.95454 14.2955 3.98225 14.2955 5.25H18.2955C18.2955 1.77312 15.4769 -1.04546 12 -1.04546V2.95454Z" fill="#9C9C9C" mask="url(#path-3-inside-1_130_898)"/>
</svg>
