<svg width="20" height="20" viewBox="0 0 20 20" fill="none" xmlns="http://www.w3.org/2000/svg">
<path fill-rule="evenodd" clip-rule="evenodd" d="M12.771 2.5999C13.0175 2.6079 13.2512 2.71144 13.4228 2.88864C13.5943 3.06583 13.6902 3.30278 13.6902 3.5494C13.6902 3.79602 13.5943 4.03298 13.4228 4.21017C13.2512 4.38736 13.0175 4.4909 12.771 4.4989C12.5245 4.4909 12.2908 4.38736 12.1193 4.21017C11.9477 4.03298 11.8518 3.79602 11.8518 3.5494C11.8518 3.30278 11.9477 3.06583 12.1193 2.88864C12.2908 2.71144 12.5245 2.6079 12.771 2.5999ZM1.50002 4.6489H9.83002C10.0532 5.24941 10.4544 5.76746 10.98 6.1338C11.5055 6.50013 12.1304 6.69729 12.771 6.6989C13.4115 6.69709 14.0361 6.49984 14.5615 6.13351C15.0869 5.76719 15.4879 5.24925 15.711 4.6489H18.5C18.7918 4.6489 19.0716 4.53301 19.2778 4.32672C19.4841 4.12043 19.6 3.84064 19.6 3.5489C19.6 3.25716 19.4841 2.97737 19.2778 2.77108C19.0716 2.56479 18.7918 2.4489 18.5 2.4489H15.711C15.4877 1.84875 15.0866 1.33102 14.5613 0.96488C14.0359 0.598746 13.4114 0.401642 12.771 0.399902C12.1306 0.401721 11.5059 0.598841 10.9804 0.964952C10.4549 1.33106 10.0536 1.84875 9.83002 2.4489H1.50002C1.20829 2.4489 0.928497 2.56479 0.722207 2.77108C0.515917 2.97737 0.400024 3.25716 0.400024 3.5489C0.400024 3.84064 0.515917 4.12043 0.722207 4.32672C0.928497 4.53301 1.20829 4.6489 1.50002 4.6489ZM18.5 8.8989H1.50002C1.20829 8.8989 0.928497 9.01479 0.722207 9.22108C0.515917 9.42737 0.400024 9.70716 0.400024 9.9989C0.400024 10.2906 0.515917 10.5704 0.722207 10.7767C0.928497 10.983 1.20829 11.0989 1.50002 11.0989H18.5C18.7918 11.0989 19.0716 10.983 19.2778 10.7767C19.4841 10.5704 19.6 10.2906 19.6 9.9989C19.6 9.70716 19.4841 9.42737 19.2778 9.22108C19.0716 9.01479 18.7918 8.8989 18.5 8.8989ZM7.22902 17.3999C6.98487 17.3887 6.75443 17.2838 6.58562 17.1071C6.4168 16.9303 6.3226 16.6953 6.3226 16.4509C6.3226 16.2065 6.4168 15.9715 6.58562 15.7947C6.75443 15.618 6.98487 15.5131 7.22902 15.5019C7.47551 15.5099 7.70923 15.6134 7.88077 15.7906C8.0523 15.9678 8.14821 16.2048 8.14821 16.4514C8.14821 16.698 8.0523 16.935 7.88077 17.1122C7.70923 17.2894 7.47551 17.3929 7.22902 17.4009M18.5 15.3499H10.17C9.94684 14.7494 9.54565 14.2313 9.02009 13.865C8.49453 13.4987 7.86966 13.3015 7.22902 13.2999C6.58856 13.3017 5.96391 13.499 5.43855 13.8653C4.91319 14.2316 4.51215 14.7496 4.28902 15.3499H1.50002C1.20829 15.3499 0.928497 15.4658 0.722207 15.6721C0.515917 15.8784 0.400024 16.1582 0.400024 16.4499C0.400024 16.7416 0.515917 17.0214 0.722207 17.2277C0.928497 17.434 1.20829 17.5499 1.50002 17.5499H4.28902C4.51215 18.1502 4.91319 18.6682 5.43855 19.0345C5.96391 19.4008 6.58856 19.5981 7.22902 19.5999C7.86959 19.598 8.49434 19.4007 9.01984 19.0344C9.54535 18.6681 9.9466 18.1502 10.17 17.5499H18.5C18.7918 17.5499 19.0716 17.434 19.2778 17.2277C19.4841 17.0214 19.6 16.7416 19.6 16.4499C19.6 16.1582 19.4841 15.8784 19.2778 15.6721C19.0716 15.4658 18.7918 15.3499 18.5 15.3499Z" fill="#434343"/>
</svg>
