<svg width="24" height="24" viewBox="0 0 24 24" fill="none" xmlns="http://www.w3.org/2000/svg">
<path fill-rule="evenodd" clip-rule="evenodd" d="M12 18.2669C10.6092 18.2653 9.27577 17.7121 8.2923 16.7286C7.30883 15.7452 6.75562 14.4117 6.75403 13.0209C6.75535 11.6299 7.30845 10.2962 8.29195 9.31253C9.27545 8.32884 10.609 7.77549 12 7.7739C13.391 7.77549 14.7246 8.32884 15.7081 9.31253C16.6916 10.2962 17.2447 11.6299 17.246 13.0209C17.2444 14.4117 16.6912 15.7452 15.7078 16.7286C14.7243 17.7121 13.3909 18.2653 12 18.2669ZM20.113 5.1359H17.159L16.046 2.9669C15.8695 2.62354 15.6018 2.33547 15.2723 2.13435C14.9427 1.93323 14.5641 1.82685 14.178 1.8269H9.76503C9.37136 1.82686 8.98561 1.93747 8.65178 2.14611C8.31795 2.35475 8.04949 2.65303 7.87703 3.0069L6.84103 5.1359H3.88703C3.55601 5.13577 3.22821 5.20086 2.92236 5.32744C2.6165 5.45402 2.33858 5.63962 2.10447 5.87364C1.87036 6.10766 1.68465 6.38551 1.55795 6.69131C1.43124 6.99712 1.36603 7.32489 1.36603 7.6559V19.2569C1.36603 19.5879 1.43124 19.9157 1.55795 20.2215C1.68465 20.5273 1.87036 20.8052 2.10447 21.0392C2.33858 21.2732 2.6165 21.4588 2.92236 21.5854C3.22821 21.712 3.55601 21.777 3.88703 21.7769H20.113C20.444 21.777 20.7718 21.712 21.0777 21.5854C21.3836 21.4588 21.6615 21.2732 21.8956 21.0392C22.1297 20.8052 22.3154 20.5273 22.4421 20.2215C22.5688 19.9157 22.634 19.5879 22.634 19.2569V7.6559C22.634 7.32489 22.5688 6.99712 22.4421 6.69131C22.3154 6.38551 22.1297 6.10766 21.8956 5.87364C21.6615 5.63962 21.3836 5.45402 21.0777 5.32744C20.7718 5.20086 20.444 5.13577 20.113 5.1359Z" fill="#D9D9D9"/>
<path fill-rule="evenodd" clip-rule="evenodd" d="M12 9.66382C11.1104 9.66488 10.2575 10.0188 9.62849 10.648C8.99951 11.2772 8.64581 12.1302 8.64502 13.0198C8.64555 13.9096 8.99916 14.7627 9.6282 15.3919C10.2572 16.0212 11.1103 16.375 12 16.3758C12.8897 16.375 13.7428 16.0212 14.3718 15.3919C15.0009 14.7627 15.3545 13.9096 15.355 13.0198C15.3542 12.1302 15.0005 11.2772 14.3715 10.648C13.7426 10.0188 12.8897 9.66488 12 9.66382Z" fill="#D9D9D9"/>
</svg>
