<svg width="24" height="24" viewBox="0 0 24 24" fill="none" xmlns="http://www.w3.org/2000/svg">
<path fill-rule="evenodd" clip-rule="evenodd" d="M14.789 7.53304L18.144 10.887L8.96297 10.887C8.6711 10.887 8.39118 11.003 8.1848 11.2094C7.97842 11.4158 7.86247 11.6957 7.86247 11.9875C7.86247 12.2794 7.97842 12.5593 8.1848 12.7657C8.39118 12.9721 8.6711 13.088 8.96297 13.088L18.143 13.088L14.789 16.443C14.6863 16.5448 14.6048 16.666 14.5492 16.7994C14.4936 16.9328 14.465 17.076 14.465 17.2205C14.465 17.3651 14.4936 17.5082 14.5492 17.6417C14.6048 17.7751 14.6863 17.8962 14.789 17.998C14.8911 18.1002 15.0124 18.1813 15.1459 18.2366C15.2794 18.2919 15.4225 18.3204 15.567 18.3204C15.7115 18.3204 15.8546 18.2919 15.988 18.2366C16.1215 18.1813 16.2428 18.1002 16.345 17.998L21.578 12.765C21.7831 12.5583 21.8982 12.2788 21.8982 11.9875C21.8982 11.6963 21.7831 11.4168 21.578 11.21L16.345 5.97704C16.1362 5.78305 15.8603 5.67757 15.5753 5.6828C15.2904 5.68803 15.0186 5.80356 14.817 6.00509C14.6155 6.20662 14.5 6.47845 14.4947 6.76341C14.4895 7.04837 14.595 7.32425 14.789 7.53304Z" fill="#434343"/>
<path fill-rule="evenodd" clip-rule="evenodd" d="M10.907 20.3811C10.907 19.7741 10.414 19.2801 9.80696 19.2801L5.59996 19.2801C4.88296 19.2801 4.29996 18.6971 4.29996 17.9811L4.29996 5.99609C4.29996 5.27909 4.88296 4.69609 5.59996 4.69609L9.80796 4.69609C10.0997 4.69609 10.3795 4.5802 10.5858 4.37391C10.7921 4.16762 10.908 3.88783 10.908 3.59609C10.908 3.30436 10.7921 3.02457 10.5858 2.81828C10.3795 2.61199 10.0997 2.49609 9.80796 2.49609L5.59996 2.49609C3.66996 2.49609 2.09996 4.06609 2.09996 5.99609L2.09996 17.9811C2.09996 19.9101 3.66996 21.4811 5.59996 21.4811L9.80796 21.4811C10.0997 21.4811 10.3795 21.3652 10.5858 21.1589C10.7921 20.9526 10.908 20.6728 10.908 20.3811" fill="#434343"/>
</svg>
