<svg width="24" height="20" viewBox="0 0 24 20" fill="none" xmlns="http://www.w3.org/2000/svg">
<path fill-rule="evenodd" clip-rule="evenodd" d="M23.723 8.93995L21.686 6.15995C21.5746 6.00784 21.4289 5.88414 21.2607 5.79887C21.0925 5.7136 20.9066 5.66916 20.718 5.66916C20.5295 5.66916 20.3436 5.7136 20.1754 5.79887C20.0072 5.88414 19.8615 6.00784 19.75 6.15995L17.713 8.93995C17.133 9.73295 17.699 10.849 18.681 10.849H19.561C19.4292 12.0241 19.0229 13.1519 18.375 14.1411C17.727 15.1304 16.8556 15.9535 15.831 16.544C13.53 17.878 10.581 17.878 8.27804 16.544C8.02573 16.4009 7.72712 16.3633 7.44721 16.4393C7.16729 16.5153 6.92873 16.6988 6.78344 16.9498C6.63814 17.2008 6.59788 17.4991 6.67141 17.7797C6.74493 18.0603 6.9263 18.3004 7.17604 18.448C8.65903 19.307 10.3422 19.7602 12.056 19.7619C13.7691 19.7601 15.4515 19.3073 16.934 18.4489C18.4153 17.591 19.6461 16.3602 20.504 14.879C21.213 13.6437 21.6424 12.2681 21.762 10.849H22.755C22.9769 10.8491 23.1944 10.7877 23.3835 10.6716C23.5725 10.5555 23.7257 10.3893 23.826 10.1914C23.9263 9.99354 23.9698 9.77173 23.9516 9.55063C23.9334 9.32953 23.8543 9.1178 23.723 8.93895M5.54004 9.15195H4.54804C4.66493 8.11977 4.99235 7.12254 5.51004 6.22195C6.17583 5.07444 7.13004 4.12091 8.27804 3.45595C10.58 2.12395 13.529 2.12395 15.832 3.45595C16.0847 3.60209 16.385 3.64188 16.6669 3.56659C16.9489 3.49129 17.1894 3.30707 17.3355 3.05445C17.4817 2.80183 17.5215 2.50151 17.4462 2.21955C17.3709 1.93759 17.1867 1.69709 16.934 1.55095C13.962 -0.167049 10.147 -0.167049 7.17604 1.55095C5.69501 2.40918 4.46427 3.63993 3.60604 5.12095C2.89816 6.35661 2.46881 7.73202 2.34804 9.15095H1.24404C1.02219 9.15084 0.804659 9.21224 0.615602 9.32831C0.426544 9.44438 0.273363 9.61059 0.173075 9.80847C0.0727863 10.0064 0.0293158 10.2282 0.047492 10.4493C0.0656682 10.6704 0.144779 10.8821 0.276038 11.061L2.42404 13.993C2.53548 14.1451 2.6812 14.2688 2.84938 14.354C3.01756 14.4393 3.20347 14.4837 3.39204 14.4837C3.5806 14.4837 3.76651 14.4393 3.93469 14.354C4.10288 14.2688 4.2486 14.1451 4.36004 13.993L6.50804 11.061C6.6393 10.8821 6.71841 10.6704 6.73659 10.4493C6.75476 10.2282 6.71129 10.0064 6.611 9.80847C6.51071 9.61059 6.35753 9.44438 6.16848 9.32831C5.97942 9.21224 5.76188 9.15084 5.54004 9.15095" fill="#434343"/>
</svg>
