<svg width="301" height="105" viewBox="0 0 301 105" fill="none" xmlns="http://www.w3.org/2000/svg">
<path d="M1.2 25.91V29H26.31V25.91H1.2ZM11.76 23.27V27.17H15.75V23.27H11.76ZM4.23 34.1V37.19H23.49V34.1H4.23ZM4.23 30.32V36.05H8.22V30.32H4.23ZM2.4 12.14V15.14H25.02V12.14H2.4ZM13.77 15.92C7.86 15.92 4.47 17.39 4.47 20.15C4.47 22.91 7.86 24.41 13.77 24.41C19.68 24.41 23.07 22.91 23.07 20.15C23.07 17.39 19.68 15.92 13.77 15.92ZM13.77 18.71C17.37 18.71 18.99 19.13 18.99 20.15C18.99 21.17 17.37 21.59 13.77 21.59C10.14 21.59 8.55 21.17 8.55 20.15C8.55 19.13 10.14 18.71 13.77 18.71ZM11.76 9.77V14.06H15.75V9.77H11.76ZM46.6777 9.89V25.13H50.6677V9.89H46.6777ZM49.5577 15.74V19.01H54.3577V15.74H49.5577ZM29.6077 11.27V24.14H42.9577V11.27H38.9977V14.6H33.5677V11.27H29.6077ZM33.5677 17.66H38.9977V20.99H33.5677V17.66ZM32.5177 26.33V37.37H50.6677V26.33H46.7077V28.76H36.4777V26.33H32.5177ZM36.4777 31.82H46.7077V34.22H36.4777V31.82ZM63.1922 25.91V29H88.3022V25.91H63.1922ZM73.7522 23.27V27.17H77.7422V23.27H73.7522ZM66.2222 34.1V37.19H85.4822V34.1H66.2222ZM66.2222 30.32V36.05H70.2122V30.32H66.2222ZM64.3922 12.14V15.14H87.0122V12.14H64.3922ZM75.7622 15.92C69.8522 15.92 66.4622 17.39 66.4622 20.15C66.4622 22.91 69.8522 24.41 75.7622 24.41C81.6722 24.41 85.0622 22.91 85.0622 20.15C85.0622 17.39 81.6722 15.92 75.7622 15.92ZM75.7622 18.71C79.3622 18.71 80.9822 19.13 80.9822 20.15C80.9822 21.17 79.3622 21.59 75.7622 21.59C72.1322 21.59 70.5422 21.17 70.5422 20.15C70.5422 19.13 72.1322 18.71 75.7622 18.71ZM73.7522 9.77V14.06H77.7422V9.77H73.7522ZM103.09 13.52V16.7H111.31V13.52H103.09ZM103.09 19.67V22.88H111.31V19.67H103.09ZM98.4698 11.36C94.2998 11.36 91.1198 14.24 91.1198 18.17C91.1198 22.1 94.2998 24.98 98.4698 24.98C102.61 24.98 105.79 22.1 105.79 18.17C105.79 14.24 102.61 11.36 98.4698 11.36ZM98.4698 14.75C100.51 14.75 102.01 15.98 102.01 18.17C102.01 20.33 100.51 21.62 98.4698 21.62C96.4298 21.62 94.9298 20.33 94.9298 18.17C94.9298 15.98 96.4298 14.75 98.4698 14.75ZM110.05 9.89V26.15H114.04V9.89H110.05ZM104.62 26.72C98.7698 26.72 95.1098 28.76 95.1098 32.21C95.1098 35.66 98.7698 37.67 104.62 37.67C110.47 37.67 114.13 35.66 114.13 32.21C114.13 28.76 110.47 26.72 104.62 26.72ZM104.62 29.81C108.28 29.81 110.2 30.59 110.2 32.21C110.2 33.83 108.28 34.61 104.62 34.61C100.99 34.61 99.0398 33.83 99.0398 32.21C99.0398 30.59 100.99 29.81 104.62 29.81ZM126.714 35H130.914V26.12C130.914 23.54 130.554 20.75 130.344 18.38H130.494L132.744 23.12L139.164 35H143.694V12.8H139.464V21.65C139.464 24.17 139.824 27.14 140.064 29.45H139.914L137.664 24.65L131.214 12.8H126.714V35ZM158.005 35.42C163.885 35.42 167.905 31.04 167.905 23.81C167.905 16.61 163.885 12.41 158.005 12.41C152.095 12.41 148.075 16.58 148.075 23.81C148.075 31.04 152.095 35.42 158.005 35.42ZM158.005 31.58C154.675 31.58 152.605 28.55 152.605 23.81C152.605 19.07 154.675 16.22 158.005 16.22C161.305 16.22 163.405 19.07 163.405 23.81C163.405 28.55 161.305 31.58 158.005 31.58ZM173.651 27.44H176.531L177.161 16.37L177.281 12.2H172.871L172.991 16.37L173.651 27.44ZM175.061 35.42C176.651 35.42 177.821 34.19 177.821 32.54C177.821 30.89 176.651 29.69 175.061 29.69C173.501 29.69 172.331 30.89 172.331 32.54C172.331 34.19 173.501 35.42 175.061 35.42Z" fill="black"/>
<path d="M11.916 59.132V75.404H13.41V59.132H11.916ZM13.05 65.81V67.07H16.074V65.81H13.05ZM0.81 61.724V62.948H10.404V61.724H0.81ZM5.67 64.298C3.384 64.298 1.71 65.846 1.71 68.042C1.71 70.238 3.384 71.786 5.67 71.786C7.974 71.786 9.63 70.238 9.63 68.042C9.63 65.846 7.974 64.298 5.67 64.298ZM5.67 65.54C7.146 65.54 8.208 66.566 8.208 68.042C8.208 69.5 7.146 70.544 5.67 70.544C4.194 70.544 3.132 69.5 3.132 68.042C3.132 66.566 4.194 65.54 5.67 65.54ZM4.896 59.33V62.282H6.39V59.33H4.896ZM28.5826 59.114V70.904H30.0766V59.114H28.5826ZM29.6266 63.956V65.198H32.4886V63.956H29.6266ZM18.1966 66.8V68.042H19.4566C22.8766 68.042 24.8026 67.934 27.0346 67.466L26.8726 66.26C24.6946 66.71 22.8046 66.8 19.4566 66.8H18.1966ZM18.1966 60.518V67.466H19.6726V61.76H25.3786V60.518H18.1966ZM19.9426 73.82V75.044H30.8146V73.82H19.9426ZM19.9426 69.734V74.378H21.4366V69.734H19.9426ZM39.2912 60.302C36.7532 60.302 34.9172 61.868 34.9172 64.136C34.9172 66.422 36.7532 67.988 39.2912 67.988C41.8292 67.988 43.6472 66.422 43.6472 64.136C43.6472 61.868 41.8292 60.302 39.2912 60.302ZM39.2912 61.598C40.9652 61.598 42.1892 62.624 42.1892 64.136C42.1892 65.648 40.9652 66.692 39.2912 66.692C37.5992 66.692 36.3752 65.648 36.3752 64.136C36.3752 62.624 37.5992 61.598 39.2912 61.598ZM45.7712 59.114V75.422H47.2652V59.114H45.7712ZM34.3052 71.858C37.2032 71.858 41.1812 71.84 44.8352 71.138L44.7092 70.04C41.1632 70.598 37.0592 70.616 34.0892 70.616L34.3052 71.858ZM62.2692 63.722V64.946H66.9492V63.722H62.2692ZM66.4812 59.15V71.192H67.9752V59.15H66.4812ZM57.5172 73.82V75.044H68.3712V73.82H57.5172ZM57.5172 70.022V74.45H59.0112V70.022H57.5172ZM55.3932 60.212V68.42H62.7372V60.212H61.2792V63.092H56.8692V60.212H55.3932ZM56.8692 64.262H61.2792V67.196H56.8692V64.262ZM83.5078 59.132V75.404H84.9478V59.132H83.5078ZM80.8798 65.666V66.89H83.9938V65.666H80.8798ZM76.6678 61.22V61.508C76.6678 65.27 75.2278 68.564 71.1418 70.85L72.0238 71.912C76.6678 69.302 78.1078 65.414 78.1078 61.22H76.6678ZM71.7718 61.22V62.462H77.1718V61.22H71.7718ZM79.8898 59.564V74.612H81.3118V59.564H79.8898ZM96.0638 60.374C93.6698 60.374 91.9778 62.588 91.9778 66.044C91.9778 69.518 93.6698 71.732 96.0638 71.732C98.4578 71.732 100.15 69.518 100.15 66.044C100.15 62.588 98.4578 60.374 96.0638 60.374ZM96.0638 61.724C97.6298 61.724 98.7278 63.416 98.7278 66.044C98.7278 68.69 97.6298 70.418 96.0638 70.418C94.4798 70.418 93.3998 68.69 93.3998 66.044C93.3998 63.416 94.4798 61.724 96.0638 61.724ZM102.742 59.132V75.404H104.254V59.132H102.742ZM103.894 65.63V66.89H106.918V65.63H103.894ZM120.11 59.114V75.422H121.604V59.114H120.11ZM113.018 60.374C110.624 60.374 108.896 62.588 108.896 66.044C108.896 69.518 110.624 71.732 113.018 71.732C115.43 71.732 117.158 69.518 117.158 66.044C117.158 62.588 115.43 60.374 113.018 60.374ZM113.018 61.724C114.62 61.724 115.718 63.416 115.718 66.044C115.718 68.69 114.62 70.418 113.018 70.418C111.434 70.418 110.318 68.69 110.318 66.044C110.318 63.416 111.434 61.724 113.018 61.724ZM126.589 59.906V61.13H137.065V59.906H126.589ZM136.255 59.906V61.292C136.255 62.768 136.255 64.37 135.805 66.566L137.281 66.674C137.731 64.46 137.731 62.786 137.731 61.292V59.906H136.255ZM136.687 62.876L126.193 63.2L126.409 64.478L136.687 63.992V62.876ZM124.861 67.754V68.978H139.549V67.754H124.861ZM130.819 65.414V68.528H132.313V65.414H130.819ZM126.733 73.928V75.152H138.091V73.928H126.733ZM126.733 70.364V74.432H128.227V70.364H126.733ZM148.764 60.158C145.38 60.158 142.842 61.958 142.842 64.658C142.842 67.376 145.38 69.158 148.764 69.158C152.148 69.158 154.668 67.376 154.668 64.658C154.668 61.958 152.148 60.158 148.764 60.158ZM148.764 61.382C151.338 61.382 153.246 62.696 153.246 64.658C153.246 66.602 151.338 67.934 148.764 67.934C146.19 67.934 144.282 66.602 144.282 64.658C144.282 62.696 146.19 61.382 148.764 61.382ZM141.42 72.002V73.262H156.162V72.002H141.42ZM157.978 72.164V73.406H172.72V72.164H157.978ZM164.566 68.672V72.686H166.06V68.672H164.566ZM159.76 60.338V61.544H169.426V64.064H159.814V68.528H161.29V65.27H170.902V60.338H159.76ZM159.814 67.898V69.122H171.28V67.898H159.814ZM186.284 63.272V64.514H190.892V63.272H186.284ZM190.442 59.132V68.978H191.936V59.132H190.442ZM186.59 69.302C183.224 69.302 181.154 70.436 181.154 72.344C181.154 74.27 183.224 75.368 186.59 75.368C189.938 75.368 192.008 74.27 192.008 72.344C192.008 70.436 189.938 69.302 186.59 69.302ZM186.59 70.49C189.038 70.49 190.532 71.156 190.532 72.344C190.532 73.514 189.038 74.198 186.59 74.198C184.142 74.198 182.648 73.514 182.648 72.344C182.648 71.156 184.142 70.49 186.59 70.49ZM179.354 60.122V67.79H186.698V60.122H185.24V62.714H180.83V60.122H179.354ZM180.83 63.92H185.24V66.584H180.83V63.92ZM196.993 59.816V61.022H207.469V59.816H196.993ZM195.121 65.18V66.404H209.863V65.18H195.121ZM206.497 59.816V60.86C206.497 62.012 206.497 63.416 206.065 65.396L207.523 65.558C207.955 63.542 207.955 62.03 207.955 60.86V59.816H206.497ZM196.849 68.006V69.212H206.533V70.994H196.885V74.414H198.379V72.146H208.009V68.006H196.849ZM196.885 74.018V75.224H208.423V74.018H196.885ZM219.023 59.402C215.423 59.402 213.299 60.41 213.299 62.228C213.299 64.046 215.423 65.054 219.023 65.054C222.605 65.054 224.747 64.046 224.747 62.228C224.747 60.41 222.605 59.402 219.023 59.402ZM219.023 60.536C221.669 60.536 223.199 61.148 223.199 62.228C223.199 63.308 221.669 63.92 219.023 63.92C216.359 63.92 214.829 63.308 214.829 62.228C214.829 61.148 216.359 60.536 219.023 60.536ZM211.661 66.134V67.34H226.367V66.134H211.661ZM213.443 68.726V69.878H223.019V71.318H213.479V74.378H214.955V72.398H224.495V68.726H213.443ZM213.479 74.054V75.224H224.981V74.054H213.479ZM235.665 60.14V62.318C235.665 64.154 234.387 66.26 232.245 67.196L233.055 68.366C235.449 67.304 236.853 64.748 236.853 62.318V60.14H235.665ZM235.899 60.14V62.318C235.899 64.712 237.249 66.962 239.589 67.898L240.399 66.764C238.311 65.954 237.087 64.118 237.087 62.318V60.14H235.899ZM244.539 59.15V69.176H245.961V59.15H244.539ZM241.947 63.488V64.712H245.025V63.488H241.947ZM241.047 59.456V68.654H242.469V59.456H241.047ZM240.615 69.536C237.249 69.536 235.197 70.616 235.197 72.47C235.197 74.306 237.249 75.368 240.615 75.368C243.963 75.368 246.051 74.306 246.051 72.47C246.051 70.616 243.963 69.536 240.615 69.536ZM240.615 70.706C243.063 70.706 244.557 71.354 244.557 72.47C244.557 73.568 243.063 74.216 240.615 74.216C238.167 74.216 236.655 73.568 236.655 72.47C236.655 71.354 238.167 70.706 240.615 70.706ZM252.908 60.05V61.724C252.908 64.208 251.288 66.386 248.804 67.268L249.578 68.492C252.368 67.448 254.15 64.874 254.15 61.724V60.05H252.908ZM253.178 60.05V61.67C253.178 64.622 254.924 67.016 257.552 68.006L258.362 66.836C255.986 66.008 254.402 63.974 254.402 61.67V60.05H253.178ZM260.702 59.132V68.762H262.196V59.132H260.702ZM256.85 69.23C253.484 69.23 251.414 70.364 251.414 72.308C251.414 74.252 253.484 75.368 256.85 75.368C260.198 75.368 262.268 74.252 262.268 72.308C262.268 70.364 260.198 69.23 256.85 69.23ZM256.85 70.418C259.298 70.418 260.792 71.12 260.792 72.308C260.792 73.496 259.298 74.198 256.85 74.198C254.402 74.198 252.908 73.496 252.908 72.308C252.908 71.12 254.402 70.418 256.85 70.418ZM257.174 62.57V63.812H261.026V62.57H257.174ZM276.396 59.132V75.404H277.89V59.132H276.396ZM277.53 65.81V67.07H280.554V65.81H277.53ZM265.29 61.724V62.948H274.884V61.724H265.29ZM270.15 64.298C267.864 64.298 266.19 65.846 266.19 68.042C266.19 70.238 267.864 71.786 270.15 71.786C272.454 71.786 274.11 70.238 274.11 68.042C274.11 65.846 272.454 64.298 270.15 64.298ZM270.15 65.54C271.626 65.54 272.688 66.566 272.688 68.042C272.688 69.5 271.626 70.544 270.15 70.544C268.674 70.544 267.612 69.5 267.612 68.042C267.612 66.566 268.674 65.54 270.15 65.54ZM269.376 59.33V62.282H270.87V59.33H269.376ZM283.487 60.752V61.994H293.963V60.752H283.487ZM281.939 71.894V73.136H296.645V71.894H281.939ZM287.645 66.08V72.506H289.139V66.08H287.645ZM293.405 60.752V62.372C293.405 64.316 293.405 66.602 292.793 69.716L294.287 69.914C294.881 66.62 294.881 64.388 294.881 62.372V60.752H293.405ZM4.95 87.796V88.498C4.95 90.64 3.312 92.53 0.9 93.268L1.62 94.438C4.338 93.556 6.174 91.288 6.174 88.498V87.796H4.95ZM5.22 87.796V88.498C5.22 91.108 7.002 93.304 9.72 94.15L10.422 92.962C8.028 92.26 6.444 90.478 6.444 88.498V87.796H5.22ZM1.35 87.04V88.246H10.026V87.04H1.35ZM4.95 85.06V87.526H6.444V85.06H4.95ZM12.024 85.132V94.762H13.518V85.132H12.024ZM13.104 89.236V90.496H15.93V89.236H13.104ZM3.294 95.518V101.188H13.518V95.518H3.294ZM12.06 96.706V99.982H4.752V96.706H12.06ZM24.7846 88.75V89.992H29.6986V88.75H24.7846ZM24.7846 93.898V95.14H29.6986V93.898H24.7846ZM21.7966 86.374C19.4206 86.374 17.7466 88.588 17.7466 92.044C17.7466 95.518 19.4206 97.732 21.7966 97.732C24.1546 97.732 25.8466 95.518 25.8466 92.044C25.8466 88.588 24.1546 86.374 21.7966 86.374ZM21.7966 87.724C23.3626 87.724 24.4426 89.416 24.4426 92.044C24.4426 94.69 23.3626 96.418 21.7966 96.418C20.2306 96.418 19.1506 94.69 19.1506 92.044C19.1506 89.416 20.2306 87.724 21.7966 87.724ZM29.3746 85.114V101.422H30.8506V85.114H29.3746ZM45.0332 85.132V101.404H46.5272V85.132H45.0332ZM46.1672 91.81V93.07H49.1912V91.81H46.1672ZM33.9272 87.724V88.948H43.5212V87.724H33.9272ZM38.7872 90.298C36.5012 90.298 34.8272 91.846 34.8272 94.042C34.8272 96.238 36.5012 97.786 38.7872 97.786C41.0912 97.786 42.7472 96.238 42.7472 94.042C42.7472 91.846 41.0912 90.298 38.7872 90.298ZM38.7872 91.54C40.2632 91.54 41.3252 92.566 41.3252 94.042C41.3252 95.5 40.2632 96.544 38.7872 96.544C37.3112 96.544 36.2492 95.5 36.2492 94.042C36.2492 92.566 37.3112 91.54 38.7872 91.54ZM38.0132 85.33V88.282H39.5072V85.33H38.0132ZM58.0458 89.02V90.244H63.0678V89.02H58.0458ZM58.0458 93.502V94.744H63.0678V93.502H58.0458ZM51.2238 86.716V97.3H58.6218V86.716H51.2238ZM57.1458 87.922V96.094H52.6818V87.922H57.1458ZM62.4918 85.114V101.422H63.9678V85.114H62.4918ZM82.6258 85.132V101.404H84.1018V85.132H82.6258ZM83.2558 91.486V92.728H86.2618V91.486H83.2558ZM71.4478 86.644V97.462H75.9478V86.644H74.7058V90.82H72.7258V86.644H71.4478ZM72.7258 92.008H74.7058V96.238H72.7258V92.008ZM76.8118 86.644V97.462H81.2578V86.644H79.9978V90.82H78.0718V86.644H76.8118ZM78.0718 92.008H79.9978V96.238H78.0718V92.008ZM87.7184 98.11V99.37H102.46V98.11H87.7184ZM89.5004 86.374V87.598H99.1664V90.118H89.5544V94.564H91.0304V91.306H100.642V86.374H89.5004ZM89.5544 93.934V95.158H101.02V93.934H89.5544ZM116.661 85.132V101.404H118.101V85.132H116.661ZM109.605 91.774V92.98H113.709V91.774H109.605ZM113.277 85.546V100.576H114.681V85.546H113.277ZM109.803 87.184V87.454C109.803 91.288 108.093 94.528 104.259 96.832L105.141 97.894C109.533 95.284 111.243 91.45 111.243 87.184H109.803ZM104.979 87.184V88.408H110.361V87.184H104.979ZM136.687 85.15V97.174H138.199V85.15H136.687ZM127.741 99.82V101.044H138.685V99.82H127.741ZM127.741 96.04V100.468H129.217V96.04H127.741ZM129.271 88.246V88.93C129.271 91.18 127.597 93.232 125.185 94.024L125.923 95.194C128.641 94.258 130.495 91.846 130.495 88.93V88.246H129.271ZM129.523 88.246V88.93C129.523 91.72 131.395 94.024 134.149 94.906L134.869 93.736C132.439 92.98 130.747 91.054 130.747 88.93V88.246H129.523ZM125.563 87.31V88.516H134.419V87.31H125.563ZM129.271 85.204V87.886H130.747V85.204H129.271ZM143.256 86.194V87.4H153.426V86.194H143.256ZM141.42 93.178V94.402H156.126V93.178H141.42ZM147.99 93.988V101.422H149.484V93.988H147.99ZM152.724 86.194V87.598C152.724 89.236 152.724 91.126 152.094 93.754L153.57 93.952C154.182 91.198 154.182 89.29 154.182 87.598V86.194H152.724ZM157.978 91.918V93.142H172.684V91.918H157.978ZM159.922 89.398V90.604H170.938V89.398H159.922ZM159.922 85.654V90.37H161.398V86.878H170.758V85.654H159.922ZM159.742 94.546V95.716H169.318V97.264H159.778V100.432H161.254V98.38H170.794V94.546H159.742ZM159.778 100.036V101.224H171.28V100.036H159.778ZM181.881 85.402C178.281 85.402 176.157 86.41 176.157 88.228C176.157 90.046 178.281 91.054 181.881 91.054C185.463 91.054 187.605 90.046 187.605 88.228C187.605 86.41 185.463 85.402 181.881 85.402ZM181.881 86.536C184.527 86.536 186.057 87.148 186.057 88.228C186.057 89.308 184.527 89.92 181.881 89.92C179.217 89.92 177.687 89.308 177.687 88.228C177.687 87.148 179.217 86.536 181.881 86.536ZM174.519 92.134V93.34H189.225V92.134H174.519ZM176.301 94.726V95.878H185.877V97.318H176.337V100.378H177.813V98.398H187.353V94.726H176.301ZM176.337 100.054V101.224H187.839V100.054H176.337ZM195.787 86.59V94.132H203.257V86.59H195.787ZM201.799 87.796V92.926H197.245V87.796H201.799ZM206.245 85.114V97.048H207.739V85.114H206.245ZM207.271 90.082V91.324H210.151V90.082H207.271ZM197.605 99.82V101.044H208.477V99.82H197.605ZM197.605 95.914V100.342H199.099V95.914H197.605ZM223.775 91.612V92.872H226.781V91.612H223.775ZM222.677 85.114V101.404H224.189V85.114H222.677ZM212.309 86.716V96.796H213.803V86.716H212.309ZM212.309 96.022V97.282H213.605C216.071 97.282 218.573 97.12 221.345 96.544L221.165 95.302C218.483 95.86 216.017 96.022 213.605 96.022H212.309ZM228.238 98.092V99.334H242.98V98.092H228.238ZM234.826 94.204V98.452H236.32V94.204H234.826ZM229.966 86.284V94.6H241.216V86.284H239.74V89.182H231.442V86.284H229.966ZM231.442 90.388H239.74V93.376H231.442V90.388ZM251.204 90.946V92.188H254.318V90.946H251.204ZM248.162 86.662V89.758C248.162 92.548 246.83 95.464 244.598 96.778L245.534 97.912C247.91 96.454 249.332 93.16 249.332 89.758V86.662H248.162ZM248.45 86.662V89.704C248.45 92.872 249.764 96.112 252.104 97.552L252.968 96.382C250.826 95.086 249.602 92.314 249.602 89.704V86.662H248.45ZM257.18 85.132V101.404H258.62V85.132H257.18ZM253.886 85.474V100.594H255.29V85.474H253.886ZM264.955 93.502V98.38H266.431V93.502H264.955ZM270.967 93.502V98.38H272.461V93.502H270.967ZM261.355 98.092V99.334H276.097V98.092H261.355ZM268.699 86.158C265.243 86.158 262.777 87.796 262.777 90.352C262.777 92.89 265.243 94.528 268.699 94.528C272.137 94.528 274.603 92.89 274.603 90.352C274.603 87.796 272.137 86.158 268.699 86.158ZM268.699 87.346C271.309 87.346 273.163 88.534 273.163 90.352C273.163 92.152 271.309 93.34 268.699 93.34C266.089 93.34 264.217 92.152 264.217 90.352C264.217 88.534 266.089 87.346 268.699 87.346ZM279.354 96.022H280.47L280.704 88.408L280.74 86.518H279.084L279.12 88.408L279.354 96.022ZM279.894 100.252C280.56 100.252 281.1 99.73 281.1 98.992C281.1 98.236 280.56 97.732 279.894 97.732C279.246 97.732 278.724 98.236 278.724 98.992C278.724 99.73 279.246 100.252 279.894 100.252Z" fill="#545454"/>
</svg>
