<svg width="267" height="105" viewBox="0 0 267 105" fill="none" xmlns="http://www.w3.org/2000/svg">
<path d="M14.61 16.49V19.73H21.36V16.49H14.61ZM20.46 9.89V26.48H24.45V9.89H20.46ZM15.03 26.96C9.15 26.96 5.52 28.97 5.52 32.33C5.52 35.72 9.15 37.67 15.03 37.67C20.91 37.67 24.54 35.72 24.54 32.33C24.54 28.97 20.91 26.96 15.03 26.96ZM15.03 30.02C18.66 30.02 20.58 30.74 20.58 32.33C20.58 33.89 18.66 34.64 15.03 34.64C11.43 34.64 9.51 33.89 9.51 32.33C9.51 30.74 11.43 30.02 15.03 30.02ZM2.37 11.57V24.92H15.51V11.57H11.61V15.26H6.33V11.57H2.37ZM6.33 18.35H11.61V21.8H6.33V18.35ZM31.8877 11V14.15H49.4977V11H31.8877ZM28.8277 19.67V22.82H53.9677V19.67H28.8277ZM47.0977 11V12.89C47.0977 14.84 47.0977 17.09 46.3777 20.24L50.3077 20.6C51.0277 17.39 51.0277 14.87 51.0277 12.89V11H47.0977ZM31.6177 24.71V27.8H46.9777V29.6H31.6477V35.36H35.6377V32.54H50.9377V24.71H31.6177ZM31.6477 34.4V37.49H51.6577V34.4H31.6477ZM63.0853 14.27V17.39C63.0853 22.1 60.8353 27.23 56.1853 29.3L58.4353 32.45C63.6553 30.08 66.2653 23.81 66.2653 17.39V14.27H63.0853ZM63.9853 14.27V17.39C63.9853 23.57 66.5653 29.48 71.8453 31.76L74.0053 28.61C69.3553 26.69 67.1353 21.89 67.1353 17.39V14.27H63.9853ZM57.2953 12.56V15.83H72.8653V12.56H57.2953ZM75.4453 9.89V37.67H79.4653V9.89H75.4453ZM86.933 22.28V25.46H106.463V22.28H86.933ZM84.023 31.28V34.55H109.163V31.28H84.023ZM94.553 23.72V32.33H98.543V23.72H94.553ZM86.933 11.78V23.66H90.923V14.99H106.253V11.78H86.933ZM111.621 31.37V34.61H136.761V31.37H111.621ZM122.151 26.12V32.69H126.141V26.12H122.151ZM114.441 11.69V14.84H129.981V17.81H114.501V25.61H118.461V20.93H133.941V11.69H114.441ZM114.501 24.02V27.23H134.571V24.02H114.501ZM147.305 27.77V31.04H149.555C154.625 31.04 157.955 30.89 161.675 30.2L161.285 26.99C157.685 27.65 154.475 27.77 149.555 27.77H147.305ZM147.305 12.35V29H151.295V15.53H159.875V12.35H147.305ZM165.335 9.89V37.76H169.325V9.89H165.335ZM158.525 19.46V22.7H167.015V19.46H158.525ZM199.34 9.89V37.67H203.27V9.89H199.34ZM201.11 20.15V23.42H206V20.15H201.11ZM180.53 12.41V31.25H188.66V12.41H185.45V18.8H183.8V12.41H180.53ZM183.8 21.92H185.45V28.04H183.8V21.92ZM189.74 12.41V31.25H197.9V12.41H194.63V18.8H192.95V12.41H189.74ZM192.95 21.92H194.63V28.04H192.95V21.92ZM208.007 31.28V34.55H233.147V31.28H208.007ZM210.827 11.75V14.93H226.367V17.9H210.887V25.67H214.847V21.02H230.327V11.75H210.827ZM210.887 24.11V27.29H230.957V24.11H210.887ZM255.705 9.89V37.67H259.515V9.89H255.705ZM244.695 20.54V23.69H250.635V20.54H244.695ZM249.855 10.49V36.44H253.575V10.49H249.855ZM243.795 13.16V13.97C243.795 20.69 241.545 25.31 235.215 29.12L237.465 31.91C245.265 27.38 247.635 21.08 247.635 13.16H243.795ZM236.775 13.16V16.34H245.055V13.16H236.775Z" fill="black"/>
<path d="M5.202 61.454V64.1C5.202 66.908 3.24 69.968 0.882 71.084L1.746 72.272C4.338 70.994 6.408 67.538 6.408 64.1V61.454H5.202ZM5.49 61.454V64.1C5.49 67.484 7.578 70.652 10.206 71.876L11.052 70.688C8.658 69.662 6.696 66.854 6.696 64.1V61.454H5.49ZM1.422 60.788V62.048H10.512V60.788H1.422ZM12.708 59.132V75.404H14.202V59.132H12.708ZM19.3126 66.728V67.952H30.4906V66.728H19.3126ZM17.4586 72.11V73.37H32.2006V72.11H17.4586ZM24.0466 67.25V72.614H25.5406V67.25H24.0466ZM19.3126 60.428V67.268H20.8066V61.652H30.3286V60.428H19.3126ZM34.0172 72.164V73.406H48.7592V72.164H34.0172ZM40.6052 68.672V72.686H42.0992V68.672H40.6052ZM35.7992 60.338V61.544H45.4652V64.064H35.8532V68.528H37.3292V65.27H46.9412V60.338H35.7992ZM35.8532 67.898V69.122H47.3192V67.898H35.8532ZM55.4112 70.148V71.408H56.6532C59.7492 71.408 61.7112 71.3 64.0512 70.868L63.8892 69.644C61.6212 70.076 59.6772 70.148 56.6532 70.148H55.4112ZM55.4112 60.68V70.616H56.8872V61.904H62.8092V60.68H55.4112ZM66.5172 59.132V75.44H68.0112V59.132H66.5172ZM61.8552 65.018V66.26H67.1292V65.018H61.8552ZM86.6512 59.132V75.404H88.1272V59.132H86.6512ZM87.2812 65.486V66.728H90.2872V65.486H87.2812ZM75.4732 60.644V71.462H79.9732V60.644H78.7312V64.82H76.7512V60.644H75.4732ZM76.7512 66.008H78.7312V70.238H76.7512V66.008ZM80.8372 60.644V71.462H85.2832V60.644H84.0232V64.82H82.0972V60.644H80.8372ZM82.0972 66.008H84.0232V70.238H82.0972V66.008ZM91.7438 72.11V73.37H106.486V72.11H91.7438ZM93.5258 60.374V61.598H103.192V64.118H93.5798V68.564H95.0558V65.306H104.668V60.374H93.5258ZM93.5798 67.934V69.158H105.046V67.934H93.5798ZM120.686 59.132V75.404H122.126V59.132H120.686ZM113.63 65.774V66.98H117.734V65.774H113.63ZM117.302 59.546V74.576H118.706V59.546H117.302ZM113.828 61.184V61.454C113.828 65.288 112.118 68.528 108.284 70.832L109.166 71.894C113.558 69.284 115.268 65.45 115.268 61.184H113.828ZM109.004 61.184V62.408H114.386V61.184H109.004ZM136.608 63.272V64.514H141.216V63.272H136.608ZM140.766 59.132V68.978H142.26V59.132H140.766ZM136.914 69.302C133.548 69.302 131.478 70.436 131.478 72.344C131.478 74.27 133.548 75.368 136.914 75.368C140.262 75.368 142.332 74.27 142.332 72.344C142.332 70.436 140.262 69.302 136.914 69.302ZM136.914 70.49C139.362 70.49 140.856 71.156 140.856 72.344C140.856 73.514 139.362 74.198 136.914 74.198C134.466 74.198 132.972 73.514 132.972 72.344C132.972 71.156 134.466 70.49 136.914 70.49ZM129.678 60.122V67.79H137.022V60.122H135.564V62.714H131.154V60.122H129.678ZM131.154 63.92H135.564V66.584H131.154V63.92ZM147.317 59.816V61.022H157.793V59.816H147.317ZM145.445 65.18V66.404H160.187V65.18H145.445ZM156.821 59.816V60.86C156.821 62.012 156.821 63.416 156.389 65.396L157.847 65.558C158.279 63.542 158.279 62.03 158.279 60.86V59.816H156.821ZM147.173 68.006V69.212H156.857V70.994H147.209V74.414H148.703V72.146H158.333V68.006H147.173ZM147.209 74.018V75.224H158.747V74.018H147.209ZM169.348 59.402C165.748 59.402 163.624 60.41 163.624 62.228C163.624 64.046 165.748 65.054 169.348 65.054C172.93 65.054 175.072 64.046 175.072 62.228C175.072 60.41 172.93 59.402 169.348 59.402ZM169.348 60.536C171.994 60.536 173.524 61.148 173.524 62.228C173.524 63.308 171.994 63.92 169.348 63.92C166.684 63.92 165.154 63.308 165.154 62.228C165.154 61.148 166.684 60.536 169.348 60.536ZM161.986 66.134V67.34H176.692V66.134H161.986ZM163.768 68.726V69.878H173.344V71.318H163.804V74.378H165.28V72.398H174.82V68.726H163.768ZM163.804 74.054V75.224H175.306V74.054H163.804ZM186.836 66.764V68.852H188.33V66.764H186.836ZM193.694 59.15V70.058H195.188V59.15H193.694ZM194.558 64.064V65.306H197.564V64.064H194.558ZM182.678 69.59C185.522 69.572 189.374 69.554 192.848 68.942L192.722 67.88C189.356 68.366 185.396 68.366 182.48 68.366L182.678 69.59ZM184.496 70.868V72.056H193.694V75.404H195.188V70.868H184.496ZM182.894 60.608V61.724H192.236V60.608H182.894ZM187.574 62.354C185.27 62.354 183.776 63.272 183.776 64.766C183.776 66.26 185.27 67.178 187.574 67.178C189.86 67.178 191.354 66.26 191.354 64.766C191.354 63.272 189.86 62.354 187.574 62.354ZM187.574 63.38C189.014 63.38 189.95 63.902 189.95 64.766C189.95 65.594 189.014 66.134 187.574 66.134C186.116 66.134 185.18 65.594 185.18 64.766C185.18 63.902 186.116 63.38 187.574 63.38ZM186.836 59.006V61.148H188.33V59.006H186.836ZM210.972 59.15V71.03H212.484V59.15H210.972ZM202.026 73.82V75.044H212.97V73.82H202.026ZM202.026 69.806V74.234H203.502V69.806H202.026ZM203.754 60.266C201.324 60.266 199.506 61.922 199.506 64.28C199.506 66.62 201.324 68.294 203.754 68.294C206.184 68.294 207.984 66.62 207.984 64.28C207.984 61.922 206.184 60.266 203.754 60.266ZM203.754 61.562C205.338 61.562 206.544 62.678 206.544 64.28C206.544 65.864 205.338 66.98 203.754 66.98C202.17 66.98 200.964 65.864 200.964 64.28C200.964 62.678 202.17 61.562 203.754 61.562ZM226.721 59.132V75.404H228.215V59.132H226.721ZM227.855 65.81V67.07H230.879V65.81H227.855ZM215.615 61.724V62.948H225.209V61.724H215.615ZM220.475 64.298C218.189 64.298 216.515 65.846 216.515 68.042C216.515 70.238 218.189 71.786 220.475 71.786C222.779 71.786 224.435 70.238 224.435 68.042C224.435 65.846 222.779 64.298 220.475 64.298ZM220.475 65.54C221.951 65.54 223.013 66.566 223.013 68.042C223.013 69.5 221.951 70.544 220.475 70.544C218.999 70.544 217.937 69.5 217.937 68.042C217.937 66.566 218.999 65.54 220.475 65.54ZM219.701 59.33V62.282H221.195V59.33H219.701ZM233.811 60.752V61.994H244.287V60.752H233.811ZM232.263 71.894V73.136H246.969V71.894H232.263ZM237.969 66.08V72.506H239.463V66.08H237.969ZM243.729 60.752V62.372C243.729 64.316 243.729 66.602 243.117 69.716L244.611 69.914C245.205 66.62 245.205 64.388 245.205 62.372V60.752H243.729ZM7.308 90.946V92.188H10.422V90.946H7.308ZM4.266 86.662V89.758C4.266 92.548 2.934 95.464 0.702 96.778L1.638 97.912C4.014 96.454 5.436 93.16 5.436 89.758V86.662H4.266ZM4.554 86.662V89.704C4.554 92.872 5.868 96.112 8.208 97.552L9.072 96.382C6.93 95.086 5.706 92.314 5.706 89.704V86.662H4.554ZM13.284 85.132V101.404H14.724V85.132H13.284ZM9.99 85.474V100.594H11.394V85.474H9.99ZM17.4406 94.762V95.986H32.2006V94.762H17.4406ZM24.0286 95.338V101.404H25.5046V95.338H24.0286ZM19.2946 85.78V92.818H30.3106V85.78H28.8346V88.012H20.7886V85.78H19.2946ZM20.7886 89.218H28.8346V91.612H20.7886V89.218ZM42.3692 88.066V89.308H46.5272V88.066H42.3692ZM45.8972 85.132V93.52H47.3912V85.132H45.8972ZM36.9152 94.366V95.554H45.9152V97.138H36.9692V100.72H38.4272V98.254H47.3912V94.366H36.9152ZM36.9692 100V101.188H48.0032V100H36.9692ZM38.0672 85.636V87.166C38.0672 89.524 36.4472 91.558 33.9992 92.386L34.7732 93.574C37.4912 92.602 39.2912 90.172 39.2912 87.166V85.636H38.0672ZM38.3192 85.636V87.166C38.3192 89.92 40.1192 92.26 42.7472 93.196L43.5212 92.026C41.1632 91.252 39.5252 89.29 39.5252 87.166V85.636H38.3192ZM59.2518 89.344V90.586H62.9238V89.344H59.2518ZM62.4558 85.132V94.834H63.9498V85.132H62.4558ZM58.6038 95.32C55.2378 95.32 53.1678 96.454 53.1678 98.362C53.1678 100.288 55.2378 101.386 58.6038 101.386C61.9518 101.386 64.0218 100.288 64.0218 98.362C64.0218 96.454 61.9518 95.32 58.6038 95.32ZM58.6038 96.49C61.0518 96.49 62.5458 97.174 62.5458 98.362C62.5458 99.532 61.0518 100.216 58.6038 100.216C56.1558 100.216 54.6618 99.532 54.6618 98.362C54.6618 97.174 56.1558 96.49 58.6038 96.49ZM54.7158 86.77V88.084C54.7158 90.424 53.0418 92.602 50.6298 93.484L51.4038 94.672C54.1038 93.664 55.9398 91.09 55.9398 88.084V86.77H54.7158ZM55.0038 86.77V88.084C55.0038 90.82 56.7498 93.268 59.3958 94.222L60.1518 93.034C57.7938 92.206 56.2098 90.19 56.2098 88.084V86.77H55.0038ZM51.0798 86.32V87.544H59.7738V86.32H51.0798ZM74.4784 86.158C71.0944 86.158 68.5564 87.958 68.5564 90.658C68.5564 93.376 71.0944 95.158 74.4784 95.158C77.8624 95.158 80.3824 93.376 80.3824 90.658C80.3824 87.958 77.8624 86.158 74.4784 86.158ZM74.4784 87.382C77.0524 87.382 78.9604 88.696 78.9604 90.658C78.9604 92.602 77.0524 93.934 74.4784 93.934C71.9044 93.934 69.9964 92.602 69.9964 90.658C69.9964 88.696 71.9044 87.382 74.4784 87.382ZM67.1344 98.002V99.262H81.8764V98.002H67.1344ZM83.693 98.164V99.406H98.435V98.164H83.693ZM90.281 94.672V98.686H91.775V94.672H90.281ZM85.475 86.338V87.544H95.141V90.064H85.529V94.528H87.005V91.27H96.617V86.338H85.475ZM85.529 93.898V95.122H96.995V93.898H85.529ZM108.885 93.322V96.94H110.379V93.322H108.885ZM116.103 85.132V97.516H117.597V85.132H116.103ZM106.491 99.82V101.044H117.993V99.82H106.491ZM106.491 96.31V100.162H107.985V96.31H106.491ZM104.385 93.88C107.337 93.88 111.279 93.826 114.789 93.268L114.681 92.17C111.225 92.62 107.193 92.656 104.187 92.656L104.385 93.88ZM112.791 94.744V95.842H116.481V94.744H112.791ZM109.479 85.798C107.085 85.798 105.465 86.914 105.465 88.624C105.465 90.352 107.085 91.468 109.479 91.468C111.855 91.468 113.475 90.352 113.475 88.624C113.475 86.914 111.855 85.798 109.479 85.798ZM109.479 86.914C110.991 86.914 112.053 87.58 112.053 88.624C112.053 89.668 110.991 90.334 109.479 90.334C107.949 90.334 106.887 89.668 106.887 88.624C106.887 87.58 107.949 86.914 109.479 86.914ZM131.852 85.132V101.404H133.346V85.132H131.852ZM132.986 91.81V93.07H136.01V91.81H132.986ZM120.746 87.724V88.948H130.34V87.724H120.746ZM125.606 90.298C123.32 90.298 121.646 91.846 121.646 94.042C121.646 96.238 123.32 97.786 125.606 97.786C127.91 97.786 129.566 96.238 129.566 94.042C129.566 91.846 127.91 90.298 125.606 90.298ZM125.606 91.54C127.082 91.54 128.144 92.566 128.144 94.042C128.144 95.5 127.082 96.544 125.606 96.544C124.13 96.544 123.068 95.5 123.068 94.042C123.068 92.566 124.13 91.54 125.606 91.54ZM124.832 85.33V88.282H126.326V85.33H124.832ZM139.374 90.01V91.234H150.426V90.01H139.374ZM137.376 93.412V94.636H152.136V93.412H137.376ZM139.374 85.726V90.622H140.85V85.726H139.374ZM139.266 99.784V101.008H150.516V99.784H139.266ZM139.266 96.256V100.108H140.742V96.256H139.266ZM165.7 89.272V90.514H170.308V89.272H165.7ZM169.858 85.132V94.978H171.352V85.132H169.858ZM166.006 95.302C162.64 95.302 160.57 96.436 160.57 98.344C160.57 100.27 162.64 101.368 166.006 101.368C169.354 101.368 171.424 100.27 171.424 98.344C171.424 96.436 169.354 95.302 166.006 95.302ZM166.006 96.49C168.454 96.49 169.948 97.156 169.948 98.344C169.948 99.514 168.454 100.198 166.006 100.198C163.558 100.198 162.064 99.514 162.064 98.344C162.064 97.156 163.558 96.49 166.006 96.49ZM158.77 86.122V93.79H166.114V86.122H164.656V88.714H160.246V86.122H158.77ZM160.246 89.92H164.656V92.584H160.246V89.92ZM176.409 85.816V87.022H186.885V85.816H176.409ZM174.537 91.18V92.404H189.279V91.18H174.537ZM185.913 85.816V86.86C185.913 88.012 185.913 89.416 185.481 91.396L186.939 91.558C187.371 89.542 187.371 88.03 187.371 86.86V85.816H185.913ZM176.265 94.006V95.212H185.949V96.994H176.301V100.414H177.795V98.146H187.425V94.006H176.265ZM176.301 100.018V101.224H187.839V100.018H176.301ZM191.761 86.59V94.132H199.231V86.59H191.761ZM197.773 87.796V92.926H193.219V87.796H197.773ZM202.219 85.114V97.048H203.713V85.114H202.219ZM203.245 90.082V91.324H206.125V90.082H203.245ZM193.579 99.82V101.044H204.451V99.82H193.579ZM193.579 95.914V100.342H195.073V95.914H193.579ZM215.927 92.764V94.852H217.421V92.764H215.927ZM222.785 85.15V96.058H224.279V85.15H222.785ZM223.649 90.064V91.306H226.655V90.064H223.649ZM211.769 95.59C214.613 95.572 218.465 95.554 221.939 94.942L221.813 93.88C218.447 94.366 214.487 94.366 211.571 94.366L211.769 95.59ZM213.587 96.868V98.056H222.785V101.404H224.279V96.868H213.587ZM211.985 86.608V87.724H221.327V86.608H211.985ZM216.665 88.354C214.361 88.354 212.867 89.272 212.867 90.766C212.867 92.26 214.361 93.178 216.665 93.178C218.951 93.178 220.445 92.26 220.445 90.766C220.445 89.272 218.951 88.354 216.665 88.354ZM216.665 89.38C218.105 89.38 219.041 89.902 219.041 90.766C219.041 91.594 218.105 92.134 216.665 92.134C215.207 92.134 214.271 91.594 214.271 90.766C214.271 89.902 215.207 89.38 216.665 89.38ZM215.927 85.006V87.148H217.421V85.006H215.927ZM240.064 85.15V97.03H241.576V85.15H240.064ZM231.118 99.82V101.044H242.062V99.82H231.118ZM231.118 95.806V100.234H232.594V95.806H231.118ZM232.846 86.266C230.416 86.266 228.598 87.922 228.598 90.28C228.598 92.62 230.416 94.294 232.846 94.294C235.276 94.294 237.076 92.62 237.076 90.28C237.076 87.922 235.276 86.266 232.846 86.266ZM232.846 87.562C234.43 87.562 235.636 88.678 235.636 90.28C235.636 91.864 234.43 92.98 232.846 92.98C231.262 92.98 230.056 91.864 230.056 90.28C230.056 88.678 231.262 87.562 232.846 87.562ZM246.236 96.022H247.352L247.586 88.408L247.622 86.518H245.966L246.002 88.408L246.236 96.022ZM246.776 100.252C247.442 100.252 247.982 99.73 247.982 98.992C247.982 98.236 247.442 97.732 246.776 97.732C246.128 97.732 245.606 98.236 245.606 98.992C245.606 99.73 246.128 100.252 246.776 100.252Z" fill="#545454"/>
</svg>
