<svg width="32" height="36" viewBox="0 0 32 36" fill="none" xmlns="http://www.w3.org/2000/svg">
<path d="M16 2C10.48 2 6 6.48 6 12C6 17.52 10.48 22 16 22C21.52 22 26 17.52 26 12C26 6.48 21.52 2 16 2ZM11.07 18.28C11.5 17.38 14.12 16.5 16 16.5C17.88 16.5 20.51 17.38 20.93 18.28C19.57 19.36 17.86 20 16 20C14.14 20 12.43 19.36 11.07 18.28ZM22.36 16.83C20.93 15.09 17.46 14.5 16 14.5C14.54 14.5 11.07 15.09 9.64 16.83C8.62 15.49 8 13.82 8 12C8 7.59 11.59 4 16 4C20.41 4 24 7.59 24 12C24 13.82 23.38 15.49 22.36 16.83V16.83ZM16 6C14.06 6 12.5 7.56 12.5 9.5C12.5 11.44 14.06 13 16 13C17.94 13 19.5 11.44 19.5 9.5C19.5 7.56 17.94 6 16 6ZM16 11C15.17 11 14.5 10.33 14.5 9.5C14.5 8.67 15.17 8 16 8C16.83 8 17.5 8.67 17.5 9.5C17.5 10.33 16.83 11 16 11Z" fill="#333A44"/>
<path d="M6.16272 29.272V29.832H7.49872V29.272H6.16272ZM5.67472 26.384V33.624H6.34672V26.384H5.67472ZM1.06672 27.096V31.576H1.73072V27.096H1.06672ZM1.06672 31.232V31.792H1.64272C2.73872 31.792 3.85072 31.72 5.08272 31.464L5.00272 30.912C3.81072 31.16 2.71472 31.232 1.64272 31.232H1.06672ZM10.4901 26.912C9.36209 26.912 8.54609 27.608 8.54609 28.616C8.54609 29.632 9.36209 30.328 10.4901 30.328C11.6181 30.328 12.4261 29.632 12.4261 28.616C12.4261 27.608 11.6181 26.912 10.4901 26.912ZM10.4901 27.488C11.2341 27.488 11.7781 27.944 11.7781 28.616C11.7781 29.288 11.2341 29.752 10.4901 29.752C9.73809 29.752 9.19409 29.288 9.19409 28.616C9.19409 27.944 9.73809 27.488 10.4901 27.488ZM13.3701 26.384V33.632H14.0341V26.384H13.3701ZM8.27409 32.048C9.56209 32.048 11.3301 32.04 12.9541 31.728L12.8981 31.24C11.3221 31.488 9.49809 31.496 8.17809 31.496L8.27409 32.048ZM20.7265 28.232V28.784H22.7745V28.232H20.7265ZM22.5745 26.392V30.768H23.2385V26.392H22.5745ZM20.8625 30.912C19.3665 30.912 18.4465 31.416 18.4465 32.264C18.4465 33.12 19.3665 33.608 20.8625 33.608C22.3505 33.608 23.2705 33.12 23.2705 32.264C23.2705 31.416 22.3505 30.912 20.8625 30.912ZM20.8625 31.44C21.9505 31.44 22.6145 31.736 22.6145 32.264C22.6145 32.784 21.9505 33.088 20.8625 33.088C19.7745 33.088 19.1105 32.784 19.1105 32.264C19.1105 31.736 19.7745 31.44 20.8625 31.44ZM17.6465 26.832V30.24H20.9105V26.832H20.2625V27.984H18.3025V26.832H17.6465ZM18.3025 28.52H20.2625V29.704H18.3025V28.52ZM25.4859 26.696V27.232H30.1419V26.696H25.4859ZM24.6539 29.08V29.624H31.2059V29.08H24.6539ZM29.7099 26.696V27.16C29.7099 27.672 29.7099 28.296 29.5179 29.176L30.1659 29.248C30.3579 28.352 30.3579 27.68 30.3579 27.16V26.696H29.7099ZM25.4219 30.336V30.872H29.7259V31.664H25.4379V33.184H26.1019V32.176H30.3819V30.336H25.4219ZM25.4379 33.008V33.544H30.5659V33.008H25.4379Z" fill="black"/>
</svg>
