<svg width="374" height="60" viewBox="0 0 374 60" fill="none" xmlns="http://www.w3.org/2000/svg">
<g filter="url(#filter0_i_130_1148)">
<rect width="374" height="60" fill="white"/>
<path d="M38 17.69L43 22.19V30H41V24H35V30H33V22.19L38 17.69ZM38 15L28 24H31V32H37V26H39V32H45V24H48L38 15Z" fill="#333A44"/>
<path d="M35.192 43.464V45.528H40.128V43.464H35.192ZM39.48 43.976V45.024H35.848V43.976H39.48ZM34.736 38.984V39.504H40.552V38.984H34.736ZM37.664 39.792C36.168 39.792 35.328 40.144 35.328 40.816C35.328 41.488 36.168 41.84 37.664 41.84C39.152 41.84 40 41.488 40 40.816C40 40.144 39.152 39.792 37.664 39.792ZM37.664 40.256C38.704 40.256 39.288 40.456 39.288 40.816C39.288 41.176 38.704 41.376 37.664 41.376C36.616 41.376 36.032 41.176 36.032 40.816C36.032 40.456 36.616 40.256 37.664 40.256ZM37.336 38.288V39.32H37.992V38.288H37.336ZM34.392 42.392V42.912H40.928V42.392H34.392ZM37.336 41.68V42.68H37.992V41.68H37.336Z" fill="black"/>
<path d="M108 14C104.13 14 101 17.13 101 21C101 26.25 108 34 108 34C108 34 115 26.25 115 21C115 17.13 111.87 14 108 14ZM103 21C103 18.24 105.24 16 108 16C110.76 16 113 18.24 113 21C113 23.88 110.12 28.19 108 30.88C105.92 28.21 103 23.85 103 21Z" fill="#333A44"/>
<path d="M108 23.5C109.381 23.5 110.5 22.3807 110.5 21C110.5 19.6193 109.381 18.5 108 18.5C106.619 18.5 105.5 19.6193 105.5 21C105.5 22.3807 106.619 23.5 108 23.5Z" fill="#333A44"/>
<path d="M97.1133 40.232V40.784H99.1613V40.232H97.1133ZM98.9613 38.392V42.768H99.6253V38.392H98.9613ZM97.2493 42.912C95.7533 42.912 94.8333 43.416 94.8333 44.264C94.8333 45.12 95.7533 45.608 97.2493 45.608C98.7373 45.608 99.6573 45.12 99.6573 44.264C99.6573 43.416 98.7373 42.912 97.2493 42.912ZM97.2493 43.44C98.3373 43.44 99.0013 43.736 99.0013 44.264C99.0013 44.784 98.3373 45.088 97.2493 45.088C96.1613 45.088 95.4973 44.784 95.4973 44.264C95.4973 43.736 96.1613 43.44 97.2493 43.44ZM94.0333 38.832V42.24H97.2973V38.832H96.6493V39.984H94.6893V38.832H94.0333ZM94.6893 40.52H96.6493V41.704H94.6893V40.52ZM101.873 38.696V39.232H106.529V38.696H101.873ZM101.041 41.08V41.624H107.593V41.08H101.041ZM106.097 38.696V39.16C106.097 39.672 106.097 40.296 105.905 41.176L106.553 41.248C106.745 40.352 106.745 39.68 106.745 39.16V38.696H106.097ZM101.809 42.336V42.872H106.113V43.664H101.825V45.184H102.489V44.176H106.769V42.336H101.809ZM101.825 45.008V45.544H106.953V45.008H101.825ZM110.312 39.424V40.6C110.312 41.848 109.44 43.208 108.392 43.704L108.776 44.232C109.928 43.664 110.848 42.128 110.848 40.6V39.424H110.312ZM110.44 39.424V40.6C110.44 42.104 111.368 43.512 112.536 44.056L112.912 43.528C111.848 43.072 110.976 41.824 110.976 40.6V39.424H110.44ZM108.632 39.128V39.688H112.672V39.128H108.632ZM113.648 38.392V45.624H114.312V38.392H113.648ZM116.583 41.768V42.312H121.551V41.768H116.583ZM115.759 44.16V44.72H122.311V44.16H115.759ZM118.687 42V44.384H119.351V42H118.687ZM116.583 38.968V42.008H117.247V39.512H121.479V38.968H116.583Z" fill="black"/>
<rect x="166" y="10" width="40" height="40" rx="20" fill="#FFC632"/>
<path fill-rule="evenodd" clip-rule="evenodd" d="M193.031 27.9338L188.358 26.3018L189.77 19.3298C189.997 18.2058 188.61 17.4888 187.825 18.3228L178.515 28.2108C178.385 28.349 178.291 28.5175 178.243 28.7011C178.194 28.8846 178.193 29.0774 178.238 29.2618C178.283 29.4462 178.373 29.6165 178.501 29.7571C178.628 29.8977 178.789 30.0041 178.968 30.0668L183.64 31.6988L182.23 38.6708C182.001 39.7938 183.388 40.5108 184.174 39.6778L193.485 29.7878C194.05 29.1878 193.809 28.2048 193.031 27.9338Z" fill="white"/>
<path d="M269 14H253C251.9 14 251 14.9 251 16V34L255 30H269C270.1 30 271 29.1 271 28V16C271 14.9 270.1 14 269 14ZM269 28H255L253 30V16H269V28Z" fill="#333A44"/>
<path d="M255.513 40.24V40.616C255.513 41.792 254.953 43.048 253.969 43.624L254.369 44.128C255.425 43.496 256.025 42.048 256.025 40.616V40.24H255.513ZM255.633 40.24V40.616C255.633 42.008 256.257 43.376 257.321 43.968L257.697 43.472C256.729 42.944 256.145 41.76 256.145 40.616V40.24H255.633ZM254.153 39.736V40.28H257.505V39.736H254.153ZM255.513 38.648V40.144H256.153V38.648H255.513ZM259.569 38.392V45.624H260.201V38.392H259.569ZM258.425 41.304V41.864H259.817V41.304H258.425ZM257.993 38.544V45.264H258.617V38.544H257.993ZM261.816 41.824V42.36H262.4C263.976 42.36 264.856 42.336 265.904 42.152L265.832 41.624C264.816 41.792 263.96 41.824 262.4 41.824H261.816ZM261.816 38.92V42.096H262.472V39.456H265.256V38.92H261.816ZM262.256 40.352V40.88H265.056V40.352H262.256ZM266.656 38.4V42.872H267.328V38.4H266.656ZM264.936 42.976C263.424 42.976 262.504 43.456 262.504 44.288C262.504 45.128 263.424 45.608 264.936 45.608C266.44 45.608 267.36 45.128 267.36 44.288C267.36 43.456 266.44 42.976 264.936 42.976ZM264.936 43.504C266.032 43.504 266.696 43.792 266.696 44.288C266.696 44.8 266.032 45.088 264.936 45.088C263.832 45.088 263.168 44.8 263.168 44.288C263.168 43.792 263.832 43.504 264.936 43.504Z" fill="black"/>
<path d="M332 14C326.48 14 322 18.48 322 24C322 29.52 326.48 34 332 34C337.52 34 342 29.52 342 24C342 18.48 337.52 14 332 14ZM327.07 30.28C327.5 29.38 330.12 28.5 332 28.5C333.88 28.5 336.51 29.38 336.93 30.28C335.57 31.36 333.86 32 332 32C330.14 32 328.43 31.36 327.07 30.28ZM338.36 28.83C336.93 27.09 333.46 26.5 332 26.5C330.54 26.5 327.07 27.09 325.64 28.83C324.62 27.49 324 25.82 324 24C324 19.59 327.59 16 332 16C336.41 16 340 19.59 340 24C340 25.82 339.38 27.49 338.36 28.83ZM332 18C330.06 18 328.5 19.56 328.5 21.5C328.5 23.44 330.06 25 332 25C333.94 25 335.5 23.44 335.5 21.5C335.5 19.56 333.94 18 332 18ZM332 23C331.17 23 330.5 22.33 330.5 21.5C330.5 20.67 331.17 20 332 20C332.83 20 333.5 20.67 333.5 21.5C333.5 22.33 332.83 23 332 23Z" fill="#333A44"/>
<path d="M322.163 41.272V41.832H323.499V41.272H322.163ZM321.675 38.384V45.624H322.347V38.384H321.675ZM317.067 39.096V43.576H317.731V39.096H317.067ZM317.067 43.232V43.792H317.643C318.739 43.792 319.851 43.72 321.083 43.464L321.003 42.912C319.811 43.16 318.715 43.232 317.643 43.232H317.067ZM326.49 38.912C325.362 38.912 324.546 39.608 324.546 40.616C324.546 41.632 325.362 42.328 326.49 42.328C327.618 42.328 328.426 41.632 328.426 40.616C328.426 39.608 327.618 38.912 326.49 38.912ZM326.49 39.488C327.234 39.488 327.778 39.944 327.778 40.616C327.778 41.288 327.234 41.752 326.49 41.752C325.738 41.752 325.194 41.288 325.194 40.616C325.194 39.944 325.738 39.488 326.49 39.488ZM329.37 38.384V45.632H330.034V38.384H329.37ZM324.274 44.048C325.562 44.048 327.33 44.04 328.954 43.728L328.898 43.24C327.322 43.488 325.498 43.496 324.178 43.496L324.274 44.048ZM336.727 40.232V40.784H338.775V40.232H336.727ZM338.575 38.392V42.768H339.239V38.392H338.575ZM336.863 42.912C335.367 42.912 334.447 43.416 334.447 44.264C334.447 45.12 335.367 45.608 336.863 45.608C338.351 45.608 339.271 45.12 339.271 44.264C339.271 43.416 338.351 42.912 336.863 42.912ZM336.863 43.44C337.951 43.44 338.615 43.736 338.615 44.264C338.615 44.784 337.951 45.088 336.863 45.088C335.775 45.088 335.111 44.784 335.111 44.264C335.111 43.736 335.775 43.44 336.863 43.44ZM333.647 38.832V42.24H336.911V38.832H336.263V39.984H334.303V38.832H333.647ZM334.303 40.52H336.263V41.704H334.303V40.52ZM341.486 38.696V39.232H346.142V38.696H341.486ZM340.654 41.08V41.624H347.206V41.08H340.654ZM345.71 38.696V39.16C345.71 39.672 345.71 40.296 345.518 41.176L346.166 41.248C346.358 40.352 346.358 39.68 346.358 39.16V38.696H345.71ZM341.422 42.336V42.872H345.726V43.664H341.438V45.184H342.102V44.176H346.382V42.336H341.422ZM341.438 45.008V45.544H346.566V45.008H341.438Z" fill="black"/>
</g>
<defs>
<filter id="filter0_i_130_1148" x="0" y="0" width="374" height="60" filterUnits="userSpaceOnUse" color-interpolation-filters="sRGB">
<feFlood flood-opacity="0" result="BackgroundImageFix"/>
<feBlend mode="normal" in="SourceGraphic" in2="BackgroundImageFix" result="shape"/>
<feColorMatrix in="SourceAlpha" type="matrix" values="0 0 0 0 0 0 0 0 0 0 0 0 0 0 0 0 0 0 127 0" result="hardAlpha"/>
<feOffset dy="1"/>
<feComposite in2="hardAlpha" operator="arithmetic" k2="-1" k3="1"/>
<feColorMatrix type="matrix" values="0 0 0 0 0 0 0 0 0 0 0 0 0 0 0 0 0 0 0.1 0"/>
<feBlend mode="normal" in2="shape" result="effect1_innerShadow_130_1148"/>
</filter>
</defs>
</svg>
