<svg width="205" height="81" viewBox="0 0 205 81" fill="none" xmlns="http://www.w3.org/2000/svg">
<path d="M33.816 61.132V77.44H35.31V61.132H33.816ZM28.812 66.496V67.72H34.302V66.496H28.812ZM22.782 62.95V73.03H24.258V62.95H22.782ZM22.782 72.238V73.498H24.042C26.616 73.498 28.902 73.336 31.494 72.832L31.314 71.572C28.812 72.094 26.562 72.238 24.042 72.238H22.782ZM42.5626 69.34V73.228H44.0566V69.34H42.5626ZM43.3006 62.176C40.7986 62.176 38.9986 63.742 38.9986 66.01C38.9986 68.278 40.7986 69.844 43.3006 69.844C45.8026 69.844 47.6026 68.278 47.6026 66.01C47.6026 63.742 45.8026 62.176 43.3006 62.176ZM43.3006 63.454C44.9566 63.454 46.1446 64.498 46.1446 66.01C46.1446 67.522 44.9566 68.566 43.3006 68.566C41.6446 68.566 40.4566 67.522 40.4566 66.01C40.4566 64.498 41.6446 63.454 43.3006 63.454ZM49.4566 61.132V77.404H50.9506V61.132H49.4566ZM50.5186 67.828V69.088H53.5246V67.828H50.5186ZM38.4766 73.894C41.3206 73.894 45.1186 73.858 48.5566 73.282L48.4306 72.166C45.1186 72.616 41.1946 72.634 38.2606 72.652L38.4766 73.894ZM71.1386 67.612V68.872H74.1446V67.612H71.1386ZM70.0406 61.114V77.404H71.5526V61.114H70.0406ZM59.6726 62.716V72.796H61.1666V62.716H59.6726ZM59.6726 72.022V73.282H60.9686C63.4346 73.282 65.9366 73.12 68.7086 72.544L68.5286 71.302C65.8466 71.86 63.3806 72.022 60.9686 72.022H59.6726ZM91.4526 61.15V73.174H92.9646V61.15H91.4526ZM82.5066 75.82V77.044H93.4506V75.82H82.5066ZM82.5066 72.04V76.468H83.9826V72.04H82.5066ZM84.0366 64.246V64.93C84.0366 67.18 82.3626 69.232 79.9506 70.024L80.6886 71.194C83.4066 70.258 85.2606 67.846 85.2606 64.93V64.246H84.0366ZM84.2886 64.246V64.93C84.2886 67.72 86.1606 70.024 88.9146 70.906L89.6346 69.736C87.2046 68.98 85.5126 67.054 85.5126 64.93V64.246H84.2886ZM80.3286 63.31V64.516H89.1846V63.31H80.3286ZM84.0366 61.204V63.886H85.5126V61.204H84.0366ZM98.0212 62.194V63.4H108.191V62.194H98.0212ZM96.1852 69.178V70.402H110.891V69.178H96.1852ZM102.755 69.988V77.422H104.249V69.988H102.755ZM107.489 62.194V63.598C107.489 65.236 107.489 67.126 106.859 69.754L108.335 69.952C108.947 67.198 108.947 65.29 108.947 63.598V62.194H107.489ZM114.022 68.134V69.358H122.356V68.134H114.022ZM117.352 69.106V72.85H118.864V69.106H117.352ZM114.022 62.662V68.566H115.516V63.886H122.266V62.662H114.022ZM124.498 61.114V77.422H125.992V61.114H124.498ZM113.032 73.894C116.11 73.912 119.998 73.84 123.562 73.3L123.436 72.184C119.998 72.598 116.002 72.634 112.816 72.652L113.032 73.894ZM131.282 66.01V67.234H142.334V66.01H131.282ZM129.284 69.412V70.636H144.044V69.412H129.284ZM131.282 61.726V66.622H132.758V61.726H131.282ZM131.174 75.784V77.008H142.424V75.784H131.174ZM131.174 72.256V76.108H132.65V72.256H131.174ZM154.17 62.536V65.452C154.17 68.53 152.208 71.644 149.796 72.796L150.714 74.02C153.378 72.67 155.394 69.196 155.394 65.452V62.536H154.17ZM154.422 62.536V65.452C154.422 69.07 156.456 72.418 159.102 73.714L160.002 72.526C157.59 71.41 155.646 68.422 155.646 65.452V62.536H154.422ZM161.694 61.114V77.422H163.188V61.114H161.694ZM177.569 61.132V73.03H179.063V61.132H177.569ZM178.595 66.064V67.306H181.475V66.064H178.595ZM173.123 62.392V63.04C173.123 66.172 170.549 68.692 166.445 69.952L167.093 71.176C171.755 69.682 174.707 66.604 174.707 62.392H173.123ZM167.111 62.392V63.616H173.879V62.392H167.111ZM168.911 75.82V77.044H179.783V75.82H168.911ZM168.911 71.824V76.306H170.405V71.824H168.911Z" fill="#545454"/>
<path d="M32.1133 11.4113L32.1325 11.3921L32.1133 11.4113Z" fill="#FDC536"/>
<path d="M168.825 11.9682L168.863 11.9492L168.825 11.9682Z" fill="#FDC536"/>
<path d="M55.6748 11.3662C55.3218 11.0132 54.8894 10.7397 54.4305 10.5632C53.9628 10.3867 53.4775 10.3073 52.9833 10.3161C52.4979 10.3161 52.0126 10.3955 51.5625 10.572C51.1036 10.7485 50.6889 11.0221 50.3359 11.3574C49.9741 11.7016 49.6828 12.134 49.5064 12.6017C49.321 13.0694 49.2416 13.5636 49.2416 14.0578V26.5359C49.2328 27.3301 49.0475 27.9655 48.6327 28.5832C48.2091 29.2098 47.6355 29.7128 46.8237 30.1099C46.0206 30.507 45.1381 30.71 44.0968 30.71C43.179 30.71 42.3937 30.5776 41.7318 30.3393C41.0611 30.1011 40.5052 29.7569 40.011 29.2892C39.5433 28.8479 39.1991 28.3008 38.9432 27.5949C38.6873 26.8889 38.5461 26.0064 38.5461 24.9474V14.0578C38.5461 13.5724 38.4667 13.0782 38.2813 12.6193C38.096 12.1605 37.8136 11.7369 37.4695 11.3927C37.1253 11.0485 36.7017 10.7662 36.2428 10.5808C35.784 10.3955 35.2898 10.3161 34.8044 10.3161C34.319 10.3161 33.8249 10.3955 33.366 10.5808C32.9071 10.7662 32.4835 11.0485 32.1394 11.3927C31.7952 11.7369 31.5128 12.1605 31.3275 12.6193C31.1422 13.0782 31.0627 13.5724 31.0627 14.0578V24.9474C31.0627 27.5243 31.5569 29.8275 32.6159 31.7778C33.6484 33.7015 35.1486 35.237 37.0194 36.2519C38.8726 37.2667 40.9729 37.7609 43.2232 37.7609C44.8734 37.7609 46.453 37.4697 47.9356 36.8784C48.6239 36.6049 49.2681 36.2784 49.877 35.8901C50.0094 36.093 50.1682 36.2872 50.3447 36.4548C50.6889 36.799 51.1124 37.0814 51.5713 37.2667C52.0302 37.452 52.5244 37.5314 53.0098 37.5314C53.5039 37.5314 53.9981 37.452 54.4658 37.2667C54.9335 37.0814 55.3659 36.799 55.7101 36.4372C56.0455 36.093 56.319 35.6694 56.4955 35.2105C56.672 34.7517 56.7514 34.2663 56.7514 33.7898V14.0578C56.7514 13.5724 56.672 13.0782 56.5043 12.6105C56.3014 12.1428 56.0278 11.7192 55.6748 11.3662Z" fill="#FFC632"/>
<path d="M85.8464 16.1138C84.814 14.19 83.3138 12.6633 81.4429 11.6396C79.5897 10.6248 77.4895 10.1306 75.248 10.1306C73.5978 10.1306 72.0182 10.4218 70.5356 11.0131C69.8561 11.2778 69.2207 11.6043 68.6206 11.9838C68.4883 11.772 68.3294 11.5867 68.1529 11.4102C67.7999 11.0572 67.3764 10.7837 66.9087 10.6072C66.4409 10.4307 65.9556 10.3601 65.4614 10.3601C64.9761 10.3601 64.4907 10.4395 64.0406 10.616C63.5817 10.7925 63.167 11.066 62.814 11.4014C62.4522 11.7455 62.161 12.1779 61.9845 12.6457C61.7992 13.1134 61.7197 13.6164 61.7197 14.1106V33.8426C61.7197 34.3279 61.7992 34.8221 61.9845 35.281C62.1698 35.7399 62.4522 36.1634 62.7963 36.5076C63.1405 36.8518 63.5641 37.1342 64.023 37.3195C64.4819 37.5048 64.9761 37.5842 65.4614 37.5842C65.9556 37.5842 66.4498 37.5048 66.9175 37.3195C67.3852 37.1342 67.8176 36.8518 68.1618 36.49C68.4971 36.1458 68.7707 35.7222 68.9472 35.2634C69.1236 34.8045 69.2031 34.3191 69.2031 33.8426V21.3645C69.2119 20.5702 69.3972 19.9349 69.812 19.3171C70.2356 18.6906 70.8092 18.1964 71.621 17.7816C72.4241 17.3845 73.3065 17.1815 74.3479 17.1815C75.2656 17.1815 76.0511 17.3139 76.7129 17.5522C77.3836 17.7905 77.9395 18.1346 78.4337 18.6023C78.9014 19.0436 79.2456 19.5907 79.5015 20.2967C79.7574 21.0026 79.8986 21.8851 79.8986 22.9441V33.8337C79.8986 34.3191 79.978 34.8133 80.1634 35.2722C80.3487 35.731 80.6311 36.1546 80.9752 36.4988C81.3194 36.843 81.743 37.1253 82.2019 37.3107C82.6607 37.496 83.1549 37.5754 83.6403 37.5754C84.1256 37.5754 84.6198 37.496 85.0787 37.3107C85.5376 37.1253 85.9612 36.843 86.3053 36.4988C86.6495 36.1546 86.9319 35.731 87.1172 35.2722C87.3025 34.8133 87.382 34.3191 87.382 33.8337V22.9441C87.3996 20.3761 86.8966 18.0728 85.8464 16.1138Z" fill="#FFC632"/>
<path d="M116.257 16.8639C115.092 14.7813 113.424 13.1134 111.359 11.9397C109.277 10.7572 106.912 10.1748 104.361 10.1748C101.784 10.1748 99.3929 10.7572 97.3015 11.9397C95.2189 13.1134 93.551 14.7813 92.395 16.8727C91.2301 18.973 90.6565 21.3645 90.6565 23.9678C90.6565 26.527 91.1772 28.892 92.2626 30.9746C93.3304 33.0572 94.8835 34.7428 96.8426 35.9253C98.8105 37.1166 101.061 37.7167 103.479 37.7079C105.606 37.7079 107.6 37.1784 109.338 36.1194C109.744 35.8723 110.141 35.5987 110.512 35.2987C110.362 36.0576 110.133 36.7283 109.815 37.3196C109.215 38.458 108.474 39.2345 107.547 39.7817C106.594 40.3376 105.57 40.6112 104.361 40.62C103.002 40.62 101.855 40.3817 100.858 39.9317C99.8606 39.4816 99.0664 38.8551 98.4134 38.0079L98.4222 38.0167C98.0781 37.5578 97.628 37.1607 97.1073 36.896C96.5867 36.6312 95.9954 36.4989 95.4218 36.4989C94.6805 36.4989 93.9746 36.746 93.3745 37.1343L93.348 37.1519L93.3215 37.1695C92.8803 37.4872 92.4832 37.8755 92.2008 38.3609C91.9184 38.8462 91.7596 39.4199 91.7684 39.9758C91.7684 40.3729 91.8478 40.7788 91.989 41.1407C92.1302 41.5025 92.3332 41.8378 92.5715 42.1378V42.1467C93.9481 43.8851 95.6866 45.253 97.7163 46.1796C99.7459 47.115 101.943 47.5739 104.264 47.5739C106.859 47.5739 109.259 46.9561 111.368 45.7119C113.468 44.4764 115.127 42.7468 116.283 40.6024C117.439 38.4668 118.013 36.0753 118.013 33.525V23.9678C118.022 21.3645 117.439 18.9642 116.257 16.8639ZM107.653 29.898C106.691 30.4628 105.632 30.7452 104.361 30.754C103.09 30.754 102.032 30.4628 101.07 29.898C100.099 29.3244 99.3753 28.5655 98.8105 27.5242C98.2634 26.5005 97.9722 25.3444 97.9722 23.959C97.9722 22.5735 98.2634 21.4087 98.8105 20.3673C99.3753 19.3172 100.108 18.5583 101.07 17.9847C102.032 17.4199 103.09 17.1375 104.361 17.1287C105.632 17.1287 106.691 17.4199 107.653 17.9847C108.615 18.5583 109.33 19.3172 109.886 20.3585C110.433 21.3998 110.706 22.5735 110.715 23.959C110.715 25.3444 110.433 26.5093 109.894 27.533C109.338 28.5743 108.615 29.3244 107.653 29.898Z" fill="#FFC632"/>
<path d="M133.948 31.2394C133.631 30.8864 133.234 30.5864 132.792 30.4011C132.351 30.2069 131.866 30.1275 131.398 30.1275H130.295C130.242 30.1187 130.268 30.1275 130.233 30.1099C130.207 30.0922 130.11 30.0128 129.986 29.801C129.739 29.3862 129.571 28.7597 129.571 27.8507V3.68872C129.571 3.20336 129.492 2.71799 129.315 2.26793C129.139 1.80904 128.865 1.3943 128.521 1.05014C128.177 0.705978 127.762 0.432391 127.303 0.255897C126.845 0.0794029 126.359 0 125.883 0C125.397 0 124.912 0.0794029 124.462 0.255897C124.003 0.432391 123.588 0.705959 123.244 1.05895C122.9 1.40311 122.617 1.8267 122.441 2.27676C122.264 2.73564 122.185 3.22102 122.185 3.69755V27.8595C122.185 29.598 122.503 31.2306 123.156 32.6955C123.809 34.1604 124.78 35.387 126.041 36.2342C127.295 37.0902 128.768 37.5402 130.304 37.5314H130.392C130.948 37.5314 131.486 37.4696 132.007 37.3196C132.519 37.1696 133.013 36.9402 133.445 36.6225C133.878 36.3048 134.248 35.8988 134.504 35.4135C134.76 34.9281 134.893 34.3722 134.884 33.8339C134.884 33.3662 134.813 32.9073 134.663 32.4572C134.504 31.9983 134.257 31.5836 133.948 31.2394Z" fill="#FFC632"/>
<path d="M161.843 23.5714C161.843 21.0564 161.357 18.7531 160.36 16.7234C159.363 14.6937 157.88 13.0524 155.992 11.9052C154.077 10.7403 151.818 10.1843 149.338 10.1843C146.814 10.1843 144.476 10.7668 142.419 11.9581C140.372 13.1318 138.748 14.8173 137.61 16.9176C136.463 19.0267 135.898 21.4093 135.907 23.9773C135.907 26.563 136.507 28.9544 137.725 31.0547C138.934 33.1462 140.646 34.8052 142.79 35.9701C144.943 37.1438 147.379 37.7262 150.009 37.7262C151.553 37.7262 153.133 37.4438 154.756 36.8967C156.362 36.3584 157.757 35.6436 158.913 34.7258C158.922 34.7258 158.922 34.717 158.93 34.7082C158.939 34.7082 158.939 34.6993 158.948 34.6993C159.31 34.4169 159.636 34.0639 159.866 33.6404C160.104 33.1991 160.219 32.6961 160.219 32.2108C160.219 31.6989 160.087 31.1694 159.848 30.7194C159.619 30.287 159.301 29.9164 158.93 29.6075C158.922 29.5987 158.922 29.5986 158.913 29.5898C158.904 29.581 158.895 29.5722 158.886 29.5633C158.577 29.2898 158.207 29.0868 157.827 28.9633C157.43 28.8309 157.016 28.778 156.601 28.778C156.177 28.778 155.754 28.8397 155.348 28.9721C154.951 29.1045 154.571 29.3074 154.245 29.5633C153.794 29.9075 153.15 30.2429 152.303 30.5341C151.474 30.8165 150.715 30.94 150.018 30.94C149.038 30.94 148.164 30.7988 147.388 30.5429C146.611 30.2782 145.914 29.8987 145.279 29.378C144.634 28.8486 144.149 28.2661 143.77 27.5955C143.664 27.4101 143.576 27.216 143.487 27.013H158.348C158.798 27.013 159.248 26.9424 159.681 26.7747C160.113 26.6159 160.51 26.36 160.837 26.0423C161.163 25.7246 161.437 25.3452 161.613 24.9127C161.763 24.4803 161.843 24.0215 161.843 23.5714ZM145.076 18.356C145.596 17.8971 146.188 17.5618 146.885 17.3235C147.582 17.0852 148.394 16.9617 149.338 16.9617C150.159 16.9617 150.865 17.0852 151.465 17.3059C152.065 17.5353 152.577 17.853 153.036 18.3031C153.512 18.7708 153.892 19.3002 154.183 19.9356C154.262 20.1121 154.342 20.2974 154.403 20.4828H143.523C143.593 20.3151 143.673 20.1562 143.752 20.0062C144.105 19.3797 144.537 18.8325 145.076 18.356Z" fill="#FFC632"/>
<path d="M169.242 35.9706L169.222 35.9609L169.242 35.9706Z" fill="#FDC536"/>
<path d="M26.0417 19.2643C25.3622 18.426 24.5415 17.7112 23.606 17.1552C23.5002 17.0934 23.3766 17.0317 23.2619 16.9699C23.7561 16.5022 24.2061 15.9815 24.5856 15.4167C25.5298 14.0313 26.024 12.3987 26.0152 10.6867C26.0152 8.67469 25.5122 6.78621 24.4885 5.14481C23.4825 3.51224 22.0441 2.22383 20.2968 1.33254C18.5318 0.432419 16.5287 0 14.3578 0H3.78579C3.30043 0 2.80626 0.0794384 2.34737 0.264757C1.88849 0.441251 1.4649 0.723636 1.12074 1.05897L1.11191 1.06781L1.12074 1.05897C0.758928 1.41196 0.467707 1.83553 0.273563 2.31207C0.0882448 2.7886 0 3.29162 0 3.7858V33.7457C0 34.2398 0.0882448 34.734 0.273563 35.2017C0.458882 35.6694 0.750104 36.0842 1.09427 36.4372C1.44725 36.7902 1.86201 37.0725 2.32972 37.2579C2.79743 37.4432 3.29161 37.5314 3.78579 37.5314H15.2932C17.6759 37.5314 19.882 37.0461 21.8323 36.0401C23.7826 35.0429 25.3533 33.5956 26.4564 31.7689C27.5595 29.9422 28.1066 27.8419 28.1066 25.6005C28.1066 24.3826 27.9478 23.2266 27.6036 22.1588C27.2595 21.0999 26.7388 20.1203 26.0417 19.2643Z" fill="#FFC632"/>
<path fill-rule="evenodd" clip-rule="evenodd" d="M18.9029 17.7901L14.4552 16.2899L15.7966 9.89204C16.0084 8.85956 14.6935 8.20651 13.9434 8.96544L5.09221 18.0372C4.96867 18.1608 4.88041 18.3196 4.83629 18.4873C4.79216 18.655 4.79217 18.8314 4.82747 18.9991C4.87159 19.1668 4.95984 19.3256 5.07456 19.4492C5.18928 19.5727 5.34812 19.6786 5.51579 19.7316L9.95461 21.2318L8.61326 27.6297C8.39264 28.6621 9.71634 29.3152 10.4576 28.5563L19.3088 19.4756C19.8647 18.9373 19.6353 18.0372 18.9029 17.7901Z" fill="white"/>
<g clip-path="url(#clip0_1553_3446)">
<path d="M186.835 0C176.803 0 168.671 8.13168 168.671 18.1646C168.671 18.1767 168.671 18.1871 168.671 18.1992C168.671 18.2027 168.671 18.2044 168.671 18.2079V35.1333C168.671 35.7936 169.206 36.3291 169.867 36.3291H186.792C186.796 36.3291 186.797 36.3291 186.801 36.3291C186.813 36.3291 186.823 36.3291 186.835 36.3291C196.867 36.3291 205 28.1974 205 18.1646C205 8.13168 196.867 0 186.835 0Z" fill="#FFC632"/>
<path d="M191.463 18.4418C191.085 17.9756 190.629 17.5822 190.111 17.2737C190.05 17.2373 189.984 17.2061 189.922 17.1714C190.198 16.9097 190.445 16.6238 190.657 16.3101C191.182 15.5406 191.452 14.6376 191.449 13.6879C191.451 12.5718 191.168 11.525 190.601 10.6169C190.042 9.71218 189.248 8.99641 188.277 8.50248C187.298 8.00335 186.187 7.76245 184.985 7.76245H179.123C178.853 7.76245 178.581 7.80751 178.326 7.90803C178.071 8.00682 177.837 8.16106 177.643 8.34824L177.638 8.35344L177.643 8.34824C177.442 8.54234 177.279 8.78151 177.175 9.04321C177.069 9.3049 177.024 9.58393 177.024 9.86123V26.466C177.024 26.7398 177.073 27.0154 177.177 27.2719C177.281 27.5284 177.44 27.7624 177.634 27.9565C177.829 28.1506 178.061 28.31 178.319 28.414C178.576 28.518 178.853 28.5665 179.125 28.5665H185.503C186.823 28.5682 188.045 28.2961 189.128 27.7398C190.21 27.1887 191.082 26.3845 191.69 25.3707C192.302 24.3568 192.607 23.1957 192.605 21.953C192.605 21.2754 192.515 20.6376 192.326 20.0466C192.137 19.4556 191.848 18.9149 191.463 18.4418Z" fill="white"/>
<path fill-rule="evenodd" clip-rule="evenodd" d="M187.503 17.6219L185.04 16.7918L185.783 13.2459C185.903 12.6739 185.172 12.31 184.757 12.7329L179.849 17.7623C179.78 17.8334 179.731 17.9183 179.706 18.0119C179.68 18.1054 179.68 18.2025 179.702 18.2978C179.726 18.3914 179.773 18.4781 179.841 18.5491C179.908 18.6202 179.993 18.6756 180.087 18.7068L182.55 19.537L181.806 23.0829C181.685 23.6548 182.416 24.0188 182.83 23.5959L187.738 18.5647C188.04 18.2597 187.913 17.7588 187.503 17.6219Z" fill="#FFC632"/>
<path d="M196.227 15.7709C197.471 15.7709 198.48 14.7622 198.48 13.5179C198.48 12.2736 197.471 11.2649 196.227 11.2649C194.983 11.2649 193.974 12.2736 193.974 13.5179C193.974 14.7622 194.983 15.7709 196.227 15.7709Z" fill="white"/>
<path d="M196.227 24.4365C197.471 24.4365 198.48 23.4278 198.48 22.1834C198.48 20.9391 197.471 19.9304 196.227 19.9304C194.983 19.9304 193.974 20.9391 193.974 22.1834C193.974 23.4278 194.983 24.4365 196.227 24.4365Z" fill="white"/>
</g>
<defs>
<clipPath id="clip0_1553_3446">
<rect width="36.3291" height="36.3291" fill="white" transform="translate(168.671)"/>
</clipPath>
</defs>
</svg>
