<svg width="287" height="105" viewBox="0 0 287 105" fill="none" xmlns="http://www.w3.org/2000/svg">
<path d="M6.19867 17.57V18.29C6.19867 22.55 4.78867 27.08 0.828672 29.39L3.07867 32.39C7.51867 29.84 9.19867 24.05 9.19867 18.29V17.57H6.19867ZM6.97867 17.57V18.29C6.97867 23.96 8.68867 29.39 13.1887 31.73L15.3487 28.79C11.4187 26.69 9.97867 22.46 9.97867 18.29V17.57H6.97867ZM1.75867 14.57V17.78H14.3887V14.57H1.75867ZM6.19867 10.82V17.15H9.97867V10.82H6.19867ZM21.6187 9.89V37.67H25.3987V9.89H21.6187ZM18.2887 20.54V23.78H22.9087V20.54H18.2887ZM15.6487 10.31V36.41H19.3687V10.31H15.6487ZM30.4663 22.34V25.49H32.8363C38.6863 25.49 42.1963 25.43 46.0963 24.77L45.7063 21.68C41.8963 22.28 38.5663 22.34 32.8363 22.34H30.4663ZM30.4663 11.81V23.63H34.4263V14.96H43.8163V11.81H30.4663ZM33.1963 17.09V20.15H43.0063V17.09H33.1963ZM48.0163 9.92V26.69H52.0363V9.92H48.0163ZM42.6463 27.11C36.7663 27.11 33.1363 29.06 33.1363 32.39C33.1363 35.75 36.7663 37.67 42.6463 37.67C48.4963 37.67 52.1563 35.75 52.1563 32.39C52.1563 29.06 48.4963 27.11 42.6463 27.11ZM42.6463 30.17C46.2463 30.17 48.1663 30.89 48.1663 32.39C48.1663 33.92 46.2463 34.64 42.6463 34.64C39.0163 34.64 37.1263 33.92 37.1263 32.39C37.1263 30.89 39.0163 30.17 42.6463 30.17ZM69.104 11.27C63.254 11.27 58.724 14.48 58.724 19.31C58.724 24.17 63.254 27.35 69.104 27.35C74.954 27.35 79.484 24.17 79.484 19.31C79.484 14.48 74.954 11.27 69.104 11.27ZM69.104 14.51C72.884 14.51 75.584 16.31 75.584 19.31C75.584 22.28 72.884 24.08 69.104 24.08C65.324 24.08 62.624 22.28 62.624 19.31C62.624 16.31 65.324 14.51 69.104 14.51ZM56.564 31.07V34.34H81.704V31.07H56.564ZM84.1616 31.37V34.61H109.302V31.37H84.1616ZM94.6916 26.12V32.69H98.6816V26.12H94.6916ZM86.9816 11.69V14.84H102.522V17.81H87.0416V25.61H91.0016V20.93H106.482V11.69H86.9816ZM87.0416 24.02V27.23H107.112V24.02H87.0416ZM139.166 13.49V16.76H143.966V13.49H139.166ZM139.166 19.52V22.79H143.966V19.52H139.166ZM136.406 9.89V26.27H140.396V9.89H136.406ZM121.856 27.41V30.59H136.406V37.67H140.396V27.41H121.856ZM126.266 11.39C121.976 11.39 118.706 14.24 118.706 18.2C118.706 22.16 121.976 24.98 126.266 24.98C130.556 24.98 133.826 22.16 133.826 18.2C133.826 14.24 130.556 11.39 126.266 11.39ZM126.266 14.78C128.366 14.78 129.926 16.01 129.926 18.2C129.926 20.39 128.366 21.65 126.266 21.65C124.166 21.65 122.606 20.39 122.606 18.2C122.606 16.01 124.166 14.78 126.266 14.78ZM146.124 23.36V26.54H171.264V23.36H146.124ZM156.654 19.76V24.74H160.614V19.76H156.654ZM156.594 10.37V11.21C156.594 14.33 153.624 17.51 147.384 18.26L148.854 21.38C155.934 20.36 160.014 16.34 160.014 11.21V10.37H156.594ZM157.254 10.37V11.21C157.254 16.46 161.334 20.33 168.414 21.38L169.884 18.26C163.584 17.51 160.674 14.45 160.674 11.21V10.37H157.254ZM148.914 28.49V31.61H164.214V37.67H168.204V28.49H148.914ZM179.841 12.47V14.24C179.841 17.57 177.861 20.93 173.241 22.34L175.191 25.49C180.591 23.84 183.081 19.31 183.081 14.24V12.47H179.841ZM180.621 12.47V14.21C180.621 19.01 183.111 23.36 188.421 24.89L190.281 21.8C185.781 20.48 183.891 17.3 183.891 14.21V12.47H180.621ZM174.291 11.39V14.57H189.321V11.39H174.291ZM191.601 9.89V25.22H195.591V9.89H191.601ZM194.481 15.77V19.04H199.281V15.77H194.481ZM177.441 26.33V37.37H195.591V26.33H191.631V28.79H181.401V26.33H177.441ZM181.401 31.85H191.631V34.22H181.401V31.85ZM220.459 9.89V37.67H224.479V9.89H220.459ZM212.269 12.77V13.49C212.269 20.93 209.389 25.97 201.409 29.81L203.479 32.99C213.349 28.22 216.229 21.26 216.229 12.77H212.269ZM202.879 12.77V15.92H214.159V12.77H202.879Z" fill="black"/>
<path d="M7.44667 64.946V66.188H10.5607V64.946H7.44667ZM4.40467 60.662V63.758C4.40467 66.548 3.07267 69.464 0.840672 70.778L1.77667 71.912C4.15267 70.454 5.57467 67.16 5.57467 63.758V60.662H4.40467ZM4.69267 60.662V63.704C4.69267 66.872 6.00667 70.112 8.34667 71.552L9.21067 70.382C7.06867 69.086 5.84467 66.314 5.84467 63.704V60.662H4.69267ZM13.4227 59.132V75.404H14.8627V59.132H13.4227ZM10.1287 59.474V74.594H11.5327V59.474H10.1287ZM17.5793 68.762V69.986H32.3393V68.762H17.5793ZM24.1673 69.338V75.404H25.6433V69.338H24.1673ZM19.4333 59.78V66.818H30.4493V59.78H28.9733V62.012H20.9273V59.78H19.4333ZM20.9273 63.218H28.9733V65.612H20.9273V63.218ZM42.7353 59.726C40.3233 59.726 38.5413 61.202 38.5413 63.344C38.5413 65.468 40.3233 66.944 42.7353 66.944C45.1653 66.944 46.9473 65.468 46.9473 63.344C46.9473 61.202 45.1653 59.726 42.7353 59.726ZM42.7353 60.95C44.3193 60.95 45.4893 61.94 45.4893 63.344C45.4893 64.748 44.3193 65.72 42.7353 65.72C41.1693 65.72 39.9813 64.748 39.9813 63.344C39.9813 61.94 41.1693 60.95 42.7353 60.95ZM50.0073 59.132V67.466H51.5193V59.132H50.0073ZM40.9893 68.258V69.464H50.0433V71.102H41.0253V74.666H42.4833V72.218H51.5193V68.258H40.9893ZM41.0253 74V75.188H52.0593V74H41.0253ZM63.4158 63.344V64.586H67.0878V63.344H63.4158ZM66.6198 59.132V68.834H68.1138V59.132H66.6198ZM62.7678 69.32C59.4018 69.32 57.3318 70.454 57.3318 72.362C57.3318 74.288 59.4018 75.386 62.7678 75.386C66.1158 75.386 68.1858 74.288 68.1858 72.362C68.1858 70.454 66.1158 69.32 62.7678 69.32ZM62.7678 70.49C65.2158 70.49 66.7098 71.174 66.7098 72.362C66.7098 73.532 65.2158 74.216 62.7678 74.216C60.3198 74.216 58.8258 73.532 58.8258 72.362C58.8258 71.174 60.3198 70.49 62.7678 70.49ZM58.8798 60.77V62.084C58.8798 64.424 57.2058 66.602 54.7938 67.484L55.5678 68.672C58.2678 67.664 60.1038 65.09 60.1038 62.084V60.77H58.8798ZM59.1678 60.77V62.084C59.1678 64.82 60.9138 67.268 63.5598 68.222L64.3158 67.034C61.9578 66.206 60.3738 64.19 60.3738 62.084V60.77H59.1678ZM55.2438 60.32V61.544H63.9378V60.32H55.2438ZM71.2804 67.682V68.906H85.9864V67.682H71.2804ZM73.1884 73.82V75.044H84.3664V73.82H73.1884ZM73.1884 70.328V74.198H74.6824V70.328H73.1884ZM78.6424 59.672C75.1504 59.672 72.9184 60.896 72.9184 62.93C72.9184 64.946 75.1504 66.17 78.6424 66.17C82.1164 66.17 84.3664 64.946 84.3664 62.93C84.3664 60.896 82.1164 59.672 78.6424 59.672ZM78.6424 60.896C81.1984 60.896 82.8364 61.652 82.8364 62.93C82.8364 64.208 81.1984 64.964 78.6424 64.964C76.0864 64.964 74.4484 64.208 74.4484 62.93C74.4484 61.652 76.0864 60.896 78.6424 60.896ZM95.1944 63.29V64.136C95.1944 66.782 93.9344 69.608 91.7204 70.904L92.6204 72.038C94.9964 70.616 96.3464 67.358 96.3464 64.136V63.29H95.1944ZM95.4644 63.29V64.136C95.4644 67.268 96.8684 70.346 99.2624 71.678L100.108 70.562C97.9304 69.374 96.6164 66.71 96.6164 64.136V63.29H95.4644ZM92.1344 62.156V63.38H99.6764V62.156H92.1344ZM95.1944 59.708V63.074H96.6344V59.708H95.1944ZM104.32 59.132V75.404H105.742V59.132H104.32ZM101.746 65.684V66.944H104.878V65.684H101.746ZM100.774 59.474V74.594H102.178V59.474H100.774ZM109.377 66.854V68.06H110.691C114.237 68.06 116.217 68.006 118.575 67.592L118.413 66.404C116.127 66.782 114.201 66.854 110.691 66.854H109.377ZM109.377 60.32V67.466H110.853V61.526H117.117V60.32H109.377ZM110.367 63.542V64.73H116.667V63.542H110.367ZM120.267 59.15V69.212H121.779V59.15H120.267ZM116.397 69.446C112.995 69.446 110.925 70.526 110.925 72.398C110.925 74.288 112.995 75.368 116.397 75.368C119.781 75.368 121.851 74.288 121.851 72.398C121.851 70.526 119.781 69.446 116.397 69.446ZM116.397 70.634C118.863 70.634 120.357 71.282 120.357 72.398C120.357 73.55 118.863 74.198 116.397 74.198C113.913 74.198 112.419 73.55 112.419 72.398C112.419 71.282 113.913 70.634 116.397 70.634ZM132.344 60.158C128.96 60.158 126.422 61.958 126.422 64.658C126.422 67.376 128.96 69.158 132.344 69.158C135.728 69.158 138.248 67.376 138.248 64.658C138.248 61.958 135.728 60.158 132.344 60.158ZM132.344 61.382C134.918 61.382 136.826 62.696 136.826 64.658C136.826 66.602 134.918 67.934 132.344 67.934C129.77 67.934 127.862 66.602 127.862 64.658C127.862 62.696 129.77 61.382 132.344 61.382ZM125 72.002V73.262H139.742V72.002H125ZM141.558 72.164V73.406H156.3V72.164H141.558ZM148.146 68.672V72.686H149.64V68.672H148.146ZM143.34 60.338V61.544H153.006V64.064H143.394V68.528H144.87V65.27H154.482V60.338H143.34ZM143.394 67.898V69.122H154.86V67.898H143.394ZM170.818 63.344V64.586H174.49V63.344H170.818ZM174.022 59.132V68.834H175.516V59.132H174.022ZM170.17 69.32C166.804 69.32 164.734 70.454 164.734 72.362C164.734 74.288 166.804 75.386 170.17 75.386C173.518 75.386 175.588 74.288 175.588 72.362C175.588 70.454 173.518 69.32 170.17 69.32ZM170.17 70.49C172.618 70.49 174.112 71.174 174.112 72.362C174.112 73.532 172.618 74.216 170.17 74.216C167.722 74.216 166.228 73.532 166.228 72.362C166.228 71.174 167.722 70.49 170.17 70.49ZM166.282 60.77V62.084C166.282 64.424 164.608 66.602 162.196 67.484L162.97 68.672C165.67 67.664 167.506 65.09 167.506 62.084V60.77H166.282ZM166.57 60.77V62.084C166.57 64.82 168.316 67.268 170.962 68.222L171.718 67.034C169.36 66.206 167.776 64.19 167.776 62.084V60.77H166.57ZM162.646 60.32V61.544H171.34V60.32H162.646ZM189.717 59.132V75.404H191.211V59.132H189.717ZM190.851 65.81V67.07H193.875V65.81H190.851ZM178.611 61.724V62.948H188.205V61.724H178.611ZM183.471 64.298C181.185 64.298 179.511 65.846 179.511 68.042C179.511 70.238 181.185 71.786 183.471 71.786C185.775 71.786 187.431 70.238 187.431 68.042C187.431 65.846 185.775 64.298 183.471 64.298ZM183.471 65.54C184.947 65.54 186.009 66.566 186.009 68.042C186.009 69.5 184.947 70.544 183.471 70.544C181.995 70.544 180.933 69.5 180.933 68.042C180.933 66.566 181.995 65.54 183.471 65.54ZM182.697 59.33V62.282H184.191V59.33H182.697ZM201.667 64.946V66.188H204.781V64.946H201.667ZM198.625 60.662V63.758C198.625 66.548 197.293 69.464 195.061 70.778L195.997 71.912C198.373 70.454 199.795 67.16 199.795 63.758V60.662H198.625ZM198.913 60.662V63.704C198.913 66.872 200.227 70.112 202.567 71.552L203.431 70.382C201.289 69.086 200.065 66.314 200.065 63.704V60.662H198.913ZM207.643 59.132V75.404H209.083V59.132H207.643ZM204.349 59.474V74.594H205.753V59.474H204.349ZM215.418 67.502V72.38H216.894V67.502H215.418ZM221.43 67.502V72.38H222.924V67.502H221.43ZM211.818 72.092V73.334H226.56V72.092H211.818ZM219.162 60.158C215.706 60.158 213.24 61.796 213.24 64.352C213.24 66.89 215.706 68.528 219.162 68.528C222.6 68.528 225.066 66.89 225.066 64.352C225.066 61.796 222.6 60.158 219.162 60.158ZM219.162 61.346C221.772 61.346 223.626 62.534 223.626 64.352C223.626 66.152 221.772 67.34 219.162 67.34C216.552 67.34 214.68 66.152 214.68 64.352C214.68 62.534 216.552 61.346 219.162 61.346ZM229.817 70.022H230.933L231.167 62.408L231.203 60.518H229.547L229.583 62.408L229.817 70.022ZM230.357 74.252C231.023 74.252 231.563 73.73 231.563 72.992C231.563 72.236 231.023 71.732 230.357 71.732C229.709 71.732 229.187 72.236 229.187 72.992C229.187 73.73 229.709 74.252 230.357 74.252ZM241.917 63.272V64.514H246.525V63.272H241.917ZM246.075 59.132V68.978H247.569V59.132H246.075ZM242.223 69.302C238.857 69.302 236.787 70.436 236.787 72.344C236.787 74.27 238.857 75.368 242.223 75.368C245.571 75.368 247.641 74.27 247.641 72.344C247.641 70.436 245.571 69.302 242.223 69.302ZM242.223 70.49C244.671 70.49 246.165 71.156 246.165 72.344C246.165 73.514 244.671 74.198 242.223 74.198C239.775 74.198 238.281 73.514 238.281 72.344C238.281 71.156 239.775 70.49 242.223 70.49ZM234.987 60.122V67.79H242.331V60.122H240.873V62.714H236.463V60.122H234.987ZM236.463 63.92H240.873V66.584H236.463V63.92ZM252.626 59.816V61.022H263.102V59.816H252.626ZM250.754 65.18V66.404H265.496V65.18H250.754ZM262.13 59.816V60.86C262.13 62.012 262.13 63.416 261.698 65.396L263.156 65.558C263.588 63.542 263.588 62.03 263.588 60.86V59.816H262.13ZM252.482 68.006V69.212H262.166V70.994H252.518V74.414H254.012V72.146H263.642V68.006H252.482ZM252.518 74.018V75.224H264.056V74.018H252.518ZM268.032 60.914V62.12H275.394V60.914H268.032ZM270.57 65.558V71.066H272.046V65.558H270.57ZM274.782 60.914V61.778C274.782 63.092 274.782 65.18 274.296 68.114L275.772 68.258C276.24 65.234 276.24 63.11 276.24 61.778V60.914H274.782ZM278.292 59.132V75.404H279.768V59.132H278.292ZM279.372 65.936V67.196H282.378V65.936H279.372ZM267.312 71.858C270.192 71.84 274.008 71.768 277.374 71.228L277.302 70.13C274.008 70.544 270.084 70.598 267.132 70.598L267.312 71.858ZM4.35067 89.29V90.136C4.35067 92.782 3.09067 95.608 0.876672 96.904L1.77667 98.038C4.15267 96.616 5.50267 93.358 5.50267 90.136V89.29H4.35067ZM4.62067 89.29V90.136C4.62067 93.268 6.02467 96.346 8.41867 97.678L9.26467 96.562C7.08667 95.374 5.77267 92.71 5.77267 90.136V89.29H4.62067ZM1.29067 88.156V89.38H8.83267V88.156H1.29067ZM4.35067 85.708V89.074H5.79067V85.708H4.35067ZM13.4767 85.132V101.404H14.8987V85.132H13.4767ZM10.9027 91.684V92.944H14.0347V91.684H10.9027ZM9.93067 85.474V100.594H11.3347V85.474H9.93067ZM18.5333 92.854V94.06H19.8473C23.3933 94.06 25.3733 94.006 27.7313 93.592L27.5693 92.404C25.2833 92.782 23.3573 92.854 19.8473 92.854H18.5333ZM18.5333 86.32V93.466H20.0093V87.526H26.2733V86.32H18.5333ZM19.5233 89.542V90.73H25.8233V89.542H19.5233ZM29.4233 85.15V95.212H30.9353V85.15H29.4233ZM25.5533 95.446C22.1513 95.446 20.0813 96.526 20.0813 98.398C20.0813 100.288 22.1513 101.368 25.5533 101.368C28.9373 101.368 31.0073 100.288 31.0073 98.398C31.0073 96.526 28.9373 95.446 25.5533 95.446ZM25.5533 96.634C28.0193 96.634 29.5133 97.282 29.5133 98.398C29.5133 99.55 28.0193 100.198 25.5533 100.198C23.0693 100.198 21.5753 99.55 21.5753 98.398C21.5753 97.282 23.0693 96.634 25.5533 96.634ZM41.5899 95.338C38.2779 95.338 36.2439 96.454 36.2439 98.362C36.2439 100.27 38.2779 101.386 41.5899 101.386C44.9019 101.386 46.9359 100.27 46.9359 98.362C46.9359 96.454 44.9019 95.338 41.5899 95.338ZM41.5899 96.544C44.0019 96.544 45.4779 97.21 45.4779 98.362C45.4779 99.532 44.0019 100.198 41.5899 100.198C39.1779 100.198 37.7019 99.532 37.7019 98.362C37.7019 97.21 39.1779 96.544 41.5899 96.544ZM45.2799 85.132V94.906H46.7739V85.132H45.2799ZM46.3599 89.218V90.478H49.1859V89.218H46.3599ZM34.8219 86.158V93.664H42.3459V86.158H40.8879V88.588H36.2979V86.158H34.8219ZM36.2979 89.776H40.8879V92.458H36.2979V89.776ZM50.6965 93.682V94.906H65.4025V93.682H50.6965ZM52.6045 99.82V101.044H63.7825V99.82H52.6045ZM52.6045 96.328V100.198H54.0985V96.328H52.6045ZM58.0585 85.672C54.5665 85.672 52.3345 86.896 52.3345 88.93C52.3345 90.946 54.5665 92.17 58.0585 92.17C61.5325 92.17 63.7825 90.946 63.7825 88.93C63.7825 86.896 61.5325 85.672 58.0585 85.672ZM58.0585 86.896C60.6145 86.896 62.2525 87.652 62.2525 88.93C62.2525 90.208 60.6145 90.964 58.0585 90.964C55.5025 90.964 53.8645 90.208 53.8645 88.93C53.8645 87.652 55.5025 86.896 58.0585 86.896ZM71.1904 100H79.4704V98.596H75.8164C75.1504 98.596 74.3584 98.65 73.6564 98.722C76.7704 95.788 78.8404 93.106 78.8404 90.46C78.8404 88.102 77.3644 86.572 75.0064 86.572C73.3324 86.572 72.1804 87.346 71.1004 88.516L72.0544 89.434C72.7924 88.57 73.7284 87.904 74.8084 87.904C76.4464 87.904 77.2204 89.02 77.2204 90.532C77.2204 92.782 75.3304 95.428 71.1904 99.046V100ZM86.4848 100H88.0328V86.806H86.2148L80.7248 95.284V96.364H89.7968V95.068H82.4528L85.4588 90.568C85.8188 89.92 86.1788 89.254 86.5028 88.606H86.5928C86.5388 89.29 86.4848 90.352 86.4848 91.018V100ZM95.5512 86.536V89.452C95.5512 92.53 93.5892 95.644 91.1772 96.796L92.0952 98.02C94.7592 96.67 96.7752 93.196 96.7752 89.452V86.536H95.5512ZM95.8032 86.536V89.452C95.8032 93.07 97.8372 96.418 100.483 97.714L101.383 96.526C98.9712 95.41 97.0272 92.422 97.0272 89.452V86.536H95.8032ZM103.075 85.114V101.422H104.569V85.114H103.075ZM118.95 85.132V97.03H120.444V85.132H118.95ZM119.976 90.064V91.306H122.856V90.064H119.976ZM114.504 86.392V87.04C114.504 90.172 111.93 92.692 107.826 93.952L108.474 95.176C113.136 93.682 116.088 90.604 116.088 86.392H114.504ZM108.492 86.392V87.616H115.26V86.392H108.492ZM110.292 99.82V101.044H121.164V99.82H110.292ZM110.292 95.824V100.306H111.786V95.824H110.292ZM136.192 85.114V101.422H137.686V85.114H136.192ZM129.1 86.374C126.706 86.374 124.978 88.588 124.978 92.044C124.978 95.518 126.706 97.732 129.1 97.732C131.512 97.732 133.24 95.518 133.24 92.044C133.24 88.588 131.512 86.374 129.1 86.374ZM129.1 87.724C130.702 87.724 131.8 89.416 131.8 92.044C131.8 94.69 130.702 96.418 129.1 96.418C127.516 96.418 126.4 94.69 126.4 92.044C126.4 89.416 127.516 87.724 129.1 87.724ZM149.27 87.454V90.1C149.27 92.908 147.308 95.968 144.95 97.084L145.814 98.272C148.406 96.994 150.476 93.538 150.476 90.1V87.454H149.27ZM149.558 87.454V90.1C149.558 93.484 151.646 96.652 154.274 97.876L155.12 96.688C152.726 95.662 150.764 92.854 150.764 90.1V87.454H149.558ZM145.49 86.788V88.048H154.58V86.788H145.49ZM156.776 85.132V101.404H158.27V85.132H156.776ZM173.623 91.612V92.872H176.629V91.612H173.623ZM172.525 85.114V101.404H174.037V85.114H172.525ZM162.157 86.716V96.796H163.651V86.716H162.157ZM162.157 96.022V97.282H163.453C165.919 97.282 168.421 97.12 171.193 96.544L171.013 95.302C168.331 95.86 165.865 96.022 163.453 96.022H162.157ZM185.88 87.994V89.218H190.434V87.994H185.88ZM185.88 91.468V92.71H190.47V91.468H185.88ZM178.824 86.536V94.168H186.258V86.536H178.824ZM184.782 87.742V92.962H180.282V87.742H184.782ZM189.966 85.15V97.03H191.46V85.15H189.966ZM181.002 99.82V101.044H191.856V99.82H181.002ZM181.002 95.95V100.378H182.496V95.95H181.002ZM202.648 86.536V89.452C202.648 92.422 200.794 95.554 198.436 96.742L199.354 97.93C201.928 96.562 203.872 93.052 203.872 89.452V86.536H202.648ZM202.918 86.536V89.452C202.918 92.944 204.808 96.274 207.328 97.624L208.246 96.436C205.942 95.284 204.124 92.314 204.124 89.452V86.536H202.918ZM209.668 85.132V101.404H211.18V85.132H209.668ZM210.82 91.72V92.98H213.844V91.72H210.82ZM226.244 85.114V101.422H227.738V85.114H226.244ZM227.378 91.594V92.854H230.402V91.594H227.378ZM215.876 96.256V97.498H217.172C220.286 97.498 222.446 97.372 224.984 96.922L224.822 95.68C222.356 96.148 220.232 96.256 217.172 96.256H215.876ZM215.84 86.644V87.868H221.726V91.252H215.876V96.76H217.352V92.476H223.202V86.644H215.84ZM243.685 85.132V101.404H245.161V85.132H243.685ZM235.909 87.454V89.884C235.909 92.8 233.983 95.95 231.661 97.12L232.651 98.254C235.099 96.904 237.097 93.43 237.097 89.884V87.454H235.909ZM236.215 87.454V89.884C236.215 93.088 238.231 96.562 240.733 97.876L241.597 96.706C239.293 95.518 237.403 92.458 237.403 89.884V87.454H236.215ZM232.255 86.788V88.03H241.039V86.788H232.255ZM240.427 89.704V90.946H244.639V89.704H240.427ZM240.427 93.178V94.438H244.639V93.178H240.427ZM251.945 93.502V98.38H253.421V93.502H251.945ZM257.957 93.502V98.38H259.451V93.502H257.957ZM248.345 98.092V99.334H263.087V98.092H248.345ZM255.689 86.158C252.233 86.158 249.767 87.796 249.767 90.352C249.767 92.89 252.233 94.528 255.689 94.528C259.127 94.528 261.593 92.89 261.593 90.352C261.593 87.796 259.127 86.158 255.689 86.158ZM255.689 87.346C258.299 87.346 260.153 88.534 260.153 90.352C260.153 92.152 258.299 93.34 255.689 93.34C253.079 93.34 251.207 92.152 251.207 90.352C251.207 88.534 253.079 87.346 255.689 87.346ZM266.344 96.022H267.46L267.694 88.408L267.73 86.518H266.074L266.11 88.408L266.344 96.022ZM266.884 100.252C267.55 100.252 268.09 99.73 268.09 98.992C268.09 98.236 267.55 97.732 266.884 97.732C266.236 97.732 265.714 98.236 265.714 98.992C265.714 99.73 266.236 100.252 266.884 100.252Z" fill="#545454"/>
</svg>
