<svg width="256" height="29" viewBox="0 0 256 29" fill="none" xmlns="http://www.w3.org/2000/svg">
<path d="M5.748 2.848V3.676H8.82V2.848H5.748ZM8.52 0.0879996V6.652H9.516V0.0879996H8.52ZM5.952 6.868C3.708 6.868 2.328 7.624 2.328 8.896C2.328 10.18 3.708 10.912 5.952 10.912C8.184 10.912 9.564 10.18 9.564 8.896C9.564 7.624 8.184 6.868 5.952 6.868ZM5.952 7.66C7.584 7.66 8.58 8.104 8.58 8.896C8.58 9.676 7.584 10.132 5.952 10.132C4.32 10.132 3.324 9.676 3.324 8.896C3.324 8.104 4.32 7.66 5.952 7.66ZM1.128 0.748V5.86H6.024V0.748H5.052V2.476H2.112V0.748H1.128ZM2.112 3.28H5.052V5.056H2.112V3.28ZM12.8871 0.543999V1.348H19.8711V0.543999H12.8871ZM11.6391 4.12V4.936H21.4671V4.12H11.6391ZM19.2231 0.543999V1.24C19.2231 2.008 19.2231 2.944 18.9351 4.264L19.9071 4.372C20.1951 3.028 20.1951 2.02 20.1951 1.24V0.543999H19.2231ZM12.7911 6.004V6.808H19.2471V7.996H12.8151V10.276H13.8111V8.764H20.2311V6.004H12.7911ZM12.8151 10.012V10.816H20.5071V10.012H12.8151ZM27.5741 0.267999C25.1741 0.267999 23.7581 0.939999 23.7581 2.152C23.7581 3.364 25.1741 4.036 27.5741 4.036C29.9621 4.036 31.3901 3.364 31.3901 2.152C31.3901 0.939999 29.9621 0.267999 27.5741 0.267999ZM27.5741 1.024C29.3381 1.024 30.3581 1.432 30.3581 2.152C30.3581 2.872 29.3381 3.28 27.5741 3.28C25.7981 3.28 24.7781 2.872 24.7781 2.152C24.7781 1.432 25.7981 1.024 27.5741 1.024ZM22.6661 4.756V5.56H32.4701V4.756H22.6661ZM23.8541 6.484V7.252H30.2381V8.212H23.8781V10.252H24.8621V8.932H31.2221V6.484H23.8541ZM23.8781 10.036V10.816H31.5461V10.036H23.8781ZM37.6968 0.52V4.852H44.9208V0.52H43.9248V1.876H38.6808V0.52H37.6968ZM38.6808 2.668H43.9248V4.048H38.6808V2.668ZM36.3888 6.004V6.82H46.1928V6.004H36.3888ZM40.8048 4.384V6.364H41.7888V4.384H40.8048ZM37.6608 9.88V10.696H45.1128V9.88H37.6608ZM37.6608 7.696V10.156H38.6568V7.696H37.6608ZM52.0598 0.819999V1.252C52.0598 3.268 50.3798 4.864 47.5958 5.632L47.9918 6.412C51.1478 5.548 53.1038 3.58 53.1038 0.819999H52.0598ZM48.1478 0.819999V1.624H52.6718V0.819999H48.1478ZM49.1198 7.048V7.852H55.3598V10.912H56.3558V7.048H49.1198ZM55.3598 0.0879996V6.556H56.3558V0.0879996H55.3598ZM52.6598 2.02V2.836H55.5638V2.02H52.6598ZM52.5518 4.324V5.14H55.4918V4.324H52.5518ZM61.2389 1.192V2.068C61.2389 3.604 60.1229 5.044 58.5029 5.62L59.0189 6.412C60.8309 5.74 62.0549 4.048 62.0549 2.068V1.192H61.2389ZM61.4309 1.192V2.068C61.4309 3.88 62.5949 5.512 64.3589 6.16L64.8629 5.368C63.2909 4.816 62.2349 3.46 62.2349 2.068V1.192H61.4309ZM64.2749 2.908V3.736H66.6869V2.908H64.2749ZM58.8149 0.831999V1.636H64.6109V0.831999H58.8149ZM60.1589 7.168V7.984H66.3989V10.936H67.3949V7.168H60.1589ZM66.3989 0.0879996V6.58H67.3949V0.0879996H66.3989ZM74.414 0.771999C72.158 0.771999 70.466 1.972 70.466 3.772C70.466 5.584 72.158 6.772 74.414 6.772C76.67 6.772 78.35 5.584 78.35 3.772C78.35 1.972 76.67 0.771999 74.414 0.771999ZM74.414 1.588C76.13 1.588 77.402 2.464 77.402 3.772C77.402 5.068 76.13 5.956 74.414 5.956C72.698 5.956 71.426 5.068 71.426 3.772C71.426 2.464 72.698 1.588 74.414 1.588ZM69.518 8.668V9.508H79.346V8.668H69.518ZM80.557 8.776V9.604H90.385V8.776H80.557ZM84.949 6.448V9.124H85.945V6.448H84.949ZM81.745 0.891999V1.696H88.189V3.376H81.781V6.352H82.765V4.18H89.173V0.891999H81.745ZM81.781 5.932V6.748H89.425V5.932H81.781ZM94.2677 4.708V5.512H104.072V4.708H94.2677ZM95.4557 6.484V7.252H101.84V8.236H95.4797V10.288H96.4637V8.968H102.824V6.484H95.4557ZM95.4797 10.048V10.816H103.148V10.048H95.4797ZM98.5997 0.831999V1.18C98.5997 2.344 96.7997 3.22 94.7957 3.4L95.1197 4.156C97.4357 3.94 99.4757 2.848 99.4757 1.18V0.831999H98.5997ZM98.8877 0.831999V1.18C98.8877 2.848 100.928 3.94 103.232 4.156L103.556 3.4C101.552 3.22 99.7517 2.344 99.7517 1.18V0.831999H98.8877ZM95.1677 0.495999V1.288H103.196V0.495999H95.1677ZM113.215 0.0879996V10.936H114.211V0.0879996H113.215ZM110.035 1.252V1.42C110.035 4.3 108.583 6.604 105.451 8.116L105.979 8.92C109.603 7.144 111.019 4.396 111.019 1.252H110.035ZM105.943 1.252V2.068H110.467V1.252H105.943ZM124.254 0.0879996V10.936H125.25V0.0879996H124.254ZM121.074 1.252V1.42C121.074 4.3 119.622 6.604 116.49 8.116L117.018 8.92C120.642 7.144 122.058 4.396 122.058 1.252H121.074ZM116.982 1.252V2.068H121.506V1.252H116.982ZM133.62 0.592C132.012 0.592 130.86 1.492 130.86 2.824C130.86 4.144 132.012 5.068 133.62 5.068C135.24 5.068 136.392 4.144 136.392 2.824C136.392 1.492 135.24 0.592 133.62 0.592ZM133.62 1.42C134.676 1.42 135.432 1.996 135.432 2.824C135.432 3.664 134.676 4.228 133.62 4.228C132.564 4.228 131.808 3.664 131.808 2.824C131.808 1.996 132.564 1.42 133.62 1.42ZM133.176 6.268V10.6H134.172V6.268H133.176ZM137.976 0.0879996V10.948H138.96V0.0879996H137.976ZM130.188 6.808C132.168 6.808 134.832 6.772 137.28 6.328L137.208 5.584C134.82 5.944 132.072 5.968 130.056 5.968L130.188 6.808ZM141.096 1.936V2.752H146.472V1.936H141.096ZM143.784 3.472C142.44 3.472 141.456 4.492 141.456 5.956C141.456 7.408 142.44 8.428 143.784 8.428C145.14 8.428 146.124 7.408 146.124 5.956C146.124 4.492 145.14 3.472 143.784 3.472ZM143.784 4.324C144.624 4.324 145.236 4.996 145.236 5.956C145.236 6.916 144.624 7.588 143.784 7.588C142.956 7.588 142.356 6.916 142.356 5.956C142.356 4.996 142.956 4.324 143.784 4.324ZM149.34 0.0879996V10.936H150.3V0.0879996H149.34ZM147.612 4.648V5.476H149.664V4.648H147.612ZM147.024 0.327999V10.408H147.96V0.327999H147.024ZM143.304 0.4V2.44H144.288V0.4H143.304ZM157.571 3.76V4.576H160.595V3.76H157.571ZM154.955 1.024V2.956C154.955 4.972 153.731 7.06 152.135 7.852L152.771 8.644C154.487 7.72 155.771 5.392 155.771 2.956V1.024H154.955ZM155.147 1.024V2.956C155.147 5.332 156.407 7.564 158.159 8.452L158.747 7.648C157.175 6.904 155.951 4.936 155.951 2.956V1.024H155.147ZM160.103 0.0759997V10.948H161.087V0.0759997H160.103ZM164.518 3.34V4.156H171.886V3.34H164.518ZM163.186 5.608V6.424H173.026V5.608H163.186ZM164.518 0.483999V3.748H165.502V0.483999H164.518ZM164.446 9.856V10.672H171.946V9.856H164.446ZM164.446 7.504V10.072H165.43V7.504H164.446ZM180.46 0.592C178.852 0.592 177.7 1.492 177.7 2.824C177.7 4.144 178.852 5.068 180.46 5.068C182.08 5.068 183.232 4.144 183.232 2.824C183.232 1.492 182.08 0.592 180.46 0.592ZM180.46 1.42C181.516 1.42 182.272 1.996 182.272 2.824C182.272 3.664 181.516 4.228 180.46 4.228C179.404 4.228 178.648 3.664 178.648 2.824C178.648 1.996 179.404 1.42 180.46 1.42ZM180.016 6.268V10.6H181.012V6.268H180.016ZM184.816 0.0879996V10.948H185.8V0.0879996H184.816ZM177.028 6.808C179.008 6.808 181.672 6.772 184.12 6.328L184.048 5.584C181.66 5.944 178.912 5.968 176.896 5.968L177.028 6.808ZM195.843 0.0879996V10.936H196.839V0.0879996H195.843ZM190.959 2.668V3.592C190.959 5.488 189.759 7.336 188.151 8.08L188.715 8.848C190.455 8.008 191.763 5.908 191.763 3.592V2.668H190.959ZM191.151 2.668V3.592C191.151 5.836 192.483 7.864 194.235 8.656L194.799 7.876C193.179 7.168 191.943 5.404 191.943 3.592V2.668H191.151ZM188.451 1.972V2.776H194.427V1.972H188.451ZM190.959 0.279999V2.416H191.955V0.279999H190.959ZM206.894 0.0879996V10.936H207.89V0.0879996H206.894ZM203.714 1.252V1.42C203.714 4.3 202.262 6.604 199.13 8.116L199.658 8.92C203.282 7.144 204.698 4.396 204.698 1.252H203.714ZM199.622 1.252V2.068H204.146V1.252H199.622ZM217.454 0.0999994V8.056H218.45V0.0999994H217.454ZM218.138 3.376V4.204H220.058V3.376H218.138ZM211.694 9.88V10.696H218.942V9.88H211.694ZM211.694 7.288V10.072H212.69V7.288H211.694ZM210.482 0.868V6.244H215.497V0.868H214.526V2.68H211.466V0.868H210.482ZM211.466 3.46H214.526V5.44H211.466V3.46ZM229.172 3.76V4.576H232.196V3.76H229.172ZM226.556 1.024V2.956C226.556 4.972 225.332 7.06 223.736 7.852L224.372 8.644C226.088 7.72 227.372 5.392 227.372 2.956V1.024H226.556ZM226.748 1.024V2.956C226.748 5.332 228.008 7.564 229.76 8.452L230.348 7.648C228.776 6.904 227.552 4.936 227.552 2.956V1.024H226.748ZM231.704 0.0759997V10.948H232.688V0.0759997H231.704ZM242.671 0.0759997V10.948H243.667V0.0759997H242.671ZM235.411 0.999999V8.332H240.523V0.999999H239.527V3.868H236.395V0.999999H235.411ZM236.395 4.66H239.527V7.516H236.395V4.66ZM250.182 0.831999V1.66C250.182 3.508 248.142 5.164 246.234 5.524L246.678 6.352C248.85 5.86 251.046 4.024 251.046 1.66V0.831999H250.182ZM250.362 0.831999V1.66C250.362 4.036 252.57 5.86 254.73 6.352L255.174 5.524C253.278 5.164 251.226 3.52 251.226 1.66V0.831999H250.362ZM245.838 8.656V9.472H255.666V8.656H245.838ZM8.472 18.076V28.948H9.468V18.076H8.472ZM3.744 18.916C2.148 18.916 0.996 20.392 0.996 22.696C0.996 25.012 2.148 26.488 3.744 26.488C5.352 26.488 6.504 25.012 6.504 22.696C6.504 20.392 5.352 18.916 3.744 18.916ZM3.744 19.816C4.812 19.816 5.544 20.944 5.544 22.696C5.544 24.46 4.812 25.612 3.744 25.612C2.688 25.612 1.944 24.46 1.944 22.696C1.944 20.944 2.688 19.816 3.744 19.816ZM14.0511 21.76V23.812H15.0351V21.76H14.0511ZM18.0351 21.76V23.812H19.0191V21.76H18.0351ZM11.6271 23.452V24.256H21.4311V23.452H11.6271ZM16.5231 25.072C14.1951 25.072 12.8031 25.756 12.8031 26.992C12.8031 28.228 14.1951 28.924 16.5231 28.924C18.8511 28.924 20.2431 28.228 20.2431 26.992C20.2431 25.756 18.8511 25.072 16.5231 25.072ZM16.5231 25.84C18.2271 25.84 19.2351 26.26 19.2351 26.992C19.2351 27.736 18.2271 28.144 16.5231 28.144C14.8311 28.144 13.8111 27.736 13.8111 26.992C13.8111 26.26 14.8311 25.84 16.5231 25.84ZM16.5351 18.28C14.1711 18.28 12.7191 19.036 12.7191 20.308C12.7191 21.568 14.1711 22.312 16.5351 22.312C18.8871 22.312 20.3511 21.568 20.3511 20.308C20.3511 19.036 18.8871 18.28 16.5351 18.28ZM16.5351 19.06C18.2631 19.06 19.3311 19.516 19.3311 20.308C19.3311 21.088 18.2631 21.544 16.5351 21.544C14.8071 21.544 13.7391 21.088 13.7391 20.308C13.7391 19.516 14.8071 19.06 16.5351 19.06ZM27.0701 22.3V23.128H29.1221V22.3H27.0701ZM30.9341 18.088V28.936H31.8941V18.088H30.9341ZM28.7861 18.316V28.396H29.7341V18.316H28.7861ZM25.1141 18.988C23.7101 18.988 22.8101 20.44 22.8101 22.768C22.8101 25.096 23.7101 26.548 25.1141 26.548C26.5181 26.548 27.4301 25.096 27.4301 22.768C27.4301 20.44 26.5181 18.988 25.1141 18.988ZM25.1141 19.912C25.9781 19.912 26.5181 21.016 26.5181 22.768C26.5181 24.52 25.9781 25.624 25.1141 25.624C24.2621 25.624 23.7221 24.52 23.7221 22.768C23.7221 21.016 24.2621 19.912 25.1141 19.912ZM36.4008 23.428V24.244H46.2048V23.428H36.4008ZM40.8048 21.688V23.764H41.7888V21.688H40.8048ZM37.6368 21.376V22.192H45.0648V21.376H37.6368ZM37.6368 18.58V21.856H38.6208V19.384H44.9808V18.58H37.6368ZM41.2848 25.024C38.9688 25.024 37.5648 25.732 37.5648 26.968C37.5648 28.228 38.9688 28.924 41.2848 28.924C43.6008 28.924 45.0048 28.228 45.0048 26.968C45.0048 25.732 43.6008 25.024 41.2848 25.024ZM41.2848 25.792C42.9888 25.792 43.9968 26.224 43.9968 26.968C43.9968 27.724 42.9888 28.144 41.2848 28.144C39.5928 28.144 38.5728 27.724 38.5728 26.968C38.5728 26.224 39.5928 25.792 41.2848 25.792ZM50.9558 18.868C49.2638 18.868 48.0398 19.912 48.0398 21.424C48.0398 22.948 49.2638 23.992 50.9558 23.992C52.6478 23.992 53.8598 22.948 53.8598 21.424C53.8598 19.912 52.6478 18.868 50.9558 18.868ZM50.9558 19.732C52.0718 19.732 52.8878 20.416 52.8878 21.424C52.8878 22.432 52.0718 23.128 50.9558 23.128C49.8278 23.128 49.0118 22.432 49.0118 21.424C49.0118 20.416 49.8278 19.732 50.9558 19.732ZM55.2758 18.076V28.948H56.2718V18.076H55.2758ZM47.6318 26.572C49.5638 26.572 52.2158 26.56 54.6518 26.092L54.5678 25.36C52.2038 25.732 49.4678 25.744 47.4878 25.744L47.6318 26.572ZM65.8229 18.088V28.936H66.8189V18.088H65.8229ZM66.5789 22.54V23.38H68.5949V22.54H66.5789ZM58.4189 19.816V20.632H64.8149V19.816H58.4189ZM61.6589 21.532C60.1349 21.532 59.0189 22.564 59.0189 24.028C59.0189 25.492 60.1349 26.524 61.6589 26.524C63.1949 26.524 64.2989 25.492 64.2989 24.028C64.2989 22.564 63.1949 21.532 61.6589 21.532ZM61.6589 22.36C62.6429 22.36 63.3509 23.044 63.3509 24.028C63.3509 25 62.6429 25.696 61.6589 25.696C60.6749 25.696 59.9669 25 59.9669 24.028C59.9669 23.044 60.6749 22.36 61.6589 22.36ZM61.1429 18.22V20.188H62.1389V18.22H61.1429ZM77.438 18.076V28.948H78.446V18.076H77.438ZM75.098 20.44V21.268H77.978V20.44H75.098ZM75.098 23.14V23.98H77.978V23.14H75.098ZM72.314 19.024V20.956C72.314 22.972 71.09 25.06 69.494 25.852L70.13 26.644C71.846 25.72 73.118 23.392 73.118 20.956V19.024H72.314ZM72.506 19.024V20.956C72.506 23.344 73.766 25.588 75.506 26.488L76.106 25.684C74.534 24.94 73.31 22.948 73.31 20.956V19.024H72.506ZM83.437 18.916C81.841 18.916 80.713 20.392 80.713 22.696C80.713 25.012 81.841 26.488 83.437 26.488C85.033 26.488 86.161 25.012 86.161 22.696C86.161 20.392 85.033 18.916 83.437 18.916ZM83.437 19.816C84.481 19.816 85.213 20.944 85.213 22.696C85.213 24.46 84.481 25.612 83.437 25.612C82.381 25.612 81.661 24.46 81.661 22.696C81.661 20.944 82.381 19.816 83.437 19.816ZM88.621 20.812V21.652H90.613V20.812H88.621ZM88.621 24.04V24.88H90.613V24.04H88.621ZM87.889 18.088V28.936H88.897V18.088H87.889ZM99.0121 18.088V24.388H100.008V18.088H99.0121ZM99.5761 20.848V21.688H101.616V20.848H99.5761ZM93.1921 24.868V28.792H100.008V24.868H99.0241V26.02H94.1641V24.868H93.1921ZM94.1641 26.788H99.0241V27.988H94.1641V26.788ZM91.6201 19.192V20.008H98.0281V19.192H91.6201ZM94.8241 20.5C93.2641 20.5 92.2201 21.256 92.2201 22.408C92.2201 23.56 93.2641 24.316 94.8241 24.316C96.3721 24.316 97.4161 23.56 97.4161 22.408C97.4161 21.256 96.3721 20.5 94.8241 20.5ZM94.8241 21.256C95.7961 21.256 96.4681 21.712 96.4681 22.408C96.4681 23.104 95.7961 23.56 94.8241 23.56C93.8281 23.56 93.1681 23.104 93.1681 22.408C93.1681 21.712 93.8281 21.256 94.8241 21.256ZM94.3201 17.98V19.636H95.3161V17.98H94.3201ZM110.519 18.088V28.936H111.515V18.088H110.519ZM103.319 19.144V25.864H104.303V19.144H103.319ZM103.319 25.276V26.14H104.207C105.923 26.14 107.639 26.008 109.523 25.624L109.403 24.772C107.567 25.156 105.851 25.276 104.207 25.276H103.319ZM121.006 18.076V28.948H122.014V18.076H121.006ZM121.774 22.36V23.2H123.79V22.36H121.774ZM114.13 25.408V26.248H114.982C117.022 26.248 118.45 26.188 120.118 25.876L120.01 25.036C118.39 25.336 116.986 25.408 114.982 25.408H114.13ZM114.13 19.132V25.78H115.114V19.948H119.17V19.132H114.13ZM125.769 28.168C126.213 28.168 126.573 27.82 126.573 27.328C126.573 26.824 126.213 26.488 125.769 26.488C125.337 26.488 124.989 26.824 124.989 27.328C124.989 27.82 125.337 28.168 125.769 28.168Z" fill="#898989"/>
</svg>
