<svg width="30" height="36" viewBox="0 0 30 36" fill="none" xmlns="http://www.w3.org/2000/svg">
<path d="M15 2C11.13 2 8 5.13 8 9C8 14.25 15 22 15 22C15 22 22 14.25 22 9C22 5.13 18.87 2 15 2ZM10 9C10 6.24 12.24 4 15 4C17.76 4 20 6.24 20 9C20 11.88 17.12 16.19 15 18.88C12.92 16.21 10 11.85 10 9Z" fill="#333A44"/>
<path d="M15 11.5C16.3807 11.5 17.5 10.3807 17.5 9C17.5 7.61929 16.3807 6.5 15 6.5C13.6193 6.5 12.5 7.61929 12.5 9C12.5 10.3807 13.6193 11.5 15 11.5Z" fill="#333A44"/>
<path d="M4.11325 28.232V28.784H6.16125V28.232H4.11325ZM5.96125 26.392V30.768H6.62525V26.392H5.96125ZM4.24925 30.912C2.75325 30.912 1.83325 31.416 1.83325 32.264C1.83325 33.12 2.75325 33.608 4.24925 33.608C5.73725 33.608 6.65725 33.12 6.65725 32.264C6.65725 31.416 5.73725 30.912 4.24925 30.912ZM4.24925 31.44C5.33725 31.44 6.00125 31.736 6.00125 32.264C6.00125 32.784 5.33725 33.088 4.24925 33.088C3.16125 33.088 2.49725 32.784 2.49725 32.264C2.49725 31.736 3.16125 31.44 4.24925 31.44ZM1.03325 26.832V30.24H4.29725V26.832H3.64925V27.984H1.68925V26.832H1.03325ZM1.68925 28.52H3.64925V29.704H1.68925V28.52ZM8.87263 26.696V27.232H13.5286V26.696H8.87263ZM8.04063 29.08V29.624H14.5926V29.08H8.04063ZM13.0966 26.696V27.16C13.0966 27.672 13.0966 28.296 12.9046 29.176L13.5526 29.248C13.7446 28.352 13.7446 27.68 13.7446 27.16V26.696H13.0966ZM8.80863 30.336V30.872H13.1126V31.664H8.82463V33.184H9.48863V32.176H13.7686V30.336H8.80863ZM8.82463 33.008V33.544H13.9526V33.008H8.82463ZM17.312 27.424V28.6C17.312 29.848 16.44 31.208 15.392 31.704L15.776 32.232C16.928 31.664 17.848 30.128 17.848 28.6V27.424H17.312ZM17.44 27.424V28.6C17.44 30.104 18.368 31.512 19.536 32.056L19.912 31.528C18.848 31.072 17.976 29.824 17.976 28.6V27.424H17.44ZM15.632 27.128V27.688H19.672V27.128H15.632ZM20.648 26.392V33.624H21.312V26.392H20.648ZM23.5834 29.768V30.312H28.5514V29.768H23.5834ZM22.7594 32.16V32.72H29.3114V32.16H22.7594ZM25.6874 30V32.384H26.3514V30H25.6874ZM23.5834 26.968V30.008H24.2474V27.512H28.4794V26.968H23.5834Z" fill="black"/>
</svg>
