<svg width="24" height="36" viewBox="0 0 24 36" fill="none" xmlns="http://www.w3.org/2000/svg">
<path d="M20 2H4C2.9 2 2 2.9 2 4V22L6 18H20C21.1 18 22 17.1 22 16V4C22 2.9 21.1 2 20 2ZM20 16H6L4 18V4H20V16Z" fill="#333A44"/>
<path d="M6.51263 28.24V28.616C6.51263 29.792 5.95263 31.048 4.96863 31.624L5.36863 32.128C6.42463 31.496 7.02463 30.048 7.02463 28.616V28.24H6.51263ZM6.63263 28.24V28.616C6.63263 30.008 7.25663 31.376 8.32063 31.968L8.69663 31.472C7.72863 30.944 7.14463 29.76 7.14463 28.616V28.24H6.63263ZM5.15263 27.736V28.28H8.50463V27.736H5.15263ZM6.51263 26.648V28.144H7.15263V26.648H6.51263ZM10.5686 26.392V33.624H11.2006V26.392H10.5686ZM9.42463 29.304V29.864H10.8166V29.304H9.42463ZM8.99263 26.544V33.264H9.61663V26.544H8.99263ZM12.816 29.824V30.36H13.4C14.976 30.36 15.856 30.336 16.904 30.152L16.832 29.624C15.816 29.792 14.96 29.824 13.4 29.824H12.816ZM12.816 26.92V30.096H13.472V27.456H16.256V26.92H12.816ZM13.256 28.352V28.88H16.056V28.352H13.256ZM17.656 26.4V30.872H18.328V26.4H17.656ZM15.936 30.976C14.424 30.976 13.504 31.456 13.504 32.288C13.504 33.128 14.424 33.608 15.936 33.608C17.44 33.608 18.36 33.128 18.36 32.288C18.36 31.456 17.44 30.976 15.936 30.976ZM15.936 31.504C17.032 31.504 17.696 31.792 17.696 32.288C17.696 32.8 17.032 33.088 15.936 33.088C14.832 33.088 14.168 32.8 14.168 32.288C14.168 31.792 14.832 31.504 15.936 31.504Z" fill="black"/>
</svg>
