<svg width="263" height="105" viewBox="0 0 263 105" fill="none" xmlns="http://www.w3.org/2000/svg">
<path d="M2.54 12.5V30.92H15.83V12.5H2.54ZM11.9 15.62V27.77H6.47V15.62H11.9ZM19.46 9.89V37.67H23.48V9.89H19.46ZM22.58 20.36V23.66H27.5V20.36H22.58ZM41.8677 10.4C35.7477 10.4 31.8177 12.47 31.8177 15.83C31.8177 19.19 35.7477 21.23 41.8677 21.23C47.9877 21.23 51.9177 19.19 51.9177 15.83C51.9177 12.47 47.9877 10.4 41.8677 10.4ZM41.8677 13.49C45.6477 13.49 47.8077 14.24 47.8077 15.83C47.8077 17.39 45.6477 18.17 41.8677 18.17C38.0577 18.17 35.9277 17.39 35.9277 15.83C35.9277 14.24 38.0577 13.49 41.8677 13.49ZM32.2077 27.89V37.37H51.4077V27.89H32.2077ZM47.5077 31.04V34.22H36.1377V31.04H47.5077ZM29.2977 22.82V25.97H54.4077V22.82H29.2977ZM82.0222 9.83V37.7H86.0122V9.83H82.0222ZM84.3922 20.27V23.54H89.2822V20.27H84.3922ZM64.2322 27.62V30.89H65.6422C67.8922 30.89 69.6322 30.86 71.8222 30.41L71.5222 27.17C69.4522 27.59 67.7722 27.62 65.6422 27.62H64.2322ZM64.2322 12.68V29.09H68.1922V15.83H71.3722V12.68H64.2322ZM72.8122 27.62V30.89H74.2822C77.6122 30.89 79.1122 30.83 80.9422 30.35L80.6422 27.11C78.9022 27.56 77.4322 27.62 74.2822 27.62H72.8122ZM72.8122 12.68V29.15H76.7422V15.83H80.2822V12.68H72.8122ZM91.2898 22.73V25.94H116.4V22.73H91.2898ZM104.64 17.81V20.96H114.21V17.81H104.64ZM104.64 11.18V18.98H108.63V14.33H114.09V11.18H104.64ZM93.6298 11.18V18.98H97.6198V14.33H103.26V11.18H93.6298ZM93.6298 17.81V20.96H95.3398C98.6098 20.96 100.95 20.9 103.74 20.33L103.38 17.21C100.74 17.75 98.4898 17.81 95.3398 17.81H93.6298ZM101.88 27.53V28.01C101.88 30.92 99.1798 33.74 93.0298 34.46L94.4398 37.55C101.49 36.59 105.3 32.9 105.3 28.01V27.53H101.88ZM102.51 27.53V28.01C102.51 32.9 106.32 36.59 113.37 37.55L114.81 34.46C108.63 33.74 105.93 30.92 105.93 28.01V27.53H102.51ZM136.768 9.92V30.68H140.758V9.92H136.768ZM139.618 18.38V21.65H144.448V18.38H139.618ZM118.888 12.8V15.92H135.238V12.8H118.888ZM127.078 16.91C123.058 16.91 120.238 19.1 120.238 22.28C120.238 25.46 123.058 27.62 127.078 27.62C131.068 27.62 133.888 25.46 133.888 22.28C133.888 19.1 131.068 16.91 127.078 16.91ZM127.078 19.94C128.848 19.94 130.078 20.78 130.078 22.28C130.078 23.78 128.848 24.59 127.078 24.59C125.308 24.59 124.078 23.78 124.078 22.28C124.078 20.78 125.308 19.94 127.078 19.94ZM125.068 9.86V14.33H129.058V9.86H125.068ZM122.848 34.01V37.19H141.748V34.01H122.848ZM122.848 29.12V35.39H126.838V29.12H122.848ZM173.352 9.89V37.67H177.162V9.89H173.352ZM170.022 20.48V23.69H174.612V20.48H170.022ZM167.262 10.31V36.41H171.012V10.31H167.262ZM154.062 12.74V30.74H165.042V12.74H154.062ZM161.322 15.86V27.62H157.782V15.86H161.322ZM200.23 9.89V37.76H204.22V9.89H200.23ZM192.76 18.47V21.68H201.37V18.47H192.76ZM182.32 12.86V30.11H186.28V12.86H182.32ZM182.32 27.92V31.22H184.66C188.74 31.22 193 30.98 197.47 30.08L197.05 26.78C192.73 27.65 188.62 27.92 184.66 27.92H182.32ZM208.477 24.17V27.35H233.587V24.17H208.477ZM219.007 20.27V25.61H222.997V20.27H219.007ZM211.507 34.01V37.19H230.767V34.01H211.507ZM211.507 29.12V35.09H215.497V29.12H211.507ZM221.047 10.58C214.987 10.58 210.997 12.8 210.997 16.31C210.997 19.88 214.987 22.04 221.047 22.04C227.077 22.04 231.097 19.88 231.097 16.31C231.097 12.8 227.077 10.58 221.047 10.58ZM221.047 13.76C224.797 13.76 226.987 14.63 226.987 16.31C226.987 18.02 224.797 18.86 221.047 18.86C217.297 18.86 215.107 18.02 215.107 16.31C215.107 14.63 217.297 13.76 221.047 13.76ZM239.015 22.28V25.46H258.545V22.28H239.015ZM236.105 31.28V34.55H261.245V31.28H236.105ZM246.635 23.72V32.33H250.625V23.72H246.635ZM239.015 11.78V23.66H243.005V14.99H258.335V11.78H239.015Z" fill="black"/>
<path d="M13.784 59.132V75.404H15.224V59.132H13.784ZM11.21 65.576V66.8H14.324V65.576H11.21ZM10.184 59.474V74.594H11.606V59.474H10.184ZM1.976 61.004V71.048H8.186V61.004H1.976ZM6.782 62.192V69.86H3.38V62.192H6.782ZM29.8746 59.132V75.44H31.3686V59.132H29.8746ZM24.8706 64.496V65.72H30.3606V64.496H24.8706ZM18.8406 60.95V71.03H20.3166V60.95H18.8406ZM18.8406 70.238V71.498H20.1006C22.6746 71.498 24.9606 71.336 27.5526 70.832L27.3726 69.572C24.8706 70.094 22.6206 70.238 20.1006 70.238H18.8406ZM38.5246 67.772V68.996H53.2306V67.772H38.5246ZM45.1486 65.396V68.402H46.6246V65.396H45.1486ZM40.4326 73.82V75.044H51.6106V73.82H40.4326ZM40.4326 70.346V74.216H41.9266V70.346H40.4326ZM45.8866 59.6C42.3946 59.6 40.1626 60.842 40.1626 62.858C40.1626 64.892 42.3946 66.098 45.8866 66.098C49.3606 66.098 51.6106 64.892 51.6106 62.858C51.6106 60.842 49.3606 59.6 45.8866 59.6ZM45.8866 60.824C48.4426 60.824 50.0806 61.598 50.0806 62.858C50.0806 64.136 48.4426 64.892 45.8866 64.892C43.3306 64.892 41.6926 64.136 41.6926 62.858C41.6926 61.598 43.3306 60.824 45.8866 60.824ZM56.9552 66.728V67.952H68.1332V66.728H56.9552ZM55.1012 72.11V73.37H69.8432V72.11H55.1012ZM61.6892 67.25V72.614H63.1832V67.25H61.6892ZM56.9552 60.428V67.268H58.4492V61.652H67.9712V60.428H56.9552ZM71.6418 66.692V67.826H86.4018V66.692H71.6418ZM73.3878 69.14V70.202H83.0898V71.588H73.4418V74.522H74.9178V72.614H84.5478V69.14H73.3878ZM73.4418 74.126V75.206H85.0698V74.126H73.4418ZM73.5138 59.6V60.662H83.0358V61.976H73.5498V64.748H75.0258V62.984H84.4938V59.6H73.5138ZM73.5498 64.388V65.468H84.7998V64.388H73.5498ZM96.4918 66.764V68.852H97.9858V66.764H96.4918ZM103.35 59.15V70.058H104.844V59.15H103.35ZM104.214 64.064V65.306H107.22V64.064H104.214ZM92.3338 69.59C95.1778 69.572 99.0298 69.554 102.504 68.942L102.378 67.88C99.0118 68.366 95.0518 68.366 92.1358 68.366L92.3338 69.59ZM94.1518 70.868V72.056H103.35V75.404H104.844V70.868H94.1518ZM92.5498 60.608V61.724H101.892V60.608H92.5498ZM97.2298 62.354C94.9258 62.354 93.4318 63.272 93.4318 64.766C93.4318 66.26 94.9258 67.178 97.2298 67.178C99.5158 67.178 101.01 66.26 101.01 64.766C101.01 63.272 99.5158 62.354 97.2298 62.354ZM97.2298 63.38C98.6698 63.38 99.6058 63.902 99.6058 64.766C99.6058 65.594 98.6698 66.134 97.2298 66.134C95.7718 66.134 94.8358 65.594 94.8358 64.766C94.8358 63.902 95.7718 63.38 97.2298 63.38ZM96.4918 59.006V61.148H97.9858V59.006H96.4918ZM120.628 59.15V71.03H122.14V59.15H120.628ZM111.682 73.82V75.044H122.626V73.82H111.682ZM111.682 69.806V74.234H113.158V69.806H111.682ZM113.41 60.266C110.98 60.266 109.162 61.922 109.162 64.28C109.162 66.62 110.98 68.294 113.41 68.294C115.84 68.294 117.64 66.62 117.64 64.28C117.64 61.922 115.84 60.266 113.41 60.266ZM113.41 61.562C114.994 61.562 116.2 62.678 116.2 64.28C116.2 65.864 114.994 66.98 113.41 66.98C111.826 66.98 110.62 65.864 110.62 64.28C110.62 62.678 111.826 61.562 113.41 61.562ZM136.485 59.078V68.06H137.979V59.078H136.485ZM137.349 62.984V64.244H140.391V62.984H137.349ZM127.647 68.888V70.022H136.521V71.444H127.683V74.504H129.159V72.524H137.979V68.888H127.647ZM127.683 74.072V75.224H138.573V74.072H127.683ZM125.397 60.59V61.76H135.009V60.59H125.397ZM130.203 62.48C127.827 62.48 126.297 63.506 126.297 65.162C126.297 66.8 127.827 67.808 130.203 67.808C132.543 67.808 134.091 66.8 134.091 65.162C134.091 63.506 132.543 62.48 130.203 62.48ZM130.203 63.578C131.697 63.578 132.669 64.19 132.669 65.162C132.669 66.116 131.697 66.728 130.203 66.728C128.691 66.728 127.719 66.116 127.719 65.162C127.719 64.19 128.691 63.578 130.203 63.578ZM129.447 58.952V61.4H130.941V58.952H129.447ZM152.515 59.708V60.608C152.515 62.93 149.653 64.874 146.683 65.324L147.277 66.53C150.661 65.954 153.829 63.722 153.829 60.608V59.708H152.515ZM152.785 59.708V60.608C152.785 63.686 155.971 65.954 159.319 66.53L159.913 65.324C156.979 64.874 154.081 62.876 154.081 60.608V59.708H152.785ZM152.515 69.212V75.404H153.991V69.212H152.515ZM145.945 68.294V69.536H160.651V68.294H145.945ZM170.579 69.14V70.022C170.579 71.588 169.355 73.334 167.303 74.072L168.059 75.188C170.399 74.288 171.731 72.146 171.731 70.022V69.14H170.579ZM170.903 69.14V70.022C170.903 72.182 171.965 74.414 174.305 75.332L174.935 74.198C172.991 73.406 172.019 71.66 172.019 70.022V69.14H170.903ZM176.591 69.14V70.022C176.591 71.426 175.601 73.316 173.675 74.198L174.305 75.332C176.627 74.342 177.707 71.93 177.707 70.022V69.14H176.591ZM176.897 69.14V70.022C176.897 72.272 178.193 74.324 180.569 75.188L181.325 74.072C179.255 73.37 178.049 71.696 178.049 70.022V69.14H176.897ZM178.355 59.15V68.438H179.867V59.15H178.355ZM171.137 60.086C168.671 60.086 166.889 61.634 166.889 63.884C166.889 66.134 168.671 67.664 171.137 67.664C173.603 67.664 175.367 66.134 175.367 63.884C175.367 61.634 173.603 60.086 171.137 60.086ZM171.137 61.328C172.757 61.328 173.927 62.372 173.927 63.884C173.927 65.396 172.757 66.422 171.137 66.422C169.517 66.422 168.347 65.396 168.347 63.884C168.347 62.372 169.517 61.328 171.137 61.328ZM187.426 60.374C185.05 60.374 183.375 62.588 183.375 66.044C183.375 69.518 185.05 71.732 187.426 71.732C189.784 71.732 191.476 69.518 191.476 66.044C191.476 62.588 189.784 60.374 187.426 60.374ZM187.426 61.724C188.992 61.724 190.054 63.416 190.054 66.044C190.054 68.69 188.992 70.418 187.426 70.418C185.86 70.418 184.798 68.69 184.798 66.044C184.798 63.416 185.86 61.724 187.426 61.724ZM195.004 59.114V75.422H196.48V59.114H195.004ZM190.99 65.324V66.548H195.652V65.324H190.99ZM205.471 66.512V67.736H216.739V66.512H205.471ZM203.671 72.074V73.316H218.413V72.074H203.671ZM210.277 67.268V72.47H211.753V67.268H210.277ZM205.471 60.5V67.052H206.965V60.5H205.471ZM224.226 68.438V72.776H225.702V68.438H224.226ZM229.482 68.438V72.776H230.958V68.438H229.482ZM220.23 72.092V73.334H234.972V72.092H220.23ZM226.746 60.194V61.436C226.746 64.082 223.65 66.368 220.752 66.854L221.382 68.078C224.694 67.43 228.042 64.856 228.042 61.436V60.194H226.746ZM227.016 60.194V61.436C227.016 64.856 230.364 67.43 233.694 68.078L234.306 66.854C231.408 66.368 228.312 64.082 228.312 61.436V60.194H227.016ZM236.771 66.692V67.826H251.531V66.692H236.771ZM238.517 69.14V70.202H248.219V71.588H238.571V74.522H240.047V72.614H249.677V69.14H238.517ZM238.571 74.126V75.206H250.199V74.126H238.571ZM238.643 59.6V60.662H248.165V61.976H238.679V64.748H240.155V62.984H249.623V59.6H238.643ZM238.679 64.388V65.468H249.929V64.388H238.679ZM8.834 95.338C5.522 95.338 3.488 96.454 3.488 98.362C3.488 100.27 5.522 101.386 8.834 101.386C12.146 101.386 14.18 100.27 14.18 98.362C14.18 96.454 12.146 95.338 8.834 95.338ZM8.834 96.544C11.246 96.544 12.722 97.21 12.722 98.362C12.722 99.532 11.246 100.198 8.834 100.198C6.422 100.198 4.946 99.532 4.946 98.362C4.946 97.21 6.422 96.544 8.834 96.544ZM12.524 85.132V94.906H14.018V85.132H12.524ZM13.604 89.218V90.478H16.43V89.218H13.604ZM2.066 86.158V93.664H9.59V86.158H8.132V88.588H3.542V86.158H2.066ZM3.542 89.776H8.132V92.458H3.542V89.776ZM22.2606 87.454V90.1C22.2606 92.908 20.2986 95.968 17.9406 97.084L18.8046 98.272C21.3966 96.994 23.4666 93.538 23.4666 90.1V87.454H22.2606ZM22.5486 87.454V90.1C22.5486 93.484 24.6366 96.652 27.2646 97.876L28.1106 96.688C25.7166 95.662 23.7546 92.854 23.7546 90.1V87.454H22.5486ZM18.4806 86.788V88.048H27.5706V86.788H18.4806ZM29.7666 85.132V101.404H31.2606V85.132H29.7666ZM35.9572 96.022H37.0732L37.3072 88.408L37.3432 86.518H35.6872L35.7232 88.408L35.9572 96.022ZM36.4972 100.252C37.1632 100.252 37.7032 99.73 37.7032 98.992C37.7032 98.236 37.1632 97.732 36.4972 97.732C35.8492 97.732 35.3272 98.236 35.3272 98.992C35.3272 99.73 35.8492 100.252 36.4972 100.252ZM44.3429 94.456V95.68H59.1029V94.456H44.3429ZM50.9309 95.212V101.404H52.4069V95.212H50.9309ZM51.6869 85.78C48.3029 85.78 45.9989 87.166 45.9989 89.344C45.9989 91.522 48.3029 92.908 51.6869 92.908C55.0889 92.908 57.3749 91.522 57.3749 89.344C57.3749 87.166 55.0889 85.78 51.6869 85.78ZM51.6869 86.986C54.1709 86.986 55.8449 87.904 55.8449 89.344C55.8449 90.784 54.1709 91.702 51.6869 91.702C49.2029 91.702 47.5109 90.784 47.5109 89.344C47.5109 87.904 49.2029 86.986 51.6869 86.986ZM72.7635 85.114V101.422H74.2575V85.114H72.7635ZM61.8555 96.256V97.498H63.2055C65.9955 97.498 68.4435 97.39 71.3955 96.904L71.2335 95.68C68.3535 96.148 65.9235 96.256 63.2055 96.256H61.8555ZM61.8195 86.644V87.868H67.8315V91.234H61.8555V96.724H63.3495V92.458H69.3435V86.644H61.8195ZM81.5035 98.092V99.334H96.2455V98.092H81.5035ZM88.0915 93.88V98.434H89.5855V93.88H88.0915ZM83.2135 86.482V94.15H94.4455V86.482H83.2135ZM93.0055 87.688V92.944H84.6715V87.688H93.0055ZM100.078 91.18V92.404H110.95V91.18H100.078ZM98.0441 94.51V95.752H112.804V94.51H98.0441ZM104.632 95.194V101.35H106.108V95.194H104.632ZM100.078 86.086V91.774H101.59V87.31H110.734V86.086H100.078ZM131.03 85.132V101.404H132.47V85.132H131.03ZM128.456 91.576V92.8H131.57V91.576H128.456ZM127.43 85.474V100.594H128.852V85.474H127.43ZM119.222 87.004V97.048H125.432V87.004H119.222ZM124.028 88.192V95.86H120.626V88.192H124.028ZM147.121 85.132V101.44H148.615V85.132H147.121ZM142.117 90.496V91.72H147.607V90.496H142.117ZM136.087 86.95V97.03H137.563V86.95H136.087ZM136.087 96.238V97.498H137.347C139.921 97.498 142.207 97.336 144.799 96.832L144.619 95.572C142.117 96.094 139.867 96.238 137.347 96.238H136.087ZM151.745 92.692V93.826H166.505V92.692H151.745ZM153.491 95.14V96.202H163.193V97.588H153.545V100.522H155.021V98.614H164.651V95.14H153.491ZM153.545 100.126V101.206H165.173V100.126H153.545ZM153.617 85.6V86.662H163.139V87.976H153.653V90.748H155.129V88.984H164.597V85.6H153.617ZM153.653 90.388V91.468H164.903V90.388H153.653ZM176.649 87.454V90.1C176.649 92.908 174.687 95.968 172.329 97.084L173.193 98.272C175.785 96.994 177.855 93.538 177.855 90.1V87.454H176.649ZM176.937 87.454V90.1C176.937 93.484 179.025 96.652 181.653 97.876L182.499 96.688C180.105 95.662 178.143 92.854 178.143 90.1V87.454H176.937ZM172.869 86.788V88.048H181.959V86.788H172.869ZM184.155 85.132V101.404H185.649V85.132H184.155ZM195.926 85.924V86.59C195.926 89.614 193.946 91.954 189.356 93.178L189.896 94.384C195.044 92.98 197.492 90.1 197.492 85.924H195.926ZM190.058 85.924V87.148H196.736V85.924H190.058ZM195.728 88.822L189.248 89.128L189.5 90.352L195.728 89.884V88.822ZM200.732 85.132V94.114H202.244V85.132H200.732ZM191.75 94.834V101.188H202.244V94.834H200.768V96.724H193.226V94.834H191.75ZM193.226 97.912H200.768V99.982H193.226V97.912ZM209.748 86.536V89.452C209.748 92.53 207.786 95.644 205.374 96.796L206.292 98.02C208.956 96.67 210.972 93.196 210.972 89.452V86.536H209.748ZM210 86.536V89.452C210 93.07 212.034 96.418 214.68 97.714L215.58 96.526C213.168 95.41 211.224 92.422 211.224 89.452V86.536H210ZM217.272 85.114V101.422H218.766V85.114H217.272ZM233.021 85.114V101.422H234.533V85.114H233.021ZM234.173 91.54V92.8H237.197V91.54H234.173ZM222.707 96.112V97.372H223.985C227.045 97.372 229.187 97.282 231.689 96.814L231.527 95.554C229.097 96.004 226.991 96.112 223.985 96.112H222.707ZM222.707 86.698V96.67H224.183V87.922H230.267V86.698H222.707ZM240.022 96.022H241.138L241.372 88.408L241.408 86.518H239.752L239.788 88.408L240.022 96.022ZM240.562 100.252C241.228 100.252 241.768 99.73 241.768 98.992C241.768 98.236 241.228 97.732 240.562 97.732C239.914 97.732 239.392 98.236 239.392 98.992C239.392 99.73 239.914 100.252 240.562 100.252Z" fill="#545454"/>
</svg>
