<svg width="282" height="105" viewBox="0 0 282 105" fill="none" xmlns="http://www.w3.org/2000/svg">
<path d="M20.28 9.89V23.93H24.3V9.89H20.28ZM5.76 25.16V28.19H20.34V29.81H5.82V35.48H9.72V32.69H24.3V25.16H5.76ZM5.82 34.4V37.49H24.99V34.4H5.82ZM7.71 10.52V12.62C7.71 16.01 5.73 19.49 1.08 20.9L3 24.05C8.43 22.4 11.01 17.75 11.01 12.62V10.52H7.71ZM8.52 10.52V12.62C8.52 17.63 11.01 21.98 16.35 23.54L18.27 20.45C13.74 19.16 11.79 15.92 11.79 12.62V10.52H8.52ZM35.5777 12.02V16.07C35.5777 21.47 33.2977 26.81 28.4677 28.91L30.8377 32.21C36.3577 29.66 38.8177 23.21 38.8177 16.07V12.02H35.5777ZM36.3577 12.02V16.07C36.3577 22.91 38.8177 29.09 44.1877 31.55L46.5277 28.34C41.7877 26.3 39.5977 21.2 39.5977 16.07V12.02H36.3577ZM47.8477 9.86V37.73H51.8677V9.86H47.8477ZM74.2453 9.89V29.78H78.2653V9.89H74.2453ZM77.1253 17.63V20.9H81.9553V17.63H77.1253ZM66.5053 11.96V13.94C66.5053 18.35 62.9953 22.07 56.1853 23.93L57.8653 27.11C66.1453 24.71 70.7653 19.52 70.7653 11.96H66.5053ZM57.3853 11.96V15.17H68.6653V11.96H57.3853ZM60.2953 34.01V37.19H79.1953V34.01H60.2953ZM60.2953 27.77V35.42H64.3153V27.77H60.2953ZM104.2 16.49V19.73H110.95V16.49H104.2ZM110.05 9.89V26.48H114.04V9.89H110.05ZM104.62 26.96C98.7398 26.96 95.1098 28.97 95.1098 32.33C95.1098 35.72 98.7398 37.67 104.62 37.67C110.5 37.67 114.13 35.72 114.13 32.33C114.13 28.97 110.5 26.96 104.62 26.96ZM104.62 30.02C108.25 30.02 110.17 30.74 110.17 32.33C110.17 33.89 108.25 34.64 104.62 34.64C101.02 34.64 99.0998 33.89 99.0998 32.33C99.0998 30.74 101.02 30.02 104.62 30.02ZM91.9598 11.57V24.92H105.1V11.57H101.2V15.26H95.9198V11.57H91.9598ZM95.9198 18.35H101.2V21.8H95.9198V18.35ZM121.478 11V14.15H139.088V11H121.478ZM118.418 19.67V22.82H143.558V19.67H118.418ZM136.688 11V12.89C136.688 14.84 136.688 17.09 135.968 20.24L139.898 20.6C140.618 17.39 140.618 14.87 140.618 12.89V11H136.688ZM121.208 24.71V27.8H136.568V29.6H121.238V35.36H125.228V32.54H140.528V24.71H121.208ZM121.238 34.4V37.49H141.248V34.4H121.238ZM158.555 10.28C152.195 10.28 148.505 11.96 148.505 15.02C148.505 18.08 152.195 19.76 158.555 19.76C164.885 19.76 168.605 18.08 168.605 15.02C168.605 11.96 164.885 10.28 158.555 10.28ZM158.555 13.19C162.575 13.19 164.465 13.79 164.465 15.02C164.465 16.31 162.575 16.85 158.555 16.85C154.535 16.85 152.645 16.31 152.645 15.02C152.645 13.79 154.535 13.19 158.555 13.19ZM145.985 21.05V24.2H171.095V21.05H145.985ZM148.865 25.76V28.73H164.135V30.14H148.895V35.36H152.825V32.9H168.065V25.76H148.865ZM148.895 34.49V37.49H168.785V34.49H148.895ZM198.26 9.92V30.68H202.25V9.92H198.26ZM201.11 18.38V21.65H205.94V18.38H201.11ZM180.38 12.8V15.92H196.73V12.8H180.38ZM188.57 16.91C184.55 16.91 181.73 19.1 181.73 22.28C181.73 25.46 184.55 27.62 188.57 27.62C192.56 27.62 195.38 25.46 195.38 22.28C195.38 19.1 192.56 16.91 188.57 16.91ZM188.57 19.94C190.34 19.94 191.57 20.78 191.57 22.28C191.57 23.78 190.34 24.59 188.57 24.59C186.8 24.59 185.57 23.78 185.57 22.28C185.57 20.78 186.8 19.94 188.57 19.94ZM186.56 9.86V14.33H190.55V9.86H186.56ZM184.34 34.01V37.19H203.24V34.01H184.34ZM184.34 29.12V35.39H188.33V29.12H184.34ZM217.984 17.36V20.48H237.184V17.36H217.984ZM217.984 10.64V18.56H221.974V10.64H217.984ZM214.804 22.91V26.06H239.944V22.91H214.804ZM225.694 25.13V30.92H229.684V25.13H225.694ZM217.744 34.01V37.19H237.334V34.01H217.744ZM217.744 28.82V35.72H221.704V28.82H217.744ZM253.472 20.12V23.33H258.032V20.12H253.472ZM262.442 9.89V37.67H266.252V9.89H262.442ZM256.772 10.31V36.41H260.522V10.31H256.772ZM248.612 11.84C244.952 11.84 242.612 15.65 242.612 21.92C242.612 28.22 244.952 32.03 248.612 32.03C252.302 32.03 254.672 28.22 254.672 21.92C254.672 15.65 252.302 11.84 248.612 11.84ZM248.612 15.59C250.172 15.59 251.042 17.69 251.042 21.92C251.042 26.18 250.172 28.25 248.612 28.25C247.112 28.25 246.242 26.18 246.242 21.92C246.242 17.69 247.112 15.59 248.612 15.59Z" fill="black"/>
<path d="M6.21 59.888C3.798 59.888 2.07 61.238 2.07 63.236C2.07 65.216 3.798 66.602 6.21 66.602C8.64 66.602 10.368 65.216 10.368 63.236C10.368 61.238 8.64 59.888 6.21 59.888ZM6.21 61.13C7.794 61.13 8.928 61.994 8.928 63.236C8.928 64.496 7.794 65.342 6.21 65.342C4.626 65.342 3.492 64.496 3.492 63.236C3.492 61.994 4.626 61.13 6.21 61.13ZM5.544 68.402V74.9H7.038V68.402H5.544ZM12.744 59.132V75.422H14.22V59.132H12.744ZM1.062 69.212C4.032 69.212 8.028 69.158 11.7 68.492L11.592 67.376C8.01 67.916 3.888 67.952 0.864 67.952L1.062 69.212ZM29.2846 59.132V75.404H30.7786V59.132H29.2846ZM21.9586 63.002V64.388C21.9586 67.232 20.1586 70.004 17.7466 71.12L18.5926 72.272C21.2026 71.012 23.1646 67.862 23.1646 64.388V63.002H21.9586ZM22.2466 63.002V64.388C22.2466 67.754 24.2446 70.796 26.8726 71.984L27.7186 70.814C25.2886 69.752 23.4346 67.106 23.4346 64.388V63.002H22.2466ZM18.1966 61.958V63.164H27.1606V61.958H18.1966ZM21.9586 59.42V62.624H23.4526V59.42H21.9586ZM45.8612 59.132V75.404H47.3552V59.132H45.8612ZM41.0912 60.878V61.13C41.0912 65.45 38.9132 68.906 34.2152 71.174L35.0072 72.38C40.4432 69.716 42.5672 65.594 42.5672 60.878H41.0912ZM34.9532 60.878V62.102H41.7392V60.878H34.9532ZM61.6998 59.15V71.084H63.1938V59.15H61.6998ZM62.7258 64.064V65.306H65.6058V64.064H62.7258ZM53.0598 73.82V75.044H63.9318V73.82H53.0598ZM53.0598 69.932V74.108H54.5538V69.932H53.0598ZM51.2418 60.302V68.366H58.7658V60.302H57.3078V63.02H52.7178V60.302H51.2418ZM52.7178 64.19H57.3078V67.16H52.7178V64.19ZM79.2778 64.64V65.864H83.8138V64.64H79.2778ZM75.3538 60.536V63.434C75.3538 66.458 73.5178 69.59 71.1238 70.778L72.0778 71.966C74.6518 70.58 76.5778 67.088 76.5778 63.434V60.536H75.3538ZM75.6418 60.536V63.434C75.6418 66.998 77.5318 70.346 80.1598 71.678L81.0418 70.472C78.6838 69.356 76.8478 66.404 76.8478 63.434V60.536H75.6418ZM83.0758 59.114V75.422H84.5518V59.114H83.0758ZM99.5264 59.114V75.422H101.02V59.114H99.5264ZM88.6364 60.5V71.498H96.3044V60.5H94.8104V64.802H90.1124V60.5H88.6364ZM90.1124 65.99H94.8104V70.274H90.1124V65.99ZM110.793 60.248V61.49C110.793 64.262 107.733 66.746 104.871 67.286L105.537 68.528C108.795 67.79 112.089 65.036 112.089 61.49V60.248H110.793ZM111.063 60.248V61.49C111.063 65.054 114.375 67.79 117.615 68.528L118.281 67.286C115.437 66.746 112.359 64.28 112.359 61.49V60.248H111.063ZM104.277 71.984V73.208H119.019V71.984H104.277ZM120.818 66.692V67.826H135.578V66.692H120.818ZM122.564 69.14V70.202H132.266V71.588H122.618V74.522H124.094V72.614H133.724V69.14H122.564ZM122.618 74.126V75.206H134.246V74.126H122.618ZM122.69 59.6V60.662H132.212V61.976H122.726V64.748H124.202V62.984H133.67V59.6H122.69ZM122.726 64.388V65.468H133.976V64.388H122.726ZM141.402 67.754V68.96H156.108V67.754H141.402ZM148.008 65.648V68.258H149.484V65.648H148.008ZM143.346 64.982V66.152H154.38V64.982H143.346ZM143.346 59.6V65.612H144.822V60.77H154.308V59.6H143.346ZM144.39 62.264V63.416H153.876V62.264H144.39ZM148.746 70.166C145.2 70.166 143.166 71.066 143.166 72.776C143.166 74.468 145.2 75.368 148.746 75.368C152.292 75.368 154.326 74.468 154.326 72.776C154.326 71.066 152.292 70.166 148.746 70.166ZM148.746 71.3C151.356 71.3 152.814 71.822 152.814 72.776C152.814 73.748 151.356 74.252 148.746 74.252C146.136 74.252 144.678 73.748 144.678 72.776C144.678 71.822 146.136 71.3 148.746 71.3ZM157.942 61.904V63.128H166.006V61.904H157.942ZM161.974 64.208C159.958 64.208 158.482 65.738 158.482 67.934C158.482 70.112 159.958 71.642 161.974 71.642C164.008 71.642 165.484 70.112 165.484 67.934C165.484 65.738 164.008 64.208 161.974 64.208ZM161.974 65.486C163.234 65.486 164.152 66.494 164.152 67.934C164.152 69.374 163.234 70.382 161.974 70.382C160.732 70.382 159.832 69.374 159.832 67.934C159.832 66.494 160.732 65.486 161.974 65.486ZM170.308 59.132V75.404H171.748V59.132H170.308ZM167.716 65.972V67.214H170.794V65.972H167.716ZM166.834 59.492V74.612H168.238V59.492H166.834ZM161.254 59.6V62.66H162.73V59.6H161.254ZM190.388 59.132V67.556H191.882V59.132H190.388ZM181.37 68.384V69.554H190.424V71.174H181.406V74.522H182.864V72.29H191.9V68.384H181.37ZM181.406 74.036V75.224H192.44V74.036H181.406ZM182.792 59.6V60.842C182.792 63.2 181.118 65.36 178.67 66.224L179.408 67.412C182.162 66.404 184.034 63.848 184.034 60.842V59.6H182.792ZM183.062 59.6V60.842C183.062 63.758 184.934 66.152 187.67 67.088L188.408 65.918C185.996 65.126 184.286 63.092 184.286 60.842V59.6H183.062ZM199.405 60.536V63.452C199.405 66.53 197.443 69.644 195.031 70.796L195.949 72.02C198.613 70.67 200.629 67.196 200.629 63.452V60.536H199.405ZM199.657 60.536V63.452C199.657 67.07 201.691 70.418 204.337 71.714L205.237 70.526C202.825 69.41 200.881 66.422 200.881 63.452V60.536H199.657ZM206.929 59.114V75.422H208.423V59.114H206.929ZM222.803 59.132V71.03H224.297V59.132H222.803ZM223.829 64.064V65.306H226.709V64.064H223.829ZM218.357 60.392V61.04C218.357 64.172 215.783 66.692 211.679 67.952L212.327 69.176C216.989 67.682 219.941 64.604 219.941 60.392H218.357ZM212.345 60.392V61.616H219.113V60.392H212.345ZM214.145 73.82V75.044H225.017V73.82H214.145ZM214.145 69.824V74.306H215.639V69.824H214.145ZM239.985 63.272V64.514H244.593V63.272H239.985ZM244.143 59.132V68.978H245.637V59.132H244.143ZM240.291 69.302C236.925 69.302 234.855 70.436 234.855 72.344C234.855 74.27 236.925 75.368 240.291 75.368C243.639 75.368 245.709 74.27 245.709 72.344C245.709 70.436 243.639 69.302 240.291 69.302ZM240.291 70.49C242.739 70.49 244.233 71.156 244.233 72.344C244.233 73.514 242.739 74.198 240.291 74.198C237.843 74.198 236.349 73.514 236.349 72.344C236.349 71.156 237.843 70.49 240.291 70.49ZM233.055 60.122V67.79H240.399V60.122H238.941V62.714H234.531V60.122H233.055ZM234.531 63.92H238.941V66.584H234.531V63.92ZM250.694 59.816V61.022H261.17V59.816H250.694ZM248.822 65.18V66.404H263.564V65.18H248.822ZM260.198 59.816V60.86C260.198 62.012 260.198 63.416 259.766 65.396L261.224 65.558C261.656 63.542 261.656 62.03 261.656 60.86V59.816H260.198ZM250.55 68.006V69.212H260.234V70.994H250.586V74.414H252.08V72.146H261.71V68.006H250.55ZM250.586 74.018V75.224H262.124V74.018H250.586ZM272.724 59.402C269.124 59.402 267 60.41 267 62.228C267 64.046 269.124 65.054 272.724 65.054C276.306 65.054 278.448 64.046 278.448 62.228C278.448 60.41 276.306 59.402 272.724 59.402ZM272.724 60.536C275.37 60.536 276.9 61.148 276.9 62.228C276.9 63.308 275.37 63.92 272.724 63.92C270.06 63.92 268.53 63.308 268.53 62.228C268.53 61.148 270.06 60.536 272.724 60.536ZM265.362 66.134V67.34H280.068V66.134H265.362ZM267.144 68.726V69.878H276.72V71.318H267.18V74.378H268.656V72.398H278.196V68.726H267.144ZM267.18 74.054V75.224H278.682V74.054H267.18ZM12.024 85.15V97.354H13.518V85.15H12.024ZM13.05 90.478V91.738H15.93V90.478H13.05ZM0.936 87.112V88.318H10.548V87.112H0.936ZM5.742 89.218C3.42 89.218 1.836 90.424 1.836 92.26C1.836 94.078 3.42 95.284 5.742 95.284C8.046 95.284 9.63 94.078 9.63 92.26C9.63 90.424 8.046 89.218 5.742 89.218ZM5.742 90.388C7.2 90.388 8.208 91.126 8.208 92.26C8.208 93.376 7.2 94.114 5.742 94.114C4.266 94.114 3.258 93.376 3.258 92.26C3.258 91.126 4.266 90.388 5.742 90.388ZM4.986 85.132V87.742H6.48V85.132H4.986ZM3.384 99.82V101.044H14.256V99.82H3.384ZM3.384 96.382V100.342H4.878V96.382H3.384ZM23.482 90.064V91.252H34.534V90.064H23.482ZM23.482 85.744V90.55H24.958V85.744H23.482ZM21.484 93.16V94.384H36.19V93.16H21.484ZM28.216 93.952V97.732H29.692V93.952H28.216ZM23.356 99.82V101.044H34.624V99.82H23.356ZM23.356 96.292V100.396H24.832V96.292H23.356ZM44.6306 91.45V92.692H47.7086V91.45H44.6306ZM50.4266 85.132V101.404H51.8666V85.132H50.4266ZM47.2046 85.474V100.594H48.6266V85.474H47.2046ZM41.6966 86.482C39.5906 86.482 38.2406 88.66 38.2406 92.152C38.2406 95.644 39.5906 97.822 41.6966 97.822C43.8026 97.822 45.1706 95.644 45.1706 92.152C45.1706 88.66 43.8026 86.482 41.6966 86.482ZM41.6966 87.868C42.9926 87.868 43.8026 89.524 43.8026 92.152C43.8026 94.78 42.9926 96.436 41.6966 96.436C40.4186 96.436 39.6086 94.78 39.6086 92.152C39.6086 89.524 40.4186 87.868 41.6966 87.868ZM58.8246 86.878V88.102H67.8786V86.878H58.8246ZM58.5906 97.39C61.4526 97.39 65.3226 97.336 68.7246 96.778L68.6346 95.662C65.2866 96.076 61.3446 96.112 58.4106 96.112L58.5906 97.39ZM60.5706 87.796V96.454H62.0286V87.796H60.5706ZM64.6746 87.796V96.454H66.1326V87.796H64.6746ZM69.6246 85.132V101.404H71.1366V85.132H69.6246ZM70.7766 91.63V92.89H73.8006V91.63H70.7766ZM79.7212 86.086C77.2732 86.086 75.4732 87.67 75.4732 89.956C75.4732 92.224 77.2732 93.79 79.7212 93.79C82.1692 93.79 83.9692 92.224 83.9692 89.956C83.9692 87.67 82.1692 86.086 79.7212 86.086ZM79.7212 87.364C81.3412 87.364 82.5112 88.408 82.5112 89.956C82.5112 91.486 81.3412 92.548 79.7212 92.548C78.1012 92.548 76.9312 91.486 76.9312 89.956C76.9312 88.408 78.1012 87.364 79.7212 87.364ZM86.3092 85.132V94.708H87.8032V85.132H86.3092ZM87.3892 89.308V90.568H90.2152V89.308H87.3892ZM77.2372 95.554V96.76H86.3092V101.422H87.8032V95.554H77.2372ZM102.868 85.078V94.06H104.362V85.078H102.868ZM103.732 88.984V90.244H106.774V88.984H103.732ZM94.0298 94.888V96.022H102.904V97.444H94.0658V100.504H95.5418V98.524H104.362V94.888H94.0298ZM94.0658 100.072V101.224H104.956V100.072H94.0658ZM91.7798 86.59V87.76H101.392V86.59H91.7798ZM96.5858 88.48C94.2098 88.48 92.6798 89.506 92.6798 91.162C92.6798 92.8 94.2098 93.808 96.5858 93.808C98.9258 93.808 100.474 92.8 100.474 91.162C100.474 89.506 98.9258 88.48 96.5858 88.48ZM96.5858 89.578C98.0798 89.578 99.0518 90.19 99.0518 91.162C99.0518 92.116 98.0798 92.728 96.5858 92.728C95.0738 92.728 94.1018 92.116 94.1018 91.162C94.1018 90.19 95.0738 89.578 96.5858 89.578ZM95.8298 84.952V87.4H97.3238V84.952H95.8298ZM118.898 85.708V86.608C118.898 88.93 116.036 90.874 113.066 91.324L113.66 92.53C117.044 91.954 120.212 89.722 120.212 86.608V85.708H118.898ZM119.168 85.708V86.608C119.168 89.686 122.354 91.954 125.702 92.53L126.296 91.324C123.362 90.874 120.464 88.876 120.464 86.608V85.708H119.168ZM118.898 95.212V101.404H120.374V95.212H118.898ZM112.328 94.294V95.536H127.034V94.294H112.328ZM136.962 95.14V96.022C136.962 97.588 135.738 99.334 133.686 100.072L134.442 101.188C136.782 100.288 138.114 98.146 138.114 96.022V95.14H136.962ZM137.286 95.14V96.022C137.286 98.182 138.348 100.414 140.688 101.332L141.318 100.198C139.374 99.406 138.402 97.66 138.402 96.022V95.14H137.286ZM142.974 95.14V96.022C142.974 97.426 141.984 99.316 140.058 100.198L140.688 101.332C143.01 100.342 144.09 97.93 144.09 96.022V95.14H142.974ZM143.28 95.14V96.022C143.28 98.272 144.576 100.324 146.952 101.188L147.708 100.072C145.638 99.37 144.432 97.696 144.432 96.022V95.14H143.28ZM144.738 85.15V94.438H146.25V85.15H144.738ZM137.52 86.086C135.054 86.086 133.272 87.634 133.272 89.884C133.272 92.134 135.054 93.664 137.52 93.664C139.986 93.664 141.75 92.134 141.75 89.884C141.75 87.634 139.986 86.086 137.52 86.086ZM137.52 87.328C139.14 87.328 140.31 88.372 140.31 89.884C140.31 91.396 139.14 92.422 137.52 92.422C135.9 92.422 134.73 91.396 134.73 89.884C134.73 88.372 135.9 87.328 137.52 87.328ZM151.324 94.888V101.188H162.25V94.888H160.756V96.778H152.8V94.888H151.324ZM152.8 97.93H160.756V99.982H152.8V97.93ZM149.452 92.548V93.754H164.158V92.548H149.452ZM156.058 85.312V86.032C156.058 88.084 153.232 89.83 150.298 90.226L150.838 91.396C154.186 90.892 157.336 88.858 157.336 86.032V85.312H156.058ZM156.292 85.312V86.032C156.292 88.822 159.46 90.892 162.772 91.396L163.33 90.226C160.432 89.83 157.57 88.048 157.57 86.032V85.312H156.292ZM177.855 85.132V101.404H179.349V85.132H177.855ZM167.055 86.716V96.796H168.531V86.716H167.055ZM167.055 95.914V97.21H168.387C170.961 97.21 173.535 97.012 176.361 96.436L176.181 95.158C173.427 95.734 170.853 95.914 168.387 95.914H167.055ZM193.586 85.114V101.422H195.098V85.114H193.586ZM194.738 91.54V92.8H197.762V91.54H194.738ZM183.272 96.112V97.372H184.55C187.61 97.372 189.752 97.282 192.254 96.814L192.092 95.554C189.662 96.004 187.556 96.112 184.55 96.112H183.272ZM183.272 86.698V96.67H184.748V87.922H190.832V86.698H183.272ZM200.73 100.252C201.396 100.252 201.936 99.73 201.936 98.992C201.936 98.236 201.396 97.732 200.73 97.732C200.082 97.732 199.56 98.236 199.56 98.992C199.56 99.73 200.082 100.252 200.73 100.252Z" fill="#545454"/>
</svg>
